# File generated by ImageToStl.com - Free Image and 3D model conversion tools

mtllib potato_asset.mtl

o obj1
v 2.26549244 57.22467804 137.25305176
v -13.39458561 85.95219421 143.33984375
v -18.68744469 61.09353256 134.15597534
v 20.58044815 203.1410675 15.21507454
v 37.05585861 198.26101685 -5.47319508
v 14.67018127 205.54170227 -22.5467701
v -1.2141484 29.56698608 -108.26158142
v 25.47814178 52.93938446 -127.59178162
v 36.9409523 31.15864563 -99.29075623
v 2.7155149 203.22328186 -40.36929321
v 7.8810029 199.27604675 -60.18741989
v -8.15132618 199.84613037 -58.05198288
v 35.54162216 7.89990997 -40.48617554
v 57.24825287 10.35549164 -13.8972559
v 40.30047989 2.65666962 -15.46602249
v 99.03140259 120.61086273 40.35447311
v 90.17393494 140.21897888 43.54886246
v 84.41321564 127.8105545 73.37580109
v 61.99184036 63.68344116 104.33863831
v 50.1647644 64.08248901 117.27268219
v 58.2498436 47.28612518 91.43828583
v 54.14712524 124.75559998 116.28784943
v 39.18903351 121.41918945 129.46133423
v 41.6462822 100.49990082 132.77954102
v 27.78549576 82.64338684 138.80651855
v 2.15393543 105.61303711 145.43139648
v 6.26162195 86.59191132 144.20056152
v -24.62956619 -6.41893768 24.74625206
v -26.2741127 -1.09949493 48.22002029
v -45.94313049 2.97322845 29.02670288
v -82.50858307 43.51581573 -51.53622818
v -77.7804718 34.46936798 -44.4139061
v -85.0787735 30.06387329 -8.69869041
v -100.21124268 99.18888092 -36.3027916
v -76.60514832 121.41134644 -88.77606964
v -82.20284271 77.69706726 -82.63968658
v -69.00344849 89.71353149 -104.68522644
v -85.85382843 147.99034119 -38.9108429
v -68.24967957 152.93400574 -71.26441193
v -71.99201965 140.33312988 -81.68251038
v 27.48799706 186.92591858 -71.54837799
v 45.59484863 188.82052612 -38.71035767
v 43.0342598 171.16700745 -81.91473389
v 79.01357269 148.62123108 -56.88339233
v 91.29812622 135.54788208 -41.09512329
v 85.81489563 122.44145203 -68.9562149
v 0.37594542 207.12365723 -12.95455456
v 108.0057373 93.83089447 9.58227539
v 105.77227783 95.05783081 30.63347054
v 84.75959015 44.43787384 45.54500198
v 53.09693146 19.28877258 60.93270493
v 69.30327606 21.4005661 37.08298874
v 7.20279503 -6.37491608 37.58338928
v -16.95238686 -6.85395813 33.82540894
v -27.66167259 187.80751038 67.76274109
v -46.58092499 189.61329651 45.7278862
v -43.66682816 169.65113831 87.83994293
v 1.75024211 -7.08106995 -7.95457411
v -0.54865086 -7.79624939 19.02082825
v -57.24821091 10.35547638 -13.89723015
v -42.23636246 1.57401276 -5.36133099
v -57.01195145 39.22418594 -93.98832703
v -40.2844162 32.12216949 -98.67588043
v -54.75239182 21.47330475 -61.76471329
v -14.68045139 205.53507996 -22.57058716
v -56.78955841 147.29412842 -96.30882263
v -56.65942001 132.97125244 -109.54743195
v -68.24967957 152.93400574 -71.26441193
v -49.51354599 169.59913635 -74.05986023
v -38.54547119 164.46522522 -97.47800446
v -56.38638687 101.54589844 -120.54248047
v -62.18127441 70.81609344 -108.49782562
v -36.81768036 8.46859741 -40.6508255
v -14.34466648 6.28794861 -49.15361023
v -36.53477859 4.25736237 -28.56763649
v -77.7804718 34.46936798 -44.4139061
v -67.5437088 16.24756622 -20.40089035
v -84.7329483 83.2857132 78.78076172
v -86.24667358 107.01413727 82.07662964
v -100.0613327 72.91889191 45.07016754
v -61.2748909 92.39509583 115.39633179
v -65.71620941 143.88273621 93.94140625
v -70.03360748 112.5587616 102.70566559
v 23.52466202 108.67495728 140.87402344
v 57.59751892 153.51280212 93.75353241
v 43.32728195 169.78044128 88.05761719
v 31.7005043 151.63685608 115.59133911
v 52.47914886 188.89599609 36.44400024
v 36.59555054 195.39480591 40.98989487
v 35.85058594 187.99499512 61.1254158
v 53.09693146 19.28877258 60.93270493
v 35.64164352 10.83344269 67.60391998
v 38.4017067 3.13593292 46.80303192
v 86.23084259 151.93757629 31.14618874
v 75.50400543 151.552948 66.95511627
v 97.57447815 132.65258789 5.15687561
v 71.55368805 18.98288727 -18.95478058
v 84.71349335 29.14204407 -6.9130764
v 72.65818787 18.44086456 13.74977207
v 72.29666138 171.77226257 13.65234661
v 88.90019989 148.5332489 -4.87104511
v 69.73153687 169.71592712 -30.55469704
v 70.88392639 134.76599121 -88.92351532
v 61.10170364 166.24848938 -58.24030304
v 67.71317291 150.68644714 -76.32594299
v 71.12223816 78.8082962 -100.14736938
v 81.64535522 77.6627655 -83.5107193
v 74.4368515 52.44834518 -83.03369141
v -10.62162876 19.11188507 -84.53507996
v 13.77730083 23.02085114 -93.20113373
v -5.48027706 150.35388184 -123.8497467
v 18.53229904 151.19281006 -120.92989349
v 13.77788067 117.40825653 -141.88082886
v 31.78856277 121.17926025 -134.95727539
v 45.00112534 126.48980713 -124.04737091
v 36.91190338 103.45993042 -136.91305542
v 37.62808609 79.68960571 -134.70309448
v 56.41516495 101.54602814 -120.47983551
v 57.48252106 71.48272705 -113.55583191
v 82.14113617 43.29135132 -52.23602295
v 98.85909271 50.93742371 -11.79984665
v 84.71349335 29.14204407 -6.9130764
v 57.2515564 171.72709656 67.89801788
v 50.1647644 64.08248901 117.27268219
v 31.97825623 47.6048584 116.19396973
v 58.2498436 47.28612518 91.43828583
v 1.37251008 17.21269226 91.94965363
v -17.48259926 25.89139557 100.21009827
v -21.24726868 8.0222702 73.17290497
v -57.29254913 171.89285278 67.46385956
v -55.1609993 187.19226074 31.3453064
v -71.36062622 173.02967834 9.87672043
v -69.09571838 170.2399292 42.72419357
v -46.34420395 192.93826294 31.431633
v -59.16559219 183.86421204 -8.44072247
v -55.1609993 187.19226074 31.3453064
v -104.71652985 77.48828888 -13.16415405
v -97.61600494 62.95243073 -32.99682999
v -27.40538788 187.49391174 -70.75699615
v -7.11616659 176.97543335 -100.38304901
v -12.17334557 28.65309143 -105.57727051
v 17.20804214 192.03620911 64.13647461
v 4.96337366 199.70422363 44.69929504
v -1.97050285 194.63519287 62.79751587
v 95.46417999 106.40452576 61.5398674
v 80.64561462 107.07778931 90.73387909
v 12.5828352 169.67457581 106.31327057
v 5.27829218 151.02609253 126.35599518
v -88.79514313 73.94774628 -61.44291306
v -56.78955841 147.29412842 -96.30882263
v -38.54547119 164.46522522 -97.47800446
v -56.65942001 132.97125244 -109.54743195
v -12.09572887 88.70077515 -145.89007568
v -2.5018537 61.67975235 -140.04403687
v -34.50221252 79.13244629 -137.00485229
v -20.36129951 117.92763519 -140.35137939
v -45.23824692 188.58309937 -39.98965073
v -24.32520676 199.55899048 -45.58669281
v -66.18103027 50.501091 -94.02453613
v -37.01525879 198.17605591 -7.96189499
v -12.71211338 -2.60767365 -25.24690628
v -1.79353237 204.75675964 10.65166092
v -72.41755676 18.05760193 4.71920872
v -92.98168945 47.38063431 28.24635696
v -79.84375 42.32603455 51.95251465
v -83.65335846 149.66700745 48.9526825
v -98.55253601 128.9848938 25.62885284
v -95.13539124 121.16017151 53.31835556
v -74.61097717 145.48283386 77.44374084
v -57.29254913 171.89285278 67.46385956
v -65.71620941 143.88273621 93.94140625
v -45.7530365 154.82785034 103.22464752
v -41.64630508 100.49989319 132.7795105
v -46.12821579 121.93119049 124.58315277
v -61.2748909 92.39509583 115.39633179
v -42.2119751 11.93489838 63.1051445
v -0.18477601 3.12577057 66.55578613
v 5.27829218 151.02609253 126.35599518
v -14.92486191 168.21136475 107.19793701
v -9.74373627 148.73620605 126.81131744
v -0.91576552 172.46717834 104.05944824
v -14.92486191 168.21136475 107.19793701
v 57.59751892 153.51280212 93.75353241
v 31.7005043 151.63685608 115.59133911
v 33.78781509 136.43618774 125.60083771
v 46.49225998 3.43434906 28.77183533
v 21.13728714 -6.74263763 31.11179161
v 25.63319778 -5.94364166 20.44389343
v 65.32740784 141.6776123 95.77039337
v 93.15785217 47.53207779 27.73344421
v 101.8490448 75.92023468 41.99287796
v 87.33635712 35.0670929 19.0543499
v 72.65818787 18.44086456 13.74977207
v 100.18647766 99.03430176 -36.48519897
v 88.79782104 73.0231781 -60.7997551
v 70.4824295 110.37106323 -101.28753662
v 56.41516495 101.54602814 -120.47983551
v 39.77880859 161.82461548 -99.71173096
v 67.71317291 150.68644714 -76.32594299
v 57.49807358 134.02606201 -108.04827118
v 42.96825409 56.50019073 -120.18371582
v 23.67943573 76.60633087 -140.73071289
v 13.60860729 -1.98365021 -26.98461914
v -7.11616659 176.97543335 -100.38304901
v 9.3979702 176.62464905 -99.86760712
v -0.00093354 175.44914246 -102.56118011
v 8.13182163 86.72058868 -146.35614014
v 9.3979702 176.62464905 -99.86760712
v 25.47814178 52.93938446 -127.59178162
v 24.33758736 199.5847168 -45.52342606
v 42.96825409 56.50019073 -120.18371582
v 57.48252106 71.48272705 -113.55583191
v 55.34440231 37.89486694 -94.60503387
v 78.21351624 34.57518005 -43.46105576
v 86.71997833 147.54856873 -33.81466675
v 59.27487183 183.92260742 -5.10553503
v 85.07846069 86.76703644 79.79814911
v 68.4198761 171.12510681 42.37307358
v 52.47914886 188.89599609 36.44400024
v 57.2515564 171.72709656 67.89801788
v 69.30327606 21.4005661 37.08298874
v 88.84161377 67.62384796 62.9383049
v 54.14712524 124.75559998 116.28784943
v 65.32740784 141.6776123 95.77039337
v 59.63964462 93.83763885 117.10973358
v 6.24656105 131.98278809 138.05987549
v 0.95944989 29.66536713 112.92462921
v -15.96179199 103.06607056 143.86990356
v -10.61492825 132.17341614 136.93798828
v -30.23788261 117.21167755 135.63433838
v -35.17219543 142.1047821 120.96421814
v -12.56216621 35.18554687 116.2051239
v -51.87664795 48.76337433 100.79206848
v -43.33024216 34.70963287 91.20822144
v -30.3763752 81.99466705 137.28570557
v -45.48187256 64.86574554 121.30474091
v -57.86424255 65.07145691 109.75964355
v -51.87664795 48.76337433 100.79206848
v -17.9725666 203.46322632 18.5376339
v -28.85806656 197.22535706 40.4706192
v -58.67235565 22.15795898 56.70042419
v -70.67925262 20.89640808 33.10284805
v -94.2488327 109.56105804 63.64574432
v -103.83745575 97.53408051 38.11203003
v -87.78270721 151.06161499 20.74941635
v -106.99880981 87.0173111 18.15710449
v -101.97359467 63.53329849 14.24693012
v -70.67925262 20.89640808 33.10284805
v -85.77836609 31.89278412 15.30472183
v -107.58840942 96.159935 5.8693347
v -99.29415131 51.82191467 -12.18135738
v -85.77836609 31.89278412 15.30472183
v -59.16559219 183.86421204 -8.44072247
v -69.93004608 168.98426819 -31.77185631
v -90.59708405 138.26705933 -39.56051254
v -77.7808075 52.2852478 -75.3028183
v -57.01195145 39.22418594 -93.98832703
v -66.18103027 50.501091 -94.02453613
v -35.8960762 57.16155624 -125.66693878
v -57.01195145 39.22418594 -93.98832703
v -26.32542038 149.28561401 -119.12890625
v -42.20079041 124.19285583 -127.50724792
v -56.38638687 101.54589844 -120.54248047
v -62.18127441 70.81609344 -108.49782562
v 10.71163082 5.29329681 -47.69271469
v -39.47665024 103.60806274 -135.2612915
v -24.54081345 52.66404724 -127.76182556
v -5.32948685 121.43454742 -140.57086182
v -57.86424255 65.07145691 109.75964355
v -68.54993439 63.93003082 94.78251648
v -51.87664795 48.76337433 100.79206848
v 11.68859386 35.11107635 116.15254211
v 0.95944989 29.66536713 112.92462921
v 19.48252487 -0.19010925 53.76850891
v 102.6828537 63.60955811 8.27097511
v 41.74682236 13.20034027 -60.07797623
v 78.21351624 34.57518005 -43.46105576
v 61.10170364 166.24848938 -58.24030304
v 69.73153687 169.71592712 -30.55469704
v -65.71620941 143.88273621 93.94140625
v -69.93004608 168.98426819 -31.77185631
v -24.54081345 52.66404724 -127.76182556
v -41.04616547 13.0941391 -60.22018051
v -85.0787735 30.06387329 -8.69869041
v -58.67235565 22.15795898 56.70042419
v 11.68859386 35.11107635 116.15254211
v 18.65531349 8.01072693 74.61636353
v 37.04183197 31.40765381 93.26698303
v 104.62992096 103.19786072 -18.32992172
v 104.33432007 76.33533478 -14.70405102
v 59.27487183 183.92260742 -5.10553503
v 96.58443451 62.42387009 -35.53839111
v 39.77880859 161.82461548 -99.71173096
v 50.1647644 64.08248901 117.27268219
v -12.56216621 35.18554687 116.2051239
v -45.7530365 154.82785034 103.22464752
v -18.84257126 195.87863159 54.18273926
v -86.8322525 122.84299469 -66.21494293
v -104.47972107 103.47213745 -19.17635345
v 59.63964462 93.83763885 117.10973358
v -2.5018537 61.67975235 -140.04403687
v 55.16654968 21.61023712 -61.34654236
v -96.88278961 133.41505432 -1.69180417
v 57.59751892 153.51280212 93.75353241
v 55.34440231 37.89486694 -94.60503387
v 34.71517944 61.9587059 126.7146759
v 31.97825623 47.6048584 116.19396973
v 39.77880859 161.82461548 -99.71173096
v 55.34440231 37.89486694 -94.60503387
v 45.00112534 126.48980713 -124.04737091
v 45.69258881 2.24669647 4.49752378
v -70.03360748 112.5587616 102.70566559
v -56.78955841 147.29412842 -96.30882263
vn 0.0557 -0.47624 0.87755
vn -0.17281 -0.18805 0.96684
vn -0.3138 -0.43414 0.84443
vn 0.17471 0.98021 0.0931
vn 0.42822 0.90328 -0.02653
vn 0.17582 0.98027 -0.09029
vn 0.05144 -0.8159 -0.5759
vn 0.29765 -0.60898 -0.73522
vn 0.30426 -0.79845 -0.51953
vn 0.00928 0.98652 -0.16335
vn 0.11875 0.93039 -0.34679
vn -0.13026 0.93966 -0.31635
vn 0.27138 -0.93028 -0.24683
vn 0.45908 -0.88111 -0.11353
vn 0.32993 -0.92726 -0.17704
vn 0.94027 0.27955 0.19429
vn 0.87949 0.42213 0.21978
vn 0.85816 0.32577 0.39678
vn 0.7475 -0.38264 0.54299
vn 0.59249 -0.39147 0.70407
vn 0.60295 -0.60583 0.51907
vn 0.66108 0.26405 0.70232
vn 0.47259 0.29952 0.82882
vn 0.57432 0.0231 0.81831
vn 0.36679 -0.1732 0.91404
vn 0.0634 0.10838 0.99209
vn 0.05697 -0.1226 0.99082
vn -0.22675 -0.97385 0.01387
vn -0.23628 -0.92556 0.29581
vn -0.47555 -0.87227 0.11402
vn -0.81562 -0.48952 -0.30842
vn -0.6872 -0.66763 -0.2864
vn -0.75196 -0.64853 -0.11814
vn -0.94717 -0.01628 -0.32031
vn -0.8529 0.16537 -0.49519
vn -0.87955 -0.13887 -0.45509
vn -0.80957 -0.04152 -0.58555
vn -0.82048 0.54123 -0.18407
vn -0.68788 0.61944 -0.3783
vn -0.78657 0.45086 -0.42193
vn 0.41333 0.80583 -0.42402
vn 0.57543 0.78189 -0.23986
vn 0.58078 0.71343 -0.39206
vn 0.78376 0.53051 -0.32293
vn 0.915 0.33149 -0.22998
vn 0.8933 0.22002 -0.39194
vn 0.00656 0.99992 -0.01044
vn 0.99917 0.03361 0.02289
vn 0.9783 0.05909 0.19858
vn 0.76253 -0.52723 0.37494
vn 0.58739 -0.68808 0.42606
vn 0.63949 -0.71962 0.27054
vn 0.01374 -0.97177 0.23554
vn -0.09305 -0.98324 0.15676
vn -0.24387 0.86371 0.44106
vn -0.43406 0.84732 0.30601
vn -0.46351 0.73536 0.49437
vn 0.02191 -0.99478 -0.09967
vn -0.00906 -0.99978 0.01866
vn -0.45106 -0.88274 -0.13156
vn -0.35938 -0.92714 -0.10615
vn -0.5892 -0.64592 -0.48542
vn -0.33431 -0.79808 -0.50131
vn -0.53267 -0.7752 -0.3396
vn -0.15756 0.98558 -0.06172
vn -0.65375 0.5643 -0.50416
vn -0.65602 0.42746 -0.62203
vn -0.60932 0.7047 -0.36349
vn -0.51573 0.66328 -0.5423
vn -0.72455 0.05323 -0.68717
vn -0.71884 -0.23078 -0.65575
vn -0.30953 -0.92142 -0.23492
vn -0.12123 -0.94162 -0.3141
vn -0.30963 -0.91385 -0.26269
vn -0.52783 -0.83012 -0.17972
vn -0.8387 -0.18971 0.51048
vn -0.87166 0.09676 0.48047
vn -0.90828 -0.25941 0.32823
vn -0.74459 -0.08309 0.66232
vn -0.68125 0.46105 0.56862
vn -0.75193 0.18204 0.63361
vn 0.32661 0.15136 0.93296
vn 0.59751 0.58025 0.55344
vn 0.40911 0.75218 0.51658
vn 0.39195 0.61601 0.68331
vn 0.57119 0.80378 0.16638
vn 0.29564 0.93144 0.21216
vn 0.38473 0.83817 0.3866
vn 0.40102 -0.79399 0.45691
vn 0.43064 -0.85553 0.28743
vn 0.83119 0.54253 0.12164
vn 0.77089 0.53526 0.34528
vn 0.92763 0.37344 -0.00724
vn 0.5794 -0.79635 -0.17354
vn 0.76082 -0.64126 -0.09965
vn 0.61306 -0.7876 0.06199
vn 0.75116 0.65987 0.01798
vn 0.83428 0.5497 -0.04264
vn 0.72488 0.66715 -0.17164
vn 0.79382 0.38463 -0.47106
vn 0.65564 0.68501 -0.31765
vn 0.68184 0.59565 -0.4246
vn 0.79557 -0.13579 -0.59045
vn 0.8981 -0.08823 -0.43084
vn 0.79014 -0.36498 -0.49241
vn -0.07094 -0.91944 -0.38677
vn 0.09542 -0.90437 -0.41595
vn -0.06194 0.57244 -0.8176
vn 0.24268 0.58758 -0.77191
vn 0.10763 0.28696 -0.95188
vn 0.38228 0.37305 -0.8454
vn 0.55667 0.38809 -0.73451
vn 0.46066 0.08367 -0.88362
vn 0.57409 -0.19673 -0.79481
vn 0.71949 0.0458 -0.69299
vn 0.70225 -0.25123 -0.66613
vn 0.8099 -0.49762 -0.31053
vn 0.90623 -0.41549 -0.07825
vn 0.60681 0.70235 0.37214
vn 0.46796 -0.62752 0.62228
vn 0.00967 -0.85403 0.52013
vn -0.29893 -0.78222 0.5466
vn -0.20851 -0.85571 0.47358
vn -0.65116 0.6711 0.35442
vn -0.6356 0.75996 0.1359
vn -0.75272 0.65833 -0.00266
vn -0.73799 0.64839 0.18698
vn -0.43568 0.89567 0.08927
vn -0.61552 0.78518 -0.06808
vn -0.98246 -0.11593 -0.14605
vn -0.92841 -0.22426 -0.29625
vn -0.42179 0.80725 -0.41284
vn -0.15078 0.79435 -0.58845
vn -0.14194 -0.8013 -0.58118
vn 0.17928 0.89552 0.40731
vn 0.04719 0.97488 0.2177
vn -0.03171 0.92052 0.3894
vn 0.9224 0.08435 0.3769
vn 0.82555 0.11889 0.55166
vn 0.21356 0.77007 0.60115
vn 0.10169 0.63679 0.76431
vn -0.91982 -0.21156 -0.33042
vn -0.17518 -0.0192 -0.98435
vn -0.07545 -0.48513 -0.87118
vn -0.49664 -0.21798 -0.84014
vn -0.2221 0.31601 -0.92239
vn -0.56949 0.7878 -0.23464
vn -0.37116 0.90083 -0.22526
vn -0.72469 -0.39576 -0.56409
vn -0.43009 0.90157 -0.04685
vn -0.12542 -0.96222 -0.24168
vn -0.02573 0.9942 0.10447
vn -0.59705 -0.80187 0.02314
vn -0.861 -0.46752 0.20026
vn -0.74064 -0.55222 0.38275
vn -0.82029 0.51521 0.24835
vn -0.94034 0.32811 0.09002
vn -0.90124 0.30357 0.30921
vn -0.79979 0.44915 0.39825
vn -0.4798 0.61198 0.62871
vn -0.54772 0.01317 0.83656
vn -0.61406 0.26776 0.74245
vn -0.48789 -0.76148 0.42675
vn -0.00915 -0.92134 0.38864
vn -0.24163 0.73169 0.63737
vn -0.16847 0.58209 0.79548
vn -0.0222 0.8318 0.55464
vn 0.45523 0.4701 0.75615
vn 0.48384 -0.8694 0.10022
vn 0.18784 -0.97473 0.12088
vn 0.27009 -0.96162 -0.04831
vn 0.71383 0.40989 0.56784
vn 0.87329 -0.44946 0.18802
vn 0.93011 -0.23251 0.28433
vn 0.78896 -0.59326 0.15998
vn 0.95305 0.01006 -0.30266
vn 0.9146 -0.21684 -0.3413
vn 0.826 0.13106 -0.54822
vn 0.49188 0.65013 -0.57912
vn 0.69396 0.3992 -0.59921
vn 0.55284 -0.42938 -0.71414
vn 0.33757 -0.2851 -0.89709
vn 0.15201 -0.95765 -0.24452
vn 0.19719 0.79383 -0.57528
vn 0.03697 0.7146 -0.69855
vn 0.13966 -0.06451 -0.9881
vn 0.37184 0.90063 -0.22494
vn 0.57284 -0.65397 -0.49414
vn 0.6927 -0.66275 -0.28447
vn 0.84464 0.51392 -0.14991
vn 0.63013 0.77385 -0.06395
vn 0.85121 -0.16024 0.49976
vn 0.73177 0.64855 0.20951
vn 0.82577 -0.35039 0.44197
vn 0.73572 -0.07471 0.67315
vn 0.14175 0.40655 0.90256
vn -0.01632 -0.78305 0.62175
vn -0.23616 0.06256 0.9697
vn -0.20078 0.38006 0.90291
vn -0.40511 0.2835 0.8692
vn -0.43034 0.50323 0.74938
vn -0.33239 -0.67681 0.65685
vn -0.58199 -0.61046 0.53724
vn -0.46257 -0.69315 0.55279
vn -0.41317 -0.18981 0.89065
vn -0.55305 -0.39714 0.7324
vn -0.68689 -0.38793 0.61457
vn -0.17446 0.97793 0.11498
vn -0.26969 0.93955 0.21096
vn -0.63351 -0.65215 0.41637
vn -0.6421 -0.72326 0.25417
vn -0.92206 0.13108 0.36417
vn -0.96878 0.06968 0.23795
vn -0.83948 0.54091 0.05185
vn -0.98952 -0.12855 0.06582
vn -0.94668 -0.30727 0.09688
vn -0.77703 -0.61376 0.13975
vn -0.99598 0.08951 0.00278
vn -0.91975 -0.3869 -0.06613
vn -0.70177 0.68059 -0.2105
vn -0.90046 0.36498 -0.23655
vn -0.83082 -0.4091 -0.37732
vn -0.48622 -0.45141 -0.74821
vn -0.35267 0.57498 -0.73825
vn -0.53791 0.35033 -0.76676
vn 0.06338 -0.9419 -0.32985
vn -0.49514 0.09377 -0.86374
vn -0.30393 -0.63063 -0.7141
vn -0.04244 0.37999 -0.92402
vn -0.7711 -0.38039 0.5106
vn 0.30101 -0.71705 0.62868
vn 0.18328 -0.92495 0.33299
vn 0.96103 -0.27134 0.05291
vn 0.31419 -0.90281 -0.29364
vn -0.28814 -0.90821 -0.30352
vn 0.17684 -0.86451 0.47048
vn 0.4844 -0.68076 0.54947
vn 0.97755 0.14073 -0.1568
vn 0.97907 -0.13231 -0.15465
vn 0.92452 -0.23187 -0.30248
vn -0.17354 0.94108 0.29026
vn -0.90818 0.23431 -0.34686
vn -0.97285 0.17162 -0.15529
vn 0.53053 -0.77678 -0.33933
vn -0.91756 0.39404 -0.0531
vn 0.41305 -0.49157 0.76665
vn 0.43415 -0.89966 -0.04606
vt 0.22695 0.35347
vt 0.19617 0.297
vt 0.18576 0.34586
vt 0.23223 0.49585
vt 0.19156 0.46346
vt 0.158 0.50746
vt 0.44832 0.8261
vt 0.48632 0.87856
vt 0.43069 0.9011
vt 0.12297 0.53096
vt 0.08401 0.52081
vt 0.08821 0.55232
vt 0.3151 0.89835
vt 0.26283 0.94101
vt 0.26592 0.9077
vt 0.62592 0.32779
vt 0.66446 0.32151
vt 0.64007 0.26288
vt 0.51402 0.20202
vt 0.5148 0.1766
vt 0.48179 0.22738
vt 0.32893 0.22073
vt 0.29953 0.22728
vt 0.30436 0.2684
vt 0.27711 0.3035
vt 0.22673 0.25835
vt 0.2348 0.29574
vt 0.18687 0.78007
vt 0.14073 0.77684
vt 0.17846 0.73817
vt 0.9261 0.66687
vt 0.94388 0.68087
vt 0.95254 0.75107
vt 0.81667 0.69681
vt 0.77298 0.59367
vt 0.85891 0.60573
vt 0.83529 0.5624
vt 0.72074 0.69169
vt 0.71102 0.62809
vt 0.73579 0.60761
vt 0.06168 0.48227
vt 0.12623 0.44668
vt 0.0413 0.45171
vt 0.68097 0.51893
vt 0.65528 0.48789
vt 0.62951 0.54266
vt 0.17685 0.53556
vt 0.57328 0.38828
vt 0.57569 0.3469
vt 0.47619 0.31759
vt 0.42675 0.28734
vt 0.4309 0.33422
vt 0.16164 0.84264
vt 0.16903 0.79516
vt 0.33552 0.59067
vt 0.2922 0.62786
vt 0.37498 0.62213
vt 0.25115 0.83192
vt 0.19813 0.8274
vt 0.26283 0.71595
vt 0.24606 0.74546
vt 0.42027 0.71642
vt 0.42948 0.7493
vt 0.35692 0.72086
vt 0.15795 0.56516
vt 0.72211 0.57886
vt 0.75026 0.55284
vt 0.06224 0.67046
vt 0.05674 0.63363
vt 0.01071 0.61207
vt 0.81203 0.53123
vt 0.87244 0.5549
vt 0.31542 0.75611
vt 0.33214 0.80029
vt 0.29167 0.75667
vt 0.32282 0.67559
vt 0.27562 0.69572
vt 0.84793 0.92303
vt 0.80128 0.92951
vt 0.8683 0.85676
vt 0.83002 0.995
vt 0.72881 0.95283
vt 0.79039 0.97005
vt 0.26874 0.25234
vt 0.3866 0.42308
vt 0.37541 0.45113
vt 0.42953 0.47399
vt 0.27395 0.43314
vt 0.28289 0.46437
vt 0.32247 0.46583
vt 0.11574 0.93285
vt 0.10263 0.89854
vt 0.14352 0.90397
vt 0.68749 0.34589
vt 0.68674 0.2755
vt 0.64959 0.39698
vt 0.27278 0.96913
vt 0.24911 0.995
vt 0.20849 0.9713
vt 0.72648 0.38028
vt 0.6808 0.41669
vt 0.72244 0.46717
vt 0.65374 0.58191
vt 0.08784 0.4162
vt 0.05229 0.4032
vt 0.54375 0.60397
vt 0.54149 0.57127
vt 0.49193 0.57033
vt 0.40168 0.8076
vt 0.41872 0.85556
vt 0.86059 0.22605
vt 0.81339 0.2277
vt 0.82273 0.1613
vt 0.78733 0.16871
vt 0.76136 0.17915
vt 0.77726 0.13388
vt 0.77585 0.08715
vt 0.73892 0.13012
vt 0.73682 0.07102
vt 0.47393 0.50979
vt 0.48896 0.43031
vt 0.44612 0.4207
vt 0.33578 0.42376
vt 0.005 0.92709
vt 0.00712 0.89134
vt 0.05578 0.94298
vt 0.05478 0.83118
vt 0.03854 0.79412
vt 0.09168 0.78672
vt 0.33493 0.64892
vt 0.64368 0.82979
vt 0.67152 0.78759
vt 0.677 0.85215
vt 0.2641 0.6274
vt 0.18573 0.6526
vt 0.26393 0.64473
vt 0.85932 0.7423
vt 0.88789 0.70331
vt 0.06323 0.59017
vt 0.005 0.55029
vt 0.44304 0.80455
vt 0.32839 0.50248
vt 0.29018 0.52654
vt 0.32576 0.54017
vt 0.59799 0.28615
vt 0.59931 0.22876
vt 0.41129 0.51157
vt 0.45069 0.52592
vt 0.86628 0.6474
vt 0.96144 0.22004
vt 0.92558 0.25379
vt 0.96119 0.19189
vt 0.87359 0.10487
vt 0.85473 0.05175
vt 0.91763 0.08606
vt 0.88984 0.16232
vt 0.12371 0.62522
vt 0.11271 0.58412
vt 0.91237 0.58335
vt 0.18667 0.60906
vt 0.28514 0.8035
vt 0.22326 0.53983
vt 0.22624 0.68614
vt 0.9185 0.82369
vt 0.92844 0.87029
vt 0.71744 0.8644
vt 0.7581 0.81855
vt 0.77348 0.87298
vt 0.72567 0.9204
vt 0.67376 0.90078
vt 0.38697 0.66548
vt 0.40522 0.62623
vt 0.14063 0.2684
vt 0.13182 0.22628
vt 0.10205 0.28434
vt 0.11147 0.74551
vt 0.10469 0.82812
vt 0.23287 0.16909
vt 0.19316 0.13531
vt 0.20334 0.17359
vt 0.40686 0.5381
vt 0.41303 0.56564
vt 0.33571 0.1642
vt 0.28481 0.16789
vt 0.28891 0.19777
vt 0.17896 0.91987
vt 0.17436 0.87003
vt 0.19533 0.87887
vt 0.66733 0.21886
vt 0.48227 0.3526
vt 0.53807 0.32457
vt 0.45777 0.36966
vt 0.42509 0.38009
vt 0.5835 0.47883
vt 0.53238 0.52663
vt 0.60579 0.60621
vt 0.58844 0.64394
vt 0.70693 0.60311
vt 0.68503 0.55714
vt 0.65229 0.6195
vt 0.76535 0.04157
vt 0.80327 0.08109
vt 0.28856 0.85523
vt 0.8638 0.27838
vt 0.83134 0.27769
vt 0.84982 0.27538
vt 0.83383 0.10097
vt 0.00601 0.51783
vt 0.79973 0.03457
vt 0.11283 0.48846
vt 0.4999 0.64335
vt 0.52935 0.63033
vt 0.46333 0.59307
vt 0.32095 0.98222
vt 0.67887 0.47358
vt 0.19228 0.41979
vt 0.55939 0.25026
vt 0.72521 0.32382
vt 0.76014 0.33548
vt 0.72639 0.27365
vt 0.16262 0.96471
vt 0.52176 0.2834
vt 0.63406 0.17853
vt 0.35091 0.18746
vt 0.33973 0.2815
vt 0.23478 0.20652
vt 0.01355 0.83037
vt 0.19112 0.26336
vt 0.20163 0.20615
vt 0.16306 0.23556
vt 0.15336 0.18662
vt 0.0071 0.80379
vt 0.0374 0.72651
vt 0.05623 0.74331
vt 0.16279 0.30478
vt 0.1331 0.33845
vt 0.10876 0.33804
vt 0.12053 0.3701
vt 0.23876 0.57163
vt 0.28187 0.59303
vt 0.96808 0.87962
vt 0.97056 0.83324
vt 0.79628 0.89328
vt 0.81992 0.84309
vt 0.7147 0.80896
vt 0.84059 0.80386
vt 0.88675 0.79618
vt 0.17045 0.68955
vt 0.20543 0.65987
vt 0.82262 0.77971
vt 0.90977 0.74423
vt 0.94895 0.79825
vt 0.65022 0.75158
vt 0.67947 0.70572
vt 0.73985 0.69041
vt 0.90886 0.62015
vt 0.93454 0.58342
vt 0.9799 0.02978
vt 0.92037 0.04287
vt 0.96188 0.00761
vt 0.90156 0.22396
vt 0.93277 0.17463
vt 0.96065 0.13012
vt 0.97204 0.06971
vt 0.32926 0.84954
vt 0.92741 0.13417
vt 0.89805 0.03403
vt 0.86029 0.16921
vt 0.88373 0.98392
vt 0.88597 0.95448
vt 0.91578 0.96629
vt 0.24547 0.39694
vt 0.22438 0.40764
vt 0.12983 0.86678
vt 0.51387 0.39086
vt 0.35361 0.91054
vt 0.4568 0.49254
vt 0.71562 0.52159
vt 0.14226 0.39923
vt 0.09332 0.18313
vt 0.13987 0.67376
vt 0.48665 0.78024
vt 0.35389 0.7478
vt 0.25262 0.66125
vt 0.12406 0.71315
vt 0.0072 0.85146
vt 0.08885 0.86515
vt 0.05219 0.90129
vt 0.59169 0.44314
vt 0.53889 0.43602
vt 0.75036 0.41715
vt 0.51154 0.47697
vt 0.00632 0.45811
vt 0.3211 0.33999
vt 0.1978 0.39679
vt 0.13256 0.16162
vt 0.30882 0.57334
vt 0.77017 0.63802
vt 0.80825 0.73048
vt 0.57329 0.17692
vt 0.51079 0.82357
vt 0.3561 0.93692
vt 0.74939 0.76485
vt 0.69059 0.22283
vt 0.42148 0.93727
vt 0.29073 0.34416
vt 0.28535 0.37238
vt 0.77162 0.2486
vt 0.74103 0.005
vt 0.63747 0.65095
vt 0.22668 0.9183
vt 0.08484 0.2447
vt 0.01301 0.64793
usemtl mat0
f 1/1/1 2/2/2 3/3/3
f 4/4/4 5/5/5 6/6/6
f 7/7/7 8/8/8 9/9/9
f 10/10/10 11/11/11 12/12/12
f 13/13/13 14/14/14 15/15/15
f 16/16/16 17/17/17 18/18/18
f 19/19/19 20/20/20 21/21/21
f 22/22/22 23/23/23 24/24/24
f 25/25/25 26/26/26 27/27/27
f 28/28/28 29/29/29 30/30/30
f 31/31/31 32/32/32 33/33/33
f 34/34/34 35/35/35 36/36/36
f 35/35/35 37/37/37 36/36/36
f 38/38/38 39/39/39 40/40/40
f 41/41/41 42/42/42 43/43/43
f 44/44/44 45/45/45 46/46/46
f 6/6/6 47/47/47 4/4/4
f 48/48/48 16/16/16 49/49/49
f 50/50/50 51/51/51 52/52/52
f 53/53/53 29/29/29 54/54/54
f 55/55/55 56/56/56 57/57/57
f 58/58/58 59/59/59 28/28/28
f 60/60/60 61/61/61 30/30/30
f 62/62/62 63/63/63 64/64/64
f 10/10/10 65/65/65 47/47/47
f 40/40/40 66/66/66 67/67/67
f 68/68/39 69/69/68 70/70/69
f 37/37/37 71/71/70 72/72/71
f 73/73/72 74/74/73 75/75/74
f 76/76/32 64/64/64 77/77/75
f 77/77/75 73/73/72 60/60/60
f 78/78/76 79/79/77 80/80/78
f 81/81/79 79/79/77 78/78/76
f 82/82/80 79/79/77 83/83/81
f 23/23/23 84/84/82 24/24/24
f 85/85/83 86/86/84 87/87/85
f 88/88/86 89/89/87 90/90/88
f 91/91/51 92/92/89 93/93/90
f 17/17/17 94/94/91 95/95/92
f 96/96/93 94/94/91 17/17/17
f 97/97/94 98/98/95 99/99/96
f 100/100/97 101/101/98 102/102/99
f 44/44/44 46/46/46 103/103/100
f 43/43/43 104/104/101 105/105/102
f 106/106/103 107/107/104 108/108/105
f 109/109/106 7/7/7 110/110/107
f 111/111/108 112/112/109 113/113/110
f 114/114/111 115/115/112 116/116/113
f 117/117/114 118/118/115 119/119/116
f 120/120/117 121/121/118 122/122/95
f 123/123/119 86/86/84 85/85/83
f 124/124/20 125/125/120 126/126/21
f 127/127/121 128/128/122 129/129/123
f 56/56/56 130/130/124 57/57/57
f 131/131/125 132/132/126 133/133/127
f 134/134/128 135/135/129 136/136/125
f 137/137/130 34/34/34 138/138/131
f 70/70/69 139/139/132 140/140/133
f 141/141/134 109/109/106 63/63/63
f 142/142/135 143/143/136 144/144/137
f 89/89/87 143/143/136 142/142/135
f 145/145/138 18/18/18 146/146/139
f 87/87/85 147/147/140 148/148/141
f 149/149/142 31/31/31 138/138/131
f 37/37/37 72/72/71 36/36/36
f 150/150/66 151/151/69 152/152/67
f 7/7/7 109/109/106 141/141/134
f 153/153/143 154/154/144 155/155/145
f 156/156/146 113/113/110 153/153/143
f 157/157/147 158/158/148 139/139/132
f 36/36/36 72/72/71 159/159/149
f 160/160/150 65/65/65 158/158/148
f 161/161/151 58/58/58 28/28/28
f 47/47/47 65/65/65 162/162/152
f 60/60/60 73/73/72 75/75/74
f 77/77/75 60/60/60 163/163/153
f 80/80/78 164/164/154 165/165/155
f 166/166/156 167/167/157 168/168/158
f 169/169/159 168/168/158 79/79/77
f 131/131/125 133/133/127 170/170/124
f 57/57/57 171/171/80 172/172/160
f 173/173/161 174/174/162 175/175/79
f 128/128/122 176/176/163 129/129/123
f 177/177/164 29/29/29 53/53/53
f 178/178/141 179/179/165 180/180/166
f 181/181/167 182/182/165 148/148/141
f 142/142/135 144/144/137 181/181/167
f 143/143/136 4/4/4 162/162/152
f 183/183/83 184/184/85 185/185/168
f 186/186/169 187/187/170 188/188/171
f 18/18/18 189/189/172 146/146/139
f 18/18/18 95/95/92 189/189/172
f 190/190/173 191/191/174 50/50/50
f 122/122/95 192/192/175 193/193/96
f 121/121/118 190/190/173 192/192/175
f 107/107/104 194/194/176 195/195/177
f 196/196/178 107/107/104 106/106/103
f 196/196/178 106/106/103 197/197/115
f 198/198/179 199/199/102 200/200/180
f 117/117/114 201/201/181 202/202/182
f 58/58/58 161/161/151 203/203/183
f 10/10/10 47/47/47 6/6/6
f 113/113/110 112/112/109 114/114/111
f 204/204/133 205/205/184 206/206/185
f 113/113/110 207/207/186 153/153/143
f 154/154/144 207/207/186 202/202/182
f 11/11/11 208/208/184 140/140/133
f 209/209/8 202/202/182 201/201/181
f 11/11/11 41/41/41 208/208/184
f 210/210/187 42/42/42 41/41/41
f 211/211/181 212/212/116 108/108/105
f 103/103/100 196/196/178 200/200/180
f 103/103/100 46/46/46 196/196/178
f 213/213/188 108/108/105 120/120/117
f 4/4/4 47/47/47 162/162/152
f 6/6/6 5/5/5 210/210/187
f 46/46/46 45/45/45 194/194/176
f 97/97/94 214/214/189 98/98/95
f 102/102/99 101/101/98 215/215/190
f 14/14/14 97/97/94 99/99/96
f 216/216/191 5/5/5 88/88/86
f 145/145/138 217/217/192 191/191/174
f 5/5/5 4/4/4 89/89/87
f 218/218/193 219/219/86 220/220/119
f 221/221/52 93/93/90 186/186/169
f 17/17/17 95/95/92 18/18/18
f 222/222/194 19/19/19 50/50/50
f 146/146/139 189/189/172 223/223/22
f 224/224/172 183/183/83 185/185/168
f 224/224/172 185/185/168 22/22/22
f 22/22/22 24/24/24 225/225/195
f 226/226/196 26/26/26 84/84/82
f 84/84/82 26/26/26 25/25/25
f 142/142/135 181/181/167 147/147/140
f 127/127/121 227/227/197 128/128/122
f 178/178/141 180/180/166 226/226/196
f 228/228/198 2/2/2 27/27/27
f 229/229/199 230/230/200 228/228/198
f 179/179/165 231/231/201 180/180/166
f 232/232/202 233/233/203 234/234/204
f 55/55/55 57/57/57 182/182/165
f 235/235/205 173/173/161 236/236/206
f 236/236/206 237/237/207 238/238/203
f 59/59/59 54/54/54 28/28/28
f 57/57/57 130/130/124 171/171/80
f 170/170/124 169/169/159 82/82/80
f 83/83/81 79/79/77 81/81/79
f 239/239/208 134/134/128 240/240/209
f 56/56/56 136/136/125 130/130/124
f 241/241/210 165/165/155 242/242/211
f 170/170/124 166/166/156 169/169/159
f 79/79/77 243/243/212 244/244/213
f 133/133/127 245/245/214 166/166/156
f 80/80/78 246/246/215 247/247/216
f 248/248/211 249/249/217 163/163/153
f 167/167/157 250/250/218 244/244/213
f 250/250/218 137/137/130 246/246/215
f 134/134/128 160/160/150 135/135/129
f 251/251/219 33/33/33 252/252/217
f 251/251/219 31/31/31 33/33/33
f 132/132/126 253/253/129 254/254/220
f 245/245/214 132/132/126 38/38/38
f 132/132/126 254/254/220 38/38/38
f 255/255/221 38/38/38 40/40/40
f 149/149/142 256/256/222 31/31/31
f 135/135/129 160/160/150 157/157/147
f 36/36/36 159/159/149 256/256/222
f 31/31/31 257/257/62 32/32/32
f 258/258/149 259/259/223 260/260/62
f 152/152/67 261/261/224 262/262/225
f 263/263/70 155/155/145 264/264/71
f 264/264/71 259/259/223 258/258/149
f 74/74/73 265/265/226 161/161/151
f 266/266/227 156/156/146 153/153/143
f 154/154/144 267/267/228 259/259/223
f 139/139/132 12/12/12 140/140/133
f 111/111/108 268/268/229 156/156/146
f 155/155/145 154/154/144 259/259/223
f 160/160/150 158/158/148 157/157/147
f 137/137/130 138/138/131 251/251/219
f 246/246/215 251/251/219 247/247/216
f 168/168/158 167/167/157 244/244/213
f 79/79/77 244/244/213 80/80/78
f 269/269/207 270/270/230 271/271/203
f 269/269/207 81/81/79 270/270/230
f 128/128/122 234/234/204 176/176/163
f 230/230/200 174/174/162 173/173/161
f 230/230/200 231/231/201 174/174/162
f 181/181/167 144/144/137 55/55/55
f 272/272/231 1/1/1 273/273/197
f 239/239/208 143/143/136 162/162/152
f 23/23/23 226/226/196 84/84/82
f 274/274/232 53/53/53 187/187/170
f 100/100/97 219/219/86 218/218/193
f 16/16/16 145/145/138 49/49/49
f 50/50/50 52/52/52 192/192/175
f 48/48/48 191/191/174 275/275/233
f 276/276/234 97/97/94 14/14/14
f 277/277/189 120/120/117 122/122/95
f 5/5/5 216/216/191 42/42/42
f 202/202/182 116/116/113 117/117/114
f 210/210/187 41/41/41 11/11/11
f 102/102/99 44/44/44 278/278/101
f 216/216/191 279/279/99 42/42/42
f 96/96/93 16/16/16 48/48/48
f 274/274/232 187/187/170 93/93/90
f 23/23/23 185/185/168 226/226/196
f 231/231/201 280/280/80 174/174/162
f 54/54/54 29/29/29 28/28/28
f 28/28/28 30/30/30 61/61/61
f 281/281/220 69/69/68 68/68/39
f 266/266/227 155/155/145 263/263/70
f 204/204/133 206/206/185 111/111/108
f 156/156/146 261/261/224 111/111/108
f 282/282/228 141/141/134 63/63/63
f 262/262/225 156/156/146 266/266/227
f 283/283/235 74/74/73 73/73/72
f 76/76/32 77/77/75 284/284/33
f 249/249/217 284/284/33 163/163/153
f 239/239/208 162/162/152 65/65/65
f 243/243/212 168/168/158 244/244/213
f 271/271/203 270/270/230 165/165/155
f 169/169/159 79/79/77 82/82/80
f 176/176/163 233/233/203 285/285/210
f 234/234/204 233/233/203 176/176/163
f 3/3/3 235/235/205 236/236/206
f 2/2/2 228/228/198 235/235/205
f 230/230/200 173/173/161 228/228/198
f 26/26/26 229/229/199 228/228/198
f 185/185/168 178/178/141 226/226/196
f 286/286/231 227/227/197 127/127/121
f 287/287/236 274/274/232 92/92/89
f 59/59/59 58/58/58 187/187/170
f 126/126/21 288/288/237 91/91/51
f 123/123/119 90/90/88 86/86/84
f 58/58/58 188/188/171 187/187/170
f 94/94/91 218/218/193 95/95/92
f 218/218/193 220/220/119 95/95/92
f 192/192/175 52/52/52 193/193/96
f 101/101/98 94/94/91 96/96/93
f 289/289/238 96/96/93 48/48/48
f 122/122/95 121/121/118 192/192/175
f 290/290/239 275/275/233 121/121/118
f 15/15/15 188/188/171 203/203/183
f 291/291/191 100/100/97 102/102/99
f 120/120/117 195/195/177 292/292/240
f 108/108/105 195/195/177 120/120/117
f 46/46/46 194/194/176 107/107/104
f 278/278/101 44/44/44 199/199/102
f 120/120/117 277/277/189 213/213/188
f 199/199/102 103/103/100 200/200/180
f 43/43/43 105/105/102 293/293/179
f 154/154/144 202/202/182 209/209/8
f 292/292/240 194/194/176 290/290/239
f 24/24/24 25/25/25 294/294/20
f 125/125/120 286/286/231 288/288/237
f 92/92/89 286/286/231 287/287/236
f 273/273/197 1/1/1 295/295/202
f 296/296/160 280/280/80 231/231/201
f 239/239/208 240/240/209 297/297/241
f 255/255/221 40/40/40 298/298/242
f 256/256/222 257/257/62 31/31/31
f 152/152/67 151/151/69 261/261/224
f 109/109/106 265/265/226 74/74/73
f 299/299/243 298/298/242 34/34/34
f 127/127/121 177/177/164 287/287/236
f 13/13/13 276/276/234 14/14/14
f 217/217/192 300/300/195 19/19/19
f 196/196/178 46/46/46 107/107/104
f 212/212/116 197/197/115 106/106/103
f 96/96/93 215/215/190 101/101/98
f 89/89/87 4/4/4 143/143/136
f 87/87/85 86/86/84 147/147/140
f 182/182/165 181/181/167 55/55/55
f 156/156/146 268/268/229 113/113/110
f 60/60/60 30/30/30 163/163/153
f 91/91/51 288/288/237 92/92/89
f 7/7/7 301/301/144 8/8/8
f 112/112/109 206/206/185 205/205/184
f 276/276/234 9/9/9 302/302/244
f 88/88/86 90/90/88 123/123/119
f 295/295/202 3/3/3 236/236/206
f 299/299/243 303/303/245 255/255/221
f 34/34/34 36/36/36 149/149/142
f 282/282/228 301/301/144 141/141/134
f 140/140/133 12/12/12 11/11/11
f 62/62/62 282/282/228 63/63/63
f 69/69/68 157/157/147 139/139/132
f 61/61/61 60/60/60 75/75/74
f 251/251/219 246/246/215 137/137/130
f 244/244/213 250/250/218 246/246/215
f 30/30/30 248/248/211 163/163/153
f 133/133/127 132/132/126 245/245/214
f 176/176/163 285/285/210 248/248/211
f 180/180/166 231/231/201 229/229/199
f 182/182/165 57/57/57 172/172/160
f 227/227/197 232/232/202 128/128/122
f 25/25/25 27/27/27 1/1/1
f 53/53/53 54/54/54 59/59/59
f 288/288/237 286/286/231 92/92/89
f 126/126/21 125/125/120 288/288/237
f 304/304/83 95/95/92 220/220/119
f 189/189/172 95/95/92 304/304/83
f 49/49/49 145/145/138 191/191/174
f 190/190/173 50/50/50 192/192/175
f 48/48/48 49/49/49 191/191/174
f 302/302/244 305/305/188 214/214/189
f 104/104/101 42/42/42 279/279/99
f 41/41/41 43/43/43 293/293/179
f 276/276/234 110/110/107 9/9/9
f 103/103/100 199/199/102 44/44/44
f 108/108/105 107/107/104 195/195/177
f 210/210/187 5/5/5 42/42/42
f 221/221/52 91/91/51 93/93/90
f 29/29/29 176/176/163 30/30/30
f 79/79/77 168/168/158 243/243/212
f 80/80/78 247/247/216 164/164/154
f 164/164/154 247/247/216 251/251/219
f 299/299/243 255/255/221 298/298/242
f 262/262/225 261/261/224 156/156/146
f 153/153/143 207/207/186 154/154/144
f 179/179/165 296/296/160 231/231/201
f 294/294/20 306/306/246 307/307/120
f 114/114/111 112/112/109 115/115/112
f 120/120/117 292/292/240 121/121/118
f 50/50/50 21/21/21 51/51/51
f 27/27/27 26/26/26 228/228/198
f 1/1/1 3/3/3 295/295/202
f 252/252/217 165/165/155 164/164/154
f 70/70/69 69/69/68 139/139/132
f 158/158/148 65/65/65 12/12/12
f 64/64/64 63/63/63 283/283/235
f 35/35/35 71/71/70 37/37/37
f 77/77/75 64/64/64 283/283/235
f 167/167/157 245/245/214 303/303/245
f 80/80/78 244/244/213 246/246/215
f 270/270/230 78/78/76 80/80/78
f 297/297/241 56/56/56 55/55/55
f 128/128/122 232/232/202 234/234/204
f 148/148/141 147/147/140 181/181/167
f 185/185/168 184/184/85 178/178/141
f 286/286/231 127/127/121 287/287/236
f 306/306/246 25/25/25 1/1/1
f 225/225/195 24/24/24 294/294/20
f 92/92/89 274/274/232 93/93/90
f 146/146/139 223/223/22 300/300/195
f 217/217/192 19/19/19 222/222/194
f 191/191/174 217/217/192 222/222/194
f 99/99/96 186/186/169 14/14/14
f 290/290/239 194/194/176 289/289/238
f 45/45/45 96/96/93 289/289/238
f 203/203/183 13/13/13 15/15/15
f 9/9/9 305/305/188 302/302/244
f 201/201/181 117/117/114 119/119/116
f 208/208/184 41/41/41 293/293/179
f 206/206/185 112/112/109 111/111/108
f 110/110/107 7/7/7 9/9/9
f 141/141/134 301/301/144 7/7/7
f 265/265/226 109/109/106 110/110/107
f 111/111/108 113/113/110 268/268/229
f 161/161/151 265/265/226 203/203/183
f 113/113/110 116/116/113 207/207/186
f 265/265/226 110/110/107 276/276/234
f 112/112/109 308/308/179 115/115/112
f 209/209/8 201/201/181 309/309/188
f 310/310/112 200/200/180 197/197/115
f 108/108/105 212/212/116 106/106/103
f 42/42/42 104/104/101 43/43/43
f 195/195/177 194/194/176 292/292/240
f 44/44/44 102/102/99 215/215/190
f 44/44/44 215/215/190 45/45/45
f 45/45/45 215/215/190 96/96/93
f 311/311/247 15/15/15 14/14/14
f 58/58/58 203/203/183 188/188/171
f 292/292/240 290/290/239 121/121/118
f 101/101/98 100/100/97 94/94/91
f 188/188/171 15/15/15 311/311/247
f 94/94/91 100/100/97 218/218/193
f 99/99/96 221/221/52 186/186/169
f 190/190/173 275/275/233 191/191/174
f 50/50/50 191/191/174 222/222/194
f 88/88/86 5/5/5 89/89/87
f 311/311/247 186/186/169 188/188/171
f 217/217/192 145/145/138 146/146/139
f 186/186/169 93/93/90 187/187/170
f 19/19/19 300/300/195 20/20/20
f 294/294/20 25/25/25 306/306/246
f 86/86/84 142/142/135 147/147/140
f 226/226/196 229/229/199 26/26/26
f 143/143/136 297/297/241 144/144/137
f 1/1/1 27/27/27 2/2/2
f 235/235/205 228/228/198 173/173/161
f 3/3/3 2/2/2 235/235/205
f 29/29/29 177/177/164 129/129/123
f 177/177/164 127/127/121 129/129/123
f 175/175/79 174/174/162 312/312/81
f 174/174/162 280/280/80 312/312/81
f 241/241/210 271/271/203 165/165/155
f 165/165/155 270/270/230 80/80/78
f 56/56/56 134/134/128 136/136/125
f 170/170/124 133/133/127 166/166/156
f 30/30/30 176/176/163 248/248/211
f 239/239/208 160/160/150 134/134/128
f 131/131/125 253/253/129 132/132/126
f 28/28/28 61/61/61 161/161/151
f 38/38/38 255/255/221 303/303/245
f 299/299/243 167/167/157 303/303/245
f 250/250/218 299/299/243 137/137/130
f 239/239/208 65/65/65 160/160/150
f 251/251/219 138/138/131 31/31/31
f 34/34/34 298/298/242 35/35/35
f 149/149/142 36/36/36 256/256/222
f 281/281/220 157/157/147 69/69/68
f 38/38/38 254/254/220 39/39/39
f 313/313/66 68/68/39 70/70/69
f 260/260/62 259/259/223 267/267/228
f 264/264/71 155/155/145 259/259/223
f 261/261/224 204/204/133 111/111/108
f 139/139/132 158/158/148 12/12/12
f 63/63/63 109/109/106 283/283/235
f 71/71/70 35/35/35 67/67/67
f 75/75/74 74/74/73 161/161/151
f 67/67/67 35/35/35 40/40/40
f 40/40/40 39/39/39 66/66/66
f 256/256/222 159/159/149 257/257/62
f 61/61/61 75/75/74 161/161/151
f 169/169/159 166/166/156 168/168/158
f 240/240/209 134/134/128 56/56/56
f 297/297/241 240/240/209 56/56/56
f 287/287/236 177/177/164 274/274/232
f 306/306/246 1/1/1 272/272/231
f 86/86/84 90/90/88 142/142/135
f 90/90/88 89/89/87 142/142/135
f 22/22/22 185/185/168 23/23/23
f 50/50/50 19/19/19 21/21/21
f 146/146/139 300/300/195 217/217/192
f 14/14/14 186/186/169 311/311/247
f 100/100/97 291/291/191 219/219/86
f 121/121/118 275/275/233 190/190/173
f 290/290/239 48/48/48 275/275/233
f 194/194/176 45/45/45 289/289/238
f 276/276/234 302/302/244 97/97/94
f 213/213/188 211/211/181 108/108/105
f 116/116/113 115/115/112 118/118/115
f 113/113/110 114/114/111 116/116/113
f 205/205/184 308/308/179 112/112/109
f 9/9/9 8/8/8 305/305/188
f 290/290/239 289/289/238 48/48/48
f 24/24/24 84/84/82 25/25/25
f 299/299/243 34/34/34 137/137/130
f 281/281/220 135/135/129 157/157/147
f 298/298/242 40/40/40 35/35/35
f 283/283/235 109/109/106 74/74/73
f 261/261/224 151/151/69 204/204/133
f 266/266/227 153/153/143 155/155/145
f 263/263/70 262/262/225 266/266/227
f 76/76/32 62/62/62 64/64/64
f 138/138/131 34/34/34 149/149/142
f 77/77/75 163/163/153 284/284/33
f 164/164/154 251/251/219 252/252/217
f 270/270/230 81/81/79 78/78/76
f 29/29/29 129/129/123 176/176/163
f 236/236/206 175/175/79 237/237/207
f 236/236/206 173/173/161 175/175/79
f 295/295/202 236/236/206 238/238/203
f 144/144/137 297/297/241 55/55/55
f 229/229/199 231/231/201 230/230/200
f 143/143/136 239/239/208 297/297/241
f 226/226/196 180/180/166 229/229/199
f 53/53/53 274/274/232 177/177/164
f 306/306/246 272/272/231 307/307/120
f 187/187/170 53/53/53 59/59/59
f 145/145/138 16/16/16 18/18/18
f 96/96/93 17/17/17 16/16/16
f 97/97/94 302/302/244 214/214/189
f 203/203/183 265/265/226 13/13/13
f 265/265/226 276/276/234 13/13/13
f 198/198/179 200/200/180 310/310/112
f 11/11/11 6/6/6 210/210/187
f 202/202/182 207/207/186 116/116/113
f 10/10/10 6/6/6 11/11/11
f 117/117/114 116/116/113 118/118/115
f 200/200/180 196/196/178 197/197/115
f 166/166/156 245/245/214 167/167/157
f 242/242/211 165/165/155 252/252/217
f 250/250/218 167/167/157 299/299/243
f 245/245/214 38/38/38 303/303/245
f 12/12/12 65/65/65 10/10/10
f 263/263/70 152/152/67 262/262/225
f 77/77/75 283/283/235 73/73/72
# Vertices: 313, normals: 247, texture coordinates: 313, faces: 490

