# Blender 5.0.1
# www.blender.org
mtllib chest_base.mtl
o obj4.002
v -1.039723 -0.868025 -0.026705
v -1.033286 -0.863066 -1.042171
v -1.117512 -1.071754 -1.081718
v -1.124419 -1.077075 0.007952
v 1.182702 -1.044845 -1.073229
v 1.092463 -0.838198 -1.034385
v 1.085924 -0.843235 -0.002775
v 1.175686 -1.050250 0.033764
v 0.975937 -0.571355 -0.984226
v 0.970013 -0.575918 -0.049960
v -0.930352 -0.598080 -0.071458
v -0.924522 -0.593589 -0.991105
v 0.879692 -0.350960 -0.942798
v 0.874279 -0.355128 -0.088931
v -0.840020 -0.375121 -0.108421
v -0.834692 -0.371016 -0.948927
v 0.806742 -0.183903 -0.911396
v 0.801714 -0.187775 -0.118469
v -0.766600 -0.202310 -0.916957
v -0.771548 -0.206121 -0.136438
v 1.261665 -1.049205 0.025903
v 1.174642 -0.842161 -0.010093
v 1.173581 -0.842978 0.157291
v 1.260526 -1.050081 0.205519
v -1.291707 -1.242068 0.029836
v -0.962999 -1.238228 0.032287
v -0.964188 -1.239144 0.219874
v -1.292896 -1.242984 0.217422
v -1.155791 -0.870186 0.139922
v -1.154730 -0.869369 -0.027462
v -1.237924 -1.078402 0.007266
v -1.239062 -1.079279 0.186881
v -0.635506 -0.068134 -0.152865
v -0.850295 -0.070643 -0.154466
v -0.851073 -0.071241 -0.031891
v -0.636283 -0.068733 -0.030289
v -0.924322 -1.075601 0.189228
v -0.862483 -0.866760 0.142110
v -1.155791 -0.870186 0.139922
v -1.239062 -1.079279 0.186881
v -1.147295 -0.863642 -1.200264
v -0.853987 -0.860216 -1.198076
v -0.915205 -1.068579 -1.248890
v -1.229947 -1.072256 -1.251237
v 0.899108 -0.186607 -0.124069
v 0.855501 -0.050718 -0.141748
v 0.854725 -0.051317 -0.019172
v 0.898293 -0.187235 0.004589
v -0.666688 -0.205515 -0.007080
v -0.636283 -0.068733 -0.030289
v -0.851073 -0.071241 -0.031891
v -0.892134 -0.208148 -0.008762
v -0.850295 -0.070643 -0.154466
v -0.891317 -0.207520 -0.137418
v -0.892134 -0.208148 -0.008762
v -0.851073 -0.071241 -0.031891
v -0.844850 -0.066449 -1.013307
v -0.630062 -0.063940 -1.011706
v -0.660158 -0.200485 -1.037187
v -0.885602 -0.203118 -1.038869
v -1.285182 -1.086188 0.027424
v -1.291707 -1.242068 0.029836
v -1.292896 -1.242984 0.217422
v -1.286364 -1.087098 0.213845
v -0.964188 -1.239144 0.219874
v -0.959699 -1.083282 0.216281
v -1.286364 -1.087098 0.213845
v -1.292896 -1.242984 0.217422
v 1.318799 -1.211576 0.049301
v 1.309102 -1.055884 0.046769
v 1.307920 -1.056796 0.233188
v 1.317611 -1.212492 0.236887
v -1.276903 -1.079809 -1.278756
v -0.950237 -1.075994 -1.276321
v -0.954666 -1.231810 -1.282061
v -1.283375 -1.235650 -1.284512
v 0.426117 -1.222905 0.230239
v 0.427307 -1.221989 0.042653
v 0.709862 -1.218689 0.044760
v 0.708674 -1.219604 0.232347
v 0.708674 -1.219604 0.232347
v 0.702767 -1.063864 0.228677
v 0.421967 -1.067143 0.226582
v 0.426117 -1.222905 0.230239
v 0.713532 -1.056212 0.147719
v 0.664747 -0.848649 0.096747
v 0.403078 -0.851705 0.094796
v 0.432744 -1.059492 0.145625
v 0.480651 -0.192114 0.001475
v 0.456823 -0.055965 -0.022140
v 0.272191 -0.058122 -0.023515
v 0.286858 -0.194377 0.000030
v 0.456823 -0.055965 -0.022140
v 0.457600 -0.055366 -0.144715
v 0.272968 -0.057523 -0.146091
v 0.272191 -0.058122 -0.023515
v 0.293389 -0.189347 -1.030078
v 0.278412 -0.053329 -1.004932
v 0.463045 -0.051172 -1.003555
v 0.487180 -0.187084 -1.028633
v 0.430706 -1.053132 -1.181953
v 0.401131 -0.845836 -1.130361
v 0.655929 -0.842860 -1.128462
v 0.704121 -1.049938 -1.179913
v 0.435639 -1.215571 -1.271695
v 0.431429 -1.059856 -1.266019
v 0.712229 -1.056576 -1.263926
v 0.718194 -1.212270 -1.269588
v 1.016194 -1.215110 0.047045
v 1.318799 -1.211576 0.049301
v 1.317611 -1.212492 0.236887
v 1.015004 -1.216026 0.234631
v 1.307920 -1.056796 0.233188
v 1.007195 -1.060308 0.230947
v 1.015004 -1.216026 0.234631
v 1.317611 -1.212492 0.236887
v 1.173581 -0.842978 0.157291
v 0.903564 -0.846132 0.155277
v 0.970777 -1.053467 0.203359
v 1.260526 -1.050081 0.205519
v 0.854725 -0.051317 -0.019172
v 0.656991 -0.053626 -0.020647
v 0.690749 -0.189660 0.003041
v 0.898293 -0.187235 0.004589
v 0.855501 -0.050718 -0.141748
v 0.657768 -0.053028 -0.143222
v 0.656991 -0.053626 -0.020647
v 0.854725 -0.051317 -0.019172
v 0.697280 -0.184629 -1.027067
v 0.663213 -0.048834 -1.002063
v 0.860946 -0.046524 -1.000589
v 0.904821 -0.182205 -1.025519
v 0.979893 -1.046444 -1.234760
v 0.912060 -0.839587 -1.184909
v 1.182077 -0.836434 -1.182895
v 1.269643 -1.043059 -1.232599
v 1.024527 -1.208692 -1.267303
v 1.016658 -1.053019 -1.261655
v 1.317383 -1.049507 -1.259414
v 1.327131 -1.205158 -1.265047
v 0.860222 -0.047082 -0.886400
v 0.662488 -0.049392 -0.887874
v 0.462321 -0.051730 -0.889367
v 0.277689 -0.053886 -0.890743
v -0.630786 -0.064498 -0.897517
v -0.845576 -0.067007 -0.899119
v -0.845576 -0.067007 -0.899119
v -0.886364 -0.203704 -0.919015
v -1.278004 -1.080657 -1.105092
v -1.284482 -1.236503 -1.109761
v -1.284482 -1.236503 -1.109761
v -0.955774 -1.232663 -1.107311
v 0.271954 -0.174417 -0.157882
v 0.276561 -0.170869 -0.884511
v 0.456723 -0.168765 -0.883168
v 0.452117 -0.172313 -0.156539
v 1.023419 -1.209545 -1.092554
v 1.326023 -1.206011 -1.090297
v 1.326023 -1.206011 -1.090297
v 1.316282 -1.050353 -1.085747
v 0.904062 -0.182790 -0.905665
v 0.860222 -0.047082 -0.886400
v 0.663213 -0.048834 -1.002063
v 0.860946 -0.046524 -1.000589
v 0.278412 -0.053329 -1.004932
v 0.463045 -0.051172 -1.003555
v -0.844850 -0.066449 -1.013307
v -0.630062 -0.063940 -1.011706
v -0.885602 -0.203118 -1.038869
v -0.844850 -0.066449 -1.013307
v -1.229947 -1.072256 -1.251237
v -1.231007 -1.073073 -1.083911
v -1.148284 -0.864404 -1.044332
v -1.147295 -0.863642 -1.200264
v -1.283375 -1.235650 -1.284512
v -1.276903 -1.079809 -1.278756
v -0.954666 -1.231810 -1.282061
v -1.283375 -1.235650 -1.284512
v 0.718194 -1.212270 -1.269588
v 0.717087 -1.213124 -1.094837
v 0.434531 -1.216423 -1.096943
v 0.435639 -1.215571 -1.271695
v 1.327131 -1.205158 -1.265047
v 1.024527 -1.208692 -1.267303
v 1.317383 -1.049507 -1.259414
v 1.327131 -1.205158 -1.265047
v 1.182077 -0.836434 -1.182895
v 1.181089 -0.837194 -1.026963
v 1.268582 -1.043877 -1.065273
v 1.269643 -1.043059 -1.232599
v 0.860946 -0.046524 -1.000589
v 0.904821 -0.182205 -1.025519
v 0.970777 -1.053467 0.203359
v 0.903564 -0.846132 0.155277
v 0.948431 -0.845335 0.098863
v 1.017947 -1.052657 0.149989
v 0.510277 -0.191449 -0.064638
v 0.480651 -0.192114 0.001475
v 0.286858 -0.194377 0.000030
v 0.309152 -0.193798 -0.066138
v -0.884444 -0.866744 0.085196
v -0.862483 -0.866760 0.142110
v -0.924322 -1.075601 0.189228
v -0.948862 -1.075630 0.135324
v 0.432744 -1.059492 0.145625
v 0.406912 -1.060052 0.199154
v 0.677461 -1.056893 0.201171
v 0.713532 -1.056212 0.147719
v -0.915205 -1.068579 -1.248890
v -0.853987 -0.860216 -1.198076
v -0.852590 -0.860480 -1.139710
v -0.914630 -1.068846 -1.191985
v 0.307491 -0.189486 -0.967010
v 0.293389 -0.189347 -1.030078
v 0.487180 -0.187084 -1.028633
v 0.503337 -0.187198 -0.965550
v 0.932167 -0.839633 -1.126402
v 0.912060 -0.839587 -1.184909
v 0.979893 -1.046444 -1.234760
v 1.000544 -1.046476 -1.177705
v 0.704121 -1.049938 -1.179913
v 0.686579 -1.049869 -1.236947
v 0.416028 -1.053030 -1.238964
v 0.430706 -1.053132 -1.181953
v -1.033286 -0.863066 -1.042171
v -1.148284 -0.864404 -1.044332
v -1.231007 -1.073073 -1.083911
v -1.117512 -1.071754 -1.081718
v -1.231007 -1.073073 -1.083911
v -1.237924 -1.078402 0.007266
v -1.124419 -1.077075 0.007952
v -1.117512 -1.071754 -1.081718
v -1.237924 -1.078402 0.007266
v -1.154730 -0.869369 -0.027462
v -1.039723 -0.868025 -0.026705
v -1.124419 -1.077075 0.007952
v -0.891317 -0.207520 -0.137418
v -0.886364 -0.203704 -0.919015
v -0.766600 -0.202310 -0.916957
v -0.771548 -0.206121 -0.136438
v 1.268582 -1.043877 -1.065273
v 1.181089 -0.837194 -1.026963
v 1.092463 -0.838198 -1.034385
v 1.182702 -1.044845 -1.073229
v 0.904062 -0.182790 -0.905665
v 0.899108 -0.186607 -0.124069
v 0.801714 -0.187775 -0.118469
v 0.806742 -0.183903 -0.911396
v 1.085924 -0.843235 -0.002775
v 1.174642 -0.842161 -0.010093
v 1.261665 -1.049205 0.025903
v 1.175686 -1.050250 0.033764
v 1.261665 -1.049205 0.025903
v 1.268582 -1.043877 -1.065273
v 1.182702 -1.044845 -1.073229
v 1.175686 -1.050250 0.033764
v 0.433225 -1.071751 -1.096254
v 0.434531 -1.216423 -1.096943
v 0.717087 -1.213124 -1.094837
v 0.715914 -1.068450 -1.094146
v 1.023419 -1.209545 -1.092554
v 1.016194 -1.215110 0.047045
v 1.015160 -1.070437 0.048270
v 1.022387 -1.064871 -1.091860
v 0.708686 -1.074019 0.045985
v 0.709862 -1.218689 0.044760
v 0.427307 -1.221989 0.042653
v 0.425998 -1.077320 0.043877
v -0.962999 -1.238228 0.032287
v -0.955774 -1.232663 -1.107311
v -0.957732 -1.087999 -1.106625
v -0.964959 -1.093568 0.033505
v 0.463560 -1.056995 -1.139655
v 0.417764 -1.064898 -1.075398
v 0.690133 -1.061717 -1.073367
v 0.767985 -1.053438 -1.137385
v 0.985422 -1.058267 -1.071165
v 0.978457 -1.063631 0.027347
v 1.090241 -1.055579 0.092874
v 1.098025 -1.049583 -1.134924
v 0.760201 -1.059433 0.090413
v 0.683168 -1.067080 0.025145
v 0.410799 -1.070262 0.023115
v 0.455776 -1.062991 0.088144
v -0.929383 -1.085917 0.013122
v -0.922419 -1.080553 -1.085391
v -1.034351 -1.074492 -1.150824
v -1.042135 -1.080487 0.076974
v 0.276561 -0.170869 -0.884511
v 0.463560 -1.056995 -1.139655
v 0.767985 -1.053438 -1.137385
v 0.456723 -0.168765 -0.883168
v 1.098025 -1.049583 -1.134924
v 1.090241 -1.055579 0.092874
v 0.647439 -0.170031 -0.155083
v 0.652046 -0.166483 -0.881710
v 0.452117 -0.172313 -0.156539
v 0.760201 -1.059433 0.090413
v 0.455776 -1.062991 0.088144
v 0.271954 -0.174417 -0.157882
v -1.042135 -1.080487 0.076974
v -1.034351 -1.074492 -1.150824
v -0.609923 -0.181223 -0.891120
v -0.614529 -0.184771 -0.164492
v 1.069004 -0.569618 -1.118713
v 1.068108 -0.570308 -0.977494
v 1.068108 -0.570308 -0.977494
v 0.975937 -0.571355 -0.984226
v 0.970013 -0.575918 -0.049960
v 1.062270 -0.574804 -0.056576
v 1.062270 -0.574804 -0.056576
v 1.061309 -0.575545 0.095015
v 1.061309 -0.575545 0.095015
v 0.816772 -0.578401 0.093191
v 0.816772 -0.578401 0.093191
v 0.858665 -0.577621 0.032844
v 0.364772 -0.583390 0.029162
v 0.601748 -0.580621 0.030929
v -0.801259 -0.597009 0.020468
v -0.782632 -0.597084 0.081265
v -0.782632 -0.597084 0.081265
v -1.048263 -0.600186 0.079285
v -1.048263 -0.600186 0.079285
v -1.047302 -0.599446 -0.072306
v -1.047302 -0.599446 -0.072306
v -0.930352 -0.598080 -0.071458
v -0.924522 -0.593589 -0.991105
v -1.041464 -0.594949 -0.993225
v -1.041464 -0.594949 -0.993225
v -1.040569 -0.594260 -1.134441
v -1.040569 -0.594260 -1.134441
v -0.774938 -0.591156 -1.132461
v -0.774938 -0.591156 -1.132461
v -0.772478 -0.591418 -1.072207
v 0.593696 -0.575460 -1.062021
v 0.362942 -0.578155 -1.063741
v 0.843868 -0.572538 -1.060155
v 0.824467 -0.572475 -1.120535
v 0.824467 -0.572475 -1.120535
v 1.069004 -0.569618 -1.118713
v 0.975612 -0.349244 -1.065700
v 0.974794 -0.349874 -0.936636
v 0.974794 -0.349874 -0.936636
v 0.879692 -0.350960 -0.942798
v 0.874279 -0.355128 -0.088931
v 0.969458 -0.353984 -0.094968
v 0.969458 -0.353984 -0.094968
v 0.968580 -0.354660 0.043577
v 0.968580 -0.354660 0.043577
v 0.745085 -0.357272 0.041911
v 0.745085 -0.357272 0.041911
v 0.784524 -0.356504 -0.021682
v 0.333133 -0.361776 -0.025048
v 0.549716 -0.359246 -0.023433
v -0.732555 -0.374224 -0.032994
v -0.716679 -0.374346 0.031011
v -0.716679 -0.374346 0.031011
v -0.959450 -0.377181 0.029201
v -0.959450 -0.377181 0.029201
v -0.958573 -0.376505 -0.109344
v -0.958573 -0.376505 -0.109344
v -0.840020 -0.375121 -0.108421
v -0.834692 -0.371016 -0.948927
v -0.953237 -0.372395 -0.951011
v -0.953237 -0.372395 -0.951011
v -0.952419 -0.371765 -1.080076
v -0.952419 -0.371765 -1.080076
v -0.709647 -0.368929 -1.078266
v -0.709647 -0.368929 -1.078266
v -0.706311 -0.369187 -1.016455
v 0.542297 -0.354603 -1.007145
v 0.331400 -0.357067 -1.008717
v 0.770939 -0.351933 -1.005440
v 0.752118 -0.351855 -1.067367
v 0.752118 -0.351855 -1.067367
v 0.975612 -0.349244 -1.065700
v 0.904062 -0.182790 -0.905665
v 0.806742 -0.183903 -0.911396
v 0.899108 -0.186607 -0.124069
v 0.801714 -0.187775 -0.118469
v 0.690749 -0.189660 0.003041
v 0.728326 -0.188901 -0.063012
v 0.309152 -0.193798 -0.066138
v 0.510277 -0.191449 -0.064638
v -0.666688 -0.205515 -0.007080
v -0.680477 -0.205357 -0.073517
v -0.891317 -0.207520 -0.137418
v -0.771548 -0.206121 -0.136438
v -0.886364 -0.203704 -0.919015
v -0.766600 -0.202310 -0.916957
v -0.660158 -0.200485 -1.037187
v -0.656156 -0.200741 -0.974195
v 0.503337 -0.187198 -0.965550
v 0.307491 -0.189486 -0.967010
v 0.697280 -0.184629 -1.027067
v 0.715662 -0.184717 -0.963966
v -0.691930 -1.235964 0.221903
v -0.689133 -1.080121 0.218298
v -0.690741 -1.235049 0.034317
v -0.691930 -1.235964 0.221903
v -0.692571 -1.090386 0.035536
v -0.690741 -1.235049 0.034317
v -0.962999 -1.238228 0.032287
v -0.964959 -1.093568 0.033505
v -0.748804 -1.077060 0.079162
v -0.666940 -1.082852 0.015079
v -0.929383 -1.085917 0.013122
v -1.042135 -1.080487 0.076974
v -0.440933 -0.182743 -0.163198
v -0.748804 -1.077060 0.079162
v -1.042135 -1.080487 0.076974
v -0.614529 -0.184771 -0.164492
v -0.609923 -0.181223 -0.891120
v -0.436326 -0.179195 -0.889826
v -0.440933 -0.182743 -0.163198
v -0.614529 -0.184771 -0.164492
v -1.034351 -1.074492 -1.150824
v -0.741021 -1.071064 -1.148637
v -0.436326 -0.179195 -0.889826
v -0.609923 -0.181223 -0.891120
v -0.922419 -1.080553 -1.085391
v -0.659976 -1.077487 -1.083434
v -0.741021 -1.071064 -1.148637
v -1.034351 -1.074492 -1.150824
v -0.955774 -1.232663 -1.107311
v -0.683516 -1.229484 -1.105280
v -0.685344 -1.084818 -1.104594
v -0.957732 -1.087999 -1.106625
v -0.682409 -1.228630 -1.280031
v -0.683516 -1.229484 -1.105280
v -0.679671 -1.072834 -1.274304
v -0.682409 -1.228630 -1.280031
v -0.651179 -1.065769 -1.190020
v -0.654515 -1.065534 -1.246946
v -0.915205 -1.068579 -1.248890
v -0.914630 -1.068846 -1.191985
v -0.660158 -0.200485 -1.037187
v -0.473429 -0.198304 -1.035795
v -0.467448 -0.198536 -0.972788
v -0.656156 -0.200741 -0.974195
v -0.452158 -0.061863 -1.010379
v -0.473429 -0.198304 -1.035795
v -0.452883 -0.062420 -0.896191
v -0.452158 -0.061863 -1.010379
v -0.457603 -0.066056 -0.151539
v -0.458380 -0.066654 -0.028963
v -0.479958 -0.203334 -0.005688
v -0.458380 -0.066654 -0.028963
v -0.486681 -0.203094 -0.072072
v -0.479958 -0.203334 -0.005688
v -0.666688 -0.205515 -0.007080
v -0.680477 -0.205357 -0.073517
v -0.924322 -1.075601 0.189228
v -0.663630 -1.072557 0.191172
v -0.678308 -1.072470 0.137340
v -0.948862 -1.075630 0.135324
v 1.023419 -1.209545 -1.092554
v 1.022387 -1.064871 -1.091860
v 0.985422 -1.058267 -1.071165
v 1.098025 -1.049583 -1.134924
v 1.098025 -1.049583 -1.134924
v 0.652046 -0.166483 -0.881710
v 0.652046 -0.166483 -0.881710
v 0.647439 -0.170031 -0.155083
v 1.090241 -1.055579 0.092874
v 0.647439 -0.170031 -0.155083
v 0.978457 -1.063631 0.027347
v 1.090241 -1.055579 0.092874
v 1.016194 -1.215110 0.047045
v 1.015160 -1.070437 0.048270
v 0.970777 -1.053467 0.203359
v 1.017947 -1.052657 0.149989
v 0.690749 -0.189660 0.003041
v 0.728326 -0.188901 -0.063012
v 0.697280 -0.184629 -1.027067
v 0.715662 -0.184717 -0.963966
v 0.979893 -1.046444 -1.234760
v 1.000544 -1.046476 -1.177705
v -0.162018 -1.229774 0.225854
v -0.162513 -1.073971 0.222225
v -0.426502 -1.077055 0.220256
v -0.427658 -1.232877 0.223873
v -0.427658 -1.232877 0.223873
v -0.426468 -1.231961 0.036288
v -0.160829 -1.228857 0.038269
v -0.162018 -1.229774 0.225854
v -0.162413 -1.084192 0.039489
v -0.160829 -1.228857 0.038269
v -0.426468 -1.231961 0.036288
v -0.428175 -1.087297 0.037508
v -0.177879 -1.070390 0.083418
v -0.156133 -1.076885 0.018888
v -0.412195 -1.079875 0.016978
v -0.464079 -1.073735 0.081285
v -0.103052 -0.178798 -0.160679
v -0.177879 -1.070390 0.083418
v -0.464079 -1.073735 0.081285
v -0.272428 -0.180776 -0.161942
v -0.272428 -0.180776 -0.161942
v -0.267821 -0.177228 -0.888569
v -0.098445 -0.175250 -0.887307
v -0.103052 -0.178798 -0.160679
v -0.267821 -0.177228 -0.888569
v -0.456295 -1.067738 -1.146514
v -0.170095 -1.064395 -1.144380
v -0.098445 -0.175250 -0.887307
v -0.456295 -1.067738 -1.146514
v -0.405232 -1.074512 -1.081535
v -0.149169 -1.071521 -1.079626
v -0.170095 -1.064395 -1.144380
v -0.420949 -1.081729 -1.102622
v -0.419244 -1.226397 -1.103310
v -0.153605 -1.223294 -1.101329
v -0.155185 -1.078626 -1.100641
v -0.152497 -1.222441 -1.276080
v -0.153605 -1.223294 -1.101329
v -0.419244 -1.226397 -1.103310
v -0.418136 -1.225543 -1.278060
v -0.418136 -1.225543 -1.278060
v -0.417041 -1.069766 -1.272345
v -0.153051 -1.066682 -1.270377
v -0.152497 -1.222441 -1.276080
v -0.138407 -1.059780 -1.186197
v -0.147118 -1.059608 -1.243164
v -0.401470 -1.062580 -1.245060
v -0.395454 -1.062783 -1.188113
v -0.284277 -0.196397 -0.971422
v -0.292176 -0.196187 -1.034444
v -0.109986 -0.194058 -1.033085
v -0.100156 -0.194247 -0.970050
v -0.292176 -0.196187 -1.034444
v -0.279473 -0.059846 -1.009091
v -0.105896 -0.057817 -1.007797
v -0.109986 -0.194058 -1.033085
v -0.279473 -0.059846 -1.009091
v -0.280198 -0.060403 -0.894903
v -0.106619 -0.058375 -0.893609
v -0.105896 -0.057817 -1.007797
v -0.111340 -0.062012 -0.148957
v -0.284918 -0.064039 -0.150251
v -0.112117 -0.062610 -0.026381
v -0.285695 -0.064638 -0.027675
v -0.116517 -0.199089 -0.002977
v -0.112117 -0.062610 -0.026381
v -0.285695 -0.064638 -0.027675
v -0.298706 -0.201217 -0.004337
v -0.109487 -0.198688 -0.069260
v -0.116517 -0.199089 -0.002977
v -0.298706 -0.201217 -0.004337
v -0.298571 -0.200897 -0.070670
v -0.415689 -1.069403 0.139298
v -0.410587 -1.069600 0.193060
v -0.156235 -1.066631 0.194955
v -0.151712 -1.066318 0.141266
v -0.651179 -1.065769 -1.190020
v -0.607079 -0.857613 -1.137879
v -0.368769 -0.854830 -1.136102
v -0.395454 -1.062783 -1.188113
v -0.334310 -0.586299 -1.068941
v -0.550133 -0.588820 -1.070549
v -0.305849 -0.364509 -1.013470
v -0.503099 -0.366813 -1.014939
v -0.284277 -0.196397 -0.971422
v -0.467448 -0.198536 -0.972788
v -0.486681 -0.203094 -0.072072
v -0.523865 -0.371786 -0.031438
v -0.321296 -0.369421 -0.029928
v -0.298571 -0.200897 -0.070670
v -0.572920 -0.594342 0.022171
v -0.351278 -0.591753 0.023824
v -0.632313 -0.863798 0.087076
v -0.387578 -0.860940 0.088901
v -0.415689 -1.069403 0.139298
v -0.678308 -1.072470 0.137340
v 0.152627 -1.226099 0.228200
v 0.150176 -1.070318 0.224557
v 0.145041 -1.063111 0.197201
v 0.160965 -1.062666 0.143598
v 0.160965 -1.062666 0.143598
v 0.149807 -0.854663 0.092908
v -0.141577 -0.858067 0.090735
v -0.151712 -1.066318 0.141266
v -0.128489 -0.589151 0.025484
v 0.135400 -0.586069 0.027452
v -0.117680 -0.367042 -0.028409
v 0.123500 -0.364224 -0.026611
v -0.109487 -0.198688 -0.069260
v 0.114480 -0.196072 -0.067589
v 0.114480 -0.196072 -0.067589
v 0.099284 -0.196568 -0.001369
v 0.099284 -0.196568 -0.001369
v 0.093483 -0.060209 -0.024848
v 0.093483 -0.060209 -0.024848
v 0.094260 -0.059610 -0.147424
v 0.098981 -0.055973 -0.892076
v 0.099705 -0.055417 -1.006264
v 0.099705 -0.055417 -1.006264
v 0.105814 -0.191539 -1.031477
v 0.105814 -0.191539 -1.031477
v 0.117930 -0.191699 -0.968423
v 0.117930 -0.191699 -0.968423
v 0.127269 -0.359450 -1.010239
v -0.107578 -0.362194 -1.011990
v -0.100156 -0.194247 -0.970050
v 0.139590 -0.580764 -1.065407
v -0.117371 -0.583766 -1.067323
v 0.154509 -0.848717 -1.132200
v -0.129226 -0.852031 -1.134315
v -0.138407 -1.059780 -1.186197
v 0.166061 -1.056224 -1.183926
v 0.166061 -1.056224 -1.183926
v 0.154158 -1.056088 -1.240916
v 0.159638 -1.063029 -1.268046
v 0.162148 -1.218765 -1.273734
v 0.162148 -1.218765 -1.273734
v 0.161040 -1.219618 -1.098983
v 0.161040 -1.219618 -1.098983
v 0.159607 -1.074948 -1.098294
v 0.154133 -1.067977 -1.077364
v 0.168902 -1.060436 -1.141852
v 0.168902 -1.060436 -1.141852
v 0.102178 -0.172906 -0.885811
v 0.102178 -0.172906 -0.885811
v 0.097572 -0.176454 -0.159183
v 0.097572 -0.176454 -0.159183
v 0.161119 -1.066431 0.085946
v 0.161119 -1.066431 0.085946
v 0.147168 -1.073341 0.021149
v 0.152380 -1.080517 0.041836
v 0.153816 -1.225182 0.040615
v 0.153816 -1.225182 0.040615
v 0.152627 -1.226099 0.228200
v -0.914630 -1.068846 -1.191985
v -0.852590 -0.860480 -1.139710
v -0.852810 -0.860649 -1.105194
v -0.914849 -1.069015 -1.157469
v -0.607079 -0.857613 -1.137879
v -0.651179 -1.065769 -1.190020
v -0.651397 -1.065938 -1.155506
v -0.607297 -0.857781 -1.103364
v -0.651179 -1.065769 -1.190020
v -0.914630 -1.068846 -1.191985
v -0.914849 -1.069015 -1.157469
v -0.651397 -1.065938 -1.155506
v -0.550133 -0.588820 -1.070549
v -0.607079 -0.857613 -1.137879
v -0.607297 -0.857781 -1.103364
v -0.550352 -0.588988 -1.036035
v -0.852590 -0.860480 -1.139710
v -0.772478 -0.591418 -1.072207
v -0.772697 -0.591586 -1.037693
v -0.852810 -0.860649 -1.105194
v -0.503099 -0.366813 -1.014939
v -0.550133 -0.588820 -1.070549
v -0.550352 -0.588988 -1.036035
v -0.503318 -0.366982 -0.980426
v -0.772478 -0.591418 -1.072207
v -0.706311 -0.369187 -1.016455
v -0.706530 -0.369356 -0.981940
v -0.772697 -0.591586 -1.037693
v -0.467448 -0.198536 -0.972788
v -0.503099 -0.366813 -1.014939
v -0.503318 -0.366982 -0.980426
v -0.467667 -0.198706 -0.938274
v -0.706311 -0.369187 -1.016455
v -0.656156 -0.200741 -0.974195
v -0.656375 -0.200910 -0.939681
v -0.706530 -0.369356 -0.981940
v -0.656156 -0.200741 -0.974195
v -0.467448 -0.198536 -0.972788
v -0.467667 -0.198706 -0.938274
v -0.656375 -0.200910 -0.939681
v -0.523865 -0.371786 -0.031438
v -0.486681 -0.203094 -0.072072
v -0.486462 -0.202924 -0.106587
v -0.523646 -0.371618 -0.065953
v -0.486681 -0.203094 -0.072072
v -0.680477 -0.205357 -0.073517
v -0.680258 -0.205188 -0.108032
v -0.486462 -0.202924 -0.106587
v -0.680477 -0.205357 -0.073517
v -0.732555 -0.374224 -0.032994
v -0.732335 -0.374055 -0.067509
v -0.680258 -0.205188 -0.108032
v -0.572920 -0.594342 0.022171
v -0.523865 -0.371786 -0.031438
v -0.523646 -0.371618 -0.065953
v -0.572701 -0.594173 -0.012345
v -0.732555 -0.374224 -0.032994
v -0.801259 -0.597009 0.020468
v -0.801041 -0.596841 -0.014047
v -0.732335 -0.374055 -0.067509
v -0.632313 -0.863798 0.087076
v -0.572920 -0.594342 0.022171
v -0.572701 -0.594173 -0.012345
v -0.632094 -0.863630 0.052562
v -0.801259 -0.597009 0.020468
v -0.884444 -0.866744 0.085196
v -0.884225 -0.866575 0.050681
v -0.801041 -0.596841 -0.014047
v -0.678308 -1.072470 0.137340
v -0.632313 -0.863798 0.087076
v -0.632094 -0.863630 0.052562
v -0.678089 -1.072302 0.102826
v -0.884444 -0.866744 0.085196
v -0.948862 -1.075630 0.135324
v -0.948645 -1.075461 0.100808
v -0.884225 -0.866575 0.050681
v -0.948862 -1.075630 0.135324
v -0.678308 -1.072470 0.137340
v -0.678089 -1.072302 0.102826
v -0.948645 -1.075461 0.100808
v 1.017947 -1.052657 0.149989
v 0.948431 -0.845335 0.098863
v 0.948650 -0.845166 0.064348
v 1.018166 -1.052488 0.115474
v 0.664747 -0.848649 0.096747
v 0.713532 -1.056212 0.147719
v 0.713750 -1.056043 0.113204
v 0.664965 -0.848480 0.062233
v 0.713532 -1.056212 0.147719
v 1.017947 -1.052657 0.149989
v 1.018166 -1.052488 0.115474
v 0.713750 -1.056043 0.113204
v 0.601748 -0.580621 0.030929
v 0.664747 -0.848649 0.096747
v 0.664965 -0.848480 0.062233
v 0.601968 -0.580453 -0.003586
v 0.948431 -0.845335 0.098863
v 0.858665 -0.577621 0.032844
v 0.858884 -0.577451 -0.001671
v 0.948650 -0.845166 0.064348
v 0.549716 -0.359246 -0.023433
v 0.601748 -0.580621 0.030929
v 0.601968 -0.580453 -0.003586
v 0.549935 -0.359077 -0.057947
v 0.858665 -0.577621 0.032844
v 0.784524 -0.356504 -0.021682
v 0.784742 -0.356334 -0.056197
v 0.858884 -0.577451 -0.001671
v 0.510277 -0.191449 -0.064638
v 0.549716 -0.359246 -0.023433
v 0.549935 -0.359077 -0.057947
v 0.510496 -0.191280 -0.099153
v 0.784524 -0.356504 -0.021682
v 0.728326 -0.188901 -0.063012
v 0.728545 -0.188733 -0.097528
v 0.784742 -0.356334 -0.056197
v 0.728326 -0.188901 -0.063012
v 0.510277 -0.191449 -0.064638
v 0.510496 -0.191280 -0.099153
v 0.728545 -0.188733 -0.097528
v 0.542297 -0.354603 -1.007145
v 0.503337 -0.187198 -0.965550
v 0.503118 -0.187367 -0.931035
v 0.542078 -0.354771 -0.972630
v 0.503337 -0.187198 -0.965550
v 0.715662 -0.184717 -0.963966
v 0.715443 -0.184886 -0.929452
v 0.503118 -0.187367 -0.931035
v 0.715662 -0.184717 -0.963966
v 0.770939 -0.351933 -1.005440
v 0.770722 -0.352100 -0.970925
v 0.715443 -0.184886 -0.929452
v 0.593696 -0.575460 -1.062021
v 0.542297 -0.354603 -1.007145
v 0.542078 -0.354771 -0.972630
v 0.593478 -0.575628 -1.027507
v 0.770939 -0.351933 -1.005440
v 0.843868 -0.572538 -1.060155
v 0.843650 -0.572706 -1.025641
v 0.770722 -0.352100 -0.970925
v 0.655929 -0.842860 -1.128462
v 0.593696 -0.575460 -1.062021
v 0.593478 -0.575628 -1.027507
v 0.655710 -0.843029 -1.093946
v 0.843868 -0.572538 -1.060155
v 0.932167 -0.839633 -1.126402
v 0.931948 -0.839801 -1.091886
v 0.843650 -0.572706 -1.025641
v 0.704121 -1.049938 -1.179913
v 0.655929 -0.842860 -1.128462
v 0.655710 -0.843029 -1.093946
v 0.703903 -1.050107 -1.145399
v 0.932167 -0.839633 -1.126402
v 1.000544 -1.046476 -1.177705
v 1.000327 -1.046644 -1.143189
v 0.931948 -0.839801 -1.091886
v 1.000544 -1.046476 -1.177705
v 0.704121 -1.049938 -1.179913
v 0.703903 -1.050107 -1.145399
v 1.000327 -1.046644 -1.143189
v -0.395454 -1.062783 -1.188113
v -0.368769 -0.854830 -1.136102
v -0.368988 -0.854998 -1.101587
v -0.395673 -1.062950 -1.153598
v -0.129226 -0.852031 -1.134315
v -0.138407 -1.059780 -1.186197
v -0.138626 -1.059948 -1.151682
v -0.129444 -0.852199 -1.099802
v -0.138407 -1.059780 -1.186197
v -0.395454 -1.062783 -1.188113
v -0.395673 -1.062950 -1.153598
v -0.138626 -1.059948 -1.151682
v -0.117371 -0.583766 -1.067323
v -0.129226 -0.852031 -1.134315
v -0.129444 -0.852199 -1.099802
v -0.117589 -0.583934 -1.032809
v -0.368769 -0.854830 -1.136102
v -0.334310 -0.586299 -1.068941
v -0.334530 -0.586469 -1.034426
v -0.368988 -0.854998 -1.101587
v -0.107578 -0.362194 -1.011990
v -0.117371 -0.583766 -1.067323
v -0.117589 -0.583934 -1.032809
v -0.107797 -0.362362 -0.977476
v -0.334310 -0.586299 -1.068941
v -0.305849 -0.364509 -1.013470
v -0.306068 -0.364678 -0.978954
v -0.334530 -0.586469 -1.034426
v -0.100156 -0.194247 -0.970050
v -0.107578 -0.362194 -1.011990
v -0.107797 -0.362362 -0.977476
v -0.100375 -0.194415 -0.935535
v -0.305849 -0.364509 -1.013470
v -0.284277 -0.196397 -0.971422
v -0.284495 -0.196566 -0.936908
v -0.306068 -0.364678 -0.978954
v -0.284277 -0.196397 -0.971422
v -0.100156 -0.194247 -0.970050
v -0.100375 -0.194415 -0.935535
v -0.284495 -0.196566 -0.936908
v -0.298571 -0.200897 -0.070670
v -0.321296 -0.369421 -0.029928
v -0.321077 -0.369251 -0.064443
v -0.298352 -0.200728 -0.105184
v -0.117680 -0.367042 -0.028409
v -0.109487 -0.198688 -0.069260
v -0.109268 -0.198519 -0.103775
v -0.117461 -0.366873 -0.062925
v -0.109487 -0.198688 -0.069260
v -0.298571 -0.200897 -0.070670
v -0.298352 -0.200728 -0.105184
v -0.109268 -0.198519 -0.103775
v -0.321296 -0.369421 -0.029928
v -0.351278 -0.591753 0.023824
v -0.351059 -0.591585 -0.010692
v -0.321077 -0.369251 -0.064443
v -0.128489 -0.589151 0.025484
v -0.117680 -0.367042 -0.028409
v -0.117461 -0.366873 -0.062925
v -0.128271 -0.588982 -0.009031
v -0.351278 -0.591753 0.023824
v -0.387578 -0.860940 0.088901
v -0.387359 -0.860771 0.054386
v -0.351059 -0.591585 -0.010692
v -0.141577 -0.858067 0.090735
v -0.128489 -0.589151 0.025484
v -0.128271 -0.588982 -0.009031
v -0.141358 -0.857898 0.056221
v -0.151712 -1.066318 0.141266
v -0.141577 -0.858067 0.090735
v -0.141358 -0.857898 0.056221
v -0.151493 -1.066150 0.106752
v -0.387578 -0.860940 0.088901
v -0.415689 -1.069403 0.139298
v -0.415470 -1.069234 0.104784
v -0.387359 -0.860771 0.054386
v -0.415689 -1.069403 0.139298
v -0.151712 -1.066318 0.141266
v -0.151493 -1.066150 0.106752
v -0.415470 -1.069234 0.104784
v 0.432744 -1.059492 0.145625
v 0.403078 -0.851705 0.094796
v 0.403297 -0.851536 0.060282
v 0.432963 -1.059325 0.111110
v 0.149807 -0.854663 0.092908
v 0.160965 -1.062666 0.143598
v 0.161183 -1.062498 0.109083
v 0.150025 -0.854495 0.058393
v 0.160965 -1.062666 0.143598
v 0.432744 -1.059492 0.145625
v 0.432963 -1.059325 0.111110
v 0.161183 -1.062498 0.109083
v 0.135400 -0.586069 0.027452
v 0.149807 -0.854663 0.092908
v 0.150025 -0.854495 0.058393
v 0.135618 -0.585900 -0.007062
v 0.403078 -0.851705 0.094796
v 0.364772 -0.583390 0.029162
v 0.364991 -0.583221 -0.005352
v 0.403297 -0.851536 0.060282
v 0.123500 -0.364224 -0.026611
v 0.135400 -0.586069 0.027452
v 0.135618 -0.585900 -0.007062
v 0.123718 -0.364056 -0.061127
v 0.364772 -0.583390 0.029162
v 0.333133 -0.361776 -0.025048
v 0.333352 -0.361607 -0.059562
v 0.364991 -0.583221 -0.005352
v 0.114480 -0.196072 -0.067589
v 0.123500 -0.364224 -0.026611
v 0.123718 -0.364056 -0.061127
v 0.114699 -0.195903 -0.102105
v 0.333133 -0.361776 -0.025048
v 0.309152 -0.193798 -0.066138
v 0.309371 -0.193629 -0.100653
v 0.333352 -0.361607 -0.059562
v 0.309152 -0.193798 -0.066138
v 0.114480 -0.196072 -0.067589
v 0.114699 -0.195903 -0.102105
v 0.309371 -0.193629 -0.100653
v 0.307491 -0.189486 -0.967010
v 0.331400 -0.357067 -1.008717
v 0.331181 -0.357234 -0.974203
v 0.307273 -0.189654 -0.932495
v 0.127269 -0.359450 -1.010239
v 0.117930 -0.191699 -0.968423
v 0.117711 -0.191868 -0.933908
v 0.127050 -0.359619 -0.975725
v 0.117930 -0.191699 -0.968423
v 0.307491 -0.189486 -0.967010
v 0.307273 -0.189654 -0.932495
v 0.117711 -0.191868 -0.933908
v 0.331400 -0.357067 -1.008717
v 0.362942 -0.578155 -1.063741
v 0.362723 -0.578323 -1.029227
v 0.331181 -0.357234 -0.974203
v 0.139590 -0.580764 -1.065407
v 0.127269 -0.359450 -1.010239
v 0.127050 -0.359619 -0.975725
v 0.139372 -0.580933 -1.030892
v 0.362942 -0.578155 -1.063741
v 0.401131 -0.845836 -1.130361
v 0.400913 -0.846004 -1.095847
v 0.362723 -0.578323 -1.029227
v 0.154509 -0.848717 -1.132200
v 0.139590 -0.580764 -1.065407
v 0.139372 -0.580933 -1.030892
v 0.154290 -0.848885 -1.097686
v 0.166061 -1.056224 -1.183926
v 0.154509 -0.848717 -1.132200
v 0.154290 -0.848885 -1.097686
v 0.165842 -1.056392 -1.149412
v 0.401131 -0.845836 -1.130361
v 0.430706 -1.053132 -1.181953
v 0.430486 -1.053300 -1.147437
v 0.400913 -0.846004 -1.095847
v 0.430706 -1.053132 -1.181953
v 0.166061 -1.056224 -1.183926
v 0.165842 -1.056392 -1.149412
v 0.430486 -1.053300 -1.147437
v -1.239062 -1.079279 0.186881
v -1.237924 -1.078402 0.007266
v -1.285182 -1.086188 0.027424
v -1.286364 -1.087098 0.213845
v -0.924322 -1.075601 0.189228
v -1.239062 -1.079279 0.186881
v -1.286364 -1.087098 0.213845
v -0.959699 -1.083282 0.216281
v 1.261665 -1.049205 0.025903
v 1.260526 -1.050081 0.205519
v 1.307920 -1.056796 0.233188
v 1.309102 -1.055884 0.046769
v -1.229947 -1.072256 -1.251237
v -0.915205 -1.068579 -1.248890
v -0.950237 -1.075994 -1.276321
v -1.276903 -1.079809 -1.278756
v 0.677461 -1.056893 0.201171
v 0.406912 -1.060052 0.199154
v 0.421967 -1.067143 0.226582
v 0.702767 -1.063864 0.228677
v 0.416028 -1.053030 -1.238964
v 0.686579 -1.049869 -1.236947
v 0.712229 -1.056576 -1.263926
v 0.431429 -1.059856 -1.266019
v 1.260526 -1.050081 0.205519
v 0.970777 -1.053467 0.203359
v 1.007195 -1.060308 0.230947
v 1.307920 -1.056796 0.233188
v 0.979893 -1.046444 -1.234760
v 1.269643 -1.043059 -1.232599
v 1.317383 -1.049507 -1.259414
v 1.016658 -1.053019 -1.261655
v -1.237924 -1.078402 0.007266
v -1.231007 -1.073073 -1.083911
v -1.278004 -1.080657 -1.105092
v -1.285182 -1.086188 0.027424
v 1.268582 -1.043877 -1.065273
v 1.261665 -1.049205 0.025903
v 1.309102 -1.055884 0.046769
v 1.316282 -1.050353 -1.085747
v -1.231007 -1.073073 -1.083911
v -1.229947 -1.072256 -1.251237
v -1.276903 -1.079809 -1.278756
v -1.278004 -1.080657 -1.105092
v 1.269643 -1.043059 -1.232599
v 1.268582 -1.043877 -1.065273
v 1.316282 -1.050353 -1.085747
v 1.317383 -1.049507 -1.259414
v 0.690133 -1.061717 -1.073367
v 0.417764 -1.064898 -1.075398
v 0.433225 -1.071751 -1.096254
v 0.715914 -1.068450 -1.094146
v 0.978457 -1.063631 0.027347
v 0.985422 -1.058267 -1.071165
v 1.022387 -1.064871 -1.091860
v 1.015160 -1.070437 0.048270
v 0.410799 -1.070262 0.023115
v 0.683168 -1.067080 0.025145
v 0.708686 -1.074019 0.045985
v 0.425998 -1.077320 0.043877
v -0.922419 -1.080553 -1.085391
v -0.929383 -1.085917 0.013122
v -0.964959 -1.093568 0.033505
v -0.957732 -1.087999 -1.106625
v -0.663630 -1.072557 0.191172
v -0.924322 -1.075601 0.189228
v -0.959699 -1.083282 0.216281
v -0.689133 -1.080121 0.218298
v -0.929383 -1.085917 0.013122
v -0.666940 -1.082852 0.015079
v -0.692571 -1.090386 0.035536
v -0.964959 -1.093568 0.033505
v -0.659976 -1.077487 -1.083434
v -0.922419 -1.080553 -1.085391
v -0.957732 -1.087999 -1.106625
v -0.685344 -1.084818 -1.104594
v -0.915205 -1.068579 -1.248890
v -0.654515 -1.065534 -1.246946
v -0.679671 -1.072834 -1.274304
v -0.950237 -1.075994 -1.276321
v 0.985422 -1.058267 -1.071165
v 0.690133 -1.061717 -1.073367
v 0.715914 -1.068450 -1.094146
v 1.022387 -1.064871 -1.091860
v 0.683168 -1.067080 0.025145
v 0.978457 -1.063631 0.027347
v 1.015160 -1.070437 0.048270
v 0.708686 -1.074019 0.045985
v 0.970777 -1.053467 0.203359
v 0.677461 -1.056893 0.201171
v 0.702767 -1.063864 0.228677
v 1.007195 -1.060308 0.230947
v 0.686579 -1.049869 -1.236947
v 0.979893 -1.046444 -1.234760
v 1.016658 -1.053019 -1.261655
v 0.712229 -1.056576 -1.263926
v -0.156235 -1.066631 0.194955
v -0.410587 -1.069600 0.193060
v -0.426502 -1.077055 0.220256
v -0.162513 -1.073971 0.222225
v -0.412195 -1.079875 0.016978
v -0.156133 -1.076885 0.018888
v -0.162413 -1.084192 0.039489
v -0.428175 -1.087297 0.037508
v -0.149169 -1.071521 -1.079626
v -0.405232 -1.074512 -1.081535
v -0.420949 -1.081729 -1.102622
v -0.155185 -1.078626 -1.100641
v -0.401470 -1.062580 -1.245060
v -0.147118 -1.059608 -1.243164
v -0.153051 -1.066682 -1.270377
v -0.417041 -1.069766 -1.272345
v -0.410587 -1.069600 0.193060
v -0.663630 -1.072557 0.191172
v -0.689133 -1.080121 0.218298
v -0.426502 -1.077055 0.220256
v -0.666940 -1.082852 0.015079
v -0.412195 -1.079875 0.016978
v -0.428175 -1.087297 0.037508
v -0.692571 -1.090386 0.035536
v -0.405232 -1.074512 -1.081535
v -0.659976 -1.077487 -1.083434
v -0.685344 -1.084818 -1.104594
v -0.420949 -1.081729 -1.102622
v -0.654515 -1.065534 -1.246946
v -0.401470 -1.062580 -1.245060
v -0.417041 -1.069766 -1.272345
v -0.679671 -1.072834 -1.274304
v 0.145041 -1.063111 0.197201
v -0.156235 -1.066631 0.194955
v -0.162513 -1.073971 0.222225
v 0.150176 -1.070318 0.224557
v -0.147118 -1.059608 -1.243164
v 0.154158 -1.056088 -1.240916
v 0.159638 -1.063029 -1.268046
v -0.153051 -1.066682 -1.270377
v 0.154133 -1.067977 -1.077364
v -0.149169 -1.071521 -1.079626
v -0.155185 -1.078626 -1.100641
v 0.159607 -1.074948 -1.098294
v -0.156133 -1.076885 0.018888
v 0.147168 -1.073341 0.021149
v 0.152380 -1.080517 0.041836
v -0.162413 -1.084192 0.039489
v 0.406912 -1.060052 0.199154
v 0.145041 -1.063111 0.197201
v 0.150176 -1.070318 0.224557
v 0.421967 -1.067143 0.226582
v 0.154158 -1.056088 -1.240916
v 0.416028 -1.053030 -1.238964
v 0.431429 -1.059856 -1.266019
v 0.159638 -1.063029 -1.268046
v 0.417764 -1.064898 -1.075398
v 0.154133 -1.067977 -1.077364
v 0.159607 -1.074948 -1.098294
v 0.433225 -1.071751 -1.096254
v 0.147168 -1.073341 0.021149
v 0.410799 -1.070262 0.023115
v 0.425998 -1.077320 0.043877
v 0.152380 -1.080517 0.041836
v -0.914849 -1.069015 -1.157469
v -0.852810 -0.860649 -1.105194
v -0.607297 -0.857781 -1.103364
v -0.651397 -1.065938 -1.155506
v -0.550352 -0.588988 -1.036035
v -0.772697 -0.591586 -1.037693
v -0.503318 -0.366982 -0.980426
v -0.706530 -0.369356 -0.981940
v -0.467667 -0.198706 -0.938274
v -0.656375 -0.200910 -0.939681
v -0.732335 -0.374055 -0.067509
v -0.523646 -0.371618 -0.065953
v -0.486462 -0.202924 -0.106587
v -0.680258 -0.205188 -0.108032
v -0.801041 -0.596841 -0.014047
v -0.572701 -0.594173 -0.012345
v -0.884225 -0.866575 0.050681
v -0.632094 -0.863630 0.052562
v -0.678089 -1.072302 0.102826
v -0.948645 -1.075461 0.100808
v 1.018166 -1.052488 0.115474
v 0.948650 -0.845166 0.064348
v 0.664965 -0.848480 0.062233
v 0.713750 -1.056043 0.113204
v 0.601968 -0.580453 -0.003586
v 0.858884 -0.577451 -0.001671
v 0.549935 -0.359077 -0.057947
v 0.784742 -0.356334 -0.056197
v 0.510496 -0.191280 -0.099153
v 0.728545 -0.188733 -0.097528
v 0.770722 -0.352100 -0.970925
v 0.542078 -0.354771 -0.972630
v 0.503118 -0.187367 -0.931035
v 0.715443 -0.184886 -0.929452
v 0.843650 -0.572706 -1.025641
v 0.593478 -0.575628 -1.027507
v 0.931948 -0.839801 -1.091886
v 0.655710 -0.843029 -1.093946
v 0.703903 -1.050107 -1.145399
v 1.000327 -1.046644 -1.143189
v -0.395673 -1.062950 -1.153598
v -0.368988 -0.854998 -1.101587
v -0.129444 -0.852199 -1.099802
v -0.138626 -1.059948 -1.151682
v -0.117589 -0.583934 -1.032809
v -0.334530 -0.586469 -1.034426
v -0.107797 -0.362362 -0.977476
v -0.306068 -0.364678 -0.978954
v -0.100375 -0.194415 -0.935535
v -0.284495 -0.196566 -0.936908
v -0.298352 -0.200728 -0.105184
v -0.321077 -0.369251 -0.064443
v -0.117461 -0.366873 -0.062925
v -0.109268 -0.198519 -0.103775
v -0.351059 -0.591585 -0.010692
v -0.128271 -0.588982 -0.009031
v -0.387359 -0.860771 0.054386
v -0.141358 -0.857898 0.056221
v -0.151493 -1.066150 0.106752
v -0.415470 -1.069234 0.104784
v 0.432963 -1.059325 0.111110
v 0.403297 -0.851536 0.060282
v 0.150025 -0.854495 0.058393
v 0.161183 -1.062498 0.109083
v 0.135618 -0.585900 -0.007062
v 0.364991 -0.583221 -0.005352
v 0.123718 -0.364056 -0.061127
v 0.333352 -0.361607 -0.059562
v 0.114699 -0.195903 -0.102105
v 0.309371 -0.193629 -0.100653
v 0.307273 -0.189654 -0.932495
v 0.331181 -0.357234 -0.974203
v 0.127050 -0.359619 -0.975725
v 0.117711 -0.191868 -0.933908
v 0.362723 -0.578323 -1.029227
v 0.139372 -0.580933 -1.030892
v 0.400913 -0.846004 -1.095847
v 0.154290 -0.848885 -1.097686
v 0.165842 -1.056392 -1.149412
v 0.430486 -1.053300 -1.147437
vn -0.9270 0.3749 -0.0040
vn 0.9169 0.3990 0.0078
vn 0.9214 0.3886 0.0077
vn 0.0117 -0.9999 -0.0048
vn -0.9293 0.3692 -0.0041
vn -0.0117 0.9999 0.0048
vn -0.0099 0.2229 0.9748
vn 0.0045 0.2357 -0.9718
vn 0.9476 0.3193 0.0076
vn 0.9519 0.3064 0.0075
vn 0.9334 0.3587 0.0077
vn -0.0095 0.1891 0.9819
vn -0.0093 0.1693 0.9855
vn -0.0097 0.2053 0.9786
vn -0.9581 0.2865 -0.0047
vn -0.9541 0.2995 -0.0046
vn -0.9408 0.3390 -0.0043
vn 0.0052 0.1823 -0.9832
vn 0.0050 0.2020 -0.9794
vn 0.0048 0.2180 -0.9759
vn -0.9991 0.0417 -0.0061
vn -0.0077 0.0233 0.9997
vn 0.9980 0.0623 0.0066
vn 0.0070 0.0366 -0.9993
vn -0.0100 0.2363 0.9716
vn 0.0044 0.2421 -0.9702
vn -0.0096 0.1880 0.9821
vn -0.0097 0.2052 0.9787
vn 0.0050 0.2009 -0.9796
vn 0.0048 0.2181 -0.9759
vn -0.9543 0.2988 -0.0046
vn 0.9479 0.3186 0.0076
vn -0.9407 0.3392 -0.0044
vn 0.9334 0.3588 0.0077
vn -0.7073 -0.3764 -0.5984
vn -0.7267 -0.3771 -0.5743
vn -0.7265 -0.3771 -0.5744
vn -0.7072 -0.3764 -0.5985
vn 0.8799 -0.3426 -0.3292
vn 0.8784 -0.3429 -0.3328
vn 0.8651 -0.3460 -0.3631
vn 0.9600 -0.2795 -0.0177
vn 0.9603 -0.2778 -0.0250
vn 0.9604 -0.2774 -0.0271
vn -0.8819 -0.3638 0.2999
vn -0.8815 -0.3635 0.3013
vn -0.8781 -0.3648 0.3095
vn -0.0165 -0.1798 0.9836
vn -0.0163 -0.1800 0.9835
vn -0.0167 -0.1797 0.9836
vn -0.0169 -0.1796 0.9836
vn 0.0081 -0.1668 -0.9860
vn 0.0084 -0.1672 -0.9859
vn 0.0085 -0.1671 -0.9859
vn 0.0079 -0.1667 -0.9860
vn -0.0833 -0.2174 0.9725
vn -0.0790 -0.2156 0.9733
vn -0.0768 -0.2148 0.9736
vn -0.0833 -0.2173 0.9725
vn -0.0758 -0.2034 -0.9761
vn -0.0779 -0.2041 -0.9758
vn -0.0822 -0.2059 -0.9751
vn -0.0074 -0.0048 1.0000
vn -1.0000 -0.0071 -0.0064
vn 0.0074 0.0085 -0.9999
vn 0.9999 0.0135 0.0064
vn -0.0124 0.9935 0.1133
vn -0.0125 0.9935 0.1133
vn -0.0744 0.9972 0.0044
vn -0.0108 0.9945 -0.1037
vn 0.0510 0.9987 0.0052
vn -0.0039 -0.2775 0.9607
vn -0.8935 -0.4490 -0.0079
vn 0.0103 -0.2648 -0.9642
vn 0.9028 -0.4300 0.0036
vn -0.0698 -0.2120 0.9748
vn -0.0678 -0.2112 0.9751
vn -0.0675 -0.2000 -0.9775
vn -0.0695 -0.2008 -0.9772
vn -0.7554 -0.3771 -0.5359
vn -0.7557 -0.3772 -0.5353
vn -0.0100 0.2362 0.9716
vn 0.8992 -0.3369 -0.2793
vn 0.8977 -0.3373 -0.2836
vn 0.0090 -0.1672 -0.9859
vn 0.0092 -0.1673 -0.9859
vn -0.0158 -0.1801 0.9835
vn -0.0157 -0.1803 0.9835
vn 0.9608 -0.2748 -0.0381
vn 0.9608 -0.2742 -0.0402
vn -0.8871 -0.3624 0.2859
vn -0.8869 -0.3622 0.2869
vn -0.0619 -0.2088 0.9760
vn -0.0609 -0.2084 0.9761
vn -0.0597 -0.1967 -0.9786
vn -0.0614 -0.1975 -0.9784
vn -0.7820 -0.3766 -0.4966
vn -0.7825 -0.3767 -0.4958
vn 0.9150 -0.3304 -0.2316
vn 0.9138 -0.3309 -0.2354
vn 0.0096 -0.1675 -0.9858
vn 0.0097 -0.1675 -0.9858
vn -0.0152 -0.1804 0.9835
vn -0.0152 -0.1805 0.9835
vn 0.9610 -0.2717 -0.0507
vn 0.9611 -0.2713 -0.0524
vn -0.8923 -0.3603 0.2720
vn -0.8919 -0.3605 0.2730
vn -0.0579 -0.2073 0.9766
vn -0.0567 -0.1958 -0.9790
vn -0.0568 -0.1958 -0.9790
vn -0.7947 -0.3760 -0.4765
vn 0.9212 -0.3274 -0.2102
vn 0.0099 -0.1675 -0.9858
vn 0.0100 -0.1675 -0.9858
vn -0.0149 -0.1804 0.9835
vn -0.0148 -0.1804 0.9835
vn 0.9611 -0.2700 -0.0576
vn 0.9611 -0.2700 -0.0577
vn -0.8945 -0.3595 0.2657
vn -0.0125 0.9935 0.1134
vn 0.9581 -0.2864 0.0047
vn -0.9780 0.2085 -0.0052
vn -0.9768 0.2141 -0.0052
vn -0.9768 0.2141 -0.0051
vn 0.9559 -0.2937 0.0046
vn 0.9559 -0.2937 0.0047
vn -0.9475 -0.3196 -0.0076
vn 0.9730 0.2305 0.0073
vn 0.9743 0.2250 0.0073
vn 0.9743 0.2249 0.0073
vn -0.9500 -0.3122 -0.0075
vn -0.9500 -0.3122 -0.0076
vn 0.9917 -0.1287 0.0057
vn -0.9989 0.0457 -0.0061
vn 0.9917 -0.1287 0.0056
vn 0.9912 -0.1323 0.0056
vn -0.9989 0.0471 -0.0061
vn 0.9912 -0.1323 0.0057
vn -0.9897 -0.1430 -0.0070
vn 0.9985 0.0552 0.0066
vn -0.9902 -0.1395 -0.0069
vn -0.9902 -0.1395 -0.0070
vn 0.9985 0.0539 0.0066
vn 0.9985 0.0540 0.0066
vn -0.1610 0.9870 0.0038
vn -0.1610 0.9869 0.0038
vn -0.0132 0.9663 0.2571
vn -0.0132 0.9663 0.2570
vn 0.1370 0.9906 0.0057
vn -0.0094 0.9683 -0.2496
vn -0.0095 0.9683 -0.2497
vn -0.0094 0.9683 -0.2497
vn -0.0095 0.9683 -0.2496
vn 0.1369 0.9906 0.0057
vn 0.0087 -0.9481 0.3180
vn 0.0087 -0.9480 0.3180
vn -0.1791 -0.9838 -0.0059
vn 0.0135 -0.9437 -0.3307
vn 0.0135 -0.9436 -0.3307
vn 0.2083 -0.9781 -0.0035
vn 0.2083 -0.9780 -0.0035
vn 0.0135 -0.9437 -0.3306
vn 0.0087 -0.9480 0.3181
vn -0.0132 0.9663 0.2572
vt 0.116132 0.871394
vt 0.116132 0.697988
vt 0.152810 0.691501
vt 0.152810 0.877578
vt 0.751821 -0.000000
vt 0.784344 0.005803
vt 0.784344 0.181849
vt 0.751821 0.188911
vt 0.826340 0.013297
vt 0.826340 0.172731
vt 0.068770 0.863409
vt 0.068770 0.706366
vt 0.861027 0.019486
vt 0.861027 0.165200
vt 0.029651 0.856814
vt 0.029651 0.713285
vt 0.887319 0.024178
vt 0.887319 0.159492
vt 0.000000 0.718530
vt 0.000000 0.851815
vt -0.000000 0.660849
vt 0.032600 0.653894
vt 0.032600 0.682459
vt 0.000000 0.691501
vt 0.032033 0.000238
vt 0.032033 0.056373
vt 0.000000 0.056407
vt 0.000000 0.000272
vt 0.563959 0.664163
vt 0.563959 0.635579
vt 0.600614 0.641774
vt 0.600614 0.672446
vt 0.403137 0.463702
vt 0.403137 0.427021
vt 0.424069 0.427043
vt 0.424069 0.463724
vt 0.604591 0.053749
vt 0.568476 0.064644
vt 0.568476 0.014555
vt 0.604591 -0.000000
vt 0.292608 0.014572
vt 0.292608 0.064661
vt 0.256478 0.053750
vt 0.256478 0.000000
vt 0.135822 0.631874
vt 0.157581 0.628393
vt 0.157581 0.649311
vt 0.135822 0.653830
vt 0.454128 0.099140
vt 0.430571 0.104567
vt 0.430571 0.067886
vt 0.454128 0.060639
vt 0.424069 0.612897
vt 0.447899 0.615967
vt 0.447899 0.637937
vt 0.424069 0.633829
vt 0.430571 0.067963
vt 0.430571 0.104644
vt 0.407005 0.099209
vt 0.407005 0.060709
vt 0.911918 0.223896
vt 0.938539 0.224445
vt 0.938539 0.256478
vt 0.911918 0.255730
vt 0.210699 0.502218
vt 0.184144 0.503298
vt 0.184144 0.447512
vt 0.210699 0.446083
vt 0.922262 0.798116
vt 0.948270 0.797356
vt 0.948270 0.829168
vt 0.922262 0.830128
vt 0.184144 0.447513
vt 0.184144 0.503299
vt 0.157581 0.502218
vt 0.157581 0.446083
vt 0.000000 0.293838
vt 0.032033 0.293804
vt 0.032033 0.342057
vt 0.000000 0.342091
vt 0.210699 0.787900
vt 0.184144 0.787204
vt 0.184144 0.739251
vt 0.210699 0.739647
vt 0.361870 0.876531
vt 0.365108 0.839636
vt 0.409415 0.833831
vt 0.409415 0.870303
vt 0.454128 0.295076
vt 0.430571 0.291241
vt 0.430571 0.259711
vt 0.454128 0.261981
vt 0.424069 0.650400
vt 0.403137 0.650378
vt 0.403138 0.618847
vt 0.424069 0.618869
vt 0.407005 0.262050
vt 0.430571 0.259788
vt 0.430571 0.291318
vt 0.407005 0.295145
vt 0.695002 0.734195
vt 0.695002 0.770639
vt 0.651836 0.765155
vt 0.648682 0.728310
vt 0.157581 0.739646
vt 0.184144 0.739252
vt 0.184144 0.787206
vt 0.157581 0.787900
vt 0.032033 0.394371
vt 0.032033 0.446049
vt 0.000000 0.446083
vt 0.000000 0.394405
vt 0.184144 0.890549
vt 0.184144 0.839193
vt 0.210699 0.840213
vt 0.210699 0.891891
vt 0.568476 0.412352
vt 0.568476 0.366240
vt 0.604591 0.377384
vt 0.604591 0.426865
vt 0.430571 0.359192
vt 0.430571 0.325425
vt 0.454128 0.330955
vt 0.454128 0.366398
vt 0.403138 0.718330
vt 0.403138 0.684562
vt 0.424069 0.684584
vt 0.424069 0.718352
vt 0.407005 0.331024
vt 0.430571 0.325502
vt 0.430571 0.359270
vt 0.407005 0.366467
vt 0.256478 0.377384
vt 0.292608 0.366257
vt 0.292608 0.412369
vt 0.256478 0.426866
vt 0.157581 0.840213
vt 0.184144 0.839194
vt 0.184144 0.890550
vt 0.157581 0.891890
vt 0.275977 0.718195
vt 0.275977 0.684427
vt 0.275977 0.650243
vt 0.275977 0.618712
vt 0.275977 0.463567
vt 0.275977 0.426886
vt 0.424069 0.485737
vt 0.447899 0.482498
vt 0.911918 0.030502
vt 0.938539 0.029841
vt 0.226636 0.000032
vt 0.226636 0.056167
vt 0.751810 0.725341
vt 0.875893 0.725210
vt 0.875893 0.755977
vt 0.751810 0.756109
vt 0.226636 0.394165
vt 0.226636 0.445843
vt 0.922262 0.603641
vt 0.948270 0.604090
vt 0.135822 0.498493
vt 0.157581 0.501317
vt 0.256478 0.684406
vt 0.256478 0.718174
vt 0.256478 0.618692
vt 0.256478 0.650223
vt 0.256478 0.463546
vt 0.447899 0.462031
vt 0.424069 0.466238
vt 0.600614 0.426866
vt 0.600614 0.455439
vt 0.563959 0.461934
vt 0.563959 0.435306
vt 0.938539 0.000000
vt 0.911918 0.000846
vt 0.256478 0.056136
vt 0.256477 0.341820
vt 0.226636 0.341851
vt 0.226636 0.293597
vt 0.256478 0.293566
vt 0.256477 0.445811
vt 0.256477 0.394134
vt 0.948270 0.574453
vt 0.922262 0.573820
vt 0.032601 0.453753
vt 0.032601 0.480363
vt 0.000000 0.474637
vt 0.157581 0.481830
vt 0.135822 0.478040
vt 0.986926 0.150649
vt 0.986416 0.115297
vt 0.995625 0.112230
vt 0.995625 0.147676
vt 0.420742 0.921704
vt 0.409415 0.916728
vt 0.409415 0.883633
vt 0.420742 0.887357
vt 0.963156 0.119937
vt 0.972868 0.121552
vt 0.972397 0.159248
vt 0.963157 0.157817
vt 0.978483 0.809765
vt 0.987656 0.805421
vt 0.987656 0.851624
vt 0.978483 0.857717
vt 0.983799 0.000000
vt 0.984040 0.037809
vt 0.974359 0.040190
vt 0.974359 0.002298
vt 0.738027 0.893641
vt 0.748779 0.891153
vt 0.748778 0.924248
vt 0.738027 0.927087
vt 0.997105 0.426135
vt 0.987516 0.423396
vt 0.987758 0.388017
vt 0.997105 0.390704
vt 0.986747 0.471237
vt 0.977031 0.468169
vt 0.977031 0.421966
vt 0.986747 0.424544
vt 0.887304 0.234322
vt 0.869243 0.226604
vt 0.869479 0.188911
vt 0.887305 0.196526
vt 0.858279 0.789465
vt 0.858279 0.975799
vt 0.838896 0.975793
vt 0.838895 0.789715
vt 0.867514 0.188911
vt 0.867750 0.226616
vt 0.849693 0.234342
vt 0.849693 0.196534
vt 0.938539 0.328164
vt 0.938539 0.194694
vt 0.958993 0.194915
vt 0.958993 0.328200
vt 0.961117 0.946842
vt 0.960684 0.909224
vt 0.974562 0.903151
vt 0.974562 0.940945
vt 0.938887 0.831000
vt 0.938888 0.964469
vt 0.922262 0.965532
vt 0.858279 0.909202
vt 0.872147 0.915295
vt 0.871714 0.952935
vt 0.858280 0.947019
vt 0.586218 0.860045
vt 0.586218 0.673710
vt 0.600892 0.672446
vt 0.600892 0.861481
vt 0.887319 0.237540
vt 0.911917 0.237464
vt 0.911917 0.285717
vt 0.887319 0.285816
vt 0.963156 0.000001
vt 0.963156 0.194604
vt 0.938540 -0.000000
vt 0.235304 0.731899
vt 0.210699 0.731800
vt 0.210699 0.683547
vt 0.235304 0.683623
vt 0.941639 0.558782
vt 0.941639 0.364307
vt 0.965994 0.364155
vt 0.965994 0.558720
vt 0.965994 0.450430
vt 0.977030 0.442677
vt 0.977030 0.489191
vt 0.965994 0.502419
vt 0.254478 0.457099
vt 0.254478 0.644686
vt 0.235304 0.655748
vt 0.235304 0.446083
vt 0.959312 0.881615
vt 0.948270 0.868364
vt 0.948271 0.821850
vt 0.959312 0.829627
vt 0.959312 0.772464
vt 0.959312 0.584876
vt 0.978483 0.573820
vt 0.978483 0.783485
vt 0.604591 0.590355
vt 0.751810 0.619960
vt 0.751810 0.671948
vt 0.604591 0.621122
vt 0.896484 0.364155
vt 0.896484 0.573820
vt 0.751810 0.531221
vt 0.751810 0.407139
vt 0.751821 0.256883
vt 0.604591 0.307793
vt 0.604591 0.255805
vt 0.751821 0.226116
vt 0.424069 0.881972
vt 0.424069 0.672446
vt 0.586218 0.717315
vt 0.586218 0.841315
vt 0.074698 0.463658
vt 0.074698 0.487757
vt 0.960124 0.860648
vt 0.974562 0.854347
vt 0.858279 0.860370
vt 0.872707 0.866691
vt 0.074698 0.644914
vt 0.074698 0.670783
vt 0.521841 0.393611
vt 0.521841 0.351850
vt 0.985758 0.069649
vt 0.995625 0.066459
vt 0.409415 0.786735
vt 0.369288 0.791992
vt 0.963157 0.071023
vt 0.973476 0.072877
vt 0.521842 0.078713
vt 0.521841 0.033350
vt 0.516626 0.653467
vt 0.516626 0.627581
vt 0.868054 0.275306
vt 0.849693 0.283163
vt 0.887304 0.283127
vt 0.868938 0.275278
vt 0.516626 0.470320
vt 0.516626 0.446205
vt 0.339263 0.033388
vt 0.339263 0.078751
vt 0.984351 0.086632
vt 0.974359 0.089119
vt 0.655909 0.812732
vt 0.695002 0.817698
vt 0.997106 0.471887
vt 0.987202 0.469079
vt 0.339263 0.351888
vt 0.339263 0.393649
vt 0.109467 0.471839
vt 0.109467 0.493864
vt 0.959662 0.820527
vt 0.974562 0.814038
vt 0.858279 0.820036
vt 0.873169 0.826547
vt 0.109467 0.637496
vt 0.109467 0.661139
vt 0.483324 0.378131
vt 0.483324 0.339964
vt 0.985215 0.031946
vt 0.995625 0.028655
vt 0.409415 0.747836
vt 0.372741 0.752641
vt 0.963156 0.030623
vt 0.973978 0.032673
vt 0.483324 0.090332
vt 0.483324 0.048873
vt 0.477531 0.644633
vt 0.477532 0.620974
vt 0.868306 0.315520
vt 0.849693 0.323486
vt 0.887304 0.323437
vt 0.868687 0.315480
vt 0.477531 0.477247
vt 0.477532 0.455208
vt 0.377797 0.048929
vt 0.377797 0.090388
vt 0.984608 0.126957
vt 0.974359 0.129531
vt 0.659273 0.852028
vt 0.695002 0.856567
vt 0.997106 0.509675
vt 0.986943 0.506812
vt 0.377797 0.340020
vt 0.377797 0.378187
vt 0.959312 0.790116
vt 0.974562 0.783485
vt 0.873520 0.796118
vt 0.984803 0.003367
vt 0.995625 0.000000
vt 0.409415 0.718352
vt 0.375359 0.722814
vt 0.974359 0.002199
vt 0.963156 -0.000000
vt 0.868496 0.346002
vt 0.849693 0.354050
vt 0.868496 0.345952
vt 0.887305 0.353992
vt 0.984803 0.157523
vt 0.974359 0.160164
vt 0.661823 0.881814
vt 0.695002 0.886029
vt 0.986747 0.535412
vt 0.997106 0.538318
vt 0.210699 0.548713
vt 0.184144 0.549504
vt 0.032033 0.102868
vt 0.000000 0.102902
vt 0.235304 0.492600
vt 0.210699 0.492613
vt 0.210699 0.446118
vt 0.959312 0.623914
vt 0.948271 0.637798
vt 0.948270 0.592979
vt 0.959312 0.573820
vt 0.751821 0.104373
vt 0.604591 0.050093
vt 0.751821 0.074728
vt 0.875893 0.573820
vt 0.875893 0.603466
vt 0.751810 0.603597
vt 0.751810 0.573951
vt 0.751810 0.364155
vt 0.751810 0.414248
vt 0.604591 0.468612
vt 0.604591 0.438966
vt 0.977030 0.213806
vt 0.977030 0.258625
vt 0.965994 0.244717
vt 0.965994 0.194623
vt 0.911917 0.000036
vt 0.911917 0.046530
vt 0.887319 0.046517
vt 0.887319 0.000000
vt 0.256478 0.102630
vt 0.226636 0.102662
vt 0.184144 0.549505
vt 0.157581 0.548713
vt 0.986747 0.239785
vt 0.977031 0.239143
vt 0.977031 0.194623
vt 0.986747 0.194793
vt 0.748779 0.728310
vt 0.748779 0.760199
vt 0.738027 0.761300
vt 0.738027 0.729073
vt 0.430571 0.135025
vt 0.407005 0.131097
vt 0.275977 0.493949
vt 0.256478 0.493928
vt 0.403137 0.494083
vt 0.424069 0.494106
vt 0.454128 0.131028
vt 0.430571 0.134948
vt 0.420742 0.751448
vt 0.409415 0.752680
vt 0.409415 0.720791
vt 0.420742 0.718352
vt 0.987656 0.578079
vt 0.987656 0.622598
vt 0.978483 0.620024
vt 0.911917 0.338031
vt 0.887319 0.338153
vt 0.977030 0.539619
vt 0.965994 0.558782
vt 0.751810 0.728310
vt 0.604591 0.654478
vt 0.875892 0.789333
vt 0.751810 0.789465
vt 0.604591 0.364155
vt 0.751821 0.290239
vt 0.948271 0.918792
vt 0.959312 0.937978
vt 0.210699 0.784113
vt 0.235304 0.784236
vt 0.987657 0.901716
vt 0.978483 0.909703
vt 0.409415 0.952608
vt 0.420742 0.958942
vt 0.748779 0.960128
vt 0.738027 0.963346
vt 0.977031 0.518260
vt 0.986747 0.521859
vt 0.210699 0.639208
vt 0.184144 0.639437
vt 0.184144 0.594354
vt 0.210699 0.593844
vt 0.000000 0.148033
vt 0.032033 0.148000
vt 0.032033 0.193364
vt 0.000000 0.193398
vt 0.235304 0.583137
vt 0.210699 0.583108
vt 0.210699 0.537744
vt 0.235304 0.537752
vt 0.959312 0.721414
vt 0.948271 0.725032
vt 0.948270 0.681302
vt 0.959312 0.672538
vt 0.751821 0.162075
vt 0.604591 0.147593
vt 0.604591 0.098717
vt 0.751821 0.133150
vt 0.751810 0.632374
vt 0.875893 0.632243
vt 0.875893 0.661168
vt 0.751810 0.661299
vt 0.604591 0.497388
vt 0.751810 0.462872
vt 0.751810 0.511748
vt 0.604591 0.526313
vt 0.965994 0.293341
vt 0.977030 0.302129
vt 0.977030 0.345859
vt 0.965994 0.342217
vt 0.887319 0.091669
vt 0.911917 0.091661
vt 0.911917 0.137025
vt 0.887319 0.137054
vt 0.256478 0.193127
vt 0.226636 0.193158
vt 0.226636 0.147793
vt 0.256478 0.147762
vt 0.157581 0.593844
vt 0.184144 0.594356
vt 0.184144 0.639438
vt 0.157581 0.639208
vt 0.986747 0.327354
vt 0.977031 0.325794
vt 0.977031 0.282357
vt 0.986747 0.283456
vt 0.738027 0.792581
vt 0.748779 0.791153
vt 0.748778 0.822266
vt 0.738027 0.824024
vt 0.407005 0.162051
vt 0.430571 0.164515
vt 0.430571 0.194158
vt 0.407005 0.193164
vt 0.256478 0.523418
vt 0.275977 0.523439
vt 0.275977 0.553082
vt 0.256478 0.553061
vt 0.403137 0.553217
vt 0.403137 0.523574
vt 0.424069 0.553239
vt 0.424069 0.523596
vt 0.454128 0.193095
vt 0.430571 0.194081
vt 0.430571 0.164438
vt 0.454128 0.161982
vt 0.420742 0.815863
vt 0.409415 0.814747
vt 0.409415 0.783633
vt 0.420742 0.783572
vt 0.978483 0.664873
vt 0.987657 0.665812
vt 0.987656 0.709249
vt 0.978483 0.709954
vt 0.795067 0.789465
vt 0.792121 0.826373
vt 0.751810 0.831964
vt 0.751810 0.795465
vt 0.751810 0.879096
vt 0.788318 0.874032
vt 0.751810 0.918024
vt 0.785176 0.913396
vt 0.751810 0.947531
vt 0.782795 0.943233
vt 0.907699 0.731160
vt 0.910144 0.761033
vt 0.875893 0.756176
vt 0.875893 0.726648
vt 0.913368 0.800446
vt 0.875893 0.795130
vt 0.917273 0.848164
vt 0.875893 0.842295
vt 0.875893 0.878820
vt 0.920297 0.885118
vt 0.210699 0.692941
vt 0.184144 0.692836
vt 0.987656 0.760700
vt 0.978483 0.763351
vt 0.256478 0.869015
vt 0.258055 0.832852
vt 0.307816 0.832852
vt 0.309875 0.869015
vt 0.305157 0.786156
vt 0.260091 0.786155
vt 0.302960 0.747586
vt 0.261773 0.747586
vt 0.301296 0.718352
vt 0.263048 0.718352
vt 0.420742 0.854111
vt 0.409415 0.851600
vt 0.454128 0.229948
vt 0.430571 0.229192
vt 0.424069 0.588350
vt 0.403137 0.588328
vt 0.275977 0.588193
vt 0.256478 0.588173
vt 0.430571 0.229269
vt 0.407005 0.230017
vt 0.748779 0.859120
vt 0.738027 0.861268
vt 0.316188 0.868976
vt 0.314963 0.839749
vt 0.355069 0.839749
vt 0.353431 0.868976
vt 0.313347 0.801190
vt 0.357229 0.801190
vt 0.311390 0.754506
vt 0.359845 0.754505
vt 0.361870 0.718352
vt 0.309875 0.718352
vt 0.986747 0.379349
vt 0.977031 0.377245
vt 0.184144 0.692837
vt 0.157581 0.692941
vt 0.256478 0.246860
vt 0.226636 0.246892
vt 0.911917 0.190759
vt 0.887319 0.190813
vt 0.977030 0.397655
vt 0.965994 0.400110
vt 0.751810 0.569640
vt 0.604591 0.560575
vt 0.875893 0.695429
vt 0.751810 0.695561
vt 0.751821 0.196336
vt 0.604591 0.205485
vt 0.959312 0.779306
vt 0.948270 0.776828
vt 0.235304 0.636896
vt 0.210699 0.636842
vt 0.032033 0.247098
vt 0.000000 0.247132
vt 0.040048 0.877578
vt 0.040048 0.915470
vt 0.034321 0.916847
vt 0.034321 0.878956
vt 0.067544 0.914677
vt 0.067544 0.877578
vt 0.073274 0.878957
vt 0.073274 0.916056
vt 0.284438 0.914006
vt 0.284438 0.869015
vt 0.290332 0.869021
vt 0.290332 0.914013
vt 0.902210 0.564709
vt 0.902210 0.516803
vt 0.907940 0.518183
vt 0.907940 0.566088
vt 0.241031 0.707741
vt 0.241031 0.756670
vt 0.235304 0.758048
vt 0.235304 0.709119
vt 0.379059 0.916099
vt 0.379059 0.876531
vt 0.384789 0.877911
vt 0.384789 0.917478
vt 0.373333 0.876531
vt 0.373333 0.916944
vt 0.367606 0.918322
vt 0.367606 0.877909
vt 0.505171 0.911963
vt 0.505171 0.881972
vt 0.510902 0.883351
vt 0.510902 0.913342
vt 0.499445 0.881972
vt 0.499445 0.912604
vt 0.493719 0.913981
vt 0.493719 0.883349
vt 0.482089 0.881972
vt 0.482089 0.914199
vt 0.476195 0.914205
vt 0.476195 0.881978
vt 0.499445 0.913399
vt 0.499445 0.883369
vt 0.505171 0.912002
vt 0.458513 0.915074
vt 0.458513 0.881978
vt 0.464407 0.881972
vt 0.464407 0.915067
vt 0.493719 0.883310
vt 0.493719 0.913932
vt 0.487983 0.912594
vt 0.487983 0.881972
vt 0.373333 0.917547
vt 0.373333 0.877929
vt 0.379059 0.876532
vt 0.379059 0.916150
vt 0.367606 0.877869
vt 0.367606 0.918270
vt 0.361870 0.916932
vt 0.896484 0.566168
vt 0.896484 0.518201
vt 0.902210 0.564771
vt 0.246934 0.707714
vt 0.246934 0.756628
vt 0.241198 0.755290
vt 0.241198 0.706376
vt 0.056141 0.916122
vt 0.056141 0.878975
vt 0.061867 0.877578
vt 0.061867 0.914725
vt 0.034321 0.878916
vt 0.034321 0.916796
vt 0.028585 0.915458
vt 0.028585 0.877578
vt 0.344522 0.868982
vt 0.344522 0.915187
vt 0.338628 0.915180
vt 0.338628 0.868976
vt 0.435510 0.918885
vt 0.435510 0.883440
vt 0.441218 0.881972
vt 0.441218 0.917417
vt 0.446895 0.883542
vt 0.446895 0.918489
vt 0.441218 0.916918
vt 0.241198 0.655754
vt 0.241198 0.707741
vt 0.235304 0.707735
vt 0.296008 0.870586
vt 0.296008 0.915712
vt 0.290332 0.914141
vt 0.290332 0.869015
vt 0.355963 0.916215
vt 0.355963 0.870444
vt 0.361671 0.868976
vt 0.361671 0.914747
vt 0.067544 0.879149
vt 0.067544 0.916420
vt 0.061867 0.914850
vt 0.045763 0.916850
vt 0.045763 0.879046
vt 0.051471 0.877578
vt 0.051471 0.915382
vt 0.568033 0.883542
vt 0.568033 0.911794
vt 0.562356 0.910223
vt 0.562357 0.881972
vt 0.550933 0.912094
vt 0.550933 0.883440
vt 0.556641 0.881972
vt 0.556641 0.910626
vt 0.083633 0.914822
vt 0.083633 0.877584
vt 0.089527 0.877578
vt 0.089527 0.914815
vt 0.573758 0.881972
vt 0.573758 0.910017
vt 0.568033 0.911404
vt 0.568033 0.883359
vt 0.143685 0.877578
vt 0.143685 0.913838
vt 0.137791 0.913844
vt 0.137791 0.877584
vt 0.556641 0.910615
vt 0.562356 0.883413
vt 0.562357 0.912056
vt 0.083633 0.877578
vt 0.083633 0.914578
vt 0.077908 0.915965
vt 0.077908 0.878965
vt 0.040048 0.915367
vt 0.045763 0.879019
vt 0.045763 0.916808
vt 0.301733 0.869015
vt 0.301733 0.913812
vt 0.296009 0.915199
vt 0.296009 0.870402
vt 0.350248 0.914728
vt 0.350247 0.868976
vt 0.355963 0.870417
vt 0.355963 0.916169
vt 0.452619 0.881972
vt 0.452619 0.916663
vt 0.446895 0.918050
vt 0.446895 0.883359
vt 0.429794 0.917403
vt 0.429794 0.881972
vt 0.435510 0.883413
vt 0.435510 0.918844
vt 0.241198 0.706370
vt 0.241198 0.655748
vt 0.247092 0.655754
vt 0.247092 0.706376
vt 0.105606 0.877578
vt 0.105606 0.914443
vt 0.099880 0.915824
vt 0.099880 0.878959
vt 0.111326 0.914159
vt 0.111326 0.877578
vt 0.117052 0.878976
vt 0.117052 0.915556
vt 0.301733 0.912912
vt 0.307627 0.869021
vt 0.307627 0.912919
vt 0.309875 0.916212
vt 0.309875 0.868976
vt 0.315600 0.870374
vt 0.315600 0.917610
vt 0.913667 0.516803
vt 0.913667 0.564407
vt 0.907941 0.565788
vt 0.907941 0.518184
vt 0.000000 0.916593
vt 0.000000 0.877578
vt 0.005726 0.878976
vt 0.005726 0.917991
vt 0.400868 0.876531
vt 0.400868 0.915850
vt 0.395142 0.917230
vt 0.395142 0.877912
vt 0.522348 0.911544
vt 0.522348 0.881972
vt 0.528074 0.883370
vt 0.528074 0.912942
vt 0.516628 0.881972
vt 0.516628 0.911774
vt 0.510902 0.913155
vt 0.510902 0.883352
vt 0.487983 0.913415
vt 0.482089 0.913421
vt 0.482089 0.881978
vt 0.252811 0.754315
vt 0.252811 0.784172
vt 0.247092 0.782763
vt 0.247092 0.752907
vt 0.516628 0.912993
vt 0.516628 0.883390
vt 0.522348 0.911574
vt 0.470301 0.914269
vt 0.470301 0.881978
vt 0.476195 0.881972
vt 0.476195 0.914263
vt 0.395142 0.877940
vt 0.395142 0.917330
vt 0.389423 0.915922
vt 0.389423 0.876532
vt 0.400868 0.917005
vt 0.400868 0.877950
vt 0.406589 0.876532
vt 0.406589 0.915586
vt 0.600892 0.862890
vt 0.600892 0.910581
vt 0.595173 0.909172
vt 0.595173 0.861481
vt 0.911918 0.305181
vt 0.911918 0.257896
vt 0.917638 0.256478
vt 0.917638 0.303762
vt 0.105606 0.915614
vt 0.105606 0.878997
vt 0.111326 0.914196
vt 0.095246 0.878987
vt 0.095246 0.915920
vt 0.089527 0.914511
vt 0.284438 0.869021
vt 0.284438 0.914102
vt 0.278544 0.914096
vt 0.278544 0.869015
vt 0.121722 0.915053
vt 0.121722 0.879021
vt 0.127437 0.877578
vt 0.127437 0.913610
vt 0.149384 0.879067
vt 0.149384 0.914982
vt 0.143685 0.913493
vt 0.332930 0.868982
vt 0.332930 0.915396
vt 0.327036 0.915389
vt 0.327036 0.868976
vt 0.338628 0.870465
vt 0.338628 0.916842
vt 0.332930 0.915352
vt 0.332930 0.868976
vt 0.315600 0.916946
vt 0.315600 0.870419
vt 0.321315 0.868976
vt 0.321315 0.915504
vt 0.022860 0.879067
vt 0.022859 0.917372
vt 0.017161 0.915883
vt 0.017161 0.877578
vt 0.005726 0.917450
vt 0.005726 0.879021
vt 0.011440 0.877578
vt 0.011440 0.916008
vt 0.545208 0.883461
vt 0.545208 0.912495
vt 0.539509 0.911006
vt 0.539509 0.881972
vt 0.528074 0.912543
vt 0.528074 0.883415
vt 0.533789 0.881972
vt 0.533789 0.911100
vt 0.452619 0.915223
vt 0.452619 0.881978
vt 0.458513 0.881972
vt 0.458513 0.915217
vt 0.533789 0.911079
vt 0.539509 0.883391
vt 0.539509 0.912498
vt 0.550933 0.881972
vt 0.550933 0.910877
vt 0.545208 0.912260
vt 0.545208 0.883355
vt 0.470301 0.881972
vt 0.470301 0.914344
vt 0.464407 0.914351
vt 0.464407 0.881978
vt 0.011440 0.915979
vt 0.017161 0.878997
vt 0.017161 0.917399
vt 0.028585 0.915713
vt 0.022860 0.917096
vt 0.022860 0.878962
vt 0.321315 0.915470
vt 0.327036 0.870395
vt 0.327036 0.916889
vt 0.350247 0.915146
vt 0.344522 0.916530
vt 0.344522 0.870359
vt 0.429794 0.917727
vt 0.424069 0.919111
vt 0.424069 0.883355
vt 0.127437 0.913584
vt 0.133157 0.878997
vt 0.133157 0.915003
vt 0.272650 0.914210
vt 0.272650 0.869015
vt 0.278544 0.869021
vt 0.278544 0.914216
vt 0.586218 0.892153
vt 0.586218 0.861481
vt 0.594281 0.864981
vt 0.594281 0.896815
vt 0.247092 0.717556
vt 0.247092 0.663806
vt 0.251762 0.655748
vt 0.251762 0.711534
vt 0.255201 0.717556
vt 0.255201 0.748228
vt 0.247092 0.752906
vt 0.247092 0.721073
vt 0.157444 0.699568
vt 0.157444 0.753318
vt 0.152810 0.747287
vt 0.916551 0.351384
vt 0.916551 0.305181
vt 0.921221 0.307772
vt 0.921221 0.355726
vt 0.389423 0.876531
vt 0.389423 0.922735
vt 0.384789 0.927067
vt 0.384789 0.879113
vt 0.251762 0.705230
vt 0.256433 0.661987
vt 0.256433 0.713344
vt 0.157444 0.753319
vt 0.157444 0.802801
vt 0.152810 0.810905
vt 0.152810 0.759548
vt 0.987657 0.763714
vt 0.987656 0.577380
vt 0.995719 0.573820
vt 0.995719 0.767214
vt 0.994856 0.198166
vt 0.994856 0.384500
vt 0.986747 0.388017
vt 0.986747 0.194623
vt 0.264587 0.902231
vt 0.264587 0.873657
vt 0.272649 0.869015
vt 0.272650 0.898671
vt 0.264587 0.873640
vt 0.264587 0.902214
vt 0.256478 0.898671
vt 0.600892 0.769850
vt 0.600892 0.723336
vt 0.604467 0.725936
vt 0.604467 0.774212
vt 0.987656 0.958369
vt 0.987657 0.770781
vt 0.993932 0.767214
vt 0.993932 0.961908
vt 0.604425 0.774212
vt 0.604425 0.820726
vt 0.600892 0.825096
vt 0.600892 0.776819
vt 1.000000 0.770795
vt 1.000000 0.958382
vt 0.918337 0.567344
vt 0.918337 0.522825
vt 0.923007 0.516803
vt 0.923007 0.563010
vt 0.604425 0.831159
vt 0.604424 0.875978
vt 0.600892 0.871613
vt 0.600892 0.678517
vt 0.604467 0.672446
vt 0.604467 0.718963
vt 0.925855 0.311212
vt 0.925855 0.355732
vt 0.921221 0.351387
vt 0.921222 0.305181
vt 0.600614 0.477294
vt 0.604188 0.431228
vt 0.604188 0.483566
vt 0.604146 0.483566
vt 0.604146 0.533994
vt 0.600614 0.540274
vt 0.600614 0.487935
vt 0.152810 0.860996
vt 0.157481 0.815247
vt 0.157481 0.867236
vt 0.916551 0.355272
vt 0.911917 0.361502
vt 0.911917 0.309513
vt 0.117052 0.923713
vt 0.117052 0.880276
vt 0.121722 0.877578
vt 0.121722 0.922661
vt 0.586218 0.884689
vt 0.586218 0.928418
vt 0.582686 0.927358
vt 0.582686 0.881972
vt 0.573758 0.928426
vt 0.573758 0.884697
vt 0.577332 0.881972
vt 0.577332 0.927358
vt 0.137791 0.880286
vt 0.137791 0.923723
vt 0.133158 0.922661
vt 0.133157 0.877578
vt 0.917638 0.304026
vt 0.917638 0.260813
vt 0.922308 0.256478
vt 0.922308 0.301329
vt 0.926540 0.521169
vt 0.926540 0.564673
vt 0.923007 0.561956
vt 0.600892 0.923855
vt 0.600892 0.880351
vt 0.604467 0.875978
vt 0.604467 0.921130
vt 0.077908 0.881923
vt 0.077908 0.925137
vt 0.073274 0.922429
vt 0.073274 0.877578
vt 0.913667 0.569306
vt 0.913667 0.517855
vt 0.918337 0.516803
vt 0.918337 0.570203
vt 0.157444 0.868298
vt 0.157444 0.919748
vt 0.152810 0.920635
vt 0.152811 0.867236
vt 0.600614 0.593139
vt 0.600614 0.541342
vt 0.604188 0.540274
vt 0.604188 0.594033
vt 0.604146 0.595093
vt 0.604146 0.646890
vt 0.600614 0.647792
vt 0.600614 0.594033
vt 0.051471 0.922299
vt 0.056141 0.878475
vt 0.056141 0.924891
vt 0.099880 0.877578
vt 0.099880 0.922299
vt 0.095246 0.924881
vt 0.095246 0.878465
vt 0.922309 0.301499
vt 0.922309 0.256478
vt 0.925883 0.257372
vt 0.925883 0.304099
vt 0.929388 0.305181
vt 0.929388 0.350203
vt 0.925855 0.352810
vt 0.925855 0.306083
vt 0.738027 0.728310
vt 0.738027 0.766115
vt 0.697932 0.778372
vt 0.695002 0.741463
vt 0.701715 0.826034
vt 0.738027 0.814933
vt 0.704840 0.865399
vt 0.738027 0.855253
vt 0.707208 0.895237
vt 0.738026 0.885815
vt 0.648682 0.768840
vt 0.614673 0.758186
vt 0.617100 0.728310
vt 0.648682 0.738205
vt 0.648682 0.809258
vt 0.611471 0.797600
vt 0.648682 0.858193
vt 0.607593 0.845320
vt 0.604591 0.882275
vt 0.648682 0.896089
vt 0.751821 0.358386
vt 0.751821 0.320426
vt 0.797973 0.305694
vt 0.801345 0.342578
vt 0.793618 0.258066
vt 0.751821 0.271408
vt 0.790021 0.218728
vt 0.751821 0.230921
vt 0.787295 0.188911
vt 0.751821 0.200234
vt 0.849693 0.230259
vt 0.812401 0.218687
vt 0.815062 0.188911
vt 0.849693 0.199658
vt 0.849693 0.270632
vt 0.808889 0.257970
vt 0.849693 0.319514
vt 0.804638 0.305532
vt 0.801346 0.342364
vt 0.849693 0.357368
vt 0.838895 0.789465
vt 0.835911 0.825842
vt 0.795067 0.828130
vt 0.795067 0.791920
vt 0.795067 0.874888
vt 0.832057 0.872816
vt 0.795067 0.913508
vt 0.828874 0.911614
vt 0.795067 0.942780
vt 0.826461 0.941021
vt 0.242938 0.786072
vt 0.245415 0.815495
vt 0.210699 0.813518
vt 0.210699 0.784236
vt 0.248684 0.854313
vt 0.210699 0.852150
vt 0.252642 0.901311
vt 0.210699 0.898922
vt 0.210699 0.935143
vt 0.255707 0.937706
vt 0.879050 0.690313
vt 0.922262 0.688429
vt 0.922262 0.724626
vt 0.922262 0.641688
vt 0.883128 0.643394
vt 0.922262 0.603082
vt 0.886496 0.604642
vt 0.889048 0.575268
vt 0.909295 0.515448
vt 0.906809 0.486091
vt 0.941639 0.487551
vt 0.941639 0.516803
vt 0.903530 0.447361
vt 0.941639 0.448958
vt 0.899559 0.400469
vt 0.941639 0.402232
vt 0.941639 0.366047
s 1
usemtl mat3.001
f 1/1/1 2/2/1 3/3/1
f 1/1/1 3/3/1 4/4/1
f 5/5/2 6/6/2 7/7/2
f 5/5/2 7/7/2 8/8/2
f 7/7/2 6/6/2 9/9/2
f 7/7/2 9/9/2 10/10/2
f 11/11/1 12/12/1 2/2/1
f 11/11/1 2/2/1 1/1/1
f 10/10/2 9/9/2 13/13/2
f 10/10/2 13/13/2 14/14/2
f 15/15/1 16/16/1 12/12/1
f 15/15/1 12/12/1 11/11/1
f 14/14/2 13/13/2 17/17/2
f 14/14/2 17/17/2 18/18/2
f 19/19/1 16/16/1 15/15/1
f 19/19/1 15/15/1 20/20/1
usemtl mat1
f 21/21/3 22/22/3 23/23/3
f 21/21/3 23/23/3 24/24/3
f 25/25/4 26/26/4 27/27/4
f 25/25/4 27/27/4 28/28/4
f 29/29/5 30/30/5 31/31/5
f 29/29/5 31/31/5 32/32/5
f 33/33/6 34/34/6 35/35/6
f 33/33/6 35/35/6 36/36/6
f 37/37/7 38/38/7 39/39/7
f 37/37/7 39/39/7 40/40/7
f 41/41/8 42/42/8 43/43/8
f 41/41/8 43/43/8 44/44/8
f 45/45/9 46/46/10 47/47/10
f 45/45/9 47/47/10 48/48/11
f 49/49/12 50/50/13 51/51/13
f 49/49/12 51/51/13 52/52/14
f 53/53/15 54/54/16 55/55/17
f 53/53/15 55/55/17 56/56/15
f 57/57/18 58/58/18 59/59/19
f 57/57/18 59/59/19 60/60/20
f 61/61/21 62/62/21 63/63/21
f 61/61/21 63/63/21 64/64/21
f 65/65/22 66/66/22 67/67/22
f 65/65/22 67/67/22 68/68/22
f 69/69/23 70/70/23 71/71/23
f 69/69/23 71/71/23 72/72/23
f 73/73/24 74/74/24 75/75/24
f 73/73/24 75/75/24 76/76/24
f 77/77/4 78/78/4 79/79/4
f 77/77/4 79/79/4 80/80/4
f 81/81/22 82/82/22 83/83/22
f 81/81/22 83/83/22 84/84/22
f 85/85/25 86/86/25 87/87/25
f 85/85/25 87/87/25 88/88/25
f 89/89/13 90/90/13 91/91/13
f 89/89/13 91/91/13 92/92/13
f 93/93/6 94/94/6 95/95/6
f 93/93/6 95/95/6 96/96/6
f 97/97/18 98/98/18 99/99/18
f 97/97/18 99/99/18 100/100/18
f 101/101/26 102/102/26 103/103/26
f 101/101/26 103/103/26 104/104/26
f 105/105/24 106/106/24 107/107/24
f 105/105/24 107/107/24 108/108/24
f 109/109/4 110/110/4 111/111/4
f 109/109/4 111/111/4 112/112/4
f 113/113/22 114/114/22 115/115/22
f 113/113/22 115/115/22 116/116/22
f 117/117/7 118/118/7 119/119/7
f 117/117/7 119/119/7 120/120/7
f 121/121/13 122/122/13 123/123/27
f 121/121/13 123/123/27 124/124/28
f 125/125/6 126/126/6 127/127/6
f 125/125/6 127/127/6 128/128/6
f 129/129/29 130/130/18 131/131/18
f 129/129/29 131/131/18 132/132/30
f 133/133/8 134/134/8 135/135/8
f 133/133/8 135/135/8 136/136/8
f 137/137/24 138/138/24 139/139/24
f 137/137/24 139/139/24 140/140/24
f 141/141/6 142/142/6 126/126/6
f 141/141/6 126/126/6 125/125/6
f 94/94/6 143/143/6 144/144/6
f 94/94/6 144/144/6 95/95/6
f 145/145/6 146/146/6 34/34/6
f 145/145/6 34/34/6 33/33/6
f 147/147/15 148/148/31 54/54/16
f 147/147/15 54/54/16 53/53/15
f 149/149/21 150/150/21 62/62/21
f 149/149/21 62/62/21 61/61/21
f 151/151/4 152/152/4 26/26/4
f 151/151/4 26/26/4 25/25/4
f 153/153/4 154/154/4 155/155/4
f 153/153/4 155/155/4 156/156/4
f 157/157/4 158/158/4 110/110/4
f 157/157/4 110/110/4 109/109/4
f 159/159/23 160/160/23 70/70/23
f 159/159/23 70/70/23 69/69/23
f 161/161/32 162/162/10 46/46/10
f 161/161/32 46/46/10 45/45/9
f 163/163/6 142/142/6 141/141/6
f 163/163/6 141/141/6 164/164/6
f 165/165/6 144/144/6 143/143/6
f 165/165/6 143/143/6 166/166/6
f 167/136/6 146/146/6 145/145/6
f 167/136/6 145/145/6 168/167/6
f 169/168/33 148/148/31 147/147/15
f 169/168/33 147/147/15 170/169/15
f 171/170/5 172/171/5 173/172/5
f 171/170/5 173/172/5 174/173/5
f 175/174/21 150/150/21 149/149/21
f 175/174/21 149/149/21 176/175/21
f 177/176/4 152/152/4 151/151/4
f 177/176/4 151/151/4 178/44/4
f 179/177/4 180/178/4 181/179/4
f 179/177/4 181/179/4 182/180/4
f 183/181/4 158/158/4 157/157/4
f 183/181/4 157/157/4 184/182/4
f 185/183/23 160/160/23 159/159/23
f 185/183/23 159/159/23 186/184/23
f 187/185/3 188/186/3 189/187/3
f 187/185/3 189/187/3 190/111/3
f 191/188/10 162/162/10 161/161/32
f 191/188/10 161/161/32 192/189/34
f 193/190/35 194/191/36 195/192/37
f 193/190/35 195/192/37 196/193/38
f 197/194/4 198/195/4 199/196/4
f 197/194/4 199/196/4 200/197/4
f 201/198/39 202/199/40 203/200/41
f 201/198/39 203/200/41 204/201/41
f 205/202/6 206/203/6 207/204/6
f 205/202/6 207/204/6 208/205/6
f 209/206/42 210/207/43 211/208/44
f 209/206/42 211/208/44 212/209/42
f 213/210/4 214/211/4 215/212/4
f 213/210/4 215/212/4 216/213/4
f 217/214/45 218/215/46 219/216/47
f 217/214/45 219/216/47 220/217/47
f 221/218/6 222/219/6 223/220/6
f 221/218/6 223/220/6 224/221/6
f 225/222/48 226/223/49 227/224/50
f 225/222/48 227/224/50 228/225/51
f 229/226/6 230/227/6 231/228/6
f 229/226/6 231/228/6 232/229/6
f 233/230/52 234/231/53 235/232/54
f 233/230/52 235/232/54 236/233/55
f 237/234/4 238/235/4 239/236/4
f 237/234/4 239/236/4 240/237/4
f 241/238/56 242/239/57 243/240/58
f 241/238/56 243/240/58 244/241/59
f 245/242/4 246/243/4 247/244/4
f 245/242/4 247/244/4 248/72/4
f 249/245/60 250/246/61 251/247/62
f 249/245/60 251/247/62 252/248/62
f 253/249/6 254/250/6 255/251/6
f 253/249/6 255/251/6 256/252/6
f 257/253/63 258/254/63 259/255/63
f 257/253/63 259/255/63 260/256/63
f 261/257/64 262/258/64 263/235/64
f 261/257/64 263/235/64 264/259/64
f 265/260/65 266/261/65 267/262/65
f 265/260/65 267/262/65 268/263/65
f 269/264/66 270/265/66 271/266/66
f 269/264/66 271/266/66 272/267/66
f 273/268/67 274/269/67 275/270/68
f 273/268/67 275/270/68 276/271/68
f 277/272/69 278/273/69 279/274/69
f 277/272/69 279/274/69 280/275/69
f 281/276/70 282/277/70 283/278/70
f 281/276/70 283/278/70 284/279/70
f 285/280/71 286/281/71 287/282/71
f 285/280/71 287/282/71 288/283/71
f 289/284/72 290/285/72 291/286/72
f 289/284/72 291/286/72 292/287/72
f 293/288/73 294/289/73 295/290/73
f 293/288/73 295/290/73 296/291/73
f 297/292/74 298/293/74 299/294/74
f 297/292/74 299/294/74 300/295/74
f 301/296/75 302/297/75 303/298/75
f 301/296/75 303/298/75 304/299/75
f 305/300/3 306/301/3 188/186/3
f 305/300/3 188/186/3 187/185/3
f 243/240/58 242/239/57 307/302/76
f 243/240/58 307/302/76 308/303/77
f 309/304/78 310/305/79 250/246/61
f 309/304/78 250/246/61 249/245/60
f 23/23/3 22/22/3 311/306/3
f 23/23/3 311/306/3 312/307/3
f 313/308/7 314/309/7 118/118/7
f 313/308/7 118/118/7 117/117/7
f 195/192/37 194/191/36 315/310/80
f 195/192/37 315/310/80 316/311/81
f 317/312/82 87/87/25 86/86/25
f 317/312/82 86/86/25 318/313/82
f 319/314/83 320/315/84 202/199/40
f 319/314/83 202/199/40 201/198/39
f 39/39/7 38/38/7 321/316/7
f 39/39/7 321/316/7 322/317/7
f 323/318/5 324/319/5 30/30/5
f 323/318/5 30/30/5 29/29/5
f 235/232/54 234/231/53 325/320/85
f 235/232/54 325/320/85 326/321/86
f 327/322/87 328/323/88 226/223/49
f 327/322/87 226/223/49 225/222/48
f 174/173/5 173/172/5 329/324/5
f 174/173/5 329/324/5 330/325/5
f 331/326/8 332/327/8 42/42/8
f 331/326/8 42/42/8 41/41/8
f 211/208/44 210/207/43 333/328/89
f 211/208/44 333/328/89 334/329/90
f 335/330/26 103/103/26 102/102/26
f 335/330/26 102/102/26 336/331/26
f 337/332/91 338/333/92 218/215/46
f 337/332/91 218/215/46 217/214/45
f 135/135/8 134/134/8 339/334/8
f 135/135/8 339/334/8 340/335/8
f 341/336/3 342/337/3 306/301/3
f 341/336/3 306/301/3 305/300/3
f 308/303/77 307/302/76 343/338/93
f 308/303/77 343/338/93 344/339/94
f 345/340/95 346/341/96 310/305/79
f 345/340/95 310/305/79 309/304/78
f 312/307/3 311/306/3 347/342/3
f 312/307/3 347/342/3 348/343/3
f 349/344/7 350/345/7 314/309/7
f 349/344/7 314/309/7 313/308/7
f 316/311/81 315/310/80 351/346/97
f 316/311/81 351/346/97 352/347/98
f 353/348/25 317/312/82 318/313/82
f 353/348/25 318/313/82 354/349/25
f 355/350/99 356/351/100 320/315/84
f 355/350/99 320/315/84 319/314/83
f 322/317/7 321/316/7 357/352/7
f 322/317/7 357/352/7 358/353/7
f 359/354/5 360/355/5 324/319/5
f 359/354/5 324/319/5 323/318/5
f 326/321/86 325/320/85 361/356/101
f 326/321/86 361/356/101 362/357/102
f 363/358/103 364/359/104 328/323/88
f 363/358/103 328/323/88 327/322/87
f 330/325/5 329/324/5 365/360/5
f 330/325/5 365/360/5 366/361/5
f 367/362/8 368/363/8 332/327/8
f 367/362/8 332/327/8 331/326/8
f 334/329/90 333/328/89 369/364/105
f 334/329/90 369/364/105 370/365/106
f 371/366/26 335/330/26 336/331/26
f 371/366/26 336/331/26 372/367/26
f 373/368/107 374/369/108 338/333/92
f 373/368/107 338/333/92 337/332/91
f 340/335/8 339/334/8 375/370/8
f 340/335/8 375/370/8 376/371/8
f 192/189/34 161/161/32 342/337/3
f 192/189/34 342/337/3 341/336/3
f 344/339/94 343/338/93 377/372/109
f 344/339/94 377/372/109 378/373/109
f 379/374/110 346/341/96 345/340/95
f 379/374/110 345/340/95 380/226/111
f 348/343/3 347/342/3 45/45/9
f 348/343/3 45/45/9 48/48/11
f 124/124/28 123/123/27 350/345/7
f 124/124/28 350/345/7 349/344/7
f 352/347/98 351/346/97 381/375/112
f 352/347/98 381/375/112 382/376/112
f 383/377/25 353/348/25 354/349/25
f 383/377/25 354/349/25 384/378/25
f 385/379/113 356/351/100 355/350/99
f 385/379/113 355/350/99 386/380/113
f 358/353/7 357/352/7 49/49/12
f 358/353/7 49/49/12 52/52/14
f 54/54/16 360/355/5 359/354/5
f 54/54/16 359/354/5 55/55/17
f 362/357/102 361/356/101 387/381/114
f 362/357/102 387/381/114 388/382/115
f 389/383/116 364/359/104 363/358/103
f 389/383/116 363/358/103 390/384/117
f 366/361/5 365/360/5 148/148/31
f 366/361/5 148/148/31 169/168/33
f 60/60/20 59/59/19 368/363/8
f 60/60/20 368/363/8 367/362/8
f 370/365/106 369/364/105 391/385/118
f 370/365/106 391/385/118 392/386/119
f 393/387/26 371/366/26 372/367/26
f 393/387/26 372/367/26 394/388/26
f 395/389/120 374/369/108 373/368/107
f 395/389/120 373/368/107 396/390/120
f 376/371/8 375/370/8 129/129/29
f 376/371/8 129/129/29 132/132/30
f 397/391/22 398/392/22 66/66/22
f 397/391/22 66/66/22 65/65/22
f 26/26/4 399/393/4 400/394/4
f 26/26/4 400/394/4 27/27/4
f 401/395/65 402/396/65 403/397/65
f 401/395/65 403/397/65 404/275/65
f 405/398/70 406/399/70 407/400/70
f 405/398/70 407/400/70 408/401/70
f 409/402/74 410/403/74 411/40/74
f 409/402/74 411/40/74 412/404/74
f 413/405/4 414/406/4 415/407/4
f 413/405/4 415/407/4 416/408/4
f 417/409/72 418/410/72 419/411/72
f 417/409/72 419/411/72 420/412/72
f 421/413/68 422/414/67 423/415/68
f 421/413/68 423/415/68 424/416/68
f 425/417/63 426/418/63 427/419/63
f 425/417/63 427/419/63 428/420/63
f 429/421/4 430/422/4 152/152/4
f 429/421/4 152/152/4 177/176/4
f 75/75/24 74/74/24 431/423/24
f 75/75/24 431/423/24 432/424/24
f 433/425/6 434/426/6 435/427/6
f 433/425/6 435/427/6 436/428/6
f 437/429/4 438/430/4 439/431/4
f 437/429/4 439/431/4 440/432/4
f 59/59/19 58/58/18 441/433/18
f 59/59/19 441/433/18 442/434/18
f 168/167/6 145/145/6 443/435/6
f 168/167/6 443/435/6 444/436/6
f 445/437/6 443/435/6 145/145/6
f 445/437/6 145/145/6 33/33/6
f 446/438/6 445/437/6 33/33/6
f 446/438/6 33/33/6 36/36/6
f 447/439/13 448/440/13 50/50/13
f 447/439/13 50/50/13 49/49/12
f 449/441/4 450/442/4 451/443/4
f 449/441/4 451/443/4 452/444/4
f 453/445/6 454/446/6 455/447/6
f 453/445/6 455/447/6 456/282/6
f 184/182/4 157/157/4 180/178/4
f 184/182/4 180/178/4 179/177/4
f 260/256/63 259/255/63 457/448/63
f 260/256/63 457/448/63 458/449/63
f 276/271/68 275/270/68 459/450/67
f 276/271/68 459/450/67 460/451/67
f 292/287/72 291/286/72 461/452/72
f 292/287/72 461/452/72 462/453/72
f 156/156/4 155/155/4 463/454/4
f 156/156/4 463/454/4 464/455/4
f 465/456/74 298/293/74 297/292/74
f 465/456/74 297/292/74 466/457/74
f 467/458/70 282/277/70 281/276/70
f 467/458/70 281/276/70 468/459/70
f 469/460/65 266/261/65 265/260/65
f 469/460/65 265/260/65 470/461/65
f 80/80/4 79/79/4 109/109/4
f 80/80/4 109/109/4 112/112/4
f 115/115/22 114/114/22 82/82/22
f 115/115/22 82/82/22 81/81/22
f 208/205/6 207/204/6 471/462/6
f 208/205/6 471/462/6 472/463/6
f 473/464/4 198/195/4 197/194/4
f 473/464/4 197/194/4 474/465/4
f 123/123/27 122/122/13 90/90/13
f 123/123/27 90/90/13 89/89/13
f 126/126/6 94/94/6 93/93/6
f 126/126/6 93/93/6 127/127/6
f 142/142/6 143/143/6 94/94/6
f 142/142/6 94/94/6 126/126/6
f 166/166/6 143/143/6 142/142/6
f 166/166/6 142/142/6 163/163/6
f 100/100/18 99/99/18 130/130/18
f 100/100/18 130/130/18 129/129/29
f 216/213/4 215/212/4 475/466/4
f 216/213/4 475/466/4 476/467/4
f 477/468/6 222/219/6 221/218/6
f 477/468/6 221/218/6 478/469/6
f 108/108/24 107/107/24 138/138/24
f 108/108/24 138/138/24 137/137/24
f 479/470/22 480/471/22 481/472/22
f 479/470/22 481/472/22 482/473/22
f 483/474/4 484/475/4 485/476/4
f 483/474/4 485/476/4 486/477/4
f 487/478/65 488/479/65 489/480/65
f 487/478/65 489/480/65 490/481/65
f 491/482/70 492/483/70 493/484/70
f 491/482/70 493/484/70 494/485/70
f 495/486/74 496/487/74 497/488/74
f 495/486/74 497/488/74 498/489/74
f 499/490/4 500/491/4 501/492/4
f 499/490/4 501/492/4 502/493/4
f 503/494/72 504/495/72 505/496/72
f 503/494/72 505/496/72 506/497/72
f 507/498/67 508/499/67 509/500/121
f 507/498/67 509/500/121 510/501/68
f 511/502/63 512/503/63 513/504/63
f 511/502/63 513/504/63 514/505/63
f 515/506/4 516/507/4 517/508/4
f 515/506/4 517/508/4 518/509/4
f 519/510/24 520/511/24 521/512/24
f 519/510/24 521/512/24 522/513/24
f 523/514/6 524/515/6 525/516/6
f 523/514/6 525/516/6 526/517/6
f 527/518/4 528/519/4 529/520/4
f 527/518/4 529/520/4 530/521/4
f 531/522/18 532/523/18 533/524/18
f 531/522/18 533/524/18 534/525/18
f 535/526/6 536/527/6 537/528/6
f 535/526/6 537/528/6 538/529/6
f 539/530/6 537/528/6 536/527/6
f 539/530/6 536/527/6 540/531/6
f 541/532/6 539/530/6 540/531/6
f 541/532/6 540/531/6 542/533/6
f 543/534/13 544/535/13 545/536/13
f 543/534/13 545/536/13 546/537/13
f 547/538/4 548/539/4 549/540/4
f 547/538/4 549/540/4 550/541/4
f 551/542/6 552/543/6 553/544/6
f 551/542/6 553/544/6 554/545/6
f 482/473/22 481/472/22 398/392/22
f 482/473/22 398/392/22 397/391/22
f 400/394/4 399/393/4 484/475/4
f 400/394/4 484/475/4 483/474/4
f 490/481/65 489/480/65 402/396/65
f 490/481/65 402/396/65 401/395/65
f 494/485/70 493/484/70 406/399/70
f 494/485/70 406/399/70 405/398/70
f 498/489/74 497/488/74 410/403/74
f 498/489/74 410/403/74 409/402/74
f 415/407/4 414/406/4 500/491/4
f 415/407/4 500/491/4 499/490/4
f 419/411/72 418/410/72 504/495/72
f 419/411/72 504/495/72 503/494/72
f 423/415/68 422/414/67 508/499/67
f 423/415/68 508/499/67 507/498/67
f 427/419/63 426/418/63 512/503/63
f 427/419/63 512/503/63 511/502/63
f 518/509/4 517/508/4 430/422/4
f 518/509/4 430/422/4 429/421/4
f 432/424/24 431/423/24 520/511/24
f 432/424/24 520/511/24 519/510/24
f 526/517/6 525/516/6 434/426/6
f 526/517/6 434/426/6 433/425/6
f 555/546/26 556/547/26 557/548/26
f 555/546/26 557/548/26 558/549/26
f 559/550/26 557/548/26 556/547/26
f 559/550/26 556/547/26 560/551/26
f 561/552/26 559/550/26 560/551/26
f 561/552/26 560/551/26 562/553/26
f 563/554/26 561/552/26 562/553/26
f 563/554/26 562/553/26 564/555/26
f 439/431/4 438/430/4 528/519/4
f 439/431/4 528/519/4 527/518/4
f 442/434/18 441/433/18 532/523/18
f 442/434/18 532/523/18 531/522/18
f 444/436/6 443/435/6 536/527/6
f 444/436/6 536/527/6 535/526/6
f 540/531/6 536/527/6 443/435/6
f 540/531/6 443/435/6 445/437/6
f 542/533/6 540/531/6 445/437/6
f 542/533/6 445/437/6 446/438/6
f 546/537/13 545/536/13 448/440/13
f 546/537/13 448/440/13 447/439/13
f 550/541/4 549/540/4 450/442/4
f 550/541/4 450/442/4 449/441/4
f 565/556/25 566/557/25 567/558/25
f 565/556/25 567/558/25 568/559/82
f 566/557/25 569/560/25 570/561/25
f 566/557/25 570/561/25 567/558/25
f 569/560/25 571/562/82 572/563/82
f 569/560/25 572/563/82 570/561/25
f 573/564/25 572/563/82 571/562/82
f 573/564/25 571/562/82 574/565/25
f 455/447/6 454/446/6 552/543/6
f 455/447/6 552/543/6 551/542/6
f 575/566/22 576/567/22 480/471/22
f 575/566/22 480/471/22 479/470/22
f 554/545/6 553/544/6 577/568/6
f 554/545/6 577/568/6 578/569/6
f 579/570/25 580/571/25 581/572/25
f 579/570/25 581/572/25 582/573/25
f 583/574/25 581/572/25 580/571/25
f 583/574/25 580/571/25 584/575/82
f 585/576/25 583/574/25 584/575/82
f 585/576/25 584/575/82 586/577/25
f 587/578/25 585/576/25 586/577/25
f 587/578/25 586/577/25 588/579/82
f 589/580/4 590/581/4 548/539/4
f 589/580/4 548/539/4 547/538/4
f 591/582/13 592/583/13 544/535/13
f 591/582/13 544/535/13 543/534/13
f 593/584/6 594/585/6 539/530/6
f 593/584/6 539/530/6 541/532/6
f 594/585/6 595/586/6 537/528/6
f 594/585/6 537/528/6 539/530/6
f 538/529/6 537/528/6 595/586/6
f 538/529/6 595/586/6 596/587/6
f 534/525/18 533/524/18 597/588/18
f 534/525/18 597/588/18 598/589/18
f 530/521/4 529/520/4 599/590/4
f 530/521/4 599/590/4 600/591/4
f 601/592/26 602/593/26 603/594/26
f 601/592/26 603/594/26 604/595/26
f 602/593/26 605/596/26 606/597/26
f 602/593/26 606/597/26 603/594/26
f 605/596/26 607/598/26 608/599/26
f 605/596/26 608/599/26 606/597/26
f 609/600/26 608/599/26 607/598/26
f 609/600/26 607/598/26 610/601/26
f 611/602/6 612/603/6 524/515/6
f 611/602/6 524/515/6 523/514/6
f 522/513/24 521/512/24 613/604/24
f 522/513/24 613/604/24 614/605/24
f 615/606/4 616/607/4 516/507/4
f 615/606/4 516/507/4 515/506/4
f 514/505/63 513/504/63 617/608/63
f 514/505/63 617/608/63 618/609/63
f 510/501/68 509/500/121 619/610/67
f 510/501/68 619/610/67 620/611/67
f 506/497/72 505/496/72 621/612/72
f 506/497/72 621/612/72 622/613/72
f 502/493/4 501/492/4 623/614/4
f 502/493/4 623/614/4 624/615/4
f 625/616/74 626/617/74 496/487/74
f 625/616/74 496/487/74 495/486/74
f 627/618/70 628/619/70 492/483/70
f 627/618/70 492/483/70 491/482/70
f 629/620/65 630/621/65 488/479/65
f 629/620/65 488/479/65 487/478/65
f 486/477/4 485/476/4 631/622/4
f 486/477/4 631/622/4 632/623/4
f 84/84/22 83/83/22 576/567/22
f 84/84/22 576/567/22 575/566/22
f 578/569/6 577/568/6 206/203/6
f 578/569/6 206/203/6 205/202/6
f 200/197/4 199/196/4 590/581/4
f 200/197/4 590/581/4 589/580/4
f 92/92/13 91/91/13 592/583/13
f 92/92/13 592/583/13 591/582/13
f 96/96/6 95/95/6 594/585/6
f 96/96/6 594/585/6 593/584/6
f 95/95/6 144/144/6 595/586/6
f 95/95/6 595/586/6 594/585/6
f 596/587/6 595/586/6 144/144/6
f 596/587/6 144/144/6 165/165/6
f 598/589/18 597/588/18 98/98/18
f 598/589/18 98/98/18 97/97/18
f 600/591/4 599/590/4 214/211/4
f 600/591/4 214/211/4 213/210/4
f 224/221/6 223/220/6 612/603/6
f 224/221/6 612/603/6 611/602/6
f 614/605/24 613/604/24 106/106/24
f 614/605/24 106/106/24 105/105/24
f 182/180/4 181/179/4 616/607/4
f 182/180/4 616/607/4 615/606/4
f 618/609/63 617/608/63 258/254/63
f 618/609/63 258/254/63 257/253/63
f 620/611/67 619/610/67 274/269/67
f 620/611/67 274/269/67 273/268/67
f 622/613/72 621/612/72 290/285/72
f 622/613/72 290/285/72 289/284/72
f 624/615/4 623/614/4 154/154/4
f 624/615/4 154/154/4 153/153/4
f 300/295/74 299/294/74 626/617/74
f 300/295/74 626/617/74 625/616/74
f 284/279/70 283/278/70 628/619/70
f 284/279/70 628/619/70 627/618/70
f 268/263/65 267/262/65 630/621/65
f 268/263/65 630/621/65 629/620/65
f 632/623/4 631/622/4 78/78/4
f 632/623/4 78/78/4 77/77/4
f 633/624/122 634/625/122 635/626/122
f 633/624/122 635/626/122 636/627/122
f 637/628/123 638/629/123 639/630/123
f 637/628/123 639/630/123 640/631/123
f 641/632/6 642/633/6 643/634/6
f 641/632/6 643/634/6 644/635/6
f 645/636/123 646/637/123 647/638/123
f 645/636/123 647/638/123 648/639/123
f 649/640/122 650/641/122 651/642/122
f 649/640/122 651/642/122 652/643/122
f 653/644/123 654/645/123 655/646/123
f 653/644/123 655/646/123 656/647/123
f 657/648/122 658/649/122 659/650/122
f 657/648/122 659/650/122 660/651/122
f 661/652/123 662/653/123 663/654/123
f 661/652/123 663/654/123 664/655/123
f 665/656/122 666/657/122 667/658/122
f 665/656/122 667/658/122 668/659/122
f 669/660/4 670/661/4 671/662/4
f 669/660/4 671/662/4 672/663/4
f 673/664/124 674/665/125 675/653/125
f 673/664/124 675/653/125 676/666/124
f 677/667/4 678/668/4 679/669/4
f 677/667/4 679/669/4 680/670/4
f 681/671/126 682/672/127 683/673/127
f 681/671/126 683/673/127 684/674/126
f 685/675/125 686/676/124 687/677/124
f 685/675/125 687/677/124 688/678/125
f 689/679/127 690/680/126 691/681/126
f 689/679/127 691/681/126 692/85/127
f 693/682/124 694/683/125 695/637/125
f 693/682/124 695/637/125 696/684/124
f 697/685/126 698/686/126 699/687/126
f 697/685/126 699/687/126 700/688/126
f 701/689/124 702/690/124 703/691/124
f 701/689/124 703/691/124 704/692/124
f 705/693/126 706/694/126 707/695/126
f 705/693/126 707/695/126 708/696/126
f 709/697/6 710/698/6 711/699/6
f 709/697/6 711/699/6 712/700/6
f 713/701/128 714/702/128 715/703/128
f 713/701/128 715/703/128 716/704/128
f 717/705/129 718/706/129 719/707/129
f 717/705/129 719/707/129 720/703/129
f 721/708/6 722/709/6 723/710/6
f 721/708/6 723/710/6 724/274/6
f 725/711/129 726/712/129 727/713/129
f 725/711/129 727/713/129 728/714/129
f 729/715/128 730/716/128 731/717/128
f 729/715/128 731/717/128 732/718/128
f 733/719/129 734/720/129 735/721/129
f 733/719/129 735/721/129 736/691/129
f 737/722/128 738/723/128 739/724/128
f 737/722/128 739/724/128 740/725/128
f 741/726/129 742/727/129 743/728/129
f 741/726/129 743/728/129 744/729/129
f 745/730/128 746/731/128 747/732/128
f 745/730/128 747/732/128 748/733/128
f 749/734/4 750/735/4 751/736/4
f 749/734/4 751/736/4 752/737/4
f 753/738/130 754/739/131 755/740/131
f 753/738/130 755/740/131 756/741/130
f 757/742/4 758/743/4 759/744/4
f 757/742/4 759/744/4 760/745/4
f 761/746/132 762/732/132 763/747/132
f 761/746/132 763/747/132 764/748/133
f 765/749/130 766/750/130 767/751/130
f 765/749/130 767/751/130 768/752/130
f 769/753/132 770/624/132 771/754/132
f 769/753/132 771/754/132 772/755/132
f 773/756/131 774/757/130 775/758/130
f 773/756/131 775/758/130 776/759/131
f 777/760/132 778/761/132 779/762/132
f 777/760/132 779/762/132 780/763/132
f 781/764/131 782/765/131 783/766/131
f 781/764/131 783/766/131 784/767/131
f 785/768/132 786/769/132 787/770/132
f 785/768/132 787/770/132 788/771/132
f 789/772/6 790/773/6 791/774/6
f 789/772/6 791/774/6 792/775/6
f 793/776/134 794/777/134 795/778/134
f 793/776/134 795/778/134 796/779/134
f 797/780/135 798/781/135 799/782/135
f 797/780/135 799/782/135 800/783/135
f 801/784/6 802/756/6 803/785/6
f 801/784/6 803/785/6 804/786/6
f 805/787/135 806/788/135 807/789/135
f 805/787/135 807/789/135 808/790/135
f 809/791/134 810/792/134 811/793/134
f 809/791/134 811/793/134 812/794/134
f 813/795/135 814/796/135 815/797/135
f 813/795/135 815/797/135 816/798/135
f 817/799/134 818/800/134 819/801/134
f 817/799/134 819/801/134 820/802/134
f 821/803/135 822/804/135 823/805/135
f 821/803/135 823/805/135 824/806/135
f 825/807/136 826/808/136 827/809/136
f 825/807/136 827/809/136 828/810/134
f 829/674/4 830/811/4 831/812/4
f 829/674/4 831/812/4 832/813/4
f 833/814/137 834/815/137 835/816/137
f 833/814/137 835/816/137 836/817/137
f 837/818/138 838/819/138 839/804/138
f 837/818/138 839/804/138 840/820/138
f 841/821/4 842/822/4 843/823/4
f 841/821/4 843/823/4 844/824/4
f 845/825/137 846/826/137 847/827/137
f 845/825/137 847/827/137 848/828/137
f 849/829/138 850/830/138 851/831/138
f 849/829/138 851/831/138 852/832/138
f 853/833/137 854/834/137 855/835/137
f 853/833/137 855/835/137 856/836/137
f 857/837/138 858/838/138 859/839/138
f 857/837/138 859/839/138 860/840/138
f 861/841/138 862/842/138 863/781/138
f 861/841/138 863/781/138 864/843/138
f 865/844/137 866/845/139 867/846/139
f 865/844/137 867/846/139 868/736/137
f 869/847/6 870/848/6 871/849/6
f 869/847/6 871/849/6 872/850/6
f 873/851/140 874/852/140 875/853/140
f 873/851/140 875/853/140 876/854/140
f 877/855/141 878/856/141 879/857/141
f 877/855/141 879/857/141 880/742/141
f 881/858/6 882/859/6 883/860/6
f 881/858/6 883/860/6 884/861/6
f 885/862/141 886/863/141 887/864/141
f 885/862/141 887/864/141 888/865/141
f 889/866/140 890/867/140 891/868/140
f 889/866/140 891/868/140 892/869/140
f 893/870/141 894/871/141 895/872/141
f 893/870/141 895/872/141 896/873/141
f 897/874/140 898/875/140 899/876/140
f 897/874/140 899/876/140 900/877/140
f 901/878/141 902/879/141 903/880/141
f 901/878/141 903/880/141 904/881/141
f 905/882/140 906/883/140 907/884/140
f 905/882/140 907/884/140 908/885/140
f 909/886/4 910/887/4 911/888/4
f 909/886/4 911/888/4 912/889/4
f 913/890/142 914/884/143 915/891/143
f 913/890/142 915/891/143 916/892/142
f 917/893/144 918/894/144 919/895/144
f 917/893/144 919/895/144 920/896/144
f 921/897/4 922/898/4 923/899/4
f 921/897/4 923/899/4 924/900/4
f 925/901/143 926/876/143 927/902/143
f 925/901/143 927/902/143 928/903/143
f 929/696/145 930/904/144 931/905/144
f 929/696/145 931/905/144 932/906/145
f 933/907/143 934/868/142 935/908/142
f 933/907/143 935/908/142 936/909/143
f 937/761/144 938/910/145 939/911/145
f 937/761/144 939/911/145 940/912/144
f 941/769/144 942/913/144 943/914/144
f 941/769/144 943/914/144 944/915/144
f 945/916/142 946/853/143 947/917/143
f 945/916/142 947/917/143 948/918/142
f 949/919/6 950/920/6 951/921/6
f 949/919/6 951/921/6 952/922/6
f 953/923/146 954/924/147 955/925/147
f 953/923/146 955/925/147 956/926/146
f 957/927/148 958/928/149 959/929/148
f 957/927/148 959/929/148 960/930/148
f 961/931/150 962/932/150 963/933/150
f 961/931/150 963/933/150 964/934/150
f 965/935/151 966/936/152 967/937/152
f 965/935/151 967/937/152 968/3/151
f 969/938/148 970/939/148 971/940/148
f 969/938/148 971/940/148 972/941/148
f 973/942/153 974/943/153 975/944/153
f 973/942/153 975/944/153 976/945/153
f 977/946/148 978/929/149 979/947/149
f 977/946/148 979/947/149 980/948/148
f 981/949/151 982/950/152 983/951/154
f 981/949/151 983/951/154 984/952/151
f 985/953/147 986/954/146 987/955/146
f 985/953/147 987/955/146 988/956/147
f 989/957/150 990/958/150 991/959/150
f 989/957/150 991/959/150 992/960/155
f 993/961/146 994/962/146 995/963/146
f 993/961/146 995/963/146 996/964/147
f 997/965/150 998/966/150 999/967/150
f 997/965/150 999/967/150 1000/570/150
f 1001/968/156 1002/969/157 1003/970/157
f 1001/968/156 1003/970/157 1004/971/156
f 1005/972/158 1006/973/158 1007/974/158
f 1005/972/158 1007/974/158 1008/975/158
f 1009/976/159 1010/977/160 1011/978/160
f 1009/976/159 1011/978/160 1012/979/159
f 1013/980/161 1014/981/162 1015/975/162
f 1013/980/161 1015/975/162 1016/974/161
f 1017/982/149 1018/983/148 1019/984/148
f 1017/982/149 1019/984/148 1020/985/149
f 1021/986/163 1022/987/163 1023/988/163
f 1021/986/163 1023/988/163 1024/978/163
f 1025/969/157 1026/989/156 1027/990/156
f 1025/969/157 1027/990/156 1028/991/157
f 1029/992/153 1030/993/152 1031/994/152
f 1029/992/153 1031/994/152 1032/995/153
f 1033/996/164 1034/170/157 1035/997/157
f 1033/996/164 1035/997/157 1036/998/164
f 1037/999/160 1038/1000/163 1039/1001/163
f 1037/999/160 1039/1001/163 1040/1002/160
f 1041/1003/149 1042/951/148 1043/1004/148
f 1041/1003/149 1043/1004/148 1044/1005/149
f 1045/939/152 1046/1006/151 1047/1007/151
f 1045/939/152 1047/1007/151 1048/1008/152
f 1049/1009/148 1050/1010/165 1051/1011/148
f 1049/1009/148 1051/1011/148 1052/1012/149
f 1053/1013/160 1054/1014/163 1055/1015/163
f 1053/1013/160 1055/1015/163 1056/1016/160
f 1057/1017/157 1058/1018/156 1059/1019/156
f 1057/1017/157 1059/1019/156 1060/1020/157
f 1061/1021/151 1062/1022/152 1063/1023/152
f 1061/1021/151 1063/1023/152 1064/1024/151
f 1065/1025/148 1066/1026/149 1067/1027/149
f 1065/1025/148 1067/1027/149 1068/1028/148
f 1069/1029/163 1070/1030/160 1071/1031/160
f 1069/1029/163 1071/1031/160 1072/984/163
f 1073/1032/156 1074/1033/157 1075/1034/157
f 1073/1032/156 1075/1034/157 1076/1035/156
f 1077/1036/153 1078/1037/151 1079/1038/151
f 1077/1036/153 1079/1038/151 1080/1039/153
f 1081/1040/148 1082/1041/148 1083/1042/148
f 1081/1040/148 1083/1042/148 1084/1043/148
f 1085/1044/153 1086/1045/152 1087/1046/152
f 1085/1044/153 1087/1046/152 1088/1047/153
f 1089/1048/157 1090/1049/157 1091/1050/157
f 1089/1048/157 1091/1050/157 1092/1051/157
f 1093/1052/163 1094/1053/160 1095/1054/160
f 1093/1052/163 1095/1054/160 1096/1055/163
f 1097/1056/148 1098/724/148 1099/1057/148
f 1097/1056/148 1099/1057/148 1100/1058/148
f 1101/1059/153 1102/1060/153 1103/1061/153
f 1101/1059/153 1103/1061/153 1104/1062/153
f 1105/1063/156 1106/1064/157 1107/1065/157
f 1105/1063/156 1107/1065/157 1108/1066/156
f 1109/1067/160 1110/1068/160 1111/1069/160
f 1109/1067/160 1111/1069/160 1112/1070/160
usemtl mat2.001
f 1113/1071/26 1114/1072/26 1115/1073/26
f 1113/1071/26 1115/1073/26 1116/1074/26
f 1117/1075/26 1115/1073/26 1114/1072/26
f 1117/1075/26 1114/1072/26 1118/1076/26
f 1119/1077/26 1117/1075/26 1118/1076/26
f 1119/1077/26 1118/1076/26 1120/1078/26
f 1121/1079/26 1119/1077/26 1120/1078/26
f 1121/1079/26 1120/1078/26 1122/1080/26
f 1123/1081/25 1124/1082/82 1125/1083/82
f 1123/1081/25 1125/1083/82 1126/1084/82
f 1127/1085/82 1128/1086/82 1124/1082/82
f 1127/1085/82 1124/1082/82 1123/1081/25
f 1129/1087/25 1130/1088/25 1128/1086/82
f 1129/1087/25 1128/1086/82 1127/1085/82
f 1131/1089/25 1130/1088/25 1129/1087/25
f 1131/1089/25 1129/1087/25 1132/1090/25
f 1133/1091/25 1134/1092/25 1135/1093/25
f 1133/1091/25 1135/1093/25 1136/1094/25
f 1137/1095/25 1135/1093/25 1134/1092/25
f 1137/1095/25 1134/1092/25 1138/1096/25
f 1139/1097/82 1137/1095/25 1138/1096/25
f 1139/1097/82 1138/1096/25 1140/1098/82
f 1141/1099/25 1139/1097/82 1140/1098/82
f 1141/1099/25 1140/1098/82 1142/1100/25
f 1143/1101/26 1144/1102/26 1145/1103/26
f 1143/1101/26 1145/1103/26 1146/1104/26
f 1147/1105/26 1148/1106/26 1144/1102/26
f 1147/1105/26 1144/1102/26 1143/1101/26
f 1149/1107/26 1150/1108/26 1148/1106/26
f 1149/1107/26 1148/1106/26 1147/1105/26
f 1151/1109/26 1150/1108/26 1149/1107/26
f 1151/1109/26 1149/1107/26 1152/1110/26
f 1153/1111/26 1154/1112/26 1155/1113/26
f 1153/1111/26 1155/1113/26 1156/1114/26
f 1157/1115/26 1155/1113/26 1154/1112/26
f 1157/1115/26 1154/1112/26 1158/1116/26
f 1159/1117/26 1157/1115/26 1158/1116/26
f 1159/1117/26 1158/1116/26 1160/1118/26
f 1161/1119/26 1159/1117/26 1160/1118/26
f 1161/1119/26 1160/1118/26 1162/1120/26
f 1163/1121/25 1164/1122/25 1165/1123/25
f 1163/1121/25 1165/1123/25 1166/1124/82
f 1164/1122/25 1167/1125/25 1168/1126/25
f 1164/1122/25 1168/1126/25 1165/1123/25
f 1167/1125/25 1169/1127/25 1170/1128/25
f 1167/1125/25 1170/1128/25 1168/1126/25
f 1171/1129/82 1170/1128/25 1169/1127/25
f 1171/1129/82 1169/1127/25 1172/1130/82
f 1173/559/25 1174/1131/25 1175/1132/82
f 1173/559/25 1175/1132/82 1176/1133/25
f 1177/1134/25 1175/1132/82 1174/1131/25
f 1177/1134/25 1174/1131/25 1178/1135/25
f 1179/1136/82 1177/1134/25 1178/1135/25
f 1179/1136/82 1178/1135/25 1180/1137/82
f 1181/184/25 1179/1136/82 1180/1137/82
f 1181/184/25 1180/1137/82 1182/1138/25
f 1183/1139/26 1184/1140/26 1185/1141/26
f 1183/1139/26 1185/1141/26 1186/1142/26
f 1184/1140/26 1187/1143/26 1188/1144/26
f 1184/1140/26 1188/1144/26 1185/1141/26
f 1187/1143/26 1189/1145/26 1190/1146/26
f 1187/1143/26 1190/1146/26 1188/1144/26
f 1191/1147/26 1190/1146/26 1189/1145/26
f 1191/1147/26 1189/1145/26 1192/288/26
