# Blender 5.0.1
# www.blender.org
mtllib chest_lib.mtl
o obj4.001
v 1.174411 -1.619251 -1.000055
v 1.168386 -1.315004 -1.149246
v 1.180065 -1.320849 -0.562344
v 1.182508 -1.950810 -0.760081
v 1.190052 -1.958531 -0.383043
v 1.192789 -1.655728 -0.090357
v 1.191777 -1.326710 0.026257
v -1.144709 -1.642664 -0.954141
v -1.139056 -1.344262 -0.516429
v -1.150825 -1.338372 -1.107883
v -1.136611 -1.974223 -0.714167
v -1.129068 -1.981944 -0.337128
v -1.126692 -1.666037 -0.056048
v -1.127344 -1.350123 0.072172
v 1.323455 -1.706366 -0.017442
v 1.320447 -2.048918 -0.344092
v 1.318699 -1.957233 -0.385589
v 1.321437 -1.654429 -0.092904
v 1.311201 -2.044291 -0.808765
v 1.311157 -1.949511 -0.762629
v 1.301515 -1.695386 -1.120085
v 1.303059 -1.617952 -1.002602
v 1.146533 -1.205294 -0.018267
v 0.030088 -1.216565 0.003837
v 0.034375 -1.218710 0.219264
v 1.150819 -1.207439 0.197161
v 1.334600 -1.333631 0.176261
v 1.073133 -1.329471 0.182463
v 1.073104 -1.708893 -0.012485
v 1.334600 -1.333631 0.176261
v 1.334139 -1.331081 0.018980
v 1.333193 -1.203998 0.035962
v 1.336327 -1.205567 0.193488
v 1.322507 -1.325259 -0.565579
v 1.310875 -1.319438 -1.150138
v 1.309428 -1.192105 -1.158287
v 1.321310 -1.198052 -0.561162
v 1.060848 -2.046818 -0.803808
v 1.051163 -1.697913 -1.115127
v 1.301515 -1.695386 -1.120085
v 1.311201 -2.044291 -0.808765
v 1.070094 -2.051445 -0.339136
v 1.060848 -2.046818 -0.803808
v 1.311201 -2.044291 -0.808765
v 1.320447 -2.048918 -0.344092
v 1.073104 -1.708893 -0.012485
v 1.070094 -2.051445 -0.339136
v 1.320447 -2.048918 -0.344092
v 1.323455 -1.706366 -0.017442
v 1.311157 -1.949511 -0.762629
v 1.303059 -1.617952 -1.002602
v 1.174411 -1.619251 -1.000055
v 1.182508 -1.950810 -0.760081
v 1.318699 -1.957233 -0.385589
v 1.311157 -1.949511 -0.762629
v 1.182508 -1.950810 -0.760081
v 1.190052 -1.958531 -0.383043
v 1.321437 -1.654429 -0.092904
v 1.318699 -1.957233 -0.385589
v 1.190052 -1.958531 -0.383043
v 1.192789 -1.655728 -0.090357
v 1.060848 -2.046818 -0.803808
v 1.070094 -2.051445 -0.339136
v 1.068992 -2.002155 -0.369676
v 1.061002 -1.998157 -0.771213
v 1.051163 -1.697913 -1.115127
v 1.060848 -2.046818 -0.803808
v 1.061002 -1.998157 -0.771213
v 1.052181 -1.656105 -1.042385
v 1.043587 -1.314685 -1.302331
v 1.051163 -1.697913 -1.115127
v 1.052181 -1.656105 -1.042385
v 1.045699 -1.316360 -1.196570
v 1.073104 -1.708893 -0.012485
v 1.073133 -1.329471 0.182463
v 1.071035 -1.329040 0.076688
v 1.071244 -1.665644 -0.084365
v 1.070094 -2.051445 -0.339136
v 1.073104 -1.708893 -0.012485
v 1.071244 -1.665644 -0.084365
v 1.068992 -2.002155 -0.369676
v 1.305078 -1.318857 -1.307334
v 1.306293 -1.190536 -1.315812
v 1.191777 -1.326710 0.026257
v 1.334139 -1.331081 0.018980
v 1.192789 -1.655728 -0.090357
v 1.322507 -1.325259 -0.565579
v 1.321310 -1.198052 -0.561162
v 1.305078 -1.318857 -1.307334
v 1.301515 -1.695386 -1.120085
v 1.051163 -1.697913 -1.115127
v 1.043587 -1.314685 -1.302331
v 1.310875 -1.319438 -1.150138
v 1.168386 -1.315004 -1.149246
v 1.174411 -1.619251 -1.000055
v 0.007842 -1.326836 -1.176021
v 0.005660 -1.325127 -1.285361
v 0.203258 -1.323139 -1.288591
v 0.205426 -1.324842 -1.179933
v 0.013906 -1.712048 -1.066143
v 0.006679 -1.325871 -1.234283
v 0.204264 -1.323876 -1.238195
v 0.211403 -1.701114 -1.069965
v 0.023850 -2.117151 -0.770475
v 0.013906 -1.712048 -1.066143
v 0.211403 -1.701114 -1.069965
v 0.221263 -2.097808 -0.774211
v 0.032571 -2.121516 -0.332188
v 0.023850 -2.117151 -0.770475
v 0.221263 -2.097808 -0.774211
v 0.229984 -2.102174 -0.335924
v 0.034715 -1.722462 -0.020443
v 0.032571 -2.121516 -0.332188
v 0.229984 -2.102174 -0.335924
v 0.232211 -1.711527 -0.024264
v 0.034334 -1.339710 0.155506
v 0.034715 -1.722462 -0.020443
v 0.232211 -1.711527 -0.024264
v 0.231919 -1.337716 0.151595
v 0.230763 -1.337522 0.093324
v 0.232920 -1.337983 0.201995
v 0.035348 -1.339984 0.206587
v 0.033178 -1.339516 0.097236
v -1.252960 -1.732375 0.033566
v -1.255341 -1.667334 -0.053501
v -1.257716 -1.983243 -0.334581
v -1.255969 -2.074929 -0.293084
v -1.265260 -1.975521 -0.711620
v -1.265216 -2.070301 -0.757756
v -1.273358 -1.643961 -0.951594
v -1.274902 -1.721395 -1.069076
v -1.086357 -1.227836 0.025940
v -1.082070 -1.229981 0.241368
v -1.263949 -1.359864 0.227708
v -1.002608 -1.729848 0.028610
v -1.002579 -1.350425 0.223558
v -1.263949 -1.359864 0.227708
v -1.267578 -1.231854 0.245040
v -1.270712 -1.230285 0.087515
v -1.269765 -1.357368 0.070532
v -1.281397 -1.351547 -0.514026
v -1.282594 -1.224339 -0.509610
v -1.294476 -1.218394 -1.106734
v -1.293029 -1.345726 -1.098587
v -1.014864 -2.067773 -0.762712
v -1.265216 -2.070301 -0.757756
v -1.274902 -1.721395 -1.069076
v -1.024550 -1.718868 -1.074032
v -1.005617 -2.072401 -0.298040
v -1.255969 -2.074929 -0.293084
v -1.265216 -2.070301 -0.757756
v -1.014864 -2.067773 -0.762712
v -1.002608 -1.729848 0.028610
v -1.252960 -1.732375 0.033566
v -1.255969 -2.074929 -0.293084
v -1.005617 -2.072401 -0.298040
v -1.265260 -1.975521 -0.711620
v -1.136611 -1.974223 -0.714167
v -1.144709 -1.642664 -0.954141
v -1.273358 -1.643961 -0.951594
v -1.257716 -1.983243 -0.334581
v -1.129068 -1.981944 -0.337128
v -1.136611 -1.974223 -0.714167
v -1.265260 -1.975521 -0.711620
v -1.255341 -1.667334 -0.053501
v -1.126692 -1.666037 -0.056048
v -1.129068 -1.981944 -0.337128
v -1.257716 -1.983243 -0.334581
v -1.014864 -2.067773 -0.762712
v -1.014709 -2.019112 -0.730118
v -1.006719 -2.023111 -0.328580
v -1.005617 -2.072401 -0.298040
v -1.024550 -1.718868 -1.074032
v -1.023531 -1.677059 -1.001290
v -1.014709 -2.019112 -0.730118
v -1.014864 -2.067773 -0.762712
v -1.032125 -1.335641 -1.261236
v -1.030014 -1.337316 -1.155474
v -1.023531 -1.677059 -1.001290
v -1.024550 -1.718868 -1.074032
v -1.002608 -1.729848 0.028610
v -1.004468 -1.686600 -0.043269
v -1.004678 -1.349995 0.117784
v -1.002579 -1.350425 0.223558
v -1.004468 -1.686600 -0.043269
v -1.002608 -1.729848 0.028610
v -1.297611 -1.216825 -1.264260
v -1.293472 -1.345091 -1.255887
v -1.127344 -1.350123 0.072172
v -1.126692 -1.666037 -0.056048
v -1.269765 -1.357368 0.070532
v -1.293472 -1.345091 -1.255887
v -1.032125 -1.335641 -1.261236
v -1.024550 -1.718868 -1.074032
v -1.274902 -1.721395 -1.069076
v -1.293029 -1.345726 -1.098587
v -1.150825 -1.338372 -1.107883
v -1.144709 -1.642664 -0.954141
v -0.748891 -1.332771 -1.267820
v -0.746760 -1.334455 -1.161082
v -1.030014 -1.337316 -1.155474
v -1.032125 -1.335641 -1.261236
v -1.002579 -1.350425 0.223558
v -1.004678 -1.349995 0.117784
v -0.721424 -1.347135 0.112176
v -0.719307 -1.347576 0.218926
v 0.494975 -1.320204 -1.293361
v 0.497124 -1.321898 -1.185709
v 0.522460 -1.334577 0.087549
v 0.524596 -1.335027 0.195214
v -0.191271 -1.328847 -1.172079
v -0.193439 -1.327144 -1.280732
v -0.185295 -1.705050 -1.062110
v -0.192433 -1.327880 -1.230341
v -0.175435 -2.101791 -0.766357
v -0.185295 -1.705050 -1.062110
v -0.166713 -2.106155 -0.328069
v -0.175435 -2.101791 -0.766357
v -0.164488 -1.715462 -0.016409
v -0.166713 -2.106155 -0.328069
v -0.164779 -1.341721 0.159448
v -0.164488 -1.715462 -0.016409
v -0.163778 -1.341987 0.209843
v -0.165934 -1.341527 0.101179
v -0.467826 -1.331639 -1.166605
v -0.469975 -1.329946 -1.274304
v -0.440353 -1.344769 0.214365
v -0.442490 -1.344319 0.106653
v -0.468989 -1.330673 -1.224865
v -0.461974 -1.695329 -1.056507
v -0.741034 -1.685526 -1.050857
v -0.747924 -1.333489 -1.219343
v -0.461974 -1.695329 -1.056507
v -0.452224 -2.080927 -0.760641
v -0.731388 -2.060497 -0.754883
v -0.741034 -1.685526 -1.050857
v -0.452224 -2.080927 -0.760641
v -0.443503 -2.085291 -0.322354
v -0.722667 -2.064861 -0.316596
v -0.731388 -2.060497 -0.754883
v -0.443503 -2.085291 -0.322354
v -0.441167 -1.705742 -0.010807
v -0.720226 -1.695938 -0.005158
v -0.722667 -2.064861 -0.316596
v -0.441167 -1.705742 -0.010807
v -0.441334 -1.344512 0.164923
v -0.720269 -1.347328 0.170445
v -0.720226 -1.695938 -0.005158
v 0.792328 -1.317213 -1.298223
v 0.794456 -1.318896 -1.191595
v 0.502968 -1.684972 -1.075605
v 0.495960 -1.320931 -1.243971
v 0.793293 -1.317930 -1.249857
v 0.800169 -1.668518 -1.081356
v 0.512724 -2.070979 -0.779744
v 0.502968 -1.684972 -1.075605
v 0.800169 -1.668518 -1.081356
v 0.809823 -2.044453 -0.785391
v 0.521444 -2.075344 -0.341457
v 0.512724 -2.070979 -0.779744
v 0.809823 -2.044453 -0.785391
v 0.818544 -2.048817 -0.347104
v 0.523776 -1.695385 -0.029906
v 0.521444 -2.075344 -0.341457
v 0.818544 -2.048817 -0.347104
v 0.820976 -1.678931 -0.035655
v 0.523616 -1.334770 0.145819
v 0.523776 -1.695385 -0.029906
v 0.820976 -1.678931 -0.035655
v 0.820947 -1.331769 0.139933
v 0.819793 -1.331575 0.081663
v 0.821908 -1.332015 0.188302
v 1.043587 -1.314685 -1.302331
v 1.045699 -1.316360 -1.196570
v 1.073133 -1.329471 0.182463
v 1.071035 -1.329040 0.076688
v 0.007842 -1.326836 -1.176021
v 0.205426 -1.324842 -1.179933
v 0.204264 -1.323876 -1.238195
v 0.006679 -1.325871 -1.234283
v 0.205426 -1.324842 -1.179933
v 0.212254 -1.699416 -1.026103
v 0.211403 -1.701114 -1.069965
v 0.204264 -1.323876 -1.238195
v 0.212254 -1.699416 -1.026103
v 0.221327 -2.066926 -0.755189
v 0.221263 -2.097808 -0.774211
v 0.211403 -1.701114 -1.069965
v 0.221327 -2.066926 -0.755189
v 0.229318 -2.070925 -0.353652
v 0.229984 -2.102174 -0.335924
v 0.221263 -2.097808 -0.774211
v 0.229318 -2.070925 -0.353652
v 0.231318 -1.708957 -0.068083
v 0.232211 -1.711527 -0.024264
v 0.229984 -2.102174 -0.335924
v 0.231318 -1.708957 -0.068083
v 0.230763 -1.337522 0.093324
v 0.231919 -1.337716 0.151595
v 0.232211 -1.711527 -0.024264
v 0.230763 -1.337522 0.093324
v 0.033178 -1.339516 0.097236
v 0.034334 -1.339710 0.155506
v 0.231919 -1.337716 0.151595
v -0.184444 -1.703358 -1.018248
v -0.191271 -1.328847 -1.172079
v -0.192433 -1.327880 -1.230341
v -0.185295 -1.705050 -1.062110
v -0.191271 -1.328847 -1.172079
v 0.007842 -1.326836 -1.176021
v 0.006679 -1.325871 -1.234283
v -0.192433 -1.327880 -1.230341
v -0.175370 -2.070910 -0.747335
v -0.175435 -2.101791 -0.766357
v -0.167380 -2.074909 -0.345798
v -0.175370 -2.070910 -0.747335
v -0.175435 -2.101791 -0.766357
v -0.166713 -2.106155 -0.328069
v -0.165380 -1.712898 -0.060228
v -0.167380 -2.074909 -0.345798
v -0.166713 -2.106155 -0.328069
v -0.164488 -1.715462 -0.016409
v 0.033178 -1.339516 0.097236
v -0.165934 -1.341527 0.101179
v -0.164779 -1.341721 0.159448
v 0.034334 -1.339710 0.155506
v -0.165934 -1.341527 0.101179
v -0.165380 -1.712898 -0.060228
v -0.164488 -1.715462 -0.016409
v -0.164779 -1.341721 0.159448
v -0.467826 -1.331639 -1.166605
v -0.461113 -1.694686 -1.012656
v -0.461974 -1.695329 -1.056507
v -0.468989 -1.330673 -1.224865
v -0.740161 -1.685941 -1.007016
v -0.746760 -1.334455 -1.161082
v -0.747924 -1.333489 -1.219343
v -0.741034 -1.685526 -1.050857
v -0.746760 -1.334455 -1.161082
v -0.467826 -1.331639 -1.166605
v -0.468989 -1.330673 -1.224865
v -0.747924 -1.333489 -1.219343
v -0.452156 -2.050397 -0.741623
v -0.452224 -2.080927 -0.760641
v -0.731317 -2.030322 -0.735869
v -0.740161 -1.685941 -1.007016
v -0.741034 -1.685526 -1.050857
v -0.731388 -2.060497 -0.754883
v -0.452156 -2.050397 -0.741623
v -0.444166 -2.054396 -0.340086
v -0.443503 -2.085291 -0.322354
v -0.452224 -2.080927 -0.760641
v -0.723327 -2.034321 -0.334331
v -0.731317 -2.030322 -0.735869
v -0.731388 -2.060497 -0.754883
v -0.722667 -2.064861 -0.316596
v -0.444166 -2.054396 -0.340086
v -0.442049 -1.704226 -0.054636
v -0.441167 -1.705742 -0.010807
v -0.443503 -2.085291 -0.322354
v -0.721098 -1.695481 -0.048996
v -0.723327 -2.034321 -0.334331
v -0.722667 -2.064861 -0.316596
v -0.720226 -1.695938 -0.005158
v -0.442049 -1.704226 -0.054636
v -0.442490 -1.344319 0.106653
v -0.441334 -1.344512 0.164923
v -0.441167 -1.705742 -0.010807
v -0.442490 -1.344319 0.106653
v -0.721424 -1.347135 0.112176
v -0.720269 -1.347328 0.170445
v -0.441334 -1.344512 0.164923
v -0.721424 -1.347135 0.112176
v -0.721098 -1.695481 -0.048996
v -0.720226 -1.695938 -0.005158
v -0.720269 -1.347328 0.170445
v 0.503831 -1.684381 -1.031755
v 0.497124 -1.321898 -1.185709
v 0.495960 -1.320931 -1.243971
v 0.502968 -1.684972 -1.075605
v 0.497124 -1.321898 -1.185709
v 0.794456 -1.318896 -1.191595
v 0.793293 -1.317930 -1.249857
v 0.495960 -1.320931 -1.243971
v 0.794456 -1.318896 -1.191595
v 0.801041 -1.669055 -1.037516
v 0.800169 -1.668518 -1.081356
v 0.793293 -1.317930 -1.249857
v 0.512791 -2.040467 -0.760726
v 0.503831 -1.684381 -1.031755
v 0.502968 -1.684972 -1.075605
v 0.512724 -2.070979 -0.779744
v 0.809895 -2.014318 -0.766377
v 0.809823 -2.044453 -0.785391
v 0.520781 -2.044466 -0.359188
v 0.512791 -2.040467 -0.760726
v 0.512724 -2.070979 -0.779744
v 0.521444 -2.075344 -0.341457
v 0.809895 -2.014318 -0.766377
v 0.817881 -2.017907 -0.364836
v 0.818544 -2.048817 -0.347104
v 0.809823 -2.044453 -0.785391
v 0.522894 -1.693921 -0.073735
v 0.520781 -2.044466 -0.359188
v 0.521444 -2.075344 -0.341457
v 0.523776 -1.695385 -0.029906
v 0.817881 -2.017907 -0.364836
v 0.820105 -1.678595 -0.079497
v 0.820976 -1.678931 -0.035655
v 0.818544 -2.048817 -0.347104
v 0.522460 -1.334577 0.087549
v 0.522894 -1.693921 -0.073735
v 0.523776 -1.695385 -0.029906
v 0.523616 -1.334770 0.145819
v 0.820105 -1.678595 -0.079497
v 0.819793 -1.331575 0.081663
v 0.820947 -1.331769 0.139933
v 0.820976 -1.678931 -0.035655
v 0.819793 -1.331575 0.081663
v 0.522460 -1.334577 0.087549
v 0.523616 -1.334770 0.145819
v 0.820947 -1.331769 0.139933
v 0.004342 -1.203680 -1.290036
v 0.007459 -1.205241 -1.133375
v 1.123904 -1.193970 -1.155478
v 1.120787 -1.192409 -1.312140
v -1.112104 -1.214952 -1.267933
v -1.108986 -1.216512 -1.111272
v 0.012696 -1.448571 -0.992957
v -1.091543 -1.459719 -0.971096
v -1.062846 -1.692778 -0.858995
v 0.017280 -1.681873 -0.880379
v -1.091543 -1.459719 -0.971096
v -1.072170 -1.469413 0.002452
v -1.047323 -1.688093 -0.072572
v -1.062846 -1.692778 -0.858995
v -1.072170 -1.469413 0.002452
v 0.032068 -1.458266 -0.019411
v 0.032802 -1.677189 -0.093957
v -1.047323 -1.688093 -0.072572
v 0.032068 -1.458266 -0.019411
v 1.136306 -1.447117 -0.041273
v 1.112927 -1.666284 -0.115341
v 0.032802 -1.677189 -0.093957
v 1.136306 -1.447117 -0.041273
v 1.116934 -1.437423 -1.014819
v 1.097405 -1.670969 -0.901763
v 1.112927 -1.666284 -0.115341
v 1.116934 -1.437423 -1.014819
v 1.097405 -1.670969 -0.901763
v 0.017280 -1.681873 -0.880379
v -1.062846 -1.692778 -0.858995
v -0.927068 -1.793511 -0.731063
v 0.020895 -1.783941 -0.749831
v -1.062846 -1.692778 -0.858995
v -1.047323 -1.688093 -0.072572
v -0.916618 -1.798741 -0.205874
v -0.927068 -1.793511 -0.731063
v -1.047323 -1.688093 -0.072572
v 0.032802 -1.677189 -0.093957
v 0.031345 -1.789171 -0.224642
v -0.916618 -1.798741 -0.205874
v 0.032802 -1.677189 -0.093957
v 1.112927 -1.666284 -0.115341
v 0.979308 -1.779601 -0.243411
v 0.031345 -1.789171 -0.224642
v 1.112927 -1.666284 -0.115341
v 1.097405 -1.670969 -0.901763
v 0.968858 -1.774370 -0.768599
v 0.979308 -1.779601 -0.243411
v 1.097405 -1.670969 -0.901763
v 0.968858 -1.774370 -0.768599
v 0.007459 -1.205241 -1.133375
v -1.108986 -1.216512 -1.111272
v -1.108986 -1.216512 -1.111272
v -1.086357 -1.227836 0.025940
v -1.086357 -1.227836 0.025940
v 0.030088 -1.216565 0.003837
v 0.030088 -1.216565 0.003837
v 1.146533 -1.205294 -0.018267
v 1.146533 -1.205294 -0.018267
v 1.123904 -1.193970 -1.155478
v 1.123904 -1.193970 -1.155478
v 0.020895 -1.783941 -0.749831
v -0.927068 -1.793511 -0.731063
v -0.693155 -1.838972 -0.643438
v 0.023202 -1.831740 -0.657621
v -0.927068 -1.793511 -0.731063
v -0.916618 -1.798741 -0.205874
v -0.687291 -1.841905 -0.348757
v -0.693155 -1.838972 -0.643438
v -0.916618 -1.798741 -0.205874
v 0.031345 -1.789171 -0.224642
v 0.029067 -1.834674 -0.362940
v -0.687291 -1.841905 -0.348757
v 0.031345 -1.789171 -0.224642
v 0.979308 -1.779601 -0.243411
v 0.745424 -1.827442 -0.377122
v 0.029067 -1.834674 -0.362940
v 0.979308 -1.779601 -0.243411
v 0.968858 -1.774370 -0.768599
v 0.739560 -1.824508 -0.671804
v 0.745424 -1.827442 -0.377122
v 0.968858 -1.774370 -0.768599
v 0.739560 -1.824508 -0.671804
v 0.023202 -1.831740 -0.657621
v -0.693155 -1.838972 -0.643438
v -0.537844 -1.877312 -0.552588
v 0.025464 -1.871625 -0.563740
v -0.693155 -1.838972 -0.643438
v -0.687291 -1.841905 -0.348757
v -0.535740 -1.878363 -0.446894
v -0.537844 -1.877312 -0.552588
v -0.687291 -1.841905 -0.348757
v 0.029067 -1.834674 -0.362940
v 0.027567 -1.872677 -0.458047
v -0.535740 -1.878363 -0.446894
v 0.029067 -1.834674 -0.362940
v 0.745424 -1.827442 -0.377122
v 0.590875 -1.866990 -0.469200
v 0.027567 -1.872677 -0.458047
v 0.745424 -1.827442 -0.377122
v 0.739560 -1.824508 -0.671804
v 0.588772 -1.865938 -0.574893
v 0.590875 -1.866990 -0.469200
v 0.739560 -1.824508 -0.671804
v 0.588772 -1.865938 -0.574893
v 1.322507 -1.325259 -0.565579
v 1.180063 -1.320972 -0.562461
v 1.180065 -1.320849 -0.562344
v 1.173741 -1.320913 -0.562219
v 1.333193 -1.203998 0.035962
v 1.150819 -1.207439 0.197161
v 1.336327 -1.205567 0.193488
v 1.146533 -1.205294 -0.018267
v 1.321310 -1.198052 -0.561162
v 1.123904 -1.193970 -1.155478
v 1.309428 -1.192105 -1.158287
v 1.306293 -1.190536 -1.315812
v 1.120787 -1.192409 -1.312140
v 0.004342 -1.203680 -1.290036
v 0.203258 -1.323139 -1.288591
v 0.005660 -1.325127 -1.285361
v 1.120787 -1.192409 -1.312140
v 0.494975 -1.320204 -1.293361
v 0.792328 -1.317213 -1.298223
v 1.306293 -1.190536 -1.315812
v 0.035348 -1.339984 0.206587
v 1.150819 -1.207439 0.197161
v 0.034375 -1.218710 0.219264
v 1.336327 -1.205567 0.193488
v 0.232920 -1.337983 0.201995
v 0.524596 -1.335027 0.195214
v 0.821908 -1.332015 0.188302
v 1.322507 -1.325259 -0.565579
v 1.180065 -1.320849 -0.562344
v 1.173741 -1.320913 -0.562219
v -1.281397 -1.351547 -0.514026
v -1.139057 -1.344385 -0.516546
v -1.132733 -1.344198 -0.516555
v -1.139056 -1.344262 -0.516429
v -1.086357 -1.227836 0.025940
v -1.267578 -1.231854 0.245040
v -1.082070 -1.229981 0.241368
v -1.270712 -1.230285 0.087515
v -1.282594 -1.224339 -0.509610
v -1.108986 -1.216512 -1.111272
v -1.294476 -1.218394 -1.106734
v -1.297611 -1.216825 -1.264260
v -1.112104 -1.214952 -1.267933
v -1.112104 -1.214952 -1.267933
v -1.297611 -1.216825 -1.264260
v -0.748891 -1.332771 -1.267820
v -0.469975 -1.329946 -1.274304
v -0.193439 -1.327144 -1.280732
v -1.082070 -1.229981 0.241368
v -1.267578 -1.231854 0.245040
v -0.440353 -1.344769 0.214365
v -0.163778 -1.341987 0.209843
v -0.719307 -1.347576 0.218926
v -1.139056 -1.344262 -0.516429
v -1.281397 -1.351547 -0.514026
v -1.132733 -1.344198 -0.516555
v 0.588772 -1.865938 -0.574893
v 0.027567 -1.872677 -0.458047
v 0.590875 -1.866990 -0.469200
v -0.535740 -1.878363 -0.446894
v -0.537844 -1.877312 -0.552588
v -0.746760 -1.334455 -1.161082
v -0.740161 -1.685941 -1.007016
v -1.023531 -1.677059 -1.001290
v -1.030014 -1.337316 -1.155474
v -0.740161 -1.685941 -1.007016
v -0.731317 -2.030322 -0.735869
v -1.014709 -2.019112 -0.730118
v -1.023531 -1.677059 -1.001290
v -0.731317 -2.030322 -0.735869
v -0.723327 -2.034321 -0.334331
v -1.006719 -2.023111 -0.328580
v -1.014709 -2.019112 -0.730118
v -0.723327 -2.034321 -0.334331
v -0.721098 -1.695481 -0.048996
v -1.004468 -1.686600 -0.043269
v -1.006719 -2.023111 -0.328580
v -0.721098 -1.695481 -0.048996
v -0.721424 -1.347135 0.112176
v -1.004678 -1.349995 0.117784
v -1.004468 -1.686600 -0.043269
v 0.212254 -1.699416 -1.026103
v 0.205426 -1.324842 -1.179933
v 0.497124 -1.321898 -1.185709
v 0.503831 -1.684381 -1.031755
v 0.221327 -2.066926 -0.755189
v 0.212254 -1.699416 -1.026103
v 0.503831 -1.684381 -1.031755
v 0.512791 -2.040467 -0.760726
v 0.229318 -2.070925 -0.353652
v 0.221327 -2.066926 -0.755189
v 0.512791 -2.040467 -0.760726
v 0.520781 -2.044466 -0.359188
v 0.231318 -1.708957 -0.068083
v 0.229318 -2.070925 -0.353652
v 0.520781 -2.044466 -0.359188
v 0.522894 -1.693921 -0.073735
v 0.230763 -1.337522 0.093324
v 0.231318 -1.708957 -0.068083
v 0.522894 -1.693921 -0.073735
v 0.522460 -1.334577 0.087549
v -0.191271 -1.328847 -1.172079
v -0.184444 -1.703358 -1.018248
v -0.461113 -1.694686 -1.012656
v -0.467826 -1.331639 -1.166605
v -0.184444 -1.703358 -1.018248
v -0.175370 -2.070910 -0.747335
v -0.452156 -2.050397 -0.741623
v -0.461113 -1.694686 -1.012656
v -0.175370 -2.070910 -0.747335
v -0.167380 -2.074909 -0.345798
v -0.444166 -2.054396 -0.340086
v -0.452156 -2.050397 -0.741623
v -0.167380 -2.074909 -0.345798
v -0.165380 -1.712898 -0.060228
v -0.442049 -1.704226 -0.054636
v -0.444166 -2.054396 -0.340086
v -0.165380 -1.712898 -0.060228
v -0.165934 -1.341527 0.101179
v -0.442490 -1.344319 0.106653
v -0.442049 -1.704226 -0.054636
v 0.801041 -1.669055 -1.037516
v 0.794456 -1.318896 -1.191595
v 1.045699 -1.316360 -1.196570
v 1.052181 -1.656105 -1.042385
v 0.809895 -2.014318 -0.766377
v 0.801041 -1.669055 -1.037516
v 1.052181 -1.656105 -1.042385
v 1.061002 -1.998157 -0.771213
v 0.817881 -2.017907 -0.364836
v 0.809895 -2.014318 -0.766377
v 1.061002 -1.998157 -0.771213
v 1.068992 -2.002155 -0.369676
v 0.820105 -1.678595 -0.079497
v 0.817881 -2.017907 -0.364836
v 1.068992 -2.002155 -0.369676
v 1.071244 -1.665644 -0.084365
v 0.819793 -1.331575 0.081663
v 0.820105 -1.678595 -0.079497
v 1.071244 -1.665644 -0.084365
v 1.071035 -1.329040 0.076688
vn 0.9998 0.0101 -0.0198
vn -0.9998 -0.0101 0.0198
vn 0.5913 -0.3789 0.7119
vn 0.8896 0.1383 -0.4353
vn 0.6396 -0.3393 -0.6898
vn 0.9283 0.1649 0.3334
vn -0.0099 0.9999 0.0102
vn 0.1393 -0.2630 0.9547
vn 0.0214 -0.2088 0.9777
vn 0.0179 -0.4592 0.8882
vn 0.9999 -0.0016 -0.0115
vn 0.9998 0.0079 -0.0182
vn 0.9998 0.0073 -0.0178
vn 0.9999 -0.0015 -0.0114
vn 0.9997 0.0080 -0.0215
vn 0.9997 0.0076 -0.0218
vn -0.0081 -0.6659 -0.7460
vn -0.0080 -0.6659 -0.7460
vn 0.0099 -0.9999 -0.0102
vn 0.0213 -0.6901 0.7234
vn 0.0101 0.5864 0.8099
vn -0.0097 0.9997 0.0207
vn -0.0212 0.6949 -0.7188
vn 0.9996 -0.0009 -0.0283
vn 0.9996 -0.0009 -0.0284
vn -0.0493 -0.8369 -0.5451
vn 0.5051 -0.7239 -0.4699
vn -0.0304 0.3309 -0.9432
vn 0.1222 -0.2182 -0.9682
vn 0.6396 -0.3393 -0.6897
vn -0.0188 -0.4421 -0.8968
vn -0.0184 -0.1560 -0.9876
vn 0.6560 -0.6504 0.3829
vn 0.9282 0.1648 0.3336
vn -0.0249 -0.8509 0.5248
vn 0.0164 0.4416 0.8971
vn 0.0098 -0.9998 -0.0158
vn 0.0098 -0.9998 -0.0159
vn -0.0141 -0.4034 -0.9149
vn -0.0048 -0.4032 -0.9151
vn -0.0047 -0.4033 -0.9151
vn -0.0100 -0.5938 -0.8045
vn -0.0100 -0.5937 -0.8046
vn 0.0301 -0.5929 -0.8047
vn 0.0102 -0.9999 -0.0102
vn 0.0097 -0.9999 -0.0101
vn 0.0973 -0.9952 -0.0118
vn 0.0217 -0.6196 0.7846
vn 0.0217 -0.6195 0.7847
vn 0.0625 -0.6186 0.7832
vn 0.0624 -0.6186 0.7832
vn 0.0221 -0.4217 0.9065
vn 0.0222 -0.4215 0.9066
vn 0.0316 -0.4214 0.9063
vn 0.0315 -0.4214 0.9063
vn 0.0100 -0.9999 -0.0044
vn 0.0100 -0.9999 -0.0045
vn -0.5826 -0.3819 0.7174
vn -0.9198 0.1294 -0.3705
vn -0.9162 0.1499 0.3717
vn -0.6594 -0.3525 -0.6641
vn -0.1025 -0.2656 0.9586
vn 0.0265 -0.4591 0.8880
vn 0.0215 -0.2090 0.9777
vn -0.9994 -0.0218 0.0281
vn -0.9997 -0.0129 0.0218
vn -0.9997 -0.0122 0.0214
vn -0.9998 -0.0126 0.0179
vn -0.9998 -0.0123 0.0181
vn 0.0213 -0.6900 0.7234
vn -0.0215 0.6647 -0.7468
vn -0.9997 -0.0211 0.0112
vn -0.9997 -0.0212 0.0112
vn 0.0452 -0.8403 -0.5402
vn -0.0149 0.3735 -0.9275
vn -0.5497 -0.7164 -0.4297
vn -0.1560 -0.2211 -0.9627
vn -0.0175 -0.1560 -0.9876
vn -0.0077 -0.4420 -0.8970
vn -0.6595 -0.3524 -0.6640
vn -0.6152 -0.6740 0.4091
vn -0.9162 0.1498 0.3718
vn 0.0720 -0.8461 0.5282
vn 0.0248 0.4473 0.8941
vn 0.0098 -0.9998 -0.0160
vn 0.0100 -0.9999 -0.0043
vn -0.0234 -0.4035 -0.9147
vn -0.0498 -0.5936 -0.8032
vn -0.0497 -0.5936 -0.8032
vn -0.0770 -0.9970 -0.0084
vn -0.0187 -0.6195 0.7848
vn -0.0187 -0.6194 0.7849
vn 0.0129 -0.4216 0.9067
vn 0.0128 -0.4216 0.9067
vn -0.0235 -0.4256 -0.9046
vn -0.0494 -0.6141 -0.7877
vn -0.0493 -0.6142 -0.7876
vn -0.0732 -0.9973 -0.0085
vn -0.0189 -0.6396 0.7685
vn -0.0190 -0.6396 0.7685
vn 0.0125 -0.4435 0.8962
vn 0.0124 -0.4436 0.8962
vn -0.0036 -0.4265 -0.9045
vn -0.0038 -0.4265 -0.9045
vn -0.0037 -0.4264 -0.9045
vn 0.0292 -0.6127 -0.7898
vn 0.0887 -0.9960 -0.0117
vn 0.0608 -0.6381 0.7675
vn 0.0610 -0.6381 0.7675
vn 0.0609 -0.6381 0.7675
vn 0.0320 -0.4443 0.8953
vn 0.0320 -0.4444 0.8953
vn 0.0321 -0.4443 0.8953
vn -0.0098 0.9998 0.0168
vn -0.0100 0.9999 0.0035
vn 0.0127 0.4693 0.8830
vn 0.0127 0.4706 0.8822
vn 0.0134 0.4348 0.9004
vn 0.9969 0.0769 -0.0193
vn 0.9965 0.0814 -0.0193
vn 0.9930 0.1162 -0.0194
vn 0.9930 0.1161 -0.0194
vn -0.0214 0.2009 -0.9794
vn -0.0215 0.2067 -0.9782
vn -0.0220 0.3222 -0.9464
vn -0.0214 0.2066 -0.9782
vn -0.9979 0.0611 0.0202
vn -0.9982 0.0569 0.0202
vn -0.9952 0.0959 0.0201
vn -0.9952 0.0960 0.0200
vn 0.0042 0.7878 0.6159
vn 0.6213 0.7835 -0.0120
vn 0.6212 0.7835 -0.0120
vn -0.0205 0.7593 -0.6504
vn -0.6369 0.7708 0.0130
vn -0.6370 0.7708 0.0130
vn 0.0042 0.7879 0.6159
vn 0.0121 0.5000 0.8660
vn 0.9980 0.0605 -0.0193
vn -0.0207 0.0956 -0.9952
vn -0.9990 0.0403 0.0203
vn 0.0001 0.8878 0.4602
vn 0.1886 0.9820 0.0060
vn -0.0158 0.9499 -0.3123
vn -0.2080 0.9780 0.0139
vn -0.0015 0.9204 0.3911
vn 0.2369 0.9715 0.0050
vn 0.2369 0.9715 0.0049
vn -0.0167 0.9286 -0.3708
vn -0.2561 0.9665 0.0147
vn -0.0311 -0.9995 -0.0096
vn -0.0311 -0.9995 -0.0095
vn -0.0310 -0.9995 -0.0095
vn -0.0310 -0.9995 -0.0096
vn -0.0192 -0.0561 -0.9982
vn -0.0179 -0.0561 -0.9983
vn 0.0209 -0.1213 0.9924
vn 0.0222 -0.1213 0.9924
vn 0.0222 -0.1214 0.9924
vn 0.0215 -0.5245 0.8511
vn 0.0240 -0.5765 0.8167
vn -0.0312 -0.9995 -0.0088
vn -0.0311 -0.9995 -0.0087
vn -0.0312 -0.9995 -0.0089
vn 0.0509 -0.9986 -0.0111
vn 0.0509 -0.9986 -0.0112
vn 0.0509 -0.9986 -0.0113
vn 0.0509 -0.9986 -0.0115
vn 0.0509 -0.9986 -0.0114
vn -0.0204 -0.0562 -0.9982
vn -0.0204 -0.0561 -0.9982
vn 0.0195 -0.1213 0.9924
vn 0.0195 -0.1214 0.9924
vn 0.0228 -0.6267 0.7789
vn 0.0510 -0.9986 -0.0105
vn 0.0510 -0.9986 -0.0107
vn 0.0508 -0.9987 -0.0107
vn -0.0099 0.9999 0.0101
vn -0.0225 -0.4077 -0.9129
vn -0.0226 -0.4075 -0.9129
vn -0.0378 -0.6201 -0.7836
vn -0.0379 -0.6201 -0.7836
vn -0.0377 -0.6201 -0.7836
vn -0.0397 -0.9992 -0.0092
vn -0.0077 -0.6455 0.7637
vn -0.0075 -0.6454 0.7638
vn -0.0074 -0.6454 0.7638
vn 0.0136 -0.4256 0.9048
vn 0.0135 -0.4257 0.9048
vn -0.0062 -0.3855 -0.9227
vn -0.0062 -0.3854 -0.9227
vn 0.0273 -0.5987 -0.8005
vn 0.0273 -0.5988 -0.8004
vn 0.0902 -0.9959 -0.0117
vn 0.0593 -0.6245 0.7788
vn 0.0595 -0.6245 0.7788
vn 0.0303 -0.4038 0.9144
vn 0.0304 -0.4037 0.9144
vn -0.0225 -0.3854 -0.9225
vn -0.0226 -0.3853 -0.9225
vn -0.0479 -0.5998 -0.7987
vn -0.0480 -0.5997 -0.7988
vn -0.0741 -0.9972 -0.0085
vn -0.0171 -0.6254 0.7801
vn -0.0170 -0.6254 0.7801
vn 0.0140 -0.4036 0.9148
vn 0.0140 -0.4037 0.9148
vn -0.0053 -0.4081 -0.9129
vn -0.0054 -0.4080 -0.9130
vn 0.0208 -0.6190 -0.7851
vn 0.0207 -0.6189 -0.7852
vn 0.0206 -0.6190 -0.7852
vn 0.0630 -0.9980 -0.0108
vn 0.0634 -0.9979 -0.0106
vn 0.0634 -0.9979 -0.0105
vn 0.0631 -0.9979 -0.0107
vn 0.0516 -0.6445 0.7629
vn 0.0515 -0.6445 0.7629
vn 0.0308 -0.4261 0.9041
vn 0.0309 -0.4261 0.9041
vn 0.0308 -0.4262 0.9041
vt 0.556281 0.293506
vt 0.622962 0.259963
vt 0.622962 0.389256
vt 0.483784 0.347108
vt 0.482911 0.430178
vt 0.550243 0.493971
vt 0.622962 0.518923
vt 0.549591 0.034546
vt 0.482911 0.130296
vt 0.482911 -0.000000
vt 0.622089 0.088148
vt 0.622962 0.171218
vt 0.552770 0.232426
vt 0.482911 0.259963
vt 0.405539 0.529711
vt 0.352328 0.440064
vt 0.374242 0.436714
vt 0.421044 0.516794
vt 0.380959 0.341784
vt 0.398315 0.357204
vt 0.473479 0.296497
vt 0.482910 0.326018
vt 0.762707 0.491903
vt 0.762707 0.245953
vt 0.796110 0.245950
vt 0.796111 0.491899
vt 0.025648 0.573044
vt 0.024273 0.515455
vt 0.117682 0.515456
vt 0.117682 0.570607
vt 0.854238 0.372249
vt 0.854403 0.337610
vt 0.882434 0.341031
vt 0.882479 0.375733
vt 0.235238 0.900721
vt 0.235238 0.771944
vt 0.263264 0.769864
vt 0.263264 0.901409
vt 0.087391 0.912899
vt 0.087391 0.811582
vt 0.142543 0.811581
vt 0.142543 0.912898
vt 0.407480 0.897379
vt 0.407480 0.952788
vt 0.352328 0.952778
vt 0.352328 0.897369
vt 0.899016 0.700739
vt 0.899017 0.803310
vt 0.843865 0.803309
vt 0.843865 0.700738
vt 0.970817 0.807227
vt 0.970817 0.717092
vt 0.999158 0.717091
vt 0.999158 0.807226
vt 0.511252 0.927241
vt 0.511252 0.985090
vt 0.482911 0.985087
vt 0.482911 0.927238
vt 0.999158 0.624360
vt 0.999158 0.717091
vt 0.970817 0.717091
vt 0.970817 0.624361
vt 0.622340 0.708240
vt 0.622340 0.810606
vt 0.611551 0.803768
vt 0.611551 0.715311
vt 0.233228 0.880411
vt 0.233228 0.983419
vt 0.220736 0.980204
vt 0.215143 0.884210
vt 0.991881 0.264951
vt 0.991881 0.358901
vt 0.973442 0.357664
vt 0.971111 0.275513
vt 0.971111 0.264951
vt 0.971111 0.171001
vt 0.991881 0.181564
vt 0.989550 0.263714
vt 0.602519 0.931024
vt 0.602519 0.826774
vt 0.620553 0.830809
vt 0.614881 0.927811
vt 0.235028 0.737305
vt 0.263264 0.735162
vt 0.708567 0.925156
vt 0.739936 0.926752
vt 0.736908 0.994372
vt 0.708567 0.994373
vt 0.854238 0.208834
vt 0.882265 0.209486
vt 0.209928 0.573043
vt 0.117682 0.570606
vt 0.117682 0.515454
vt 0.211230 0.515454
vt 0.989224 0.015542
vt 0.989030 0.088831
vt 0.958266 0.092583
vt 0.958266 -0.000000
vt 0.982739 0.097830
vt 0.979725 0.171001
vt 0.951408 0.169840
vt 0.951344 0.097830
vt 0.482910 0.559796
vt 0.473021 0.592994
vt 0.882943 0.228639
vt 0.895867 0.228637
vt 0.895785 0.272164
vt 0.882943 0.272166
vt 0.396192 0.684911
vt 0.396192 0.592994
vt 0.439720 0.592994
vt 0.439720 0.683240
vt 0.043864 0.685411
vt 0.043864 0.575316
vt 0.087391 0.573645
vt 0.087391 0.682168
vt 0.899082 0.127475
vt 0.951344 0.127467
vt 0.948129 0.170994
vt 0.895867 0.171001
vt 0.526438 0.520591
vt 0.526438 0.631753
vt 0.482911 0.628540
vt 0.482911 0.518935
vt 0.526438 0.631754
vt 0.526438 0.723475
vt 0.482911 0.721820
vt 0.482911 0.631754
vt 0.854238 0.272164
vt 0.841166 0.272167
vt 0.841084 0.228639
vt 0.854238 0.228637
vt 0.429700 0.233214
vt 0.410725 0.218615
vt 0.460997 0.140217
vt 0.482911 0.143567
vt 0.436924 0.060707
vt 0.454280 0.045287
vt 0.352328 0.029521
vt 0.361760 -0.000000
vt 0.762707 0.000003
vt 0.796111 -0.000000
vt 0.025648 0.000591
vt 0.117682 0.003030
vt 0.117682 0.058182
vt 0.024273 0.058181
vt 0.824347 0.820878
vt 0.796111 0.824397
vt 0.796111 0.789695
vt 0.824137 0.786238
vt 0.824137 0.657462
vt 0.796111 0.658150
vt 0.796111 0.526605
vt 0.824137 0.528685
vt 0.538062 0.927238
vt 0.482911 0.927238
vt 0.482911 0.825921
vt 0.538062 0.825921
vt 0.824347 0.895404
vt 0.879499 0.895414
vt 0.879499 0.950822
vt 0.824347 0.950812
vt 0.352328 0.794797
vt 0.407480 0.794798
vt 0.407480 0.897369
vt 0.352328 0.897368
vt 0.468060 0.683129
vt 0.439720 0.683129
vt 0.439720 0.592994
vt 0.468061 0.592994
vt 0.547171 0.925678
vt 0.575511 0.925680
vt 0.575511 0.983529
vt 0.547171 0.983526
vt 0.854238 0.375733
vt 0.882579 0.375733
vt 0.882579 0.468676
vt 0.854238 0.468676
vt 0.615820 0.518923
vt 0.622340 0.530053
vt 0.583006 0.609285
vt 0.570302 0.610612
vt 0.052146 0.876600
vt 0.070232 0.880399
vt 0.064638 0.976392
vt 0.052146 0.979608
vt 0.461616 0.881812
vt 0.482386 0.892374
vt 0.480055 0.974525
vt 0.461616 0.975762
vt 0.992555 0.901475
vt 0.974117 0.900238
vt 0.971786 0.818087
vt 0.992555 0.807525
vt 0.622340 0.698136
vt 0.606866 0.708240
vt 0.796111 0.491903
vt 0.824347 0.494046
vt 0.771304 0.925156
vt 0.771302 0.994161
vt 0.742961 0.994161
vt 0.739936 0.926753
vt 0.209928 0.000590
vt 0.211230 0.058180
vt 0.117682 0.058181
vt 0.117682 0.003029
vt 0.235028 0.916951
vt 0.265985 0.901409
vt 0.265985 0.993992
vt 0.235222 0.990240
vt 0.895867 0.405541
vt 0.927236 0.407437
vt 0.924207 0.479385
vt 0.895867 0.479391
vt 0.362218 0.296497
vt 0.352328 0.263299
vt 0.895557 0.062400
vt 0.882943 0.062402
vt 0.882944 0.000002
vt 0.895440 0.000000
vt 0.841511 0.000002
vt 0.854238 0.000000
vt 0.854238 0.062400
vt 0.841395 0.062402
vt 0.895665 0.336424
vt 0.882943 0.336426
vt 0.854238 0.336424
vt 0.841285 0.336426
vt 0.882943 0.184775
vt 0.895785 0.184773
vt 0.352328 0.683227
vt 0.352328 0.592993
vt -0.000000 0.682164
vt -0.000000 0.573633
vt 0.895867 0.083610
vt 0.948129 0.083603
vt 0.570302 0.518923
vt 0.570302 0.628536
vt 0.570302 0.631753
vt 0.570302 0.721805
vt 0.841166 0.184775
vt 0.854238 0.184773
vt 0.882943 0.123851
vt 0.895671 0.123848
vt 0.841280 0.123851
vt 0.854238 0.123848
vt 0.342056 0.834219
vt 0.342056 0.922113
vt 0.280607 0.919754
vt 0.280607 0.834219
vt 0.475226 0.687270
vt 0.475226 0.793718
vt 0.413777 0.789373
vt 0.413777 0.684911
vt 0.215143 0.945653
vt 0.163008 0.942010
vt 0.163008 0.880411
vt 0.215143 0.884054
vt 0.352328 0.794797
vt 0.352329 0.687247
vt 0.413777 0.684911
vt 0.413777 0.790492
vt 0.708567 0.925156
vt 0.708567 0.837420
vt 0.770016 0.837420
vt 0.770016 0.922817
vt 0.895543 0.401926
vt 0.882943 0.401928
vt -0.000000 0.876600
vt -0.000000 0.788821
vt 0.065502 0.788821
vt 0.065502 0.874085
vt 0.163008 0.792790
vt 0.163008 0.686265
vt 0.228510 0.683750
vt 0.228509 0.788392
vt 0.000000 0.880078
vt 0.052146 0.876600
vt 0.052146 0.942245
vt -0.000000 0.945724
vt 0.228509 0.576125
vt 0.228509 0.683750
vt 0.163008 0.679392
vt 0.163008 0.573633
vt 0.228509 0.792790
vt 0.228510 0.880411
vt 0.163008 0.877920
vt 0.163008 0.792791
vt 0.854238 0.401926
vt 0.841408 0.401928
vt 0.895440 0.457273
vt 0.882943 0.457276
vt 0.841511 0.457276
vt 0.854238 0.457274
vt 0.163008 0.906162
vt 0.163008 0.949689
vt 0.154034 0.949690
vt 0.154034 0.906163
vt 0.163008 0.817005
vt 0.160350 0.906161
vt 0.151375 0.902566
vt 0.151375 0.811581
vt 0.991447 0.422113
vt 0.990903 0.522687
vt 0.983478 0.525635
vt 0.983478 0.416636
vt 0.151374 0.815702
vt 0.151374 0.904160
vt 0.144531 0.908135
vt 0.144531 0.811581
vt 0.344983 0.902103
vt 0.344430 0.800560
vt 0.352329 0.794983
vt 0.352329 0.905048
vt 0.265922 0.829742
vt 0.263264 0.740586
vt 0.274898 0.735162
vt 0.274898 0.826147
vt 0.829497 0.461195
vt 0.829497 0.417668
vt 0.838592 0.417667
vt 0.838592 0.461194
vt 0.699997 0.841991
vt 0.688426 0.753562
vt 0.699458 0.746999
vt 0.708567 0.837513
vt 0.352328 0.905048
vt 0.352328 0.948912
vt 0.343354 0.948913
vt 0.343354 0.905049
vt 0.688426 0.941907
vt 0.695441 0.945727
vt 0.538062 0.918499
vt 0.538062 0.830042
vt 0.544905 0.825921
vt 0.544905 0.922474
vt 0.352328 0.690489
vt 0.351775 0.792039
vt 0.344430 0.794983
vt 0.344430 0.684911
vt 0.820402 0.461532
vt 0.820402 0.417668
vt 0.829497 0.417667
vt 0.829497 0.461531
vt 0.280607 0.839644
vt 0.277949 0.928787
vt 0.268974 0.925190
vt 0.268974 0.834219
vt 0.971111 0.177719
vt 0.959601 0.263816
vt 0.951215 0.259020
vt 0.960174 0.171002
vt 0.470873 0.683216
vt 0.468060 0.598729
vt 0.479544 0.592993
vt 0.479544 0.678963
vt 0.787561 0.735084
vt 0.787561 0.796532
vt 0.778587 0.796533
vt 0.778587 0.735084
vt 0.971111 0.361654
vt 0.964083 0.365309
vt 0.991998 0.380112
vt 0.991881 0.283557
vt 0.999403 0.277500
vt 0.999403 0.382733
vt 0.886264 0.899525
vt 0.886264 0.987982
vt 0.879498 0.991957
vt 0.879498 0.895404
vt 0.064315 0.777990
vt 0.064315 0.689532
vt 0.071002 0.685411
vt 0.071002 0.781964
vt 0.989561 0.105368
vt 0.989224 0.005867
vt 0.996899 -0.000000
vt 0.996899 0.108149
vt 1.000000 0.813677
vt 0.999881 0.911241
vt 0.992556 0.913860
vt 0.992556 0.807525
vt 0.936227 0.682272
vt 0.933494 0.595452
vt 0.945056 0.589876
vt 0.945056 0.678349
vt 0.769492 0.796533
vt 0.769492 0.735084
vt 0.778587 0.735084
vt 0.778587 0.796532
vt 0.947851 0.897039
vt 0.945038 0.981527
vt 0.936367 0.977273
vt 0.936367 0.891304
vt 0.974657 0.508925
vt 0.971920 0.422219
vt 0.983478 0.416636
vt 0.983478 0.504986
vt 0.344256 0.665140
vt 0.344256 0.730641
vt 0.335281 0.730642
vt 0.335281 0.665140
vt 0.971920 0.423515
vt 0.960640 0.507025
vt 0.952464 0.501884
vt 0.961083 0.416636
vt 0.991779 0.520987
vt 0.991447 0.422410
vt 0.999191 0.416636
vt 0.999191 0.523772
vt 0.971920 0.603071
vt 0.964884 0.606548
vt 0.990247 0.618214
vt 0.990247 0.529756
vt 0.997009 0.525635
vt 0.997009 0.622189
vt 0.990157 0.529756
vt 0.990247 0.618214
vt 0.983478 0.622189
vt 0.983478 0.525635
vt 0.482897 0.690783
vt 0.482559 0.790348
vt 0.475226 0.793130
vt 0.475226 0.684911
vt 0.991943 0.274809
vt 0.991881 0.177165
vt 0.999316 0.171001
vt 0.999316 0.277500
vt 0.983478 0.514508
vt 0.980741 0.601214
vt 0.971920 0.597275
vt 0.971920 0.508925
vt 0.974608 0.991450
vt 0.971786 0.907229
vt 0.983260 0.901475
vt 0.983260 0.987159
vt 0.326186 0.730642
vt 0.326186 0.665140
vt 0.335281 0.665140
vt 0.335281 0.730641
vt 0.796111 0.245952
vt 0.820402 0.245949
vt 0.820402 0.491899
vt 0.796111 0.491902
vt 0.796111 0.000002
vt 0.820402 0.000000
vt 0.296415 0.245957
vt 0.296414 0.002697
vt 0.352328 0.008019
vt 0.352328 0.245968
vt 0.674108 0.031475
vt 0.674108 0.245944
vt 0.625719 0.230013
vt 0.622962 0.056794
vt 0.326186 0.491899
vt 0.326186 0.735159
vt 0.280607 0.735157
vt 0.280607 0.497209
vt 0.280607 0.491901
vt 0.280607 0.735162
vt 0.235028 0.729847
vt 0.235028 0.491899
vt 0.676251 0.496469
vt 0.676251 0.281999
vt 0.727397 0.307319
vt 0.724640 0.480538
vt 0.296414 0.489218
vt 0.352328 0.483916
vt 0.727397 0.237949
vt 0.727397 -0.000000
vt 0.762707 0.029106
vt 0.762707 0.237940
vt 0.350733 0.491899
vt 0.350733 0.665140
vt 0.326186 0.636206
vt 0.328027 0.520523
vt 0.125200 0.573633
vt 0.125200 0.811581
vt 0.087391 0.811581
vt 0.087391 0.602748
vt 0.163008 0.573633
vt 0.163008 0.811581
vt 0.125200 0.782466
vt 0.125200 0.573633
vt 0.927917 0.589876
vt 0.927917 0.416636
vt 0.950623 0.445260
vt 0.952464 0.560943
vt 0.727397 0.475897
vt 0.762707 0.446773
vt 0.235028 0.245949
vt 0.235028 -0.000000
vt 0.727397 -0.000000
vt 0.727397 0.250525
vt 0.665765 0.501050
vt 0.665765 0.746999
vt 0.622962 0.747001
vt 0.622962 0.503740
vt 0.708567 0.501050
vt 0.708567 0.746999
vt 0.665765 0.744312
vt 0.665765 0.501051
vt 0.622962 0.501049
vt 0.622962 0.250525
vt 0.235028 0.491899
vt 0.820402 0.208833
vt 0.820402 -0.000000
vt 0.841084 0.051013
vt 0.841084 0.208824
vt 0.899017 0.782173
vt 0.899017 0.700738
vt 0.950037 0.729447
vt 0.950037 0.775140
vt 0.872570 0.491903
vt 0.872570 0.700736
vt 0.843865 0.700738
vt 0.843865 0.542926
vt 0.882943 -0.000000
vt 0.882943 0.208834
vt 0.854238 0.157813
vt 0.854238 0.000001
vt 0.824347 0.824397
vt 0.824347 0.905832
vt 0.773323 0.898790
vt 0.773323 0.853097
vt 0.820402 0.417667
vt 0.841084 0.366635
vt 0.824347 0.649714
vt 0.824347 0.491903
vt 0.843865 0.525608
vt 0.843865 0.649703
vt 0.586838 0.976717
vt 0.586838 0.931024
vt 0.620553 0.951807
vt 0.620553 0.968196
vt 0.970817 0.624360
vt 0.970817 0.782172
vt 0.950037 0.782173
vt 0.950038 0.658078
vt 0.971786 0.807525
vt 0.971786 0.965337
vt 0.951006 0.931621
vt 0.951006 0.807526
vt 0.544969 0.927238
vt 0.544969 0.972931
vt 0.511252 0.964403
vt 0.511252 0.948015
vt 0.824347 0.807525
vt 0.843865 0.773798
vt 0.343344 0.992059
vt 0.311976 0.923197
vt 0.343344 0.922113
vt 0.311975 0.992901
vt 0.350770 0.493292
vt 0.350733 0.493292
vt 0.350733 0.491899
vt 0.749434 0.525479
vt 0.708567 0.501050
vt 0.749434 0.501054
vt 0.708567 0.534454
vt 0.749434 0.618069
vt 0.708567 0.710788
vt 0.749434 0.710658
vt 0.749434 0.735084
vt 0.708567 0.735080
vt 0.235028 0.286816
vt 0.211567 0.330344
vt 0.211646 0.286817
vt 0.235028 0.532766
vt 0.211450 0.394604
vt 0.211331 0.460106
vt 0.235028 0.573633
vt 0.023847 0.286818
vt 0.000000 0.532766
vt 0.000000 0.286816
vt 0.000000 0.573633
vt 0.023928 0.330345
vt 0.350807 0.677009
vt 0.350807 0.491899
vt 0.350807 0.556159
vt 0.350807 0.621660
vt 0.120169 0.983569
vt 0.151553 0.983071
vt 0.152946 0.983099
vt 0.121552 0.913879
vt 0.152946 0.912899
vt 0.311976 0.923208
vt 0.280607 0.992602
vt 0.280607 0.922113
vt 0.311976 0.992912
vt 0.350807 0.491899
vt 0.350774 0.493292
vt 0.350770 0.491899
vt 0.790301 0.534457
vt 0.749434 0.501050
vt 0.790301 0.501054
vt 0.749434 0.525475
vt 0.749434 0.618064
vt 0.790301 0.710792
vt 0.749434 0.710654
vt 0.749434 0.735080
vt 0.790301 0.735084
vt 0.235028 0.040867
vt 0.235028 -0.000000
vt 0.211343 0.120580
vt 0.211455 0.182029
vt 0.211566 0.242953
vt 0.000000 0.040867
vt 0.000000 -0.000000
vt 0.024042 0.182029
vt 0.023929 0.242954
vt 0.352328 0.615747
vt 0.352328 0.491899
vt 0.352328 0.554299
vt 0.118785 0.913890
vt 0.088784 0.983071
vt 0.087391 0.912899
vt 0.120169 0.983580
vt 0.087391 0.983098
vt 0.071002 0.933603
vt 0.087391 0.809506
vt 0.087391 0.933601
vt 0.087391 0.685411
vt 0.071002 0.685413
vt 0.951006 0.807526
vt 0.951006 0.891304
vt 0.888606 0.889108
vt 0.888606 0.807525
vt 0.685362 0.749196
vt 0.685362 0.845057
vt 0.622962 0.842427
vt 0.622962 0.747001
vt 0.461616 0.946255
vt 0.413777 0.944267
vt 0.413777 0.881812
vt 0.461616 0.883801
vt 0.280607 0.834219
vt 0.280607 0.737333
vt 0.343007 0.735159
vt 0.343007 0.831614
vt 0.895867 0.083603
vt 0.895867 0.000001
vt 0.958267 0.000000
vt 0.958267 0.081428
vt 0.413777 0.881812
vt 0.413777 0.793718
vt 0.478037 0.793718
vt 0.478037 0.879552
vt 0.482911 0.825921
vt 0.482911 0.725735
vt 0.547171 0.723475
vt 0.547171 0.821524
vt 0.895867 0.341135
vt 0.943636 0.337888
vt 0.943636 0.402295
vt 0.895867 0.405541
vt 0.064260 0.687651
vt 0.064260 0.788821
vt 0.000000 0.784465
vt -0.000000 0.685411
vt 0.888606 0.807525
vt 0.888606 0.895404
vt 0.824347 0.893166
vt 0.824347 0.807527
vt 0.683887 0.845058
vt 0.683887 0.933140
vt 0.622962 0.930996
vt 0.622962 0.845057
vt 0.769492 0.737226
vt 0.769492 0.837420
vt 0.708567 0.833063
vt 0.708567 0.735084
vt 0.936367 0.955756
vt 0.888607 0.952381
vt 0.888607 0.891304
vt 0.936367 0.894678
vt 0.547171 0.826774
vt 0.547171 0.725597
vt 0.608095 0.723475
vt 0.608095 0.822459
vt 0.872569 0.677744
vt 0.872570 0.589877
vt 0.933494 0.589876
vt 0.933494 0.675620
vt 0.895867 0.254531
vt 0.895867 0.171001
vt 0.951215 0.171002
vt 0.951215 0.252585
vt 0.872569 0.589876
vt 0.872569 0.493850
vt 0.927917 0.491903
vt 0.927917 0.587329
vt 0.773323 0.907960
vt 0.821232 0.905832
vt 0.821156 0.961238
vt 0.773323 0.963362
vt 0.602519 0.828704
vt 0.602519 0.925677
vt 0.547171 0.923229
vt 0.547171 0.826774
vt 0.951215 0.254532
vt 0.951214 0.337888
vt 0.895867 0.335960
vt 0.895867 0.254533
s 1
usemtl mat3
f 1/1/1 2/2/1 3/3/1
f 4/4/1 1/1/1 3/3/1
f 5/5/1 4/4/1 3/3/1
f 6/6/1 5/5/1 3/3/1
f 7/7/1 6/6/1 3/3/1
f 8/8/2 9/9/2 10/10/2
f 11/11/2 9/9/2 8/8/2
f 12/12/2 9/9/2 11/11/2
f 13/13/2 9/9/2 12/12/2
f 14/14/2 9/9/2 13/13/2
usemtl mat0
f 15/15/3 16/16/1 17/17/1
f 15/15/3 17/17/1 18/18/4
f 16/16/1 19/19/1 20/20/1
f 16/16/1 20/20/1 17/17/1
f 19/19/1 21/21/5 22/22/6
f 19/19/1 22/22/6 20/20/1
f 23/23/7 24/24/7 25/25/7
f 23/23/7 25/25/7 26/26/7
f 27/27/8 28/28/9 29/29/10
f 27/27/8 29/29/10 15/30/3
f 30/31/11 31/32/12 32/33/13
f 30/31/11 32/33/13 33/34/14
f 34/35/1 35/36/15 36/37/16
f 34/35/1 36/37/16 37/38/1
f 38/39/17 39/40/18 40/41/17
f 38/39/17 40/41/17 41/42/17
f 42/43/19 43/44/19 44/45/19
f 42/43/19 44/45/19 45/46/19
f 46/47/20 47/48/20 48/49/20
f 46/47/20 48/49/20 49/50/20
f 50/51/21 51/52/21 52/53/21
f 50/51/21 52/53/21 53/54/21
f 54/55/22 55/56/22 56/57/22
f 54/55/22 56/57/22 57/58/22
f 58/59/23 59/60/23 60/61/23
f 58/59/23 60/61/23 61/62/23
f 62/63/2 63/64/2 64/65/2
f 62/63/2 64/65/2 65/66/2
f 66/67/2 67/68/2 68/69/2
f 66/67/2 68/69/2 69/70/2
f 70/71/2 71/72/2 72/73/2
f 70/71/2 72/73/2 73/74/2
f 74/75/2 75/76/2 76/77/2
f 74/75/2 76/77/2 77/78/2
f 78/79/2 79/80/2 80/81/2
f 78/79/2 80/81/2 81/82/2
f 36/37/16 35/36/15 82/83/24
f 36/37/16 82/83/24 83/84/25
f 84/85/26 85/86/27 18/87/4
f 84/85/26 18/87/4 86/88/28
f 32/33/13 31/32/12 87/89/1
f 32/33/13 87/89/1 88/90/1
f 89/91/29 90/92/30 91/93/31
f 89/91/29 91/93/31 92/94/32
f 93/95/33 22/96/34 90/97/30
f 93/95/33 90/97/30 89/98/29
f 94/99/35 95/100/36 22/101/34
f 94/99/35 22/101/34 93/102/33
f 18/18/4 85/103/27 27/104/8
f 18/18/4 27/104/8 15/15/3
f 96/105/37 97/106/37 98/107/38
f 96/105/37 98/107/38 99/108/38
f 100/109/39 101/110/39 102/111/40
f 100/109/39 102/111/40 103/112/41
f 104/113/42 105/114/43 106/115/44
f 104/113/42 106/115/44 107/116/44
f 108/117/45 109/118/46 110/119/47
f 108/117/45 110/119/47 111/120/47
f 112/121/48 113/122/49 114/123/50
f 112/121/48 114/123/50 115/124/51
f 116/125/52 117/126/53 118/127/54
f 116/125/52 118/127/54 119/128/55
f 120/129/56 121/130/56 122/131/57
f 120/129/56 122/131/57 123/132/57
f 124/133/58 125/134/59 126/135/2
f 124/133/58 126/135/2 127/136/2
f 127/136/2 126/135/2 128/137/2
f 127/136/2 128/137/2 129/138/2
f 129/138/2 128/137/2 130/139/60
f 129/138/2 130/139/60 131/140/61
f 24/24/7 132/141/7 133/142/7
f 24/24/7 133/142/7 25/25/7
f 134/143/62 124/144/58 135/145/63
f 134/143/62 135/145/63 136/146/64
f 137/147/65 138/148/65 139/149/66
f 137/147/65 139/149/66 140/150/67
f 141/151/2 142/152/2 143/153/68
f 141/151/2 143/153/68 144/154/69
f 145/155/18 146/156/18 147/157/18
f 145/155/18 147/157/18 148/158/18
f 149/159/19 150/160/19 151/161/19
f 149/159/19 151/161/19 152/162/19
f 153/163/20 154/164/70 155/165/20
f 153/163/20 155/165/20 156/166/20
f 157/167/21 158/168/21 159/169/21
f 157/167/21 159/169/21 160/170/21
f 161/171/22 162/172/22 163/173/22
f 161/171/22 163/173/22 164/174/22
f 165/175/71 166/176/71 167/177/71
f 165/175/71 167/177/71 168/178/71
f 169/179/1 170/180/1 171/181/1
f 169/179/1 171/181/1 172/182/1
f 173/183/1 174/184/1 175/185/1
f 173/183/1 175/185/1 176/186/1
f 177/187/1 178/188/1 179/189/1
f 177/187/1 179/189/1 180/190/1
f 181/191/1 182/192/1 183/193/1
f 181/191/1 183/193/1 184/194/1
f 172/182/1 171/181/1 185/195/1
f 172/182/1 185/195/1 186/196/1
f 143/153/68 187/197/72 188/198/73
f 143/153/68 188/198/73 144/154/69
f 189/199/74 190/200/75 125/201/59
f 189/199/74 125/201/59 191/202/76
f 139/149/66 142/152/2 141/151/2
f 139/149/66 141/151/2 140/150/67
f 192/203/77 193/204/78 194/205/79
f 192/203/77 194/205/79 195/206/80
f 196/207/81 192/208/77 195/209/80
f 196/207/81 195/209/80 130/210/82
f 197/211/83 196/212/81 130/213/82
f 197/211/83 130/213/82 198/214/84
f 125/134/59 124/133/58 134/215/62
f 125/134/59 134/215/62 191/216/76
f 199/217/85 200/218/85 201/219/85
f 199/217/85 201/219/85 202/220/85
f 203/221/86 204/222/86 205/223/86
f 203/221/86 205/223/86 206/224/86
f 99/108/38 98/107/38 207/225/38
f 99/108/38 207/225/38 208/226/38
f 209/227/56 210/228/56 121/130/56
f 209/227/56 121/130/56 120/129/56
f 96/105/37 211/229/38 212/230/38
f 96/105/37 212/230/38 97/106/37
f 100/109/39 213/231/87 214/232/87
f 100/109/39 214/232/87 101/110/39
f 104/113/42 215/233/88 216/234/89
f 104/113/42 216/234/89 105/114/43
f 108/117/45 217/235/90 218/236/90
f 108/117/45 218/236/90 109/118/46
f 112/121/48 219/237/91 220/238/92
f 112/121/48 220/238/92 113/122/49
f 116/125/52 221/239/93 222/240/94
f 116/125/52 222/240/94 117/126/53
f 223/241/56 224/242/56 123/132/57
f 223/241/56 123/132/57 122/131/57
f 212/230/38 211/229/38 225/243/38
f 212/230/38 225/243/38 226/244/38
f 227/245/56 228/246/56 224/242/56
f 227/245/56 224/242/56 223/241/56
f 226/244/38 225/243/38 200/218/85
f 226/244/38 200/218/85 199/217/85
f 229/247/95 230/248/95 231/249/95
f 229/247/95 231/249/95 232/250/95
f 233/251/96 234/252/96 235/253/96
f 233/251/96 235/253/96 236/254/97
f 237/255/98 238/256/98 239/257/98
f 237/255/98 239/257/98 240/258/98
f 241/259/99 242/260/99 243/261/99
f 241/259/99 243/261/99 244/262/100
f 245/263/101 246/264/102 247/265/101
f 245/263/101 247/265/101 248/266/102
f 206/224/86 205/223/86 228/246/56
f 206/224/86 228/246/56 227/245/56
f 208/226/38 207/225/38 249/267/85
f 208/226/38 249/267/85 250/268/85
f 251/269/103 252/270/104 253/271/105
f 251/269/103 253/271/105 254/272/104
f 255/273/106 256/274/106 257/275/106
f 255/273/106 257/275/106 258/276/106
f 259/277/107 260/278/107 261/279/107
f 259/277/107 261/279/107 262/280/107
f 263/281/108 264/282/109 265/283/110
f 263/281/108 265/283/110 266/284/110
f 267/285/111 268/286/112 269/287/112
f 267/285/111 269/287/112 270/288/113
f 271/289/86 272/290/86 210/228/56
f 271/289/86 210/228/56 209/227/56
f 250/268/85 249/267/85 273/291/85
f 250/268/85 273/291/85 274/292/85
f 275/293/86 272/290/86 271/289/86
f 275/293/86 271/289/86 276/294/86
f 277/295/114 278/296/114 279/297/114
f 277/295/114 279/297/114 280/298/114
f 281/299/1 282/300/1 283/301/1
f 281/299/1 283/301/1 284/302/1
f 285/303/1 286/304/1 287/305/1
f 285/303/1 287/305/1 288/306/1
f 289/307/1 290/308/1 291/309/1
f 289/307/1 291/309/1 292/310/1
f 293/311/1 294/312/1 295/313/1
f 293/311/1 295/313/1 296/314/1
f 297/315/1 298/316/1 299/317/1
f 297/315/1 299/317/1 300/318/1
f 301/319/115 302/320/115 303/321/115
f 301/319/115 303/321/115 304/322/115
f 305/323/2 306/324/2 307/325/2
f 305/323/2 307/325/2 308/326/2
f 309/327/114 310/328/114 311/329/114
f 309/327/114 311/329/114 312/330/114
f 313/331/2 305/323/2 308/326/2
f 313/331/2 308/326/2 314/332/2
f 315/333/2 316/334/2 317/335/2
f 315/333/2 317/335/2 318/336/2
f 319/337/2 320/338/2 321/339/2
f 319/337/2 321/339/2 322/340/2
f 323/341/115 324/342/115 325/343/115
f 323/341/115 325/343/115 326/344/115
f 327/345/2 328/346/2 329/347/2
f 327/345/2 329/347/2 330/348/2
f 331/349/1 332/350/1 333/351/1
f 331/349/1 333/351/1 334/352/1
f 335/353/2 336/354/2 337/355/2
f 335/353/2 337/355/2 338/356/2
f 339/357/114 340/358/114 341/359/114
f 339/357/114 341/359/114 342/360/114
f 332/350/1 343/361/1 344/362/1
f 332/350/1 344/362/1 333/351/1
f 345/363/2 346/364/2 347/365/2
f 345/363/2 347/365/2 348/366/2
f 349/367/1 350/368/1 351/369/1
f 349/367/1 351/369/1 352/370/1
f 353/371/2 354/372/2 355/373/2
f 353/371/2 355/373/2 356/374/2
f 357/375/1 358/376/1 359/377/1
f 357/375/1 359/377/1 360/378/1
f 361/379/2 362/380/2 363/381/2
f 361/379/2 363/381/2 364/382/2
f 365/383/1 366/384/1 367/385/1
f 365/383/1 367/385/1 368/386/1
f 369/387/115 370/388/115 371/389/115
f 369/387/115 371/389/115 372/390/115
f 373/391/2 374/392/2 375/393/2
f 373/391/2 375/393/2 376/394/2
f 377/395/2 378/396/2 379/397/2
f 377/395/2 379/397/2 380/398/2
f 381/399/114 382/400/114 383/401/114
f 381/399/114 383/401/114 384/402/114
f 385/403/1 386/404/1 387/405/1
f 385/403/1 387/405/1 388/406/1
f 389/407/2 390/408/2 391/409/2
f 389/407/2 391/409/2 392/410/2
f 386/404/1 393/411/1 394/412/1
f 386/404/1 394/412/1 387/405/1
f 395/413/2 396/414/2 397/415/2
f 395/413/2 397/415/2 398/416/2
f 399/417/1 400/418/1 401/419/1
f 399/417/1 401/419/1 402/420/1
f 403/421/2 404/422/2 405/423/2
f 403/421/2 405/423/2 406/424/2
f 407/425/1 408/426/1 409/427/1
f 407/425/1 409/427/1 410/428/1
f 411/429/2 412/430/2 413/431/2
f 411/429/2 413/431/2 414/432/2
f 415/433/1 416/434/1 417/435/1
f 415/433/1 417/435/1 418/436/1
f 419/437/115 420/438/115 421/439/115
f 419/437/115 421/439/115 422/440/115
f 423/441/7 424/442/7 425/443/7
f 423/441/7 425/443/7 426/444/7
f 423/441/7 427/445/7 428/446/7
f 423/441/7 428/446/7 424/442/7
f 429/447/116 430/448/117 431/449/118
f 429/447/116 431/449/118 432/450/118
f 433/451/119 434/452/120 435/453/121
f 433/451/119 435/453/121 436/454/122
f 437/455/123 438/456/124 439/457/125
f 437/455/123 439/457/125 440/458/125
f 441/459/126 442/460/123 443/461/125
f 441/459/126 443/461/125 444/462/125
f 445/463/127 446/464/128 447/465/129
f 445/463/127 447/465/129 448/466/130
f 449/467/117 429/447/116 432/450/118
f 449/467/117 432/450/118 450/468/118
f 451/469/131 452/470/131 453/471/131
f 451/469/131 453/471/131 454/472/131
f 455/473/132 456/474/132 457/475/132
f 455/473/132 457/475/132 458/476/133
f 459/477/134 460/478/134 461/479/134
f 459/477/134 461/479/134 462/480/134
f 463/481/134 464/482/134 465/483/134
f 463/481/134 465/483/134 466/484/134
f 467/485/135 468/486/135 469/487/135
f 467/485/135 469/487/135 470/488/136
f 471/489/137 451/469/131 454/472/131
f 471/489/137 454/472/131 472/490/137
f 473/491/138 474/492/138 430/448/117
f 473/491/138 430/448/117 429/447/116
f 475/493/139 476/494/139 434/452/120
f 475/493/139 434/452/120 433/451/119
f 477/495/140 478/496/140 438/497/124
f 477/495/140 438/497/124 437/498/123
f 479/499/140 480/500/140 442/501/123
f 479/499/140 442/501/123 441/502/126
f 481/503/141 482/504/141 446/464/128
f 481/503/141 446/464/128 445/463/127
f 483/505/138 473/491/138 429/447/116
f 483/505/138 429/447/116 449/467/117
f 484/506/142 485/507/142 486/508/142
f 484/506/142 486/508/142 487/509/142
f 488/510/143 489/511/143 490/512/143
f 488/510/143 490/512/143 491/513/143
f 492/514/144 493/515/144 494/516/144
f 492/514/144 494/516/144 495/517/144
f 496/518/144 497/519/144 498/520/144
f 496/518/144 498/520/144 499/521/144
f 500/522/145 501/523/145 502/524/145
f 500/522/145 502/524/145 503/525/145
f 504/526/142 484/506/142 487/509/142
f 504/526/142 487/509/142 505/527/142
f 506/528/146 507/529/146 508/530/146
f 506/528/146 508/530/146 509/531/146
f 510/532/147 511/533/147 512/534/147
f 510/532/147 512/534/147 513/535/148
f 514/536/149 515/537/149 516/538/149
f 514/536/149 516/538/149 517/539/149
f 518/540/149 519/541/149 520/542/149
f 518/540/149 520/542/149 521/543/149
f 522/544/150 523/545/150 524/546/150
f 522/544/150 524/546/150 525/547/150
f 526/548/146 506/528/146 509/531/146
f 526/548/146 509/531/146 527/549/146
f 94/550/35 528/551/151 529/552/152
f 528/551/151 94/550/35 93/553/33
f 529/554/153 530/555/151 531/556/154
f 532/557/7 533/558/7 534/559/7
f 533/558/7 532/557/7 535/560/7
f 535/560/7 532/557/7 536/561/7
f 535/560/7 536/561/7 537/562/7
f 537/562/7 536/561/7 538/563/7
f 537/562/7 538/563/7 539/564/7
f 537/562/7 539/564/7 540/565/7
f 541/566/155 542/567/156 543/568/155
f 542/567/156 541/566/155 544/569/156
f 542/567/156 544/569/156 545/570/156
f 545/570/156 544/569/156 546/571/156
f 546/571/156 544/569/156 92/94/32
f 92/94/32 544/569/156 89/91/29
f 89/91/29 544/569/156 547/572/156
f 548/573/157 549/574/158 550/575/157
f 549/574/158 548/573/157 551/576/158
f 551/576/158 548/573/157 552/577/159
f 551/576/158 552/577/159 28/28/9
f 551/576/158 28/28/9 27/27/8
f 28/578/9 552/579/159 553/580/160
f 28/578/9 553/580/160 554/581/161
f 555/582/162 556/583/163 557/584/164
f 556/583/163 85/585/27 84/586/26
f 85/585/27 556/583/163 555/582/162
f 558/587/165 197/588/83 559/589/166
f 197/588/83 558/587/165 196/590/81
f 559/591/167 560/592/168 561/593/169
f 562/594/7 563/595/7 564/596/7
f 563/595/7 562/594/7 565/597/7
f 565/597/7 562/594/7 566/598/7
f 566/598/7 562/594/7 567/599/7
f 566/598/7 567/599/7 568/600/7
f 568/600/7 567/599/7 569/601/7
f 569/601/7 567/599/7 570/602/7
f 571/603/170 192/203/77 572/604/171
f 192/203/77 571/603/170 193/204/78
f 193/204/78 571/603/170 541/566/155
f 193/204/78 541/566/155 573/605/171
f 573/605/171 541/566/155 574/606/171
f 574/606/171 541/566/155 575/607/171
f 575/607/171 541/566/155 543/568/155
f 134/143/62 576/608/172 577/609/173
f 576/608/172 134/143/62 550/575/157
f 550/575/157 134/143/62 136/146/64
f 550/575/157 136/146/64 578/610/173
f 550/575/157 578/610/173 579/611/172
f 550/575/157 579/611/172 548/573/157
f 578/612/173 136/613/64 580/614/174
f 191/615/76 581/616/175 189/617/74
f 581/616/175 191/615/76 582/618/176
f 581/616/175 582/618/176 583/619/177
f 584/620/178 585/621/7 586/622/178
f 585/621/7 584/620/178 587/623/178
f 587/623/178 584/620/178 588/624/178
usemtl mat2
f 589/625/179 590/626/180 591/627/180
f 589/625/179 591/627/180 592/628/180
f 593/629/181 594/630/182 595/631/183
f 593/629/181 595/631/183 596/632/182
f 597/633/184 598/634/184 599/635/184
f 597/633/184 599/635/184 600/636/184
f 601/637/185 602/638/186 603/639/186
f 601/637/185 603/639/186 604/640/187
f 605/641/188 606/642/188 607/643/189
f 605/641/188 607/643/189 608/644/188
f 609/645/190 610/646/191 611/647/190
f 609/645/190 611/647/190 612/648/191
f 613/649/192 614/650/193 615/651/193
f 613/649/192 615/651/193 616/652/193
f 617/653/194 618/654/194 619/655/194
f 617/653/194 619/655/194 620/656/194
f 621/657/195 622/658/196 623/659/195
f 621/657/195 623/659/195 624/660/195
f 625/661/197 626/662/198 627/663/198
f 625/661/197 627/663/198 628/664/198
f 629/665/199 630/666/200 631/667/200
f 629/665/199 631/667/200 632/668/199
f 633/669/201 634/670/202 635/671/202
f 633/669/201 635/671/202 636/672/202
f 637/673/203 638/674/203 639/675/203
f 637/673/203 639/675/203 640/676/203
f 641/677/204 642/678/205 643/679/204
f 641/677/204 643/679/204 644/680/204
f 645/681/206 646/682/206 647/683/207
f 645/681/206 647/683/207 648/684/207
f 649/685/208 650/686/208 651/687/209
f 649/685/208 651/687/209 652/688/208
f 653/689/210 654/690/211 655/691/212
f 653/689/210 655/691/212 656/692/210
f 657/693/213 658/694/214 659/695/215
f 657/693/213 659/695/215 660/696/216
f 661/697/217 662/698/217 663/699/218
f 661/697/217 663/699/218 664/700/217
f 665/701/219 666/702/220 667/703/220
f 665/701/219 667/703/220 668/704/221
