mtllib Seaweed.mtl
o pPlane7_sw02mat_0_1
usemtl sw02mat
v -45.095489501953125 -5.637510657310489 -29.157360076904297
v -30.44146728515625 -5.637510657310493 -10.739757537841797
v -30.44146728515625 19.362489342689507 -10.73975753784179
v -45.095489501953125 -5.637510657310489 -29.157360076904297
v -30.44146728515625 19.362489342689507 -10.73975753784179
v -45.095489501953125 19.36248934268951 -29.157360076904293
v -30.44146728515625 -5.637510657310493 -10.739757537841797
v -8.88037109375 -5.6375106573104965 0.916900634765625
v -8.88037109375 19.362489342689504 0.9169006347656321
v -30.44146728515625 -5.637510657310493 -10.739757537841797
v -8.88037109375 19.362489342689504 0.9169006347656321
v -30.44146728515625 19.362489342689507 -10.73975753784179
v -8.88037109375 -5.6375106573104965 0.916900634765625
v 13.19708251953125 -5.637510657310495 -5.0541839599609375
v 13.19708251953125 19.362489342689504 -5.05418395996093
v -8.88037109375 -5.6375106573104965 0.916900634765625
v 13.19708251953125 19.362489342689504 -5.05418395996093
v -8.88037109375 19.362489342689504 0.9169006347656321
v 13.19708251953125 -5.637510657310495 -5.0541839599609375
v 34.213714599609375 -5.637510657310493 -13.830663681030273
v 34.213714599609375 19.362489342689507 -13.83066368103027
v 13.19708251953125 -5.637510657310495 -5.0541839599609375
v 34.213714599609375 19.362489342689507 -13.83066368103027
v 13.19708251953125 19.362489342689504 -5.05418395996093
v -45.095489501953125 19.36248934268951 -29.157360076904293
v -30.44146728515625 19.362489342689507 -10.73975753784179
v -30.44146728515625 44.68488085269927 -16.706817626953114
v -45.095489501953125 19.36248934268951 -29.157360076904293
v -30.44146728515625 44.68488085269927 -16.706817626953114
v -45.095489501953125 43.496286034584045 -35.08602905273436
v -30.44146728515625 19.362489342689507 -10.73975753784179
v -8.88037109375 19.362489342689504 0.9169006347656321
v -8.88037109375 45.43715059757232 -5.074462890624993
v -30.44146728515625 19.362489342689507 -10.73975753784179
v -8.88037109375 45.43715059757232 -5.074462890624993
v -30.44146728515625 44.68488085269927 -16.706817626953114
v -8.88037109375 19.362489342689504 0.9169006347656321
v 13.19708251953125 19.362489342689504 -5.05418395996093
v 13.19708251953125 45.051805138587945 -11.033103942871087
v -8.88037109375 19.362489342689504 0.9169006347656321
v 13.19708251953125 45.051805138587945 -11.033103942871087
v -8.88037109375 45.43715059757232 -5.074462890624993
v 13.19708251953125 19.362489342689504 -5.05418395996093
v 34.213714599609375 19.362489342689507 -13.83066368103027
v 34.213714599609375 44.485406517982476 -19.79128646850585
v 13.19708251953125 19.362489342689504 -5.05418395996093
v 34.213714599609375 44.485406517982476 -19.79128646850585
v 13.19708251953125 45.051805138587945 -11.033103942871087
v -45.095489501953125 43.496286034584045 -35.08602905273436
v -30.44146728515625 44.68488085269927 -16.706817626953114
v -30.44146728515625 71.54525530338287 -27.932497024536115
v -45.095489501953125 43.496286034584045 -35.08602905273436
v -30.44146728515625 71.54525530338287 -27.932497024536115
v -45.095489501953125 65.99201738834381 -45.492946624755845
v -30.44146728515625 44.68488085269927 -16.706817626953114
v -8.88037109375 45.43715059757232 -5.074462890624993
v -8.88037109375 75.05994188785553 -16.81833839416502
v -30.44146728515625 44.68488085269927 -16.706817626953114
v -8.88037109375 75.05994188785553 -16.81833839416502
v -30.44146728515625 71.54525530338287 -27.932497024536115
v -8.88037109375 45.43715059757232 -5.074462890624993
v 13.19708251953125 45.051805138587945 -11.033103942871087
v 13.19708251953125 73.25955736637115 -22.511526107788068
v -8.88037109375 45.43715059757232 -5.074462890624993
v 13.19708251953125 73.25955736637115 -22.511526107788068
v -8.88037109375 75.05994188785553 -16.81833839416502
v 13.19708251953125 45.051805138587945 -11.033103942871087
v 34.213714599609375 44.485406517982476 -19.79128646850585
v 34.213714599609375 70.61328661441803 -30.879554748535142
v 13.19708251953125 45.051805138587945 -11.033103942871087
v 34.213714599609375 70.61328661441803 -30.879554748535142
v 13.19708251953125 73.25955736637115 -22.511526107788068
v -45.095489501953125 65.99201738834381 -45.492946624755845
v -30.44146728515625 71.54525530338287 -27.932497024536115
v -30.44146728515625 95.81263506412506 -44.36587905883787
v -45.095489501953125 65.99201738834381 -45.492946624755845
v -30.44146728515625 95.81263506412506 -44.36587905883787
v -45.095489501953125 87.91193926334381 -61.00280761718748
v -30.44146728515625 71.54525530338287 -27.932497024536115
v -8.88037109375 75.05994188785553 -16.81833839416502
v -8.88037109375 100.81304705142975 -33.83623886108396
v -30.44146728515625 71.54525530338287 -27.932497024536115
v -8.88037109375 100.81304705142975 -33.83623886108396
v -30.44146728515625 95.81263506412506 -44.36587905883787
v -8.88037109375 75.05994188785553 -16.81833839416502
v 13.19708251953125 73.25955736637115 -22.511526107788068
v 13.19708251953125 98.25159990787506 -39.23001480102537
v -8.88037109375 75.05994188785553 -16.81833839416502
v 13.19708251953125 98.25159990787506 -39.23001480102537
v -8.88037109375 100.81304705142975 -33.83623886108396
v 13.19708251953125 73.25955736637115 -22.511526107788068
v 34.213714599609375 70.61328661441803 -30.879554748535142
v 34.213714599609375 94.48670732975006 -47.15795135498045
v 13.19708251953125 73.25955736637115 -22.511526107788068
v 34.213714599609375 94.48670732975006 -47.15795135498045
v 13.19708251953125 98.25159990787506 -39.23001480102537
v -45.71672058105469 -1.0509170293808152 30.385303497314453
v -24.089599609375 -3.8331550359726103 21.52670669555664
v -20.46954345703125 20.879947304725633 22.602855682373047
v -45.71672058105469 -1.0509170293808152 30.385303497314453
v -20.46954345703125 20.879947304725633 22.602855682373047
v -42.09669494628906 23.66218149662016 31.46145248413086
v -24.089599609375 -3.8331550359726103 21.52670669555664
v -6.900543212890625 -5.5940536260604965 4.142951965332031
v -3.280517578125 19.119046807289113 5.219097137451179
v -24.089599609375 -3.8331550359726103 21.52670669555664
v -3.280517578125 19.119046807289113 5.219097137451179
v -20.46954345703125 20.879947304725633 22.602855682373047
v -6.900543212890625 -5.5940536260604965 4.142951965332031
v -6.26739501953125 -4.692037940025335 -18.701141357421875
v -2.647369384765625 20.021062493324273 -17.624994277954098
v -6.900543212890625 -5.5940536260604965 4.142951965332031
v -2.647369384765625 20.021062493324273 -17.624994277954098
v -3.280517578125 19.119046807289113 5.219097137451179
v -6.26739501953125 -4.692037940025335 -18.701141357421875
v -8.594757080078125 -3.366228461265565 -41.31866455078125
v -4.9747314453125 21.346871972084045 -40.2425193786621
v -6.26739501953125 -4.692037940025335 -18.701141357421875
v -4.9747314453125 21.346871972084045 -40.2425193786621
v -2.647369384765625 20.021062493324273 -17.624994277954098
v -42.09669494628906 23.66218149662016 31.46145248413086
v -20.46954345703125 20.879947304725633 22.602855682373047
v -22.456878662109375 46.81314623355864 22.012065887451186
v -42.09669494628906 23.66218149662016 31.46145248413086
v -22.456878662109375 46.81314623355864 22.012065887451186
v -44.219757080078125 48.41462862491606 30.83031845092775
v -20.46954345703125 20.879947304725633 22.602855682373047
v -3.280517578125 19.119046807289113 5.219097137451179
v -5.18194580078125 45.79955446720122 4.653850555419929
v -20.46954345703125 20.879947304725633 22.602855682373047
v -5.18194580078125 45.79955446720122 4.653850555419929
v -22.456878662109375 46.81314623355864 22.012065887451186
v -3.280517578125 19.119046807289113 5.219097137451179
v -2.647369384765625 20.021062493324273 -17.624994277954098
v -4.592803955078125 46.31876528263091 -18.203325271606435
v -3.280517578125 19.119046807289113 5.219097137451179
v -4.592803955078125 46.31876528263091 -18.203325271606435
v -5.18194580078125 45.79955446720122 4.653850555419929
v -2.647369384765625 20.021062493324273 -17.624994277954098
v -4.9747314453125 21.346871972084045 -40.2425193786621
v -6.984832763671875 47.08191454410553 -40.84007263183592
v -2.647369384765625 20.021062493324273 -17.624994277954098
v -6.984832763671875 47.08191454410553 -40.84007263183592
v -4.592803955078125 46.31876528263091 -18.203325271606435
v -44.219757080078125 48.41462862491606 30.83031845092775
v -22.456878662109375 46.81314623355864 22.012065887451186
v -29.20428466796875 75.06106340885161 20.00622940063478
v -44.219757080078125 48.41462862491606 30.83031845092775
v -29.20428466796875 75.06106340885161 20.00622940063478
v -50.823333740234375 72.22430193424223 28.867229461669936
v -22.456878662109375 46.81314623355864 22.012065887451186
v -5.18194580078125 45.79955446720122 4.653850555419929
v -12.020355224609375 76.85647356510161 2.6209564208984517
v -22.456878662109375 46.81314623355864 22.012065887451186
v -12.020355224609375 76.85647356510161 2.6209564208984517
v -29.20428466796875 75.06106340885161 20.00622940063478
v -5.18194580078125 45.79955446720122 4.653850555419929
v -4.592803955078125 46.31876528263091 -18.203325271606435
v -11.38458251953125 75.93678057193756 -20.22235679626463
v -5.18194580078125 45.79955446720122 4.653850555419929
v -11.38458251953125 75.93678057193756 -20.22235679626463
v -12.020355224609375 76.85647356510161 2.6209564208984517
v -4.592803955078125 46.31876528263091 -18.203325271606435
v -6.984832763671875 47.08191454410553 -40.84007263183592
v -13.70806884765625 74.58498919010162 -42.83873367309569
v -4.592803955078125 46.31876528263091 -18.203325271606435
v -13.70806884765625 74.58498919010162 -42.83873367309569
v -11.38458251953125 75.93678057193756 -20.22235679626463
v -50.823333740234375 72.22430193424223 28.867229461669936
v -29.20428466796875 75.06106340885161 20.00622940063478
v -41.26165771484375 101.53243792057036 16.421863555908224
v -50.823333740234375 72.22430193424223 28.867229461669936
v -41.26165771484375 101.53243792057036 16.421863555908224
v -62.345550537109375 96.23565447330473 25.441951751709013
v -29.20428466796875 75.06106340885161 20.00622940063478
v -12.020355224609375 76.85647356510161 2.6209564208984517
v -24.41644287109375 104.8848167657852 -1.0641059875488068
v -29.20428466796875 75.06106340885161 20.00622940063478
v -24.41644287109375 104.8848167657852 -1.0641059875488068
v -41.26165771484375 101.53243792057036 16.421863555908224
v -12.020355224609375 76.85647356510161 2.6209564208984517
v -11.38458251953125 75.93678057193756 -20.22235679626463
v -23.607177734375 103.16756975650787 -23.85583877563474
v -12.020355224609375 76.85647356510161 2.6209564208984517
v -23.607177734375 103.16756975650787 -23.85583877563474
v -24.41644287109375 104.8848167657852 -1.0641059875488068
v -11.38458251953125 75.93678057193756 -20.22235679626463
v -13.70806884765625 74.58498919010162 -42.83873367309569
v -25.6756591796875 100.64351427555084 -46.396408081054666
v -11.38458251953125 75.93678057193756 -20.22235679626463
v -25.6756591796875 100.64351427555084 -46.396408081054666
v -23.607177734375 103.16756975650787 -23.85583877563474
v -27.324371337890625 -1.583597540855408 -43.98017120361328
v -22.389892578125 -4.045420050621038 -21.099201202392578
v -23.8856201171875 20.730237603187554 -18.11095809936523
v -27.324371337890625 -1.583597540855408 -43.98017120361328
v -23.8856201171875 20.730237603187554 -18.11095809936523
v -28.820098876953125 23.19206202030182 -40.99192810058593
v -22.389892578125 -4.045420050621038 -21.099201202392578
v -8.27984619140625 -5.603529334068308 -1.1182708740234375
v -9.77557373046875 19.172128319740285 1.8699722290039134
v -22.389892578125 -4.045420050621038 -21.099201202392578
v -9.77557373046875 19.172128319740285 1.8699722290039134
v -23.8856201171875 20.730237603187554 -18.11095809936523
v -8.27984619140625 -5.603529334068308 -1.1182708740234375
v 14.111236572265625 -4.805391669273387 3.4718704223632812
v 12.615509033203125 19.970264077186574 6.460113525390632
v -8.27984619140625 -5.603529334068308 -1.1182708740234375
v 12.615509033203125 19.970264077186574 6.460113525390632
v -9.77557373046875 19.172128319740285 1.8699722290039134
v 14.111236572265625 -4.805391669273387 3.4718704223632812
v 36.798126220703125 -3.632269263267528 5.101039886474609
v 35.30242919921875 21.1433902978897 8.08928298950196
v 14.111236572265625 -4.805391669273387 3.4718704223632812
v 35.30242919921875 21.1433902978897 8.08928298950196
v 12.615509033203125 19.970264077186574 6.460113525390632
v -28.820098876953125 23.19206202030182 -40.99192810058593
v -23.8856201171875 20.730237603187554 -18.11095809936523
v -22.753753662109375 46.62299120426177 -20.37225341796874
v -28.820098876953125 23.19206202030182 -40.99192810058593
v -22.753753662109375 46.62299120426177 -20.37225341796874
v -27.6341552734375 47.90175402164459 -43.36127853393553
v -23.8856201171875 20.730237603187554 -18.11095809936523
v -9.77557373046875 19.172128319740285 1.8699722290039134
v -8.677947998046875 45.81364977359771 -0.3229408264160085
v -23.8856201171875 20.730237603187554 -18.11095809936523
v -8.677947998046875 45.81364977359771 -0.3229408264160085
v -22.753753662109375 46.62299120426177 -20.37225341796874
v -9.77557373046875 19.172128319740285 1.8699722290039134
v 12.615509033203125 19.970264077186574 6.460113525390632
v 13.730682373046875 46.228234887123094 4.232162475585952
v -9.77557373046875 19.172128319740285 1.8699722290039134
v 13.730682373046875 46.228234887123094 4.232162475585952
v -8.677947998046875 45.81364977359771 -0.3229408264160085
v 12.615509033203125 19.970264077186574 6.460113525390632
v 35.30242919921875 21.1433902978897 8.08928298950196
v 36.443359375 46.8375984430313 5.809848785400405
v 12.615509033203125 19.970264077186574 6.460113525390632
v 36.443359375 46.8375984430313 5.809848785400405
v 13.730682373046875 46.228234887123094 4.232162475585952
v -27.6341552734375 47.90175402164459 -43.36127853393553
v -22.753753662109375 46.62299120426177 -20.37225341796874
v -19.381317138671875 74.74282610416412 -27.10996437072752
v -27.6341552734375 47.90175402164459 -43.36127853393553
v -19.381317138671875 74.74282610416412 -27.10996437072752
v -24.363739013671875 71.58667528629303 -49.8950958251953
v -22.753753662109375 46.62299120426177 -20.37225341796874
v -8.677947998046875 45.81364977359771 -0.3229408264160085
v -5.24090576171875 76.74038469791411 -7.18969345092772
v -22.753753662109375 46.62299120426177 -20.37225341796874
v -5.24090576171875 76.74038469791411 -7.18969345092772
v -19.381317138671875 74.74282610416412 -27.10996437072752
v -8.677947998046875 45.81364977359771 -0.3229408264160085
v 13.730682373046875 46.228234887123094 4.232162475585952
v 17.1346435546875 75.71714556217192 -2.56847763061522
v -8.677947998046875 45.81364977359771 -0.3229408264160085
v 17.1346435546875 75.71714556217192 -2.56847763061522
v -5.24090576171875 76.74038469791411 -7.18969345092772
v 13.730682373046875 46.228234887123094 4.232162475585952
v 36.443359375 46.8375984430313 5.809848785400405
v 39.7987060546875 74.21314775943755 -0.8936424255370952
v 13.730682373046875 46.228234887123094 4.232162475585952
v 39.7987060546875 74.21314775943755 -0.8936424255370952
v 17.1346435546875 75.71714556217192 -2.56847763061522
v -24.363739013671875 71.58667528629303 -49.8950958251953
v -19.381317138671875 74.74282610416412 -27.10996437072752
v -13.543670654296875 100.98904192447662 -38.772735595703104
v -24.363739013671875 71.58667528629303 -49.8950958251953
v -13.543670654296875 100.98904192447662 -38.772735595703104
v -18.795318603515625 95.3830543756485 -61.02002716064451
v -19.381317138671875 74.74282610416412 -27.10996437072752
v -5.24090576171875 76.74038469791411 -7.18969345092772
v 0.767120361328125 104.53711473941803 -19.192884445190405
v -19.381317138671875 74.74282610416412 -27.10996437072752
v 0.767120361328125 104.53711473941803 -19.192884445190405
v -13.543670654296875 100.98904192447662 -38.772735595703104
v -5.24090576171875 76.74038469791411 -7.18969345092772
v 17.1346435546875 75.71714556217192 -2.56847763061522
v 23.05535888671875 102.71962511539459 -14.397296905517553
v -5.24090576171875 76.74038469791411 -7.18969345092772
v 23.05535888671875 102.71962511539459 -14.397296905517553
v 0.767120361328125 104.53711473941803 -19.192884445190405
v 17.1346435546875 75.71714556217192 -2.56847763061522
v 39.7987060546875 74.21314775943755 -0.8936424255370952
v 45.59112548828125 100.04822313785552 -12.466152191162088
v 17.1346435546875 75.71714556217192 -2.56847763061522
v 45.59112548828125 100.04822313785552 -12.466152191162088
v 23.05535888671875 102.71962511539459 -14.397296905517553
v 28.4873046875 -5.637510657310504 37.522586822509766
v 17.30645751953125 -5.6375106573105 16.81180191040039
v 17.30645751953125 19.3624893426895 16.811801910400398
v 28.4873046875 -5.637510657310504 37.522586822509766
v 17.30645751953125 19.3624893426895 16.811801910400398
v 28.4873046875 19.362489342689496 37.522586822509766
v 17.30645751953125 -5.6375106573105 16.81180191040039
v -1.8643798828125 -5.6375106573104965 1.5396614074707031
v -1.8643798828125 19.362489342689504 1.5396614074707102
v 17.30645751953125 -5.6375106573105 16.81180191040039
v -1.8643798828125 19.362489342689504 1.5396614074707102
v 17.30645751953125 19.3624893426895 16.811801910400398
v -1.8643798828125 -5.6375106573104965 1.5396614074707031
v -24.64837646484375 -5.6375106573104965 3.5287132263183594
v -24.64837646484375 19.362489342689504 3.5287132263183665
v -1.8643798828125 -5.6375106573104965 1.5396614074707031
v -24.64837646484375 19.362489342689504 3.5287132263183665
v -1.8643798828125 19.362489342689504 1.5396614074707102
v -24.64837646484375 -5.6375106573104965 3.5287132263183594
v -46.88232421875 -5.637510657310498 8.466140747070312
v -46.88232421875 19.362489342689504 8.46614074707032
v -24.64837646484375 -5.6375106573104965 3.5287132263183594
v -46.88232421875 19.362489342689504 8.46614074707032
v -24.64837646484375 19.362489342689504 3.5287132263183665
v 28.4873046875 19.362489342689496 37.522586822509766
v 17.30645751953125 19.3624893426895 16.811801910400398
v 16.255401611328125 44.684880852699266 22.685573577880874
v 28.4873046875 19.362489342689496 37.522586822509766
v 16.255401611328125 44.684880852699266 22.685573577880874
v 27.44305419921875 43.496286034584024 43.358562469482436
v 17.30645751953125 19.3624893426895 16.811801910400398
v -1.8643798828125 19.362489342689504 1.5396614074707102
v -2.919677734375 45.43715059757231 7.437351226806648
v 17.30645751953125 19.3624893426895 16.811801910400398
v -2.919677734375 45.43715059757231 7.437351226806648
v 16.255401611328125 44.684880852699266 22.685573577880874
v -1.8643798828125 19.362489342689504 1.5396614074707102
v -24.64837646484375 19.362489342689504 3.5287132263183665
v -25.701507568359375 45.05180513858794 9.414157867431648
v -1.8643798828125 19.362489342689504 1.5396614074707102
v -25.701507568359375 45.05180513858794 9.414157867431648
v -2.919677734375 45.43715059757231 7.437351226806648
v -24.64837646484375 19.362489342689504 3.5287132263183665
v -46.88232421875 19.362489342689504 8.46614074707032
v -47.932220458984375 44.48540651798247 14.333576202392585
v -24.64837646484375 19.362489342689504 3.5287132263183665
v -47.932220458984375 44.48540651798247 14.333576202392585
v -25.701507568359375 45.05180513858794 9.414157867431648
v 27.44305419921875 43.496286034584024 43.358562469482436
v 16.255401611328125 44.684880852699266 22.685573577880874
v 14.27813720703125 71.54525530338286 33.735744476318374
v 27.44305419921875 43.496286034584024 43.358562469482436
v 14.27813720703125 71.54525530338286 33.735744476318374
v 25.6099853515625 65.99201738834378 53.60277175903322
v 16.255401611328125 44.684880852699266 22.685573577880874
v -2.919677734375 45.43715059757231 7.437351226806648
v -4.98822021484375 75.05994188785552 18.997615814209
v 16.255401611328125 44.684880852699266 22.685573577880874
v -4.98822021484375 75.05994188785552 18.997615814209
v 14.27813720703125 71.54525530338286 33.735744476318374
v -2.919677734375 45.43715059757231 7.437351226806648
v -25.701507568359375 45.05180513858794 9.414157867431648
v -27.723297119140625 73.25955736637114 20.713115692138686
v -2.919677734375 45.43715059757231 7.437351226806648
v -27.723297119140625 73.25955736637114 20.713115692138686
v -4.98822021484375 75.05994188785552 18.997615814209
v -25.701507568359375 45.05180513858794 9.414157867431648
v -47.932220458984375 44.48540651798247 14.333576202392585
v -49.885284423828125 70.61328661441802 25.24848556518556
v -25.701507568359375 45.05180513858794 9.414157867431648
v -49.885284423828125 70.61328661441802 25.24848556518556
v -27.723297119140625 73.25955736637114 20.713115692138686
v 25.6099853515625 65.99201738834378 53.60277175903322
v 14.27813720703125 71.54525530338286 33.735744476318374
v 11.38360595703125 95.81263506412505 49.91219711303714
v 25.6099853515625 65.99201738834378 53.60277175903322
v 11.38360595703125 95.81263506412505 49.91219711303714
v 22.87811279296875 87.91193926334378 68.87014389038087
v 14.27813720703125 71.54525530338286 33.735744476318374
v -4.98822021484375 75.05994188785552 18.997615814209
v -7.9857177734375 100.81304705142973 35.74944686889651
v 14.27813720703125 71.54525530338286 33.735744476318374
v -7.9857177734375 100.81304705142973 35.74944686889651
v 11.38360595703125 95.81263506412505 49.91219711303714
v -4.98822021484375 75.05994188785552 18.997615814209
v -27.723297119140625 73.25955736637114 20.713115692138686
v -30.668060302734375 98.25159990787505 37.17022323608401
v -4.98822021484375 75.05994188785552 18.997615814209
v -30.668060302734375 98.25159990787505 37.17022323608401
v -7.9857177734375 100.81304705142973 35.74944686889651
v -27.723297119140625 73.25955736637114 20.713115692138686
v -49.885284423828125 70.61328661441802 25.24848556518556
v -52.752532958984375 94.48670732975005 41.27237319946292
v -27.723297119140625 73.25955736637114 20.713115692138686
v -52.752532958984375 94.48670732975005 41.27237319946292
v -30.668060302734375 98.25159990787505 37.17022323608401
v 37.019500732421875 -5.63751065731049 -25.348220825195312
v 14.562347412109375 -5.637510657310491 -18.30371856689453
v 14.562347412109375 19.362489342689507 -18.303718566894528
v 37.019500732421875 -5.63751065731049 -25.348220825195312
v 14.562347412109375 19.362489342689507 -18.303718566894528
v 37.019500732421875 19.36248934268951 -25.34822082519531
v 14.562347412109375 -5.637510657310491 -18.30371856689453
v -4.0723876953125 -5.637510657310495 -2.381866455078125
v -4.0723876953125 19.362489342689504 -2.381866455078118
v 14.562347412109375 -5.637510657310491 -18.30371856689453
v -4.0723876953125 19.362489342689504 -2.381866455078118
v 14.562347412109375 19.362489342689507 -18.303718566894528
v -4.0723876953125 -5.637510657310495 -2.381866455078125
v -6.446136474609375 -5.6375106573105 20.365276336669922
v -6.446136474609375 19.3624893426895 20.365276336669922
v -4.0723876953125 -5.637510657310495 -2.381866455078125
v -6.446136474609375 19.3624893426895 20.365276336669922
v -4.0723876953125 19.362489342689504 -2.381866455078118
v -6.446136474609375 -5.6375106573105 20.365276336669922
v -5.820709228515625 -5.637510657310505 43.132259368896484
v -5.820709228515625 19.362489342689493 43.132259368896484
v -6.446136474609375 -5.6375106573105 20.365276336669922
v -5.820709228515625 19.362489342689493 43.132259368896484
v -6.446136474609375 19.3624893426895 20.365276336669922
v 37.019500732421875 19.36248934268951 -25.34822082519531
v 14.562347412109375 19.362489342689507 -18.303718566894528
v 20.129638671875 44.68488085269927 -16.156404495239247
v 37.019500732421875 19.36248934268951 -25.34822082519531
v 20.129638671875 44.68488085269927 -16.156404495239247
v 42.55096435546875 43.49628603458404 -23.21472167968749
v 14.562347412109375 19.362489342689507 -18.303718566894528
v -4.0723876953125 19.362489342689504 -2.381866455078118
v 1.517578125 45.43715059757232 -0.22580718994139914
v 14.562347412109375 19.362489342689507 -18.303718566894528
v 1.517578125 45.43715059757232 -0.22580718994139914
v 20.129638671875 44.68488085269927 -16.156404495239247
v -4.0723876953125 19.362489342689504 -2.381866455078118
v -6.446136474609375 19.3624893426895 20.365276336669922
v -0.867767333984375 45.05180513858794 22.51685714721681
v -4.0723876953125 19.362489342689504 -2.381866455078118
v -0.867767333984375 45.05180513858794 22.51685714721681
v 1.517578125 45.43715059757232 -0.22580718994139914
v -6.446136474609375 19.3624893426895 20.365276336669922
v -5.820709228515625 19.362489342689493 43.132259368896484
v -0.259429931640625 44.48540651798246 45.277248382568374
v -6.446136474609375 19.3624893426895 20.365276336669922
v -0.259429931640625 44.48540651798246 45.277248382568374
v -0.867767333984375 45.05180513858794 22.51685714721681
v 42.55096435546875 43.49628603458404 -23.21472167968749
v 20.129638671875 44.68488085269927 -16.156404495239247
v 30.603271484375 71.54525530338286 -12.116714477539048
v 42.55096435546875 43.49628603458404 -23.21472167968749
v 30.603271484375 71.54525530338286 -12.116714477539048
v 52.26068115234375 65.99201738834381 -19.469673156738267
v 20.129638671875 44.68488085269927 -16.156404495239247
v 1.517578125 45.43715059757232 -0.22580718994139914
v 12.474700927734375 75.05994188785552 4.000362396240249
v 20.129638671875 44.68488085269927 -16.156404495239247
v 12.474700927734375 75.05994188785552 4.000362396240249
v 30.603271484375 71.54525530338286 -12.116714477539048
v 1.517578125 45.43715059757232 -0.22580718994139914
v -0.867767333984375 45.05180513858794 22.51685714721681
v 9.841644287109375 73.25955736637114 26.647502899169936
v 1.517578125 45.43715059757232 -0.22580718994139914
v 9.841644287109375 73.25955736637114 26.647502899169936
v 12.474700927734375 75.05994188785552 4.000362396240249
v -0.867767333984375 45.05180513858794 22.51685714721681
v -0.259429931640625 44.48540651798246 45.277248382568374
v 10.08599853515625 70.61328661441802 49.267490386962905
v -0.867767333984375 45.05180513858794 22.51685714721681
v 10.08599853515625 70.61328661441802 49.267490386962905
v 9.841644287109375 73.25955736637114 26.647502899169936
v 52.26068115234375 65.99201738834381 -19.469673156738267
v 30.603271484375 71.54525530338286 -12.116714477539048
v 45.93572998046875 95.81263506412505 -6.202976226806619
v 52.26068115234375 65.99201738834381 -19.469673156738267
v 45.93572998046875 95.81263506412505 -6.202976226806619
v 66.73147583007812 87.91193926334381 -13.888275146484354
v 30.603271484375 71.54525530338286 -12.116714477539048
v 12.474700927734375 75.05994188785552 4.000362396240249
v 28.35247802734375 100.81304705142973 10.124446868896506
v 30.603271484375 71.54525530338286 -12.116714477539048
v 28.35247802734375 100.81304705142973 10.124446868896506
v 45.93572998046875 95.81263506412505 -6.202976226806619
v 12.474700927734375 75.05994188785552 4.000362396240249
v 9.841644287109375 73.25955736637114 26.647502899169936
v 25.440093994140625 98.25159990787505 32.663829803466825
v 12.474700927734375 75.05994188785552 4.000362396240249
v 25.440093994140625 98.25159990787505 32.663829803466825
v 28.35247802734375 100.81304705142973 10.124446868896506
v 9.841644287109375 73.25955736637114 26.647502899169936
v 10.08599853515625 70.61328661441802 49.267490386962905
v 25.273834228515625 94.48670732975003 55.12545394897464
v 9.841644287109375 73.25955736637114 26.647502899169936
v 25.273834228515625 94.48670732975003 55.12545394897464
v 25.440093994140625 98.25159990787505 32.663829803466825
v 39.2392578125 5.793843865394587 -20.361072540283203
v 16.827606201171875 0.11652529239653897 -15.95262336730957
v 10.780792236328125 24.3692260980606 -15.460090637207024
v 39.2392578125 5.793843865394587 -20.361072540283203
v 10.780792236328125 24.3692260980606 -15.460090637207024
v 33.19244384765625 30.046544671058648 -19.868539810180657
v 16.827606201171875 0.11652529239653897 -15.95262336730957
v -2.8485107421875 -5.0667518377304175 -2.2872390747070312
v -8.89532470703125 19.185948967933644 -1.7947044372558523
v 16.827606201171875 0.11652529239653897 -15.95262336730957
v -8.89532470703125 19.185948967933644 -1.7947044372558523
v 10.780792236328125 24.3692260980606 -15.460090637207024
v -2.8485107421875 -5.0667518377304175 -2.2872390747070312
v -7.573822021484375 -6.698130011558547 20.030399322509766
v -13.620635986328125 17.55457270145415 20.522930145263672
v -2.8485107421875 -5.0667518377304175 -2.2872390747070312
v -13.620635986328125 17.55457270145415 20.522930145263672
v -8.89532470703125 19.185948967933644 -1.7947044372558523
v -7.573822021484375 -6.698130011558547 20.030399322509766
v -9.408935546875 -7.616316199302693 42.71334457397461
v -15.45574951171875 16.636384606361368 43.20588302612305
v -7.573822021484375 -6.698130011558547 20.030399322509766
v -15.45574951171875 16.636384606361368 43.20588302612305
v -13.620635986328125 17.55457270145415 20.522930145263672
v 33.19244384765625 30.046544671058648 -19.868539810180657
v 10.780792236328125 24.3692260980606 -15.460090637207024
v 9.795013427734375 50.1596313714981 -12.187091827392564
v 33.19244384765625 30.046544671058648 -19.868539810180657
v 9.795013427734375 50.1596313714981 -12.187091827392564
v 32.461090087890625 54.67600786685943 -16.636804580688462
v 10.780792236328125 24.3692260980606 -15.460090637207024
v -8.89532470703125 19.185948967933644 -1.7947044372558523
v -10.0421142578125 45.71112978458404 1.5044136047363352
v 10.780792236328125 24.3692260980606 -15.460090637207024
v -10.0421142578125 45.71112978458404 1.5044136047363352
v 9.795013427734375 50.1596313714981 -12.187091827392564
v -8.89532470703125 19.185948967933644 -1.7947044372558523
v -13.620635986328125 17.55457270145415 20.522930145263672
v -14.6849365234375 43.70337069034575 23.808681488037124
v -8.89532470703125 19.185948967933644 -1.7947044372558523
v -14.6849365234375 43.70337069034575 23.808681488037124
v -10.0421142578125 45.71112978458404 1.5044136047363352
v -13.620635986328125 17.55457270145415 20.522930145263672
v -15.45574951171875 16.636384606361368 43.20588302612305
v -16.3988037109375 42.23195803165434 46.471950531005874
v -13.620635986328125 17.55457270145415 20.522930145263672
v -16.3988037109375 42.23195803165434 46.471950531005874
v -14.6849365234375 43.70337069034575 23.808681488037124
v 32.461090087890625 54.67600786685943 -16.636804580688462
v 9.795013427734375 50.1596313714981 -12.187091827392564
v 12.966156005859375 78.52156603336333 -6.43903350830076
v 32.461090087890625 54.67600786685943 -16.636804580688462
v 12.966156005859375 78.52156603336333 -6.43903350830076
v 35.9827880859375 78.63567888736723 -11.35538101196287
v 9.795013427734375 50.1596313714981 -12.187091827392564
v -10.0421142578125 45.71112978458404 1.5044136047363352
v -7.09283447265625 76.85928118228911 7.547805786132827
v 9.795013427734375 50.1596313714981 -12.187091827392564
v -7.09283447265625 76.85928118228911 7.547805786132827
v 12.966156005859375 78.52156603336333 -6.43903350830076
v -10.0421142578125 45.71112978458404 1.5044136047363352
v -14.6849365234375 43.70337069034575 23.808681488037124
v -11.622039794921875 73.42429125308989 29.700778961181655
v -10.0421142578125 45.71112978458404 1.5044136047363352
v -11.622039794921875 73.42429125308989 29.700778961181655
v -7.09283447265625 76.85928118228911 7.547805786132827
v -14.6849365234375 43.70337069034575 23.808681488037124
v -16.3988037109375 42.23195803165434 46.471950531005874
v -13.1688232421875 69.85508501529691 52.141696929931655
v -14.6849365234375 43.70337069034575 23.808681488037124
v -13.1688232421875 69.85508501529691 52.141696929931655
v -11.622039794921875 73.42429125308989 29.700778961181655
v 35.9827880859375 78.63567888736723 -11.35538101196287
v 12.966156005859375 78.52156603336333 -6.43903350830076
v 21.24951171875 105.4370857477188 1.6790275573730682
v 35.9827880859375 78.63567888736723 -11.35538101196287
v 21.24951171875 105.4370857477188 1.6790275573730682
v 44.038543701171875 103.08432543277739 -3.7129211425781037
v 12.966156005859375 78.52156603336333 -6.43903350830076
v -7.09283447265625 76.85928118228911 7.547805786132827
v 1.334564208984375 105.33610308170317 15.966880798339865
v 12.966156005859375 78.52156603336333 -6.43903350830076
v 1.334564208984375 105.33610308170317 15.966880798339865
v 21.24951171875 105.4370857477188 1.6790275573730682
v -7.09283447265625 76.85928118228911 7.547805786132827
v -11.622039794921875 73.42429125308989 29.700778961181655
v -3.2684326171875 101.10133135318755 37.96566390991214
v -7.09283447265625 76.85928118228911 7.547805786132827
v -3.2684326171875 101.10133135318755 37.96566390991214
v 1.334564208984375 105.33610308170317 15.966880798339865
v -11.622039794921875 73.42429125308989 29.700778961181655
v -13.1688232421875 69.85508501529691 52.141696929931655
v -4.923675537109375 96.35660326480863 60.179943084716825
v -11.622039794921875 73.42429125308989 29.700778961181655
v -4.923675537109375 96.35660326480863 60.179943084716825
v -3.2684326171875 101.10133135318755 37.96566390991214
vt 0 0
vt 0.25 0
vt 0.25 0.25
vt 0 0
vt 0.25 0.25
vt 0 0.25
vt 0.25 0
vt 0.5 0
vt 0.5 0.25
vt 0.25 0
vt 0.5 0.25
vt 0.25 0.25
vt 0.5 0
vt 0.75 0
vt 0.75 0.25
vt 0.5 0
vt 0.75 0.25
vt 0.5 0.25
vt 0.75 0
vt 1 0
vt 1 0.25
vt 0.75 0
vt 1 0.25
vt 0.75 0.25
vt 0 0.25
vt 0.25 0.25
vt 0.25 0.5
vt 0 0.25
vt 0.25 0.5
vt 0 0.5
vt 0.25 0.25
vt 0.5 0.25
vt 0.5 0.5
vt 0.25 0.25
vt 0.5 0.5
vt 0.25 0.5
vt 0.5 0.25
vt 0.75 0.25
vt 0.75 0.5
vt 0.5 0.25
vt 0.75 0.5
vt 0.5 0.5
vt 0.75 0.25
vt 1 0.25
vt 1 0.5
vt 0.75 0.25
vt 1 0.5
vt 0.75 0.5
vt 0 0.5
vt 0.25 0.5
vt 0.25 0.75
vt 0 0.5
vt 0.25 0.75
vt 0 0.75
vt 0.25 0.5
vt 0.5 0.5
vt 0.5 0.75
vt 0.25 0.5
vt 0.5 0.75
vt 0.25 0.75
vt 0.5 0.5
vt 0.75 0.5
vt 0.75 0.75
vt 0.5 0.5
vt 0.75 0.75
vt 0.5 0.75
vt 0.75 0.5
vt 1 0.5
vt 1 0.75
vt 0.75 0.5
vt 1 0.75
vt 0.75 0.75
vt 0 0.75
vt 0.25 0.75
vt 0.25 1
vt 0 0.75
vt 0.25 1
vt 0 1
vt 0.25 0.75
vt 0.5 0.75
vt 0.5 1
vt 0.25 0.75
vt 0.5 1
vt 0.25 1
vt 0.5 0.75
vt 0.75 0.75
vt 0.75 1
vt 0.5 0.75
vt 0.75 1
vt 0.5 1
vt 0.75 0.75
vt 1 0.75
vt 1 1
vt 0.75 0.75
vt 1 1
vt 0.75 1
vt 0 0
vt 0.25 0
vt 0.25 0.25
vt 0 0
vt 0.25 0.25
vt 0 0.25
vt 0.25 0
vt 0.5 0
vt 0.5 0.25
vt 0.25 0
vt 0.5 0.25
vt 0.25 0.25
vt 0.5 0
vt 0.75 0
vt 0.75 0.25
vt 0.5 0
vt 0.75 0.25
vt 0.5 0.25
vt 0.75 0
vt 1 0
vt 1 0.25
vt 0.75 0
vt 1 0.25
vt 0.75 0.25
vt 0 0.25
vt 0.25 0.25
vt 0.25 0.5
vt 0 0.25
vt 0.25 0.5
vt 0 0.5
vt 0.25 0.25
vt 0.5 0.25
vt 0.5 0.5
vt 0.25 0.25
vt 0.5 0.5
vt 0.25 0.5
vt 0.5 0.25
vt 0.75 0.25
vt 0.75 0.5
vt 0.5 0.25
vt 0.75 0.5
vt 0.5 0.5
vt 0.75 0.25
vt 1 0.25
vt 1 0.5
vt 0.75 0.25
vt 1 0.5
vt 0.75 0.5
vt 0 0.5
vt 0.25 0.5
vt 0.25 0.75
vt 0 0.5
vt 0.25 0.75
vt 0 0.75
vt 0.25 0.5
vt 0.5 0.5
vt 0.5 0.75
vt 0.25 0.5
vt 0.5 0.75
vt 0.25 0.75
vt 0.5 0.5
vt 0.75 0.5
vt 0.75 0.75
vt 0.5 0.5
vt 0.75 0.75
vt 0.5 0.75
vt 0.75 0.5
vt 1 0.5
vt 1 0.75
vt 0.75 0.5
vt 1 0.75
vt 0.75 0.75
vt 0 0.75
vt 0.25 0.75
vt 0.25 1
vt 0 0.75
vt 0.25 1
vt 0 1
vt 0.25 0.75
vt 0.5 0.75
vt 0.5 1
vt 0.25 0.75
vt 0.5 1
vt 0.25 1
vt 0.5 0.75
vt 0.75 0.75
vt 0.75 1
vt 0.5 0.75
vt 0.75 1
vt 0.5 1
vt 0.75 0.75
vt 1 0.75
vt 1 1
vt 0.75 0.75
vt 1 1
vt 0.75 1
vt 0 0
vt 0.25 0
vt 0.25 0.25
vt 0 0
vt 0.25 0.25
vt 0 0.25
vt 0.25 0
vt 0.5 0
vt 0.5 0.25
vt 0.25 0
vt 0.5 0.25
vt 0.25 0.25
vt 0.5 0
vt 0.75 0
vt 0.75 0.25
vt 0.5 0
vt 0.75 0.25
vt 0.5 0.25
vt 0.75 0
vt 1 0
vt 1 0.25
vt 0.75 0
vt 1 0.25
vt 0.75 0.25
vt 0 0.25
vt 0.25 0.25
vt 0.25 0.5
vt 0 0.25
vt 0.25 0.5
vt 0 0.5
vt 0.25 0.25
vt 0.5 0.25
vt 0.5 0.5
vt 0.25 0.25
vt 0.5 0.5
vt 0.25 0.5
vt 0.5 0.25
vt 0.75 0.25
vt 0.75 0.5
vt 0.5 0.25
vt 0.75 0.5
vt 0.5 0.5
vt 0.75 0.25
vt 1 0.25
vt 1 0.5
vt 0.75 0.25
vt 1 0.5
vt 0.75 0.5
vt 0 0.5
vt 0.25 0.5
vt 0.25 0.75
vt 0 0.5
vt 0.25 0.75
vt 0 0.75
vt 0.25 0.5
vt 0.5 0.5
vt 0.5 0.75
vt 0.25 0.5
vt 0.5 0.75
vt 0.25 0.75
vt 0.5 0.5
vt 0.75 0.5
vt 0.75 0.75
vt 0.5 0.5
vt 0.75 0.75
vt 0.5 0.75
vt 0.75 0.5
vt 1 0.5
vt 1 0.75
vt 0.75 0.5
vt 1 0.75
vt 0.75 0.75
vt 0 0.75
vt 0.25 0.75
vt 0.25 1
vt 0 0.75
vt 0.25 1
vt 0 1
vt 0.25 0.75
vt 0.5 0.75
vt 0.5 1
vt 0.25 0.75
vt 0.5 1
vt 0.25 1
vt 0.5 0.75
vt 0.75 0.75
vt 0.75 1
vt 0.5 0.75
vt 0.75 1
vt 0.5 1
vt 0.75 0.75
vt 1 0.75
vt 1 1
vt 0.75 0.75
vt 1 1
vt 0.75 1
vt 0 0
vt 0.25 0
vt 0.25 0.25
vt 0 0
vt 0.25 0.25
vt 0 0.25
vt 0.25 0
vt 0.5 0
vt 0.5 0.25
vt 0.25 0
vt 0.5 0.25
vt 0.25 0.25
vt 0.5 0
vt 0.75 0
vt 0.75 0.25
vt 0.5 0
vt 0.75 0.25
vt 0.5 0.25
vt 0.75 0
vt 1 0
vt 1 0.25
vt 0.75 0
vt 1 0.25
vt 0.75 0.25
vt 0 0.25
vt 0.25 0.25
vt 0.25 0.5
vt 0 0.25
vt 0.25 0.5
vt 0 0.5
vt 0.25 0.25
vt 0.5 0.25
vt 0.5 0.5
vt 0.25 0.25
vt 0.5 0.5
vt 0.25 0.5
vt 0.5 0.25
vt 0.75 0.25
vt 0.75 0.5
vt 0.5 0.25
vt 0.75 0.5
vt 0.5 0.5
vt 0.75 0.25
vt 1 0.25
vt 1 0.5
vt 0.75 0.25
vt 1 0.5
vt 0.75 0.5
vt 0 0.5
vt 0.25 0.5
vt 0.25 0.75
vt 0 0.5
vt 0.25 0.75
vt 0 0.75
vt 0.25 0.5
vt 0.5 0.5
vt 0.5 0.75
vt 0.25 0.5
vt 0.5 0.75
vt 0.25 0.75
vt 0.5 0.5
vt 0.75 0.5
vt 0.75 0.75
vt 0.5 0.5
vt 0.75 0.75
vt 0.5 0.75
vt 0.75 0.5
vt 1 0.5
vt 1 0.75
vt 0.75 0.5
vt 1 0.75
vt 0.75 0.75
vt 0 0.75
vt 0.25 0.75
vt 0.25 1
vt 0 0.75
vt 0.25 1
vt 0 1
vt 0.25 0.75
vt 0.5 0.75
vt 0.5 1
vt 0.25 0.75
vt 0.5 1
vt 0.25 1
vt 0.5 0.75
vt 0.75 0.75
vt 0.75 1
vt 0.5 0.75
vt 0.75 1
vt 0.5 1
vt 0.75 0.75
vt 1 0.75
vt 1 1
vt 0.75 0.75
vt 1 1
vt 0.75 1
vt 0 0
vt 0.25 0
vt 0.25 0.25
vt 0 0
vt 0.25 0.25
vt 0 0.25
vt 0.25 0
vt 0.5 0
vt 0.5 0.25
vt 0.25 0
vt 0.5 0.25
vt 0.25 0.25
vt 0.5 0
vt 0.75 0
vt 0.75 0.25
vt 0.5 0
vt 0.75 0.25
vt 0.5 0.25
vt 0.75 0
vt 1 0
vt 1 0.25
vt 0.75 0
vt 1 0.25
vt 0.75 0.25
vt 0 0.25
vt 0.25 0.25
vt 0.25 0.5
vt 0 0.25
vt 0.25 0.5
vt 0 0.5
vt 0.25 0.25
vt 0.5 0.25
vt 0.5 0.5
vt 0.25 0.25
vt 0.5 0.5
vt 0.25 0.5
vt 0.5 0.25
vt 0.75 0.25
vt 0.75 0.5
vt 0.5 0.25
vt 0.75 0.5
vt 0.5 0.5
vt 0.75 0.25
vt 1 0.25
vt 1 0.5
vt 0.75 0.25
vt 1 0.5
vt 0.75 0.5
vt 0 0.5
vt 0.25 0.5
vt 0.25 0.75
vt 0 0.5
vt 0.25 0.75
vt 0 0.75
vt 0.25 0.5
vt 0.5 0.5
vt 0.5 0.75
vt 0.25 0.5
vt 0.5 0.75
vt 0.25 0.75
vt 0.5 0.5
vt 0.75 0.5
vt 0.75 0.75
vt 0.5 0.5
vt 0.75 0.75
vt 0.5 0.75
vt 0.75 0.5
vt 1 0.5
vt 1 0.75
vt 0.75 0.5
vt 1 0.75
vt 0.75 0.75
vt 0 0.75
vt 0.25 0.75
vt 0.25 1
vt 0 0.75
vt 0.25 1
vt 0 1
vt 0.25 0.75
vt 0.5 0.75
vt 0.5 1
vt 0.25 0.75
vt 0.5 1
vt 0.25 1
vt 0.5 0.75
vt 0.75 0.75
vt 0.75 1
vt 0.5 0.75
vt 0.75 1
vt 0.5 1
vt 0.75 0.75
vt 1 0.75
vt 1 1
vt 0.75 0.75
vt 1 1
vt 0.75 1
vt 0 0
vt 0.25 0
vt 0.25 0.25
vt 0 0
vt 0.25 0.25
vt 0 0.25
vt 0.25 0
vt 0.5 0
vt 0.5 0.25
vt 0.25 0
vt 0.5 0.25
vt 0.25 0.25
vt 0.5 0
vt 0.75 0
vt 0.75 0.25
vt 0.5 0
vt 0.75 0.25
vt 0.5 0.25
vt 0.75 0
vt 1 0
vt 1 0.25
vt 0.75 0
vt 1 0.25
vt 0.75 0.25
vt 0 0.25
vt 0.25 0.25
vt 0.25 0.5
vt 0 0.25
vt 0.25 0.5
vt 0 0.5
vt 0.25 0.25
vt 0.5 0.25
vt 0.5 0.5
vt 0.25 0.25
vt 0.5 0.5
vt 0.25 0.5
vt 0.5 0.25
vt 0.75 0.25
vt 0.75 0.5
vt 0.5 0.25
vt 0.75 0.5
vt 0.5 0.5
vt 0.75 0.25
vt 1 0.25
vt 1 0.5
vt 0.75 0.25
vt 1 0.5
vt 0.75 0.5
vt 0 0.5
vt 0.25 0.5
vt 0.25 0.75
vt 0 0.5
vt 0.25 0.75
vt 0 0.75
vt 0.25 0.5
vt 0.5 0.5
vt 0.5 0.75
vt 0.25 0.5
vt 0.5 0.75
vt 0.25 0.75
vt 0.5 0.5
vt 0.75 0.5
vt 0.75 0.75
vt 0.5 0.5
vt 0.75 0.75
vt 0.5 0.75
vt 0.75 0.5
vt 1 0.5
vt 1 0.75
vt 0.75 0.5
vt 1 0.75
vt 0.75 0.75
vt 0 0.75
vt 0.25 0.75
vt 0.25 1
vt 0 0.75
vt 0.25 1
vt 0 1
vt 0.25 0.75
vt 0.5 0.75
vt 0.5 1
vt 0.25 0.75
vt 0.5 1
vt 0.25 1
vt 0.5 0.75
vt 0.75 0.75
vt 0.75 1
vt 0.5 0.75
vt 0.75 1
vt 0.5 1
vt 0.75 0.75
vt 1 0.75
vt 1 1
vt 0.75 0.75
vt 1 1
vt 0.75 1
vn -0.7825253723721751 -1.3824912254790712e-16 0.6226186967910525
vn -0.585524234918803 -1.800015474706199e-16 0.8106549021147964
vn -0.635438028648123 0.09615907873319651 0.7661409422064389
vn -0.7825253723721751 -1.3824912254790712e-16 0.6226186967910525
vn -0.635438028648123 0.09615907873319651 0.7661409422064389
vn -0.7800447919839837 0.09871872487926692 0.6178873164719237
vn -0.585524234918803 -1.800015474706199e-16 0.8106549021147964
vn 0.004344584798139822 -2.2204250932287954e-16 0.9999905622469302
vn -0.12597194705544215 0.11623099062503364 0.9852012106028819
vn -0.585524234918803 -1.800015474706199e-16 0.8106549021147964
vn -0.12597194705544215 0.11623099062503364 0.9852012106028819
vn -0.635438028648123 0.09615907873319651 0.7661409422064389
vn 0.004344584798139822 -2.2204250932287954e-16 0.9999905622469302
vn 0.34447124304075205 -2.0845478005624804e-16 0.9387968697849174
vn 0.32261013658979815 0.11027801670558406 0.9400858784180276
vn 0.004344584798139822 -2.2204250932287954e-16 0.9999905622469302
vn 0.32261013658979815 0.11027801670558406 0.9400858784180276
vn -0.12597194705544215 0.11623099062503364 0.9852012106028819
vn 0.34447124304075205 -2.0845478005624804e-16 0.9387968697849174
vn 0.38534666150769237 -2.0489651848655987e-16 0.922771884305583
vn 0.38431795381790423 0.07302181223253879 0.9203083859834675
vn 0.34447124304075205 -2.0845478005624804e-16 0.9387968697849174
vn 0.38431795381790423 0.07302181223253879 0.9203083859834675
vn 0.32261013658979815 0.11027801670558406 0.9400858784180276
vn -0.7800447919839837 0.09871872487926692 0.6178873164719237
vn -0.635438028648123 0.09615907873319651 0.7661409422064389
vn -0.622097763754757 0.248052362967383 0.7426064890354973
vn -0.7800447919839837 0.09871872487926692 0.6178873164719237
vn -0.622097763754757 0.248052362967383 0.7426064890354973
vn -0.77498956774726 0.22191892989110565 0.5917289569041738
vn -0.635438028648123 0.09615907873319651 0.7661409422064389
vn -0.12597194705544215 0.11623099062503364 0.9852012106028819
vn -0.11468596111676586 0.30377480653294997 0.9458160483088625
vn -0.635438028648123 0.09615907873319651 0.7661409422064389
vn -0.11468596111676586 0.30377480653294997 0.9458160483088625
vn -0.622097763754757 0.248052362967383 0.7426064890354973
vn -0.12597194705544215 0.11623099062503364 0.9852012106028819
vn 0.32261013658979815 0.11027801670558406 0.9400858784180276
vn 0.31751395179608916 0.2924307966390465 0.9020360966124822
vn -0.12597194705544215 0.11623099062503364 0.9852012106028819
vn 0.31751395179608916 0.2924307966390465 0.9020360966124822
vn -0.11468596111676586 0.30377480653294997 0.9458160483088625
vn 0.32261013658979815 0.11027801670558406 0.9400858784180276
vn 0.38431795381790423 0.07302181223253879 0.9203083859834675
vn 0.3755640541914474 0.26573889431231834 0.8878820198928177
vn 0.32261013658979815 0.11027801670558406 0.9400858784180276
vn 0.3755640541914474 0.26573889431231834 0.8878820198928177
vn 0.31751395179608916 0.2924307966390465 0.9020360966124822
vn -0.77498956774726 0.22191892989110565 0.5917289569041738
vn -0.622097763754757 0.248052362967383 0.7426064890354973
vn -0.6238243817960402 0.37971724528953354 0.6831236742395308
vn -0.77498956774726 0.22191892989110565 0.5917289569041738
vn -0.6238243817960402 0.37971724528953354 0.6831236742395308
vn -0.7765685563026455 0.3306723384783037 0.5362807864610808
vn -0.622097763754757 0.248052362967383 0.7426064890354973
vn -0.11468596111676586 0.30377480653294997 0.9458160483088625
vn -0.12201541986247935 0.4621107120798476 0.8783882553272438
vn -0.622097763754757 0.248052362967383 0.7426064890354973
vn -0.12201541986247935 0.4621107120798476 0.8783882553272438
vn -0.6238243817960402 0.37971724528953354 0.6831236742395308
vn -0.11468596111676586 0.30377480653294997 0.9458160483088625
vn 0.31751395179608916 0.2924307966390465 0.9020360966124822
vn 0.317508624031914 0.4419515056603831 0.8389679018352735
vn -0.11468596111676586 0.30377480653294997 0.9458160483088625
vn 0.317508624031914 0.4419515056603831 0.8389679018352735
vn -0.12201541986247935 0.4621107120798476 0.8783882553272438
vn 0.31751395179608916 0.2924307966390465 0.9020360966124822
vn 0.3755640541914474 0.26573889431231834 0.8878820198928177
vn 0.37585837600141486 0.4122186080606864 0.8299435525131149
vn 0.31751395179608916 0.2924307966390465 0.9020360966124822
vn 0.37585837600141486 0.4122186080606864 0.8299435525131149
vn 0.317508624031914 0.4419515056603831 0.8389679018352735
vn -0.7765685563026455 0.3306723384783037 0.5362807864610808
vn -0.6238243817960402 0.37971724528953354 0.6831236742395308
vn -0.6781184428692225 0.41547151572931745 0.606249781078892
vn -0.7765685563026455 0.3306723384783037 0.5362807864610808
vn -0.6781184428692225 0.41547151572931745 0.606249781078892
vn -0.7779651666582088 0.36291154222275906 0.5128990270881436
vn -0.6238243817960402 0.37971724528953354 0.6831236742395308
vn -0.12201541986247935 0.4621107120798476 0.8783882553272438
vn -0.2455359982516649 0.5373526187434505 0.8068235474328412
vn -0.6238243817960402 0.37971724528953354 0.6831236742395308
vn -0.2455359982516649 0.5373526187434505 0.8068235474328412
vn -0.6781184428692225 0.41547151572931745 0.606249781078892
vn -0.12201541986247935 0.4621107120798476 0.8783882553272438
vn 0.317508624031914 0.4419515056603831 0.8389679018352735
vn 0.2974254177908781 0.5293070054737795 0.7945893372102988
vn -0.12201541986247935 0.4621107120798476 0.8783882553272438
vn 0.2974254177908781 0.5293070054737795 0.7945893372102988
vn -0.2455359982516649 0.5373526187434505 0.8068235474328412
vn 0.317508624031914 0.4419515056603831 0.8389679018352735
vn 0.37585837600141486 0.4122186080606864 0.8299435525131149
vn 0.3766998913828721 0.5183965518584011 0.7676992945505763
vn 0.317508624031914 0.4419515056603831 0.8389679018352735
vn 0.3766998913828721 0.5183965518584011 0.7676992945505763
vn 0.2974254177908781 0.5293070054737795 0.7945893372102988
vn 0.36697525752001925 -0.09405546137917957 0.9254635220001193
vn 0.6012833383161253 -0.12246112595726172 0.7895958584571576
vn 0.5588054562362076 -0.020680822081861068 0.8290408709337933
vn 0.36697525752001925 -0.09405546137917957 0.9254635220001193
vn 0.5588054562362076 -0.020680822081861068 0.8290408709337933
vn 0.37749342852395945 0.004245428226959303 0.9260025311846595
vn 0.6012833383161253 -0.12246112595726172 0.7895958584571576
vn 0.9487706859501367 -0.15106239661177123 0.2775145722509277
vn 0.9144537075772691 -0.03393136571483632 0.4032655193776338
vn 0.6012833383161253 -0.12246112595726172 0.7895958584571576
vn 0.9144537075772691 -0.03393136571483632 0.4032655193776338
vn 0.5588054562362076 -0.020680822081861068 0.8290408709337933
vn 0.9487706859501367 -0.15106239661177123 0.2775145722509277
vn 0.9877067927319271 -0.14181824205074675 -0.06574859551994822
vn 0.9986671967755314 -0.03300059443457745 -0.039683634554645554
vn 0.9487706859501367 -0.15106239661177123 0.2775145722509277
vn 0.9986671967755314 -0.03300059443457745 -0.039683634554645554
vn 0.9144537075772691 -0.03393136571483632 0.4032655193776338
vn 0.9877067927319271 -0.14181824205074675 -0.06574859551994822
vn 0.9841699680628174 -0.13939747974085634 -0.10944321178186693
vn 0.9921161974403249 -0.06684166834281856 -0.10600774570614789
vn 0.9877067927319271 -0.14181824205074675 -0.06574859551994822
vn 0.9921161974403249 -0.06684166834281856 -0.10600774570614789
vn 0.9986671967755314 -0.03300059443457745 -0.039683634554645554
vn 0.37749342852395945 0.004245428226959303 0.9260025311846595
vn 0.5588054562362076 -0.020680822081861068 0.8290408709337933
vn 0.5623010562450509 0.13302491996792865 0.8161629082562047
vn 0.37749342852395945 0.004245428226959303 0.9260025311846595
vn 0.5623010562450509 0.13302491996792865 0.8161629082562047
vn 0.3719875103406794 0.12998337648564448 0.919091733173536
vn 0.5588054562362076 -0.020680822081861068 0.8290408709337933
vn 0.9144537075772691 -0.03393136571483632 0.4032655193776338
vn 0.9075071287242704 0.15741021599133662 0.38942628983697425
vn 0.5588054562362076 -0.020680822081861068 0.8290408709337933
vn 0.9075071287242704 0.15741021599133662 0.38942628983697425
vn 0.5623010562450509 0.13302491996792865 0.8161629082562047
vn 0.9144537075772691 -0.03393136571483632 0.4032655193776338
vn 0.9986671967755314 -0.03300059443457745 -0.039683634554645554
vn 0.9875372010171505 0.1528098129684314 -0.037675425249956096
vn 0.9144537075772691 -0.03393136571483632 0.4032655193776338
vn 0.9875372010171505 0.1528098129684314 -0.037675425249956096
vn 0.9075071287242704 0.15741021599133662 0.38942628983697425
vn 0.9986671967755314 -0.03300059443457745 -0.039683634554645554
vn 0.9921161974403249 -0.06684166834281856 -0.10600774570614789
vn 0.9868021416990497 0.12856202293037244 -0.09845475812889415
vn 0.9986671967755314 -0.03300059443457745 -0.039683634554645554
vn 0.9868021416990497 0.12856202293037244 -0.09845475812889415
vn 0.9875372010171505 0.1528098129684314 -0.037675425249956096
vn 0.3719875103406794 0.12998337648564448 0.919091733173536
vn 0.5623010562450509 0.13302491996792865 0.8161629082562047
vn 0.5245119869247412 0.27216440127546043 0.8067302611472004
vn 0.3719875103406794 0.12998337648564448 0.919091733173536
vn 0.5245119869247412 0.27216440127546043 0.8067302611472004
vn 0.3347458967169178 0.2458649301637981 0.9096678628745425
vn 0.5623010562450509 0.13302491996792865 0.8161629082562047
vn 0.9075071287242704 0.15741021599133662 0.38942628983697425
vn 0.8644550753999136 0.3241149303806764 0.38427455617001116
vn 0.5623010562450509 0.13302491996792865 0.8161629082562047
vn 0.8644550753999136 0.3241149303806764 0.38427455617001116
vn 0.5245119869247412 0.27216440127546043 0.8067302611472004
vn 0.9075071287242704 0.15741021599133662 0.38942628983697425
vn 0.9875372010171505 0.1528098129684314 -0.037675425249956096
vn 0.9494265625257549 0.31014237811790973 -0.04899905780621238
vn 0.9075071287242704 0.15741021599133662 0.38942628983697425
vn 0.9494265625257549 0.31014237811790973 -0.04899905780621238
vn 0.8644550753999136 0.3241149303806764 0.38427455617001116
vn 0.9875372010171505 0.1528098129684314 -0.037675425249956096
vn 0.9868021416990497 0.12856202293037244 -0.09845475812889415
vn 0.9531972679920733 0.28211382835361065 -0.10875089031413658
vn 0.9875372010171505 0.1528098129684314 -0.037675425249956096
vn 0.9531972679920733 0.28211382835361065 -0.10875089031413658
vn 0.9494265625257549 0.31014237811790973 -0.04899905780621238
vn 0.3347458967169178 0.2458649301637981 0.9096678628745425
vn 0.5245119869247412 0.27216440127546043 0.8067302611472004
vn 0.44137690087241466 0.3191211566162865 0.8386585233431698
vn 0.3347458967169178 0.2458649301637981 0.9096678628745425
vn 0.44137690087241466 0.3191211566162865 0.8386585233431698
vn 0.316860959051343 0.2812663450042176 0.90580813409741
vn 0.5245119869247412 0.27216440127546043 0.8067302611472004
vn 0.8644550753999136 0.3241149303806764 0.38427455617001116
vn 0.772342296652484 0.40930403796232084 0.48575465135117923
vn 0.5245119869247412 0.27216440127546043 0.8067302611472004
vn 0.772342296652484 0.40930403796232084 0.48575465135117923
vn 0.44137690087241466 0.3191211566162865 0.8386585233431698
vn 0.8644550753999136 0.3241149303806764 0.38427455617001116
vn 0.9494265625257549 0.31014237811790973 -0.04899905780621238
vn 0.9143025475805654 0.40319899592251857 -0.03848923453072054
vn 0.8644550753999136 0.3241149303806764 0.38427455617001116
vn 0.9143025475805654 0.40319899592251857 -0.03848923453072054
vn 0.772342296652484 0.40930403796232084 0.48575465135117923
vn 0.9494265625257549 0.31014237811790973 -0.04899905780621238
vn 0.9531972679920733 0.28211382835361065 -0.10875089031413658
vn 0.9098325496279078 0.3964763972330169 -0.12252019455872437
vn 0.9494265625257549 0.31014237811790973 -0.04899905780621238
vn 0.9098325496279078 0.3964763972330169 -0.12252019455872437
vn 0.9143025475805654 0.40319899592251857 -0.03848923453072054
vn -0.9759431299753969 -0.08322380836564462 0.2015162642938378
vn -0.8831867029147836 -0.10835799635643366 0.4563329841465909
vn -0.9138290640276538 -0.0071116050667900275 0.4060367801218457
vn -0.9759431299753969 -0.08322380836564462 0.2015162642938378
vn -0.9138290640276538 -0.0071116050667900275 0.4060367801218457
vn -0.9775323790987279 0.015241840734522833 0.21023352278978838
vn -0.8831867029147836 -0.10835799635643366 0.4563329841465909
vn -0.439690549235067 -0.13366576698859794 0.8881473321745188
vn -0.5566179412314725 -0.01650097483295347 0.8306047106348479
vn -0.8831867029147836 -0.10835799635643366 0.4563329841465909
vn -0.5566179412314725 -0.01650097483295347 0.8306047106348479
vn -0.9138290640276538 -0.0071116050667900275 0.4060367801218457
vn -0.439690549235067 -0.13366576698859794 0.8881473321745188
vn -0.10839315096572091 -0.12548610959109255 0.9861562559368646
vn -0.13511162568144128 -0.01636991411727868 0.9906951471151512
vn -0.439690549235067 -0.13366576698859794 0.8881473321745188
vn -0.13511162568144128 -0.01636991411727868 0.9906951471151512
vn -0.5566179412314725 -0.01650097483295347 0.8306047106348479
vn -0.10839315096572091 -0.12548610959109255 0.9861562559368646
vn -0.06473289874724661 -0.12334404313234958 0.9902504222890004
vn -0.06892882166317942 -0.05064822271828174 0.996335071690044
vn -0.10839315096572091 -0.12548610959109255 0.9861562559368646
vn -0.06892882166317942 -0.05064822271828174 0.996335071690044
vn -0.13511162568144128 -0.01636991411727868 0.9906951471151512
vn -0.9775323790987279 0.015241840734522833 0.21023352278978838
vn -0.9138290640276538 -0.0071116050667900275 0.4060367801218457
vn -0.9005479453496336 0.14656437348967055 0.4093070761056224
vn -0.9775323790987279 0.015241840734522833 0.21023352278978838
vn -0.9005479453496336 0.14656437348967055 0.4093070761056224
vn -0.968779517381372 0.1408327836934652 0.20404012776771557
vn -0.9138290640276538 -0.0071116050667900275 0.4060367801218457
vn -0.5566179412314725 -0.01650097483295347 0.8306047106348479
vn -0.540275609171661 0.17462448431160066 0.8231698218551856
vn -0.9138290640276538 -0.0071116050667900275 0.4060367801218457
vn -0.540275609171661 0.17462448431160066 0.8231698218551856
vn -0.9005479453496336 0.14656437348967055 0.4093070761056224
vn -0.5566179412314725 -0.01650097483295347 0.8306047106348479
vn -0.13511162568144128 -0.01636991411727868 0.9906951471151512
vn -0.133688553197659 0.16923431929333407 0.9764666486456351
vn -0.5566179412314725 -0.01650097483295347 0.8306047106348479
vn -0.133688553197659 0.16923431929333407 0.9764666486456351
vn -0.540275609171661 0.17462448431160066 0.8231698218551856
vn -0.13511162568144128 -0.01636991411727868 0.9906951471151512
vn -0.06892882166317942 -0.05064822271828174 0.996335071690044
vn -0.07390324605798121 0.14467388067302153 0.9867156522895043
vn -0.13511162568144128 -0.01636991411727868 0.9906951471151512
vn -0.07390324605798121 0.14467388067302153 0.9867156522895043
vn -0.133688553197659 0.16923431929333407 0.9764666486456351
vn -0.968779517381372 0.1408327836934652 0.20404012776771557
vn -0.9005479453496336 0.14656437348967055 0.4093070761056224
vn -0.8835840427956969 0.28499869166079517 0.3715575124640152
vn -0.968779517381372 0.1408327836934652 0.20404012776771557
vn -0.8835840427956969 0.28499869166079517 0.3715575124640152
vn -0.9521024833175935 0.25602209594879316 0.16719314473523883
vn -0.9005479453496336 0.14656437348967055 0.4093070761056224
vn -0.540275609171661 0.17462448431160066 0.8231698218551856
vn -0.5263933744784343 0.3405524029097711 0.7790597385166222
vn -0.9005479453496336 0.14656437348967055 0.4093070761056224
vn -0.5263933744784343 0.3405524029097711 0.7790597385166222
vn -0.8835840427956969 0.28499869166079517 0.3715575124640152
vn -0.540275609171661 0.17462448431160066 0.8231698218551856
vn -0.133688553197659 0.16923431929333407 0.9764666486456351
vn -0.11466312244911223 0.3258433295507209 0.9384447202353051
vn -0.540275609171661 0.17462448431160066 0.8231698218551856
vn -0.11466312244911223 0.3258433295507209 0.9384447202353051
vn -0.5263933744784343 0.3405524029097711 0.7790597385166222
vn -0.133688553197659 0.16923431929333407 0.9764666486456351
vn -0.07390324605798121 0.14467388067302153 0.9867156522895043
vn -0.05670334602941069 0.2975836009850882 0.9530103519762084
vn -0.133688553197659 0.16923431929333407 0.9764666486456351
vn -0.05670334602941069 0.2975836009850882 0.9530103519762084
vn -0.11466312244911223 0.3258433295507209 0.9384447202353051
vn -0.9521024833175935 0.25602209594879316 0.16719314473523883
vn -0.8835840427956969 0.28499869166079517 0.3715575124640152
vn -0.9001751536419315 0.330707847863671 0.2834025619628449
vn -0.9521024833175935 0.25602209594879316 0.16719314473523883
vn -0.9001751536419315 0.330707847863671 0.2834025619628449
vn -0.9449084842388775 0.29109723043011 0.14970089795758168
vn -0.8835840427956969 0.28499869166079517 0.3715575124640152
vn -0.5263933744784343 0.3405524029097711 0.7790597385166222
vn -0.6096069892459551 0.42468518573850567 0.6693443147414735
vn -0.8835840427956969 0.28499869166079517 0.3715575124640152
vn -0.6096069892459551 0.42468518573850567 0.6693443147414735
vn -0.9001751536419315 0.330707847863671 0.2834025619628449
vn -0.5263933744784343 0.3405524029097711 0.7790597385166222
vn -0.11466312244911223 0.3258433295507209 0.9384447202353051
vn -0.11816323912717037 0.4183468947592887 0.9005683342002625
vn -0.5263933744784343 0.3405524029097711 0.7790597385166222
vn -0.11816323912717037 0.4183468947592887 0.9005683342002625
vn -0.6096069892459551 0.42468518573850567 0.6693443147414735
vn -0.11466312244911223 0.3258433295507209 0.9384447202353051
vn -0.05670334602941069 0.2975836009850882 0.9530103519762084
vn -0.034693088166492046 0.4111286376152815 0.9109169188054829
vn -0.11466312244911223 0.3258433295507209 0.9384447202353051
vn -0.034693088166492046 0.4111286376152815 0.9109169188054829
vn -0.11816323912717037 0.4183468947592887 0.9005683342002625
vn 0.8799582846370235 1.0548250336387117e-16 -0.4750509628436373
vn 0.7191569768730343 1.5428716967513717e-16 -0.6948476398569963
vn 0.7604500162512055 0.09615935520780917 -0.6422376127178787
vn 0.8799582846370235 1.0548250336387117e-16 -0.4750509628436373
vn 0.7604500162512055 0.09615935520780917 -0.6422376127178787
vn 0.8766828054248473 0.09871892416293084 -0.4708310022550901
vn 0.7191569768730343 1.5428716967513717e-16 -0.6948476398569963
vn 0.17185975563261405 2.1874089788777182e-16 -0.9851214262180569
vn 0.2975337451257641 0.11623093274558384 -0.947609645784871
vn 0.7191569768730343 1.5428716967513717e-16 -0.6948476398569963
vn 0.2975337451257641 0.11623093274558384 -0.947609645784871
vn 0.7604500162512055 0.09615935520780917 -0.6422376127178787
vn 0.17185975563261405 2.1874089788777182e-16 -0.9851214262180569
vn -0.1737274653503084 2.1866814340650854e-16 -0.98479376916335
vn -0.15198123643828917 0.1102780713427954 -0.9822120192461514
vn 0.17185975563261405 2.1874089788777182e-16 -0.9851214262180569
vn -0.15198123643828917 0.1102780713427954 -0.9822120192461514
vn 0.2975337451257641 0.11623093274558384 -0.947609645784871
vn -0.1737274653503084 2.1866814340650854e-16 -0.98479376916335
vn -0.2167861036895521 2.167641905258281e-16 -0.9762191276793867
vn -0.21620735326156384 0.0730218731565106 -0.9736129551502198
vn -0.1737274653503084 2.1866814340650854e-16 -0.98479376916335
vn -0.21620735326156384 0.0730218731565106 -0.9736129551502198
vn -0.15198123643828917 0.1102780713427954 -0.9822120192461514
vn 0.8766828054248473 0.09871892416293084 -0.4708310022550901
vn 0.7604500162512055 0.09615935520780917 -0.6422376127178787
vn 0.7431729920322044 0.24805247411017542 -0.621420850955069
vn 0.8766828054248473 0.09871892416293084 -0.4708310022550901
vn 0.7431729920322044 0.24805247411017542 -0.621420850955069
vn 0.8670987193266564 0.22191897773412386 -0.44597284476020926
vn 0.7604500162512055 0.09615935520780917 -0.6422376127178787
vn 0.2975337451257641 0.11623093274558384 -0.947609645784871
vn 0.2794870422815846 0.3037748322253915 -0.9108281091968599
vn 0.7604500162512055 0.09615935520780917 -0.6422376127178787
vn 0.2794870422815846 0.3037748322253915 -0.9108281091968599
vn 0.7431729920322044 0.24805247411017542 -0.621420850955069
vn 0.2975337451257641 0.11623093274558384 -0.947609645784871
vn -0.15198123643828917 0.1102780713427954 -0.9822120192461514
vn -0.1536669236233648 0.29243074936620117 -0.9438594881703808
vn 0.2975337451257641 0.11623093274558384 -0.947609645784871
vn -0.1536669236233648 0.29243074936620117 -0.9438594881703808
vn 0.2794870422815846 0.3037748322253915 -0.9108281091968599
vn -0.15198123643828917 0.1102780713427954 -0.9822120192461514
vn -0.21620735326156384 0.0730218731565106 -0.9736129551502198
vn -0.2133020548743105 0.26573895649690477 -0.9401516050012
vn -0.15198123643828917 0.1102780713427954 -0.9822120192461514
vn -0.2133020548743105 0.26573895649690477 -0.9401516050012
vn -0.1536669236233648 0.29243074936620117 -0.9438594881703808
vn 0.8670987193266564 0.22191897773412386 -0.44597284476020926
vn 0.7431729920322044 0.24805247411017542 -0.621420850955069
vn 0.734395339362422 0.37971708911618424 -0.5625641454588846
vn 0.8670987193266564 0.22191897773412386 -0.44597284476020926
vn 0.734395339362422 0.37971708911618424 -0.5625641454588846
vn 0.8588867997385938 0.3306722493841163 -0.39111293601982183
vn 0.7431729920322044 0.24805247411017542 -0.621420850955069
vn 0.2794870422815846 0.3037748322253915 -0.9108281091968599
vn 0.27482546149115095 0.46211065162112425 -0.8431635140199534
vn 0.7431729920322044 0.24805247411017542 -0.621420850955069
vn 0.27482546149115095 0.46211065162112425 -0.8431635140199534
vn 0.734395339362422 0.37971708911618424 -0.5625641454588846
vn 0.2794870422815846 0.3037748322253915 -0.9108281091968599
vn -0.1536669236233648 0.29243074936620117 -0.9438594881703808
vn -0.16477033049500717 0.4419515114828622 -0.8817763887100741
vn 0.2794870422815846 0.3037748322253915 -0.9108281091968599
vn -0.16477033049500717 0.4419515114828622 -0.8817763887100741
vn 0.27482546149115095 0.46211065162112425 -0.8431635140199534
vn -0.1536669236233648 0.29243074936620117 -0.9438594881703808
vn -0.2133020548743105 0.26573895649690477 -0.9401516050012
vn -0.22379715153317645 0.4122185575349807 -0.883170819145094
vn -0.1536669236233648 0.29243074936620117 -0.9438594881703808
vn -0.22379715153317645 0.4122185575349807 -0.883170819145094
vn -0.16477033049500717 0.4419515114828622 -0.8817763887100741
vn 0.8588867997385938 0.3306722493841163 -0.39111293601982183
vn 0.734395339362422 0.37971708911618424 -0.5625641454588846
vn 0.774300255392266 0.415471154653013 -0.47732885325607943
vn 0.8588867997385938 0.3306722493841163 -0.39111293601982183
vn 0.774300255392266 0.415471154653013 -0.47732885325607943
vn 0.8561432576245803 0.3629112930684004 -0.36785067050012693
vn 0.734395339362422 0.37971708911618424 -0.5625641454588846
vn 0.27482546149115095 0.46211065162112425 -0.8431635140199534
vn 0.3838095550608733 0.5373525280585055 -0.7509610416214062
vn 0.734395339362422 0.37971708911618424 -0.5625641454588846
vn 0.3838095550608733 0.5373525280585055 -0.7509610416214062
vn 0.774300255392266 0.415471154653013 -0.47732885325607943
vn 0.27482546149115095 0.46211065162112425 -0.8431635140199534
vn -0.16477033049500717 0.4419515114828622 -0.8817763887100741
vn -0.1528178399957374 0.5293070488678808 -0.8345542257983073
vn 0.27482546149115095 0.46211065162112425 -0.8431635140199534
vn -0.1528178399957374 0.5293070488678808 -0.8345542257983073
vn 0.3838095550608733 0.5373525280585055 -0.7509610416214062
vn -0.16477033049500717 0.4419515114828622 -0.8817763887100741
vn -0.22379715153317645 0.4122185575349807 -0.883170819145094
vn -0.23558901645375552 0.5183966246740352 -0.8220479030159492
vn -0.16477033049500717 0.4419515114828622 -0.8817763887100741
vn -0.23558901645375552 0.5183966246740352 -0.8220479030159492
vn -0.1528178399957374 0.5293070488678808 -0.8345542257983073
vn -0.2993060599880564 2.1186544921845222e-16 -0.9541571581529041
vn -0.5456381582230062 1.8607801587762693e-16 -0.8380208829683219
vn -0.48614429734408676 0.09615895604476515 -0.8685719183419442
vn -0.2993060599880564 2.1186544921845222e-16 -0.9541571581529041
vn -0.48614429734408676 0.09615895604476515 -0.8685719183419442
vn -0.2957843555626086 0.09871859893646234 -0.9501401229442078
vn -0.5456381582230062 1.8607801587762693e-16 -0.8380208829683219
vn -0.9345605727741638 7.900437402514294e-17 -0.35580406942027304
vn -0.8738661946862447 0.11623085958628097 -0.47206806825331527
vn -0.5456381582230062 1.8607801587762693e-16 -0.8380208829683219
vn -0.8738661946862447 0.11623085958628097 -0.47206806825331527
vn -0.48614429734408676 0.09615895604476515 -0.8685719183419442
vn -0.9345605727741638 7.900437402514294e-17 -0.35580406942027304
vn -0.9998648056564698 3.6510670188884606e-18 -0.01644294406577078
vn -0.9932004973488119 0.11027797493758963 -0.037303355207502116
vn -0.9345605727741638 7.900437402514294e-17 -0.35580406942027304
vn -0.9932004973488119 0.11027797493758963 -0.037303355207502116
vn -0.8738661946862447 0.11623085958628097 -0.47206806825331527
vn -0.9998648056564698 3.6510670188884606e-18 -0.01644294406577078
vn -0.9996228909774036 -6.0974428297698535e-18 0.027460441256064415
vn -0.9969542568419911 0.07302160521425449 0.027387130856781357
vn -0.9998648056564698 3.6510670188884606e-18 -0.01644294406577078
vn -0.9969542568419911 0.07302160521425449 0.027387130856781357
vn -0.9932004973488119 0.11027797493758963 -0.037303355207502116
vn -0.2957843555626086 0.09871859893646234 -0.9501401229442078
vn -0.48614429734408676 0.09615895604476515 -0.8685719183419442
vn -0.4689872825851049 0.24805246108122084 -0.8476561244543617
vn -0.2957843555626086 0.09871859893646234 -0.9501401229442078
vn -0.4689872825851049 0.24805246108122084 -0.8476561244543617
vn -0.2731977167636153 0.22191894562064549 -0.9360101437109366
vn -0.48614429734408676 0.09615895604476515 -0.8685719183419442
vn -0.8738661946862447 0.11623085958628097 -0.47206806825331527
vn -0.8411809280423757 0.3037747171572447 -0.4473651389120562
vn -0.48614429734408676 0.09615895604476515 -0.8685719183419442
vn -0.8411809280423757 0.3037747171572447 -0.4473651389120562
vn -0.4689872825851049 0.24805246108122084 -0.8476561244543617
vn -0.8738661946862447 0.11623085958628097 -0.47206806825331527
vn -0.9932004973488119 0.11027797493758963 -0.037303355207502116
vn -0.9558659783531581 0.29243057940488587 -0.02836525437718963
vn -0.8738661946862447 0.11623085958628097 -0.47206806825331527
vn -0.9558659783531581 0.29243057940488587 -0.02836525437718963
vn -0.8411809280423757 0.3037747171572447 -0.4473651389120562
vn -0.9932004973488119 0.11027797493758963 -0.037303355207502116
vn -0.9969542568419911 0.07302160521425449 0.027387130856781357
vn -0.9635500739967808 0.26573891628324947 0.030888238431516148
vn -0.9932004973488119 0.11027797493758963 -0.037303355207502116
vn -0.9635500739967808 0.26573891628324947 0.030888238431516148
vn -0.9558659783531581 0.29243057940488587 -0.02836525437718963
vn -0.2731977167636153 0.22191894562064549 -0.9360101437109366
vn -0.4689872825851049 0.24805246108122084 -0.8476561244543617
vn -0.41286807455317104 0.3797173128735623 -0.8278615314887136
vn -0.2731977167636153 0.22191894562064549 -0.9360101437109366
vn -0.41286807455317104 0.3797173128735623 -0.8278615314887136
vn -0.2208961141090572 0.3306723970472786 -0.9175296576146872
vn -0.4689872825851049 0.24805246108122084 -0.8476561244543617
vn -0.8411809280423757 0.3037747171572447 -0.4473651389120562
vn -0.7756326792479834 0.4621107278976706 -0.42993909108672584
vn -0.4689872825851049 0.24805246108122084 -0.8476561244543617
vn -0.7756326792479834 0.4621107278976706 -0.42993909108672584
vn -0.41286807455317104 0.3797173128735623 -0.8278615314887136
vn -0.8411809280423757 0.3037747171572447 -0.4473651389120562
vn -0.9558659783531581 0.29243057940488587 -0.02836525437718963
vn -0.8970210396545418 0.4419514162137577 -0.005674515286704362
vn -0.8411809280423757 0.3037747171572447 -0.4473651389120562
vn -0.8970210396545418 0.4419514162137577 -0.005674515286704362
vn -0.7756326792479834 0.4621107278976706 -0.42993909108672584
vn -0.9558659783531581 0.29243057940488587 -0.02836525437718963
vn -0.9635500739967808 0.26573891628324947 0.030888238431516148
vn -0.9095991142971537 0.4122184762772649 0.05201325874700758
vn -0.9558659783531581 0.29243057940488587 -0.02836525437718963
vn -0.9095991142971537 0.4122184762772649 0.05201325874700758
vn -0.8970210396545418 0.4419514162137577 -0.005674515286704362
vn -0.2208961141090572 0.3306723970472786 -0.9175296576146872
vn -0.41286807455317104 0.3797173128735623 -0.8278615314887136
vn -0.32160590530639777 0.41547163190289776 -0.8508542558840468
vn -0.2208961141090572 0.3306723970472786 -0.9175296576146872
vn -0.32160590530639777 0.41547163190289776 -0.8508542558840468
vn -0.1985783103239338 0.36291157711516353 -0.9104184981999631
vn -0.41286807455317104 0.3797173128735623 -0.8278615314887136
vn -0.7756326792479834 0.4621107278976706 -0.42993909108672584
vn -0.6644121599185125 0.5373523389570535 -0.5194313675258754
vn -0.41286807455317104 0.3797173128735623 -0.8278615314887136
vn -0.6644121599185125 0.5373523389570535 -0.5194313675258754
vn -0.32160590530639777 0.41547163190289776 -0.8508542558840468
vn -0.7756326792479834 0.4621107278976706 -0.42993909108672584
vn -0.8970210396545418 0.4419514162137577 -0.005674515286704362
vn -0.8483884548557797 0.5293068647441657 -0.008442310236193245
vn -0.7756326792479834 0.4621107278976706 -0.42993909108672584
vn -0.8483884548557797 0.5293068647441657 -0.008442310236193245
vn -0.6644121599185125 0.5373523389570535 -0.5194313675258754
vn -0.8970210396545418 0.4419514162137577 -0.005674515286704362
vn -0.9095991142971537 0.4122184762772649 0.05201325874700758
vn -0.8518276258398849 0.5183965227693166 0.0751980121856047
vn -0.8970210396545418 0.4419514162137577 -0.005674515286704362
vn -0.8518276258398849 0.5183965227693166 0.0751980121856047
vn -0.8483884548557797 0.5293068647441657 -0.008442310236193245
vn -0.18645909690408277 -0.026544066518727635 -0.9821040768240212
vn -0.4364543635235002 -0.0906400994777875 -0.8951491277591421
vn -0.3990661723419898 0.018242145969869627 -0.9167406471858478
vn -0.18645909690408277 -0.026544066518727635 -0.9821040768240212
vn -0.3990661723419898 0.018242145969869627 -0.9167406471858478
vn -0.20737032148384243 0.06987394987971088 -0.9757638960813706
vn -0.4364543635235002 -0.0906400994777875 -0.8951491277591421
vn -0.8631662166811382 -0.20584593800221895 -0.4610548038881681
vn -0.820295472666361 -0.07318838115521266 -0.5672378675537723
vn -0.4364543635235002 -0.0906400994777875 -0.8951491277591421
vn -0.820295472666361 -0.07318838115521266 -0.5672378675537723
vn -0.3990661723419898 0.018242145969869627 -0.9167406471858478
vn -0.8631662166811382 -0.20584593800221895 -0.4610548038881681
vn -0.962488308482016 -0.2373012191868219 -0.13154614174454318
vn -0.9805005821358226 -0.1277550463149875 -0.14932265927302638
vn -0.8631662166811382 -0.20584593800221895 -0.4610548038881681
vn -0.9805005821358226 -0.1277550463149875 -0.14932265927302638
vn -0.820295472666361 -0.07318838115521266 -0.5672378675537723
vn -0.962488308482016 -0.2373012191868219 -0.13154614174454318
vn -0.966956864998392 -0.23930140130165153 -0.08791621333717596
vn -0.9820374094197576 -0.16782338650295797 -0.08624289792678706
vn -0.962488308482016 -0.2373012191868219 -0.13154614174454318
vn -0.9820374094197576 -0.16782338650295797 -0.08624289792678706
vn -0.9805005821358226 -0.1277550463149875 -0.14932265927302638
vn -0.20737032148384243 0.06987394987971088 -0.9757638960813706
vn -0.3990661723419898 0.018242145969869627 -0.9167406471858478
vn -0.4214989308044229 0.16870001211018415 -0.8909988536719631
vn -0.20737032148384243 0.06987394987971088 -0.9757638960813706
vn -0.4214989308044229 0.16870001211018415 -0.8909988536719631
vn -0.21690008519025852 0.19410734303503407 -0.9567009420003403
vn -0.3990661723419898 0.018242145969869627 -0.9167406471858478
vn -0.820295472666361 -0.07318838115521266 -0.5672378675537723
vn -0.8367818992852387 0.11537396635947943 -0.5352428429368021
vn -0.3990661723419898 0.018242145969869627 -0.9167406471858478
vn -0.8367818992852387 0.11537396635947943 -0.5352428429368021
vn -0.4214989308044229 0.16870001211018415 -0.8909988536719631
vn -0.820295472666361 -0.07318838115521266 -0.5672378675537723
vn -0.9805005821358226 -0.1277550463149875 -0.14932265927302638
vn -0.9895108751272192 0.05742328878037645 -0.13255487131980484
vn -0.820295472666361 -0.07318838115521266 -0.5672378675537723
vn -0.9895108751272192 0.05742328878037645 -0.13255487131980484
vn -0.8367818992852387 0.11537396635947943 -0.5352428429368021
vn -0.9805005821358226 -0.1277550463149875 -0.14932265927302638
vn -0.9820374094197576 -0.16782338650295797 -0.08624289792678706
vn -0.9968110548252189 0.02692284656871049 -0.07511911415127416
vn -0.9805005821358226 -0.1277550463149875 -0.14932265927302638
vn -0.9968110548252189 0.02692284656871049 -0.07511911415127416
vn -0.9895108751272192 0.05742328878037645 -0.13255487131980484
vn -0.21690008519025852 0.19410734303503407 -0.9567009420003403
vn -0.4214989308044229 0.16870001211018415 -0.8909988536719631
vn -0.4013447014792173 0.3088637107740022 -0.8622793275740013
vn -0.21690008519025852 0.19410734303503407 -0.9567009420003403
vn -0.4013447014792173 0.3088637107740022 -0.8622793275740013
vn -0.1947449479847807 0.31119689890640784 -0.9301778837111964
vn -0.4214989308044229 0.16870001211018415 -0.8909988536719631
vn -0.8367818992852387 0.11537396635947943 -0.5352428429368021
vn -0.8137317796390291 0.2837676073185792 -0.5072637734376337
vn -0.4214989308044229 0.16870001211018415 -0.8909988536719631
vn -0.8137317796390291 0.2837676073185792 -0.5072637734376337
vn -0.4013447014792173 0.3088637107740022 -0.8622793275740013
vn -0.8367818992852387 0.11537396635947943 -0.5352428429368021
vn -0.9895108751272192 0.05742328878037645 -0.13255487131980484
vn -0.9713571092330523 0.2154220628427524 -0.10029307644589158
vn -0.8367818992852387 0.11537396635947943 -0.5352428429368021
vn -0.9713571092330523 0.2154220628427524 -0.10029307644589158
vn -0.8137317796390291 0.2837676073185792 -0.5072637734376337
vn -0.9895108751272192 0.05742328878037645 -0.13255487131980484
vn -0.9968110548252189 0.02692284656871049 -0.07511911415127416
vn -0.9824736280594605 0.18087935746456432 -0.04503585472584168
vn -0.9895108751272192 0.05742328878037645 -0.13255487131980484
vn -0.9824736280594605 0.18087935746456432 -0.04503585472584168
vn -0.9713571092330523 0.2154220628427524 -0.10029307644589158
vn -0.1947449479847807 0.31119689890640784 -0.9301778837111964
vn -0.4013447014792173 0.3088637107740022 -0.8622793275740013
vn -0.31951883929012986 0.3663566765179141 -0.8738938705068463
vn -0.1947449479847807 0.31119689890640784 -0.9301778837111964
vn -0.31951883929012986 0.3663566765179141 -0.8738938705068463
vn -0.18178159612606257 0.34745289201071394 -0.9199086580434235
vn -0.4013447014792173 0.3088637107740022 -0.8622793275740013
vn -0.8137317796390291 0.2837676073185792 -0.5072637734376337
vn -0.7150877300330799 0.387436933745973 -0.5818437597204732
vn -0.4013447014792173 0.3088637107740022 -0.8622793275740013
vn -0.7150877300330799 0.387436933745973 -0.5818437597204732
vn -0.31951883929012986 0.3663566765179141 -0.8738938705068463
vn -0.8137317796390291 0.2837676073185792 -0.5072637734376337
vn -0.9713571092330523 0.2154220628427524 -0.10029307644589158
vn -0.9452892187912024 0.31187577867907773 -0.09571724771658009
vn -0.8137317796390291 0.2837676073185792 -0.5072637734376337
vn -0.9452892187912024 0.31187577867907773 -0.09571724771658009
vn -0.7150877300330799 0.387436933745973 -0.5818437597204732
vn -0.9713571092330523 0.2154220628427524 -0.10029307644589158
vn -0.9824736280594605 0.18087935746456432 -0.04503585472584168
vn -0.9549246405288805 0.2965519718479034 -0.01326118033617783
vn -0.9713571092330523 0.2154220628427524 -0.10029307644589158
vn -0.9549246405288805 0.2965519718479034 -0.01326118033617783
vn -0.9452892187912024 0.31187577867907773 -0.09571724771658009
f 1/1/1 2/2/2 3/3/3
f 4/4/4 5/5/5 6/6/6
f 7/7/7 8/8/8 9/9/9
f 10/10/10 11/11/11 12/12/12
f 13/13/13 14/14/14 15/15/15
f 16/16/16 17/17/17 18/18/18
f 19/19/19 20/20/20 21/21/21
f 22/22/22 23/23/23 24/24/24
f 25/25/25 26/26/26 27/27/27
f 28/28/28 29/29/29 30/30/30
f 31/31/31 32/32/32 33/33/33
f 34/34/34 35/35/35 36/36/36
f 37/37/37 38/38/38 39/39/39
f 40/40/40 41/41/41 42/42/42
f 43/43/43 44/44/44 45/45/45
f 46/46/46 47/47/47 48/48/48
f 49/49/49 50/50/50 51/51/51
f 52/52/52 53/53/53 54/54/54
f 55/55/55 56/56/56 57/57/57
f 58/58/58 59/59/59 60/60/60
f 61/61/61 62/62/62 63/63/63
f 64/64/64 65/65/65 66/66/66
f 67/67/67 68/68/68 69/69/69
f 70/70/70 71/71/71 72/72/72
f 73/73/73 74/74/74 75/75/75
f 76/76/76 77/77/77 78/78/78
f 79/79/79 80/80/80 81/81/81
f 82/82/82 83/83/83 84/84/84
f 85/85/85 86/86/86 87/87/87
f 88/88/88 89/89/89 90/90/90
f 91/91/91 92/92/92 93/93/93
f 94/94/94 95/95/95 96/96/96
f 97/97/97 98/98/98 99/99/99
f 100/100/100 101/101/101 102/102/102
f 103/103/103 104/104/104 105/105/105
f 106/106/106 107/107/107 108/108/108
f 109/109/109 110/110/110 111/111/111
f 112/112/112 113/113/113 114/114/114
f 115/115/115 116/116/116 117/117/117
f 118/118/118 119/119/119 120/120/120
f 121/121/121 122/122/122 123/123/123
f 124/124/124 125/125/125 126/126/126
f 127/127/127 128/128/128 129/129/129
f 130/130/130 131/131/131 132/132/132
f 133/133/133 134/134/134 135/135/135
f 136/136/136 137/137/137 138/138/138
f 139/139/139 140/140/140 141/141/141
f 142/142/142 143/143/143 144/144/144
f 145/145/145 146/146/146 147/147/147
f 148/148/148 149/149/149 150/150/150
f 151/151/151 152/152/152 153/153/153
f 154/154/154 155/155/155 156/156/156
f 157/157/157 158/158/158 159/159/159
f 160/160/160 161/161/161 162/162/162
f 163/163/163 164/164/164 165/165/165
f 166/166/166 167/167/167 168/168/168
f 169/169/169 170/170/170 171/171/171
f 172/172/172 173/173/173 174/174/174
f 175/175/175 176/176/176 177/177/177
f 178/178/178 179/179/179 180/180/180
f 181/181/181 182/182/182 183/183/183
f 184/184/184 185/185/185 186/186/186
f 187/187/187 188/188/188 189/189/189
f 190/190/190 191/191/191 192/192/192
f 193/193/193 194/194/194 195/195/195
f 196/196/196 197/197/197 198/198/198
f 199/199/199 200/200/200 201/201/201
f 202/202/202 203/203/203 204/204/204
f 205/205/205 206/206/206 207/207/207
f 208/208/208 209/209/209 210/210/210
f 211/211/211 212/212/212 213/213/213
f 214/214/214 215/215/215 216/216/216
f 217/217/217 218/218/218 219/219/219
f 220/220/220 221/221/221 222/222/222
f 223/223/223 224/224/224 225/225/225
f 226/226/226 227/227/227 228/228/228
f 229/229/229 230/230/230 231/231/231
f 232/232/232 233/233/233 234/234/234
f 235/235/235 236/236/236 237/237/237
f 238/238/238 239/239/239 240/240/240
f 241/241/241 242/242/242 243/243/243
f 244/244/244 245/245/245 246/246/246
f 247/247/247 248/248/248 249/249/249
f 250/250/250 251/251/251 252/252/252
f 253/253/253 254/254/254 255/255/255
f 256/256/256 257/257/257 258/258/258
f 259/259/259 260/260/260 261/261/261
f 262/262/262 263/263/263 264/264/264
f 265/265/265 266/266/266 267/267/267
f 268/268/268 269/269/269 270/270/270
f 271/271/271 272/272/272 273/273/273
f 274/274/274 275/275/275 276/276/276
f 277/277/277 278/278/278 279/279/279
f 280/280/280 281/281/281 282/282/282
f 283/283/283 284/284/284 285/285/285
f 286/286/286 287/287/287 288/288/288
f 289/289/289 290/290/290 291/291/291
f 292/292/292 293/293/293 294/294/294
f 295/295/295 296/296/296 297/297/297
f 298/298/298 299/299/299 300/300/300
f 301/301/301 302/302/302 303/303/303
f 304/304/304 305/305/305 306/306/306
f 307/307/307 308/308/308 309/309/309
f 310/310/310 311/311/311 312/312/312
f 313/313/313 314/314/314 315/315/315
f 316/316/316 317/317/317 318/318/318
f 319/319/319 320/320/320 321/321/321
f 322/322/322 323/323/323 324/324/324
f 325/325/325 326/326/326 327/327/327
f 328/328/328 329/329/329 330/330/330
f 331/331/331 332/332/332 333/333/333
f 334/334/334 335/335/335 336/336/336
f 337/337/337 338/338/338 339/339/339
f 340/340/340 341/341/341 342/342/342
f 343/343/343 344/344/344 345/345/345
f 346/346/346 347/347/347 348/348/348
f 349/349/349 350/350/350 351/351/351
f 352/352/352 353/353/353 354/354/354
f 355/355/355 356/356/356 357/357/357
f 358/358/358 359/359/359 360/360/360
f 361/361/361 362/362/362 363/363/363
f 364/364/364 365/365/365 366/366/366
f 367/367/367 368/368/368 369/369/369
f 370/370/370 371/371/371 372/372/372
f 373/373/373 374/374/374 375/375/375
f 376/376/376 377/377/377 378/378/378
f 379/379/379 380/380/380 381/381/381
f 382/382/382 383/383/383 384/384/384
f 385/385/385 386/386/386 387/387/387
f 388/388/388 389/389/389 390/390/390
f 391/391/391 392/392/392 393/393/393
f 394/394/394 395/395/395 396/396/396
f 397/397/397 398/398/398 399/399/399
f 400/400/400 401/401/401 402/402/402
f 403/403/403 404/404/404 405/405/405
f 406/406/406 407/407/407 408/408/408
f 409/409/409 410/410/410 411/411/411
f 412/412/412 413/413/413 414/414/414
f 415/415/415 416/416/416 417/417/417
f 418/418/418 419/419/419 420/420/420
f 421/421/421 422/422/422 423/423/423
f 424/424/424 425/425/425 426/426/426
f 427/427/427 428/428/428 429/429/429
f 430/430/430 431/431/431 432/432/432
f 433/433/433 434/434/434 435/435/435
f 436/436/436 437/437/437 438/438/438
f 439/439/439 440/440/440 441/441/441
f 442/442/442 443/443/443 444/444/444
f 445/445/445 446/446/446 447/447/447
f 448/448/448 449/449/449 450/450/450
f 451/451/451 452/452/452 453/453/453
f 454/454/454 455/455/455 456/456/456
f 457/457/457 458/458/458 459/459/459
f 460/460/460 461/461/461 462/462/462
f 463/463/463 464/464/464 465/465/465
f 466/466/466 467/467/467 468/468/468
f 469/469/469 470/470/470 471/471/471
f 472/472/472 473/473/473 474/474/474
f 475/475/475 476/476/476 477/477/477
f 478/478/478 479/479/479 480/480/480
f 481/481/481 482/482/482 483/483/483
f 484/484/484 485/485/485 486/486/486
f 487/487/487 488/488/488 489/489/489
f 490/490/490 491/491/491 492/492/492
f 493/493/493 494/494/494 495/495/495
f 496/496/496 497/497/497 498/498/498
f 499/499/499 500/500/500 501/501/501
f 502/502/502 503/503/503 504/504/504
f 505/505/505 506/506/506 507/507/507
f 508/508/508 509/509/509 510/510/510
f 511/511/511 512/512/512 513/513/513
f 514/514/514 515/515/515 516/516/516
f 517/517/517 518/518/518 519/519/519
f 520/520/520 521/521/521 522/522/522
f 523/523/523 524/524/524 525/525/525
f 526/526/526 527/527/527 528/528/528
f 529/529/529 530/530/530 531/531/531
f 532/532/532 533/533/533 534/534/534
f 535/535/535 536/536/536 537/537/537
f 538/538/538 539/539/539 540/540/540
f 541/541/541 542/542/542 543/543/543
f 544/544/544 545/545/545 546/546/546
f 547/547/547 548/548/548 549/549/549
f 550/550/550 551/551/551 552/552/552
f 553/553/553 554/554/554 555/555/555
f 556/556/556 557/557/557 558/558/558
f 559/559/559 560/560/560 561/561/561
f 562/562/562 563/563/563 564/564/564
f 565/565/565 566/566/566 567/567/567
f 568/568/568 569/569/569 570/570/570
f 571/571/571 572/572/572 573/573/573
f 574/574/574 575/575/575 576/576/576
