# File generated by ImageToStl.com - Free Image and 3D model conversion tools

mtllib Stylized_Gem.mtl

o obj1
v -0.96085036 -0.57026082 0.7245754
v -0.63386995 -0.9133715 0.12531613
v -0.73655289 -0.73191756 1.03115642
v 0.51293212 -0.72720087 0.27508494
v 0.63834453 -0.62546319 0.26223174
v 0.36818689 -0.84820175 0.38222921
v -0.04318343 0.24720114 -1.37445652
v 0.22651646 0.12363463 -1.37194717
v -0.16487087 0.083594 -1.36365807
v -0.04318343 0.24720114 -1.37445652
v -0.16487087 0.083594 -1.36365807
v -0.29723558 0.04863828 -1.32756138
v -0.29723558 0.04863828 -1.32756138
v -0.16254401 0.42753398 -1.29060876
v -0.04318343 0.24720114 -1.37445652
v -0.45698836 0.39823365 -1.16764092
v -0.16254401 0.42753398 -1.29060876
v -0.29723558 0.04863828 -1.32756138
v 0.42995191 0.5475232 -1.09695661
v 0.0864929 0.64610803 -1.12543941
v 0.16128689 0.83510971 -0.94510978
v 0.38891119 0.66015029 -0.9970997
v 0.42995191 0.5475232 -1.09695661
v 0.16128689 0.83510971 -0.94510978
v 1.01829004 -0.11300196 -0.5629701
v 1.01538098 -0.15277888 -0.46061057
v 0.98771602 -0.21570154 -0.33351982
v 0.87846875 -0.33006349 -0.20516528
v 1.01829004 -0.11300196 -0.5629701
v 0.98771602 -0.21570154 -0.33351982
v -1.13480461 -0.23092139 -0.09023114
v -0.7594133 -0.17251475 -0.67141628
v -1.02159202 -0.55312043 0.02170279
v -1.18357551 0.05763045 -0.23217189
v -1.13480461 -0.23092139 -0.09023114
v -1.18323052 0.05577129 -0.13775311
v -1.18323052 0.05577129 -0.13775311
v -1.14625967 0.15932663 -0.34983921
v -1.18357551 0.05763045 -0.23217189
v -1.14625967 0.15932663 -0.34983921
v -0.94861233 0.45286715 -0.50839621
v -1.07242274 0.28126451 -0.46226737
v -0.80482578 0.44879884 0.18505129
v -0.70540172 0.74021828 -0.5803625
v -0.94861233 0.45286715 -0.50839621
v -0.42860186 0.96709466 -0.42061132
v 0.16801368 0.9409554 -0.75410956
v 0.11621281 0.93016869 -0.78056896
v 0.44653997 0.90722692 -0.14540195
v 0.48257205 0.71756679 -0.63059449
v 0.255427 0.99775493 -0.39019483
v 0.48257205 0.71756679 -0.63059449
v 0.44653997 0.90722692 -0.14540195
v 0.66599631 0.66576087 -0.26382554
v 0.83855426 0.30535394 -0.77678269
v 0.77259493 0.2266957 -1.06592822
v 0.66438425 0.33926815 -1.10980487
v 0.72149885 0.22259928 -1.14996994
v 0.66438425 0.33926815 -1.10980487
v 0.77259493 0.2266957 -1.06592822
v 0.65443671 0.23135769 -1.19085968
v 0.66438425 0.33926815 -1.10980487
v 0.72149885 0.22259928 -1.14996994
v 0.36720175 0.12282196 -1.33442748
v 0.34512243 0.1769978 -1.334993
v 0.65443671 0.23135769 -1.19085968
v 0.23097113 -0.13245584 -1.28549409
v 0.08155561 -0.28787175 -1.25381386
v 0.22651646 0.12363463 -1.37194717
v -0.22001854 -0.14308999 -1.2983439
v 0.22651646 0.12363463 -1.37194717
v 0.08155561 -0.28787175 -1.25381386
v -0.26437286 -0.60076845 -0.90654528
v -0.22796597 -0.42255673 -1.09537947
v -0.12675409 -0.35254076 -1.23100317
v -1.18357551 0.05763045 -0.23217189
v -1.14625967 0.15932663 -0.34983921
v -0.7594133 -0.17251475 -0.67141628
v -1.05662739 0.23022157 -0.51568031
v -0.7594133 -0.17251475 -0.67141628
v -1.14625967 0.15932663 -0.34983921
v -0.66846412 -0.00167664 -0.89904231
v -0.7594133 -0.17251475 -0.67141628
v -1.05662739 0.23022157 -0.51568031
v -0.12675409 -0.35254076 -1.23100317
v -0.22796597 -0.42255673 -1.09537947
v -0.22001854 -0.14308999 -1.2983439
v -0.16487087 0.083594 -1.36365807
v -0.22001854 -0.14308999 -1.2983439
v -0.29723558 0.04863828 -1.32756138
v -0.29723558 0.04863828 -1.32756138
v -0.22001854 -0.14308999 -1.2983439
v -0.66846412 -0.00167664 -0.89904231
v -0.66846412 -0.00167664 -0.89904231
v -0.53113389 0.23460665 -1.17508924
v -0.29723558 0.04863828 -1.32756138
v -0.55863309 0.47201434 -1.01841784
v -0.45698836 0.39823365 -1.16764092
v -0.67276788 0.24073139 -1.01646411
v -0.45698836 0.39823365 -1.16764092
v -0.186106 0.70735723 -0.94754106
v -0.06173846 0.57735753 -1.18190384
v 0.0864929 0.64610803 -1.12543941
v 0.42995191 0.5475232 -1.09695661
v 0.19961098 0.43704039 -1.23526537
v 0.66438425 0.33926815 -1.10980487
v 0.65443671 0.23135769 -1.19085968
v 0.42995191 0.5475232 -1.09695661
v 0.66438425 0.33926815 -1.10980487
v 0.38891119 0.66015029 -0.9970997
v 0.83855426 0.30535394 -0.77678269
v 0.38891119 0.66015029 -0.9970997
v 0.48257205 0.71756679 -0.63059449
v 0.83855426 0.30535394 -0.77678269
v -0.55863309 0.47201434 -1.01841784
v -0.78815144 0.64586586 -0.58764654
v -0.70540172 0.74021828 -0.5803625
v -0.70540172 0.74021828 -0.5803625
v -0.186106 0.70735723 -0.94754106
v -0.55863309 0.47201434 -1.01841784
v -0.78815144 0.64586586 -0.58764654
v -0.94861233 0.45286715 -0.50839621
v -0.70540172 0.74021828 -0.5803625
v -0.55863309 0.47201434 -1.01841784
v -0.67276788 0.24073139 -1.01646411
v -1.07242274 0.28126451 -0.46226737
v -0.55863309 0.47201434 -1.01841784
v -0.186106 0.70735723 -0.94754106
v -0.45698836 0.39823365 -1.16764092
v -1.07242274 0.28126451 -0.46226737
v -0.67276788 0.24073139 -1.01646411
v -1.05662739 0.23022157 -0.51568031
v -0.67276788 0.24073139 -1.01646411
v -0.66846412 -0.00167664 -0.89904231
v -1.05662739 0.23022157 -0.51568031
v -0.52957326 -0.26106414 -0.88612109
v -0.7594133 -0.17251475 -0.67141628
v -0.66846412 -0.00167664 -0.89904231
v 0.42995191 0.5475232 -1.09695661
v 0.38891119 0.66015029 -0.9970997
v 0.66438425 0.33926815 -1.10980487
v -0.03490099 0.38464412 -1.31252885
v 0.19961098 0.43704039 -1.23526537
v 0.34512243 0.1769978 -1.334993
v 0.34512243 0.1769978 -1.334993
v -0.04318343 0.24720114 -1.37445652
v -0.03490099 0.38464412 -1.31252885
v 0.22651646 0.12363463 -1.37194717
v 0.34512243 0.1769978 -1.334993
v 0.36720175 0.12282196 -1.33442748
v -0.03490099 0.38464412 -1.31252885
v -0.16254401 0.42753398 -1.29060876
v -0.06173846 0.57735753 -1.18190384
v -0.1768401 -0.83952117 -0.54642683
v -0.28447857 -0.86644983 -0.51487768
v -0.36231753 -0.83791411 -0.5837028
v 0.33020112 -0.33079317 -1.11095083
v -0.15979095 -0.93390191 -0.28060782
v -0.1768401 -0.83952117 -0.54642683
v 1.05059206 -0.1042734 -0.48416758
v 0.90949219 0.18775296 -0.76756483
v 1.04387534 0.1860646 -0.42384708
v 1.04387534 0.1860646 -0.42384708
v 1.02806175 -0.1596168 -0.41458118
v 1.05059206 -0.1042734 -0.48416758
v 0.89538193 -0.32896397 -0.1442859
v 0.9180218 0.24825253 -0.16411626
v 0.72033793 0.30367213 0.28418177
v 0.89538193 -0.32896397 -0.1442859
v 0.72033793 0.30367213 0.28418177
v 0.51351589 0.01192936 0.74097288
v 0.51351589 0.01192936 0.74097288
v 0.72536975 -0.5533393 0.21610951
v 0.89538193 -0.32896397 -0.1442859
v -1.08244324 -0.41977718 -0.00024715
v -1.10329187 -0.27660584 0.48596701
v -1.13480461 -0.23092139 -0.09023114
v -0.17679532 -1.08035374 0.42218688
v -0.1034359 -1.00911713 0.01986681
v -0.08530211 -1.05151105 0.18834488
v -0.08530211 -1.05151105 0.18834488
v -0.1034359 -1.00911713 0.01986681
v 0.1769512 -0.93473935 0.28135893
v -0.1034359 -1.00911713 0.01986681
v -0.36231753 -0.83791411 -0.5837028
v -0.15979095 -0.93390191 -0.28060782
v -0.15979095 -0.93390191 -0.28060782
v -0.36231753 -0.83791411 -0.5837028
v -0.28447857 -0.86644983 -0.51487768
v -0.70540172 0.74021828 -0.5803625
v -0.80482578 0.44879884 0.18505129
v -0.68593782 0.58814746 0.1035985
v -0.42860186 0.96709466 -0.42061132
v -0.70540172 0.74021828 -0.5803625
v -0.68593782 0.58814746 0.1035985
v 0.90048176 -0.08011599 -0.8436591
v 0.75855094 -0.0969827 -0.97622788
v 0.72149885 0.22259928 -1.14996994
v 0.21908483 -0.32637 -1.18747962
v 0.33020112 -0.33079317 -1.11095083
v -0.1768401 -0.83952117 -0.54642683
v -0.1768401 -0.83952117 -0.54642683
v -0.12675409 -0.35254076 -1.23100317
v 0.21908483 -0.32637 -1.18747962
v -0.39240065 -0.74382865 -0.63863158
v -0.52957326 -0.26106414 -0.88612109
v -0.26437286 -0.60076845 -0.90654528
v -0.39240065 -0.74382865 -0.63863158
v -0.73039496 -0.8432644 -0.12356161
v -0.7594133 -0.17251475 -0.67141628
v -0.36231753 -0.83791411 -0.5837028
v -0.39240065 -0.74382865 -0.63863158
v -0.29231653 -0.75063509 -0.70190579
v 1.04387534 0.1860646 -0.42384708
v 0.83855426 0.30535394 -0.77678269
v 1.02231181 0.23440425 -0.41985345
v -0.43650618 -1.02427721 0.46586287
v -0.73655289 -0.73191756 1.03115642
v -0.63386995 -0.9133715 0.12531613
v -1.10329187 -0.27660584 0.48596701
v -1.11821496 -0.09789665 0.63055474
v -1.16605699 -0.04811244 0.16723423
v -0.80482578 0.44879884 0.18505129
v -0.57540029 0.62081784 0.31615394
v -0.68593782 0.58814746 0.1035985
v -0.42860186 0.96709466 -0.42061132
v -0.68593782 0.58814746 0.1035985
v -0.31981242 0.92020285 0.0617286
v -0.31981242 0.92020285 0.0617286
v -0.3445569 0.98209059 -0.35302174
v -0.42860186 0.96709466 -0.42061132
v -0.3445569 0.98209059 -0.35302174
v -0.05866531 0.93383706 0.54795599
v -0.05037624 1.01800323 -0.20753844
v 0.0701088 1.01008403 -0.13182066
v -0.05037624 1.01800323 -0.20753844
v -0.05866531 0.93383706 0.54795599
v -0.05866531 0.93383706 0.54795599
v 0.18379906 0.8671298 0.53672314
v 0.44653997 0.90722692 -0.14540195
v 0.44653997 0.90722692 -0.14540195
v 0.0701088 1.01008403 -0.13182066
v -0.05866531 0.93383706 0.54795599
v 0.33337876 0.86720115 0.28649703
v 0.9180218 0.24825253 -0.16411626
v 1.02231181 0.23440425 -0.41985345
v 0.46468204 -0.37124854 0.7986148
v 0.72536975 -0.5533393 0.21610951
v 0.51351589 0.01192936 0.74097288
v 0.46468204 -0.37124854 0.7986148
v 0.08089388 -0.62176484 1.04716086
v 0.36818689 -0.84820175 0.38222921
v 0.13043092 -0.94380462 0.6009326
v 0.36818689 -0.84820175 0.38222921
v 0.08089388 -0.62176484 1.04716086
v -0.59939021 -0.78124237 0.97734886
v -0.73655289 -0.73191756 1.03115642
v -0.43650618 -1.02427721 0.46586287
v -0.95405221 -0.4934651 1.30625653
v -1.10329187 -0.27660584 0.48596701
v -1.04544091 -0.45576954 0.55270737
v -0.80482578 0.44879884 0.18505129
v -0.62656766 0.30336526 0.97863758
v -0.57540029 0.62081784 0.31615394
v -0.12701115 0.83783782 0.63487512
v -0.0814959 0.93297637 0.52848047
v -0.36310863 0.58866489 0.83853287
v 0.18379906 0.8671298 0.53672314
v -0.05866531 0.93383706 0.54795599
v -0.12701115 0.83783782 0.63487512
v 0.50741768 0.36075523 0.76196593
v 0.51351589 0.01192936 0.74097288
v 0.72033793 0.30367213 0.28418177
v 0.08089388 -0.62176484 1.04716086
v 0.05354393 -0.69523376 0.96935177
v 0.13043092 -0.94380462 0.6009326
v -0.59939021 -0.78124237 0.97734886
v -0.58812416 -0.64025527 1.2201699
v -0.84916186 -0.60259622 1.24879694
v -0.84916186 -0.60259622 1.24879694
v -0.95405221 -0.4934651 1.30625653
v -0.96085036 -0.57026082 0.7245754
v -0.96085036 -0.57026082 0.7245754
v -0.73655289 -0.73191756 1.03115642
v -0.84916186 -0.60259622 1.24879694
v 0.26847592 0.82443231 0.54129553
v 0.18379906 0.8671298 0.53672314
v -0.44009015 0.41729766 1.05153096
v 0.3055031 -0.18278088 1.12851584
v 0.51351589 0.01192936 0.74097288
v 0.38674358 0.04334256 0.99093193
v 0.38674358 0.04334256 0.99093193
v 0.21191025 -0.30503884 1.22423315
v 0.3055031 -0.18278088 1.12851584
v 0.21191025 -0.30503884 1.22423315
v -0.24508643 -0.3484661 1.44531488
v 0.12721016 -0.36581543 1.27922666
v -0.24508643 -0.3484661 1.44531488
v 0.07465137 -0.47176889 1.21921802
v 0.12721016 -0.36581543 1.27922666
v -0.36944237 -0.55610746 1.28849089
v 0.08089388 -0.62176484 1.04716086
v 0.07465137 -0.47176889 1.21921802
v 0.21191025 -0.30503884 1.22423315
v 0.07465137 -0.47176889 1.21921802
v 0.08089388 -0.62176484 1.04716086
v 0.07465137 -0.47176889 1.21921802
v -0.24508643 -0.3484661 1.44531488
v -0.44289961 -0.42788392 1.45666218
v -0.44289961 -0.42788392 1.45666218
v -0.36944237 -0.55610746 1.28849089
v 0.07465137 -0.47176889 1.21921802
v -0.85261649 -0.44798306 1.48870564
v -0.84916186 -0.60259622 1.24879694
v -0.58812416 -0.64025527 1.2201699
v -0.85261649 -0.44798306 1.48870564
v -0.93373418 -0.45996389 1.44342422
v -0.84916186 -0.60259622 1.24879694
v -0.84916186 -0.60259622 1.24879694
v -0.93373418 -0.45996389 1.44342422
v -0.95405221 -0.4934651 1.30625653
v -1.11821496 -0.09789665 0.63055474
v -1.02674663 -0.23285033 1.20663178
v -1.01595652 -0.01099743 0.75863558
v -0.36310863 0.58866489 0.83853287
v -0.62656766 0.30336526 0.97863758
v -0.44009015 0.41729766 1.05153096
v 0.26847592 0.82443231 0.54129553
v -0.44009015 0.41729766 1.05153096
v -0.10538295 0.3773433 0.9793309
v 0.43733543 0.47393137 0.72314095
v -0.10538295 0.3773433 0.9793309
v 0.12492645 0.15126133 1.04271948
v 0.12492645 0.15126133 1.04271948
v 0.50741768 0.36075523 0.76196593
v 0.43733543 0.47393137 0.72314095
v 0.38674358 0.04334256 0.99093193
v -0.4122327 -0.2182491 1.47251391
v 0.21191025 -0.30503884 1.22423315
v -0.24508643 -0.3484661 1.44531488
v 0.21191025 -0.30503884 1.22423315
v -0.4122327 -0.2182491 1.47251391
v -0.4122327 -0.2182491 1.47251391
v -0.58346552 -0.31388521 1.57797313
v -0.24508643 -0.3484661 1.44531488
v -1.02674663 -0.23285033 1.20663178
v -0.95431095 -0.29381761 1.52173913
v -1.01595652 -0.01099743 0.75863558
v -1.01595652 -0.01099743 0.75863558
v -0.95431095 -0.29381761 1.52173913
v -0.84339035 0.14170687 0.86425573
v -0.69914424 -0.42254865 1.51943219
v -0.44289961 -0.42788392 1.45666218
v -0.58346552 -0.31388521 1.57797313
v -0.87225449 -0.33177853 1.59192252
v -0.95431095 -0.29381761 1.52173913
v -0.94301671 -0.36544558 1.53692091
v -0.87225449 -0.33177853 1.59192252
v -0.83782452 -0.22757472 1.60958207
v -0.95431095 -0.29381761 1.52173913
v -0.61662841 0.13869999 1.32485473
v -0.41427928 0.02435794 1.33862174
v -0.10538295 0.3773433 0.9793309
v -0.80319381 -0.28271747 1.62554324
v -0.69914424 -0.42254865 1.51943219
v -0.58346552 -0.31388521 1.57797313
v -0.83782452 -0.22757472 1.60958207
v -0.87225449 -0.33177853 1.59192252
v -0.80319381 -0.28271747 1.62554324
v -0.80319381 -0.28271747 1.62554324
v -0.71298927 -0.21955268 1.58327699
v -0.83782452 -0.22757472 1.60958207
v -0.71298927 -0.21955268 1.58327699
v -0.79470575 -0.17388816 1.57882226
v -0.83782452 -0.22757472 1.60958207
v -0.71298927 -0.21955268 1.58327699
v -0.4122327 -0.2182491 1.47251391
v -0.41427928 0.02435794 1.33862174
v -0.61662841 0.13869999 1.32485473
v -0.71452332 -0.02414092 1.46682858
v -0.79470575 -0.17388816 1.57882226
v -0.71452332 -0.02414092 1.46682858
v -0.83782452 -0.22757472 1.60958207
v -0.71452332 -0.02414092 1.46682858
v -0.61662841 0.13869999 1.32485473
v -0.78722769 -0.01989852 1.33772612
v -0.36310863 0.58866489 0.83853287
v -0.31981242 0.92020285 0.0617286
v -0.57540029 0.62081784 0.31615394
v 0.18379906 0.8671298 0.53672314
v 0.26847592 0.82443231 0.54129553
v 0.33337876 0.86720115 0.28649703
v -1.10329187 -0.27660584 0.48596701
v -1.08244324 -0.41977718 -0.00024715
v -1.04544091 -0.45576954 0.55270737
v -0.81998092 -0.76654154 -0.07188842
v -0.96085036 -0.57026082 0.7245754
v -1.02159202 -0.55312043 0.02170279
v 0.87846875 -0.33006349 -0.20516528
v 0.33020112 -0.33079317 -1.11095083
v 1.01829004 -0.11300196 -0.5629701
v 0.21908483 -0.32637 -1.18747962
v 0.23097113 -0.13245584 -1.28549409
v 0.33020112 -0.33079317 -1.11095083
v 0.21908483 -0.32637 -1.18747962
v -0.12675409 -0.35254076 -1.23100317
v 0.08155561 -0.28787175 -1.25381386
v 0.75855094 -0.0969827 -0.97622788
v 0.36720175 0.12282196 -1.33442748
v 0.72149885 0.22259928 -1.14996994
v 0.90949219 0.18775296 -0.76756483
v 0.90048176 -0.08011599 -0.8436591
v 0.77259493 0.2266957 -1.06592822
v 0.16801368 0.9409554 -0.75410956
v -0.42860186 0.96709466 -0.42061132
v -0.3445569 0.98209059 -0.35302174
v 0.51293212 -0.72720087 0.27508494
v 0.36818689 -0.84820175 0.38222921
v 0.1769512 -0.93473935 0.28135893
v 0.1769512 -0.93473935 0.28135893
v 0.87846875 -0.33006349 -0.20516528
v 0.51293212 -0.72720087 0.27508494
v 0.87846875 -0.33006349 -0.20516528
v 0.1769512 -0.93473935 0.28135893
v -0.1034359 -1.00911713 0.01986681
v 1.02806175 -0.1596168 -0.41458118
v 0.98771602 -0.21570154 -0.33351982
v 1.01538098 -0.15277888 -0.46061057
v 1.01609743 -0.17763449 -0.39172408
v 1.01267445 -0.180842 -0.38213807
v 1.01092803 -0.17950526 -0.37837335
v 0.16801368 0.9409554 -0.75410956
v 0.38891119 0.66015029 -0.9970997
v 0.16128689 0.83510971 -0.94510978
v 1.02806175 -0.1596168 -0.41458118
v 1.04387534 0.1860646 -0.42384708
v 0.89538193 -0.32896397 -0.1442859
v 1.01829004 -0.11300196 -0.5629701
v 1.05059206 -0.1042734 -0.48416758
v 1.01538098 -0.15277888 -0.46061057
v 0.87846875 -0.33006349 -0.20516528
v 0.98771602 -0.21570154 -0.33351982
v 0.89538193 -0.32896397 -0.1442859
v 0.51293212 -0.72720087 0.27508494
v 0.72536975 -0.5533393 0.21610951
v 0.63834453 -0.62546319 0.26223174
v 0.87846875 -0.33006349 -0.20516528
v 0.72536975 -0.5533393 0.21610951
v 0.51293212 -0.72720087 0.27508494
v 0.12721016 -0.36581543 1.27922666
v 0.07465137 -0.47176889 1.21921802
v 0.21191025 -0.30503884 1.22423315
v 1.01267445 -0.180842 -0.38213807
v 1.0149647 -0.17975071 -0.38770393
v 1.01609743 -0.17763449 -0.39172408
v -0.52957326 -0.26106414 -0.88612109
v -0.22001854 -0.14308999 -1.2983439
v -0.22796597 -0.42255673 -1.09537947
v -1.13480461 -0.23092139 -0.09023114
v -1.10329187 -0.27660584 0.48596701
v -1.16605699 -0.04811244 0.16723423
v -0.29723558 0.04863828 -1.32756138
v -0.53113389 0.23460665 -1.17508924
v -0.45698836 0.39823365 -1.16764092
v 0.48257205 0.71756679 -0.63059449
v 0.38891119 0.66015029 -0.9970997
v 0.16801368 0.9409554 -0.75410956
v 0.16128689 0.83510971 -0.94510978
v 0.11621281 0.93016869 -0.78056896
v 0.16801368 0.9409554 -0.75410956
v 0.0701088 1.01008403 -0.13182066
v 0.255427 0.99775493 -0.39019483
v -0.05037624 1.01800323 -0.20753844
v -0.1034359 -1.00911713 0.01986681
v -0.15979095 -0.93390191 -0.28060782
v 0.87846875 -0.33006349 -0.20516528
v -0.15979095 -0.93390191 -0.28060782
v -0.28447857 -0.86644983 -0.51487768
v -0.1768401 -0.83952117 -0.54642683
v -1.14625967 0.15932663 -0.34983921
v -1.01459157 0.20656665 0.17613196
v -0.94861233 0.45286715 -0.50839621
v -0.94861233 0.45286715 -0.50839621
v -1.01459157 0.20656665 0.17613196
v -0.80482578 0.44879884 0.18505129
v -0.70540172 0.74021828 -0.5803625
v -0.42860186 0.96709466 -0.42061132
v -0.186106 0.70735723 -0.94754106
v -0.186106 0.70735723 -0.94754106
v -0.42860186 0.96709466 -0.42061132
v 0.11621281 0.93016869 -0.78056896
v 0.83855426 0.30535394 -0.77678269
v 0.90949219 0.18775296 -0.76756483
v 0.77259493 0.2266957 -1.06592822
v 0.72149885 0.22259928 -1.14996994
v 0.36720175 0.12282196 -1.33442748
v 0.65443671 0.23135769 -1.19085968
v 0.23097113 -0.13245584 -1.28549409
v 0.22651646 0.12363463 -1.37194717
v 0.36720175 0.12282196 -1.33442748
v -0.22001854 -0.14308999 -1.2983439
v -0.16487087 0.083594 -1.36365807
v 0.22651646 0.12363463 -1.37194717
v 0.23097113 -0.13245584 -1.28549409
v 0.21908483 -0.32637 -1.18747962
v 0.08155561 -0.28787175 -1.25381386
v -0.22001854 -0.14308999 -1.2983439
v 0.08155561 -0.28787175 -1.25381386
v -0.12675409 -0.35254076 -1.23100317
v -0.26437286 -0.60076845 -0.90654528
v -0.22796597 -0.42255673 -1.09537947
v -1.14625967 0.15932663 -0.34983921
v -1.07242274 0.28126451 -0.46226737
v -1.05662739 0.23022157 -0.51568031
v -0.53113389 0.23460665 -1.17508924
v -0.66846412 -0.00167664 -0.89904231
v -0.67276788 0.24073139 -1.01646411
v -0.67276788 0.24073139 -1.01646411
v -0.45698836 0.39823365 -1.16764092
v -0.53113389 0.23460665 -1.17508924
v -0.45698836 0.39823365 -1.16764092
v -0.06173846 0.57735753 -1.18190384
v -0.16254401 0.42753398 -1.29060876
v 0.0864929 0.64610803 -1.12543941
v -0.03490099 0.38464412 -1.31252885
v -0.06173846 0.57735753 -1.18190384
v 0.42995191 0.5475232 -1.09695661
v 0.65443671 0.23135769 -1.19085968
v 0.34512243 0.1769978 -1.334993
v 0.48257205 0.71756679 -0.63059449
v 0.16801368 0.9409554 -0.75410956
v 0.255427 0.99775493 -0.39019483
v 0.11621281 0.93016869 -0.78056896
v 0.16128689 0.83510971 -0.94510978
v -0.186106 0.70735723 -0.94754106
v -0.78815144 0.64586586 -0.58764654
v -1.07242274 0.28126451 -0.46226737
v -0.94861233 0.45286715 -0.50839621
v -0.78815144 0.64586586 -0.58764654
v -0.55863309 0.47201434 -1.01841784
v -1.07242274 0.28126451 -0.46226737
v -0.186106 0.70735723 -0.94754106
v 0.16128689 0.83510971 -0.94510978
v -0.06173846 0.57735753 -1.18190384
v -0.66846412 -0.00167664 -0.89904231
v -0.22001854 -0.14308999 -1.2983439
v -0.52957326 -0.26106414 -0.88612109
v -0.03490099 0.38464412 -1.31252885
v 0.0864929 0.64610803 -1.12543941
v 0.19961098 0.43704039 -1.23526537
v -0.03490099 0.38464412 -1.31252885
v -0.04318343 0.24720114 -1.37445652
v -0.16254401 0.42753398 -1.29060876
v 0.34512243 0.1769978 -1.334993
v 0.22651646 0.12363463 -1.37194717
v -0.04318343 0.24720114 -1.37445652
v 0.34512243 0.1769978 -1.334993
v 0.19961098 0.43704039 -1.23526537
v 0.42995191 0.5475232 -1.09695661
v 0.0864929 0.64610803 -1.12543941
v -0.06173846 0.57735753 -1.18190384
v 0.16128689 0.83510971 -0.94510978
v -1.13480461 -0.23092139 -0.09023114
v -1.18357551 0.05763045 -0.23217189
v -0.7594133 -0.17251475 -0.67141628
v -0.7594133 -0.17251475 -0.67141628
v -0.81998092 -0.76654154 -0.07188842
v -1.02159202 -0.55312043 0.02170279
v -0.39240065 -0.74382865 -0.63863158
v -0.36231753 -0.83791411 -0.5837028
v -0.73039496 -0.8432644 -0.12356161
v -0.1768401 -0.83952117 -0.54642683
v -0.36231753 -0.83791411 -0.5837028
v -0.29231653 -0.75063509 -0.70190579
v -0.15979095 -0.93390191 -0.28060782
v 0.33020112 -0.33079317 -1.11095083
v 0.36818689 -0.84820175 0.38222921
v -0.08530211 -1.05151105 0.18834488
v 0.1769512 -0.93473935 0.28135893
v -0.08530211 -1.05151105 0.18834488
v 0.36818689 -0.84820175 0.38222921
v 0.13043092 -0.94380462 0.6009326
v 0.13043092 -0.94380462 0.6009326
v -0.17679532 -1.08035374 0.42218688
v -0.08530211 -1.05151105 0.18834488
v -0.17679532 -1.08035374 0.42218688
v -0.40299499 -1.01290679 0.53606623
v -0.43650618 -1.02427721 0.46586287
v -1.08244324 -0.41977718 -0.00024715
v -1.13480461 -0.23092139 -0.09023114
v -1.02159202 -0.55312043 0.02170279
v -0.81998092 -0.76654154 -0.07188842
v -0.73039496 -0.8432644 -0.12356161
v -0.63386995 -0.9133715 0.12531613
v -0.63386995 -0.9133715 0.12531613
v -0.96085036 -0.57026082 0.7245754
v -0.81998092 -0.76654154 -0.07188842
v -0.63386995 -0.9133715 0.12531613
v -0.1034359 -1.00911713 0.01986681
v -0.17679532 -1.08035374 0.42218688
v -0.17679532 -1.08035374 0.42218688
v -0.43650618 -1.02427721 0.46586287
v -0.63386995 -0.9133715 0.12531613
v -0.1034359 -1.00911713 0.01986681
v -0.63386995 -0.9133715 0.12531613
v -0.36231753 -0.83791411 -0.5837028
v -0.36231753 -0.83791411 -0.5837028
v -0.63386995 -0.9133715 0.12531613
v -0.73039496 -0.8432644 -0.12356161
v -1.16605699 -0.04811244 0.16723423
v -1.11821496 -0.09789665 0.63055474
v -1.18323052 0.05577129 -0.13775311
v -1.18323052 0.05577129 -0.13775311
v -1.11821496 -0.09789665 0.63055474
v -1.01459157 0.20656665 0.17613196
v -0.05037624 1.01800323 -0.20753844
v 0.16801368 0.9409554 -0.75410956
v -0.3445569 0.98209059 -0.35302174
v -0.05037624 1.01800323 -0.20753844
v 0.255427 0.99775493 -0.39019483
v 0.16801368 0.9409554 -0.75410956
v 0.46570039 0.87853694 -0.10257011
v 0.66599631 0.66576087 -0.26382554
v 0.44653997 0.90722692 -0.14540195
v 0.33337876 0.86720115 0.28649703
v 1.02231181 0.23440425 -0.41985345
v 0.46570039 0.87853694 -0.10257011
v 0.46570039 0.87853694 -0.10257011
v 1.02231181 0.23440425 -0.41985345
v 0.66599631 0.66576087 -0.26382554
v 0.66599631 0.66576087 -0.26382554
v 1.02231181 0.23440425 -0.41985345
v 0.83855426 0.30535394 -0.77678269
v 0.83855426 0.30535394 -0.77678269
v 0.48257205 0.71756679 -0.63059449
v 0.66599631 0.66576087 -0.26382554
v 0.77259493 0.2266957 -1.06592822
v 0.90048176 -0.08011599 -0.8436591
v 0.72149885 0.22259928 -1.14996994
v 0.75855094 -0.0969827 -0.97622788
v 0.33020112 -0.33079317 -1.11095083
v 0.23097113 -0.13245584 -1.28549409
v -0.39240065 -0.74382865 -0.63863158
v -0.7594133 -0.17251475 -0.67141628
v -0.52957326 -0.26106414 -0.88612109
v -0.7594133 -0.17251475 -0.67141628
v -0.73039496 -0.8432644 -0.12356161
v -0.81998092 -0.76654154 -0.07188842
v -0.1768401 -0.83952117 -0.54642683
v -0.29231653 -0.75063509 -0.70190579
v -0.26437286 -0.60076845 -0.90654528
v 0.90048176 -0.08011599 -0.8436591
v 1.05059206 -0.1042734 -0.48416758
v 1.01829004 -0.11300196 -0.5629701
v 1.05059206 -0.1042734 -0.48416758
v 0.90048176 -0.08011599 -0.8436591
v 0.90949219 0.18775296 -0.76756483
v 1.04387534 0.1860646 -0.42384708
v 1.02231181 0.23440425 -0.41985345
v 0.9180218 0.24825253 -0.16411626
v 0.9180218 0.24825253 -0.16411626
v 0.89538193 -0.32896397 -0.1442859
v 1.04387534 0.1860646 -0.42384708
v 0.13043092 -0.94380462 0.6009326
v -0.15160306 -0.79473907 0.88602656
v -0.17679532 -1.08035374 0.42218688
v -0.17679532 -1.08035374 0.42218688
v -0.15160306 -0.79473907 0.88602656
v -0.40299499 -1.01290679 0.53606623
v -1.01595652 -0.01099743 0.75863558
v -1.01459157 0.20656665 0.17613196
v -1.11821496 -0.09789665 0.63055474
v -0.3445569 0.98209059 -0.35302174
v -0.0814959 0.93297637 0.52848047
v -0.05866531 0.93383706 0.54795599
v 0.44653997 0.90722692 -0.14540195
v 0.255427 0.99775493 -0.39019483
v 0.0701088 1.01008403 -0.13182066
v 0.33337876 0.86720115 0.28649703
v 0.46570039 0.87853694 -0.10257011
v 0.44653997 0.90722692 -0.14540195
v 0.33337876 0.86720115 0.28649703
v 0.72033793 0.30367213 0.28418177
v 0.9180218 0.24825253 -0.16411626
v 0.46468204 -0.37124854 0.7986148
v 0.63834453 -0.62546319 0.26223174
v 0.72536975 -0.5533393 0.21610951
v 0.46468204 -0.37124854 0.7986148
v 0.36818689 -0.84820175 0.38222921
v 0.63834453 -0.62546319 0.26223174
v 0.13043092 -0.94380462 0.6009326
v 0.05354393 -0.69523376 0.96935177
v -0.15160306 -0.79473907 0.88602656
v -0.40299499 -1.01290679 0.53606623
v -0.15160306 -0.79473907 0.88602656
v -0.59939021 -0.78124237 0.97734886
v -0.40299499 -1.01290679 0.53606623
v -0.59939021 -0.78124237 0.97734886
v -0.43650618 -1.02427721 0.46586287
v -0.96085036 -0.57026082 0.7245754
v -0.95405221 -0.4934651 1.30625653
v -1.04544091 -0.45576954 0.55270737
v -1.01595652 -0.01099743 0.75863558
v -0.84339035 0.14170687 0.86425573
v -0.80482578 0.44879884 0.18505129
v -0.80482578 0.44879884 0.18505129
v -1.01459157 0.20656665 0.17613196
v -1.01595652 -0.01099743 0.75863558
v -0.80482578 0.44879884 0.18505129
v -0.84339035 0.14170687 0.86425573
v -0.62656766 0.30336526 0.97863758
v -0.57540029 0.62081784 0.31615394
v -0.62656766 0.30336526 0.97863758
v -0.36310863 0.58866489 0.83853287
v 0.18379906 0.8671298 0.53672314
v -0.12701115 0.83783782 0.63487512
v -0.44009015 0.41729766 1.05153096
v 0.50741768 0.36075523 0.76196593
v 0.72033793 0.30367213 0.28418177
v 0.33337876 0.86720115 0.28649703
v -0.15160306 -0.79473907 0.88602656
v -0.58812416 -0.64025527 1.2201699
v -0.59939021 -0.78124237 0.97734886
v -0.15160306 -0.79473907 0.88602656
v -0.36944237 -0.55610746 1.28849089
v -0.58812416 -0.64025527 1.2201699
v -0.59939021 -0.78124237 0.97734886
v -0.84916186 -0.60259622 1.24879694
v -0.73655289 -0.73191756 1.03115642
v -1.10329187 -0.27660584 0.48596701
v -1.02674663 -0.23285033 1.20663178
v -1.11821496 -0.09789665 0.63055474
v -0.36310863 0.58866489 0.83853287
v -0.44009015 0.41729766 1.05153096
v -0.12701115 0.83783782 0.63487512
v 0.26847592 0.82443231 0.54129553
v -0.10538295 0.3773433 0.9793309
v 0.43733543 0.47393137 0.72314095
v 0.51351589 0.01192936 0.74097288
v 0.50741768 0.36075523 0.76196593
v 0.38674358 0.04334256 0.99093193
v 0.3055031 -0.18278088 1.12851584
v 0.46468204 -0.37124854 0.7986148
v 0.51351589 0.01192936 0.74097288
v -0.36944237 -0.55610746 1.28849089
v 0.05354393 -0.69523376 0.96935177
v 0.08089388 -0.62176484 1.04716086
v -0.36944237 -0.55610746 1.28849089
v -0.15160306 -0.79473907 0.88602656
v 0.05354393 -0.69523376 0.96935177
v 0.21191025 -0.30503884 1.22423315
v 0.08089388 -0.62176484 1.04716086
v 0.46468204 -0.37124854 0.7986148
v 0.46468204 -0.37124854 0.7986148
v 0.32912478 -0.29626715 1.06900966
v 0.21191025 -0.30503884 1.22423315
v -0.36944237 -0.55610746 1.28849089
v -0.69914424 -0.42254865 1.51943219
v -0.58812416 -0.64025527 1.2201699
v -0.58812416 -0.64025527 1.2201699
v -0.69914424 -0.42254865 1.51943219
v -0.85261649 -0.44798306 1.48870564
v -0.95405221 -0.4934651 1.30625653
v -0.94301671 -0.36544558 1.53692091
v -1.02674663 -0.23285033 1.20663178
v -1.02674663 -0.23285033 1.20663178
v -1.10329187 -0.27660584 0.48596701
v -0.95405221 -0.4934651 1.30625653
v -0.84339035 0.14170687 0.86425573
v -0.78722769 -0.01989852 1.33772612
v -0.62656766 0.30336526 0.97863758
v 0.38674358 0.04334256 0.99093193
v 0.12492645 0.15126133 1.04271948
v -0.4122327 -0.2182491 1.47251391
v -0.24508643 -0.3484661 1.44531488
v -0.58346552 -0.31388521 1.57797313
v -0.44289961 -0.42788392 1.45666218
v -0.69914424 -0.42254865 1.51943219
v -0.36944237 -0.55610746 1.28849089
v -0.44289961 -0.42788392 1.45666218
v -0.93373418 -0.45996389 1.44342422
v -0.85261649 -0.44798306 1.48870564
v -0.94301671 -0.36544558 1.53692091
v -0.94301671 -0.36544558 1.53692091
v -0.95405221 -0.4934651 1.30625653
v -0.93373418 -0.45996389 1.44342422
v -0.94301671 -0.36544558 1.53692091
v -0.95431095 -0.29381761 1.52173913
v -1.02674663 -0.23285033 1.20663178
v -0.95431095 -0.29381761 1.52173913
v -0.78722769 -0.01989852 1.33772612
v -0.84339035 0.14170687 0.86425573
v -0.62656766 0.30336526 0.97863758
v -0.61662841 0.13869999 1.32485473
v -0.44009015 0.41729766 1.05153096
v 0.12492645 0.15126133 1.04271948
v -0.10538295 0.3773433 0.9793309
v -0.41427928 0.02435794 1.33862174
v -0.41427928 0.02435794 1.33862174
v -0.4122327 -0.2182491 1.47251391
v 0.12492645 0.15126133 1.04271948
v -0.80319381 -0.28271747 1.62554324
v -0.87225449 -0.33177853 1.59192252
v -0.69914424 -0.42254865 1.51943219
v -0.87225449 -0.33177853 1.59192252
v -0.85261649 -0.44798306 1.48870564
v -0.69914424 -0.42254865 1.51943219
v -0.87225449 -0.33177853 1.59192252
v -0.94301671 -0.36544558 1.53692091
v -0.85261649 -0.44798306 1.48870564
v -0.78722769 -0.01989852 1.33772612
v -0.61662841 0.13869999 1.32485473
v -0.62656766 0.30336526 0.97863758
v -0.61662841 0.13869999 1.32485473
v -0.10538295 0.3773433 0.9793309
v -0.44009015 0.41729766 1.05153096
v -0.71298927 -0.21955268 1.58327699
v -0.58346552 -0.31388521 1.57797313
v -0.4122327 -0.2182491 1.47251391
v -0.71298927 -0.21955268 1.58327699
v -0.80319381 -0.28271747 1.62554324
v -0.58346552 -0.31388521 1.57797313
v -0.41427928 0.02435794 1.33862174
v -0.71452332 -0.02414092 1.46682858
v -0.71298927 -0.21955268 1.58327699
v -0.71452332 -0.02414092 1.46682858
v -0.79470575 -0.17388816 1.57882226
v -0.71298927 -0.21955268 1.58327699
v -0.83782452 -0.22757472 1.60958207
v -0.78722769 -0.01989852 1.33772612
v -0.95431095 -0.29381761 1.52173913
v 0.12492645 0.15126133 1.04271948
v 0.38674358 0.04334256 0.99093193
v 0.50741768 0.36075523 0.76196593
v 0.46468204 -0.37124854 0.7986148
v 0.3055031 -0.18278088 1.12851584
v 0.32912478 -0.29626715 1.06900966
v 0.33337876 0.86720115 0.28649703
v 0.26847592 0.82443231 0.54129553
v 0.50741768 0.36075523 0.76196593
v -0.12701115 0.83783782 0.63487512
v -0.05866531 0.93383706 0.54795599
v -0.0814959 0.93297637 0.52848047
v -0.36310863 0.58866489 0.83853287
v -0.0814959 0.93297637 0.52848047
v -0.31981242 0.92020285 0.0617286
v -0.0814959 0.93297637 0.52848047
v -0.3445569 0.98209059 -0.35302174
v -0.31981242 0.92020285 0.0617286
v 0.33337876 0.86720115 0.28649703
v 0.44653997 0.90722692 -0.14540195
v 0.18379906 0.8671298 0.53672314
v -0.31981242 0.92020285 0.0617286
v -0.68593782 0.58814746 0.1035985
v 0.43733543 0.47393137 0.72314095
v 0.50741768 0.36075523 0.76196593
v 0.26847592 0.82443231 0.54129553
v -1.04544091 -0.45576954 0.55270737
v -1.08244324 -0.41977718 -0.00024715
v -1.02159202 -0.55312043 0.02170279
v -1.02159202 -0.55312043 0.02170279
v -0.96085036 -0.57026082 0.7245754
v -1.04544091 -0.45576954 0.55270737
v 0.83855426 0.30535394 -0.77678269
v 1.04387534 0.1860646 -0.42384708
v 0.90949219 0.18775296 -0.76756483
v 0.90048176 -0.08011599 -0.8436591
v 1.01829004 -0.11300196 -0.5629701
v 0.33020112 -0.33079317 -1.11095083
v 0.90048176 -0.08011599 -0.8436591
v 0.33020112 -0.33079317 -1.11095083
v 0.75855094 -0.0969827 -0.97622788
v -0.1768401 -0.83952117 -0.54642683
v -0.26437286 -0.60076845 -0.90654528
v -0.12675409 -0.35254076 -1.23100317
v -0.29231653 -0.75063509 -0.70190579
v -0.39240065 -0.74382865 -0.63863158
v -0.26437286 -0.60076845 -0.90654528
v 0.75855094 -0.0969827 -0.97622788
v 0.23097113 -0.13245584 -1.28549409
v 0.36720175 0.12282196 -1.33442748
v -1.18323052 0.05577129 -0.13775311
v -1.01459157 0.20656665 0.17613196
v -1.14625967 0.15932663 -0.34983921
v -1.18323052 0.05577129 -0.13775311
v -1.13480461 -0.23092139 -0.09023114
v -1.16605699 -0.04811244 0.16723423
v 1.01609743 -0.17763449 -0.39172408
v 1.0149647 -0.17975071 -0.38770393
v 1.01267445 -0.180842 -0.38213807
v 0.89538193 -0.32896397 -0.1442859
v 0.98771602 -0.21570154 -0.33351982
v 1.02806175 -0.1596168 -0.41458118
v -0.78722769 -0.01989852 1.33772612
v -0.83782452 -0.22757472 1.60958207
v -0.71452332 -0.02414092 1.46682858
v 1.01538098 -0.15277888 -0.46061057
v 1.05059206 -0.1042734 -0.48416758
v 1.02806175 -0.1596168 -0.41458118
v 0.87846875 -0.33006349 -0.20516528
v 0.89538193 -0.32896397 -0.1442859
v 0.72536975 -0.5533393 0.21610951
v 0.32912478 -0.29626715 1.06900966
v 0.3055031 -0.18278088 1.12851584
v 0.21191025 -0.30503884 1.22423315
vn -0.76173 -0.64331 0.0769
vn -0.45592 -0.88828 -0.05566
vn -0.42125 -0.86372 0.27664
vn 0.57042 -0.80453 -0.16539
vn 0.6862 -0.68724 0.23839
vn 0.60653 -0.78296 0.13815
vn -0.05794 0.21231 -0.97548
vn 0.14475 -0.02734 -0.98909
vn -0.15508 -0.06914 -0.98548
vn -0.058 0.21236 -0.97547
vn -0.15517 -0.06909 -0.98547
vn -0.47719 -0.12559 -0.86978
vn -0.4772 -0.12555 -0.86978
vn -0.23281 0.48701 -0.8418
vn -0.058 0.21235 -0.97547
vn -0.48172 0.47056 -0.73927
vn -0.2328 0.48702 -0.84179
vn -0.47724 -0.12555 -0.86976
vn 0.39873 0.59895 -0.69446
vn 0.09549 0.62854 -0.7719
vn 0.11496 0.79761 -0.59211
vn 0.5415 0.7097 -0.45066
vn 0.39875 0.599 -0.69441
vn 0.11497 0.79763 -0.59208
vn 0.81382 -0.44405 -0.37486
vn 0.58904 -0.75364 -0.29165
vn 0.84016 -0.53944 0.05607
vn 0.56085 -0.79433 -0.23345
vn 0.81382 -0.44406 -0.37484
vn 0.84015 -0.53945 0.05605
vn -0.90861 -0.32729 -0.25942
vn -0.72652 -0.41017 -0.5513
vn -0.8167 -0.54057 -0.20194
vn -0.96721 -0.05306 -0.24839
vn -0.90865 -0.32724 -0.25938
vn -0.97004 0.22985 0.07865
vn -0.97003 0.22993 0.07863
vn -0.95342 0.15863 -0.25657
vn -0.96719 -0.05304 -0.24845
vn -0.95341 0.15853 -0.25666
vn -0.80422 0.5542 -0.21471
vn -0.86317 0.44772 -0.23341
vn -0.71009 0.67039 0.21528
vn -0.61491 0.74788 -0.2501
vn -0.8042 0.55421 -0.21475
vn -0.41571 0.9001 -0.13041
vn 0.2762 0.90889 -0.31247
vn -0.12024 0.89597 -0.42753
vn 0.55509 0.83113 0.03322
vn 0.65746 0.70759 -0.25896
vn 0.33874 0.93256 -0.12486
vn 0.65747 0.70758 -0.25896
vn 0.55509 0.83112 0.03321
vn 0.75558 0.65495 -0.01236
vn 0.75529 0.58741 -0.29066
vn 0.84261 0.30062 -0.44681
vn 0.60238 0.5949 -0.5322
vn 0.68237 0.10952 -0.72276
vn 0.60241 0.59486 -0.5322
vn 0.84261 0.3006 -0.44682
vn 0.47323 0.19732 -0.85855
vn 0.60234 0.59489 -0.53225
vn 0.68236 0.10957 -0.72276
vn 0.38982 -0.1442 -0.90953
vn 0.2801 0.28881 -0.91549
vn 0.47317 0.19725 -0.8586
vn 0.31211 -0.3799 -0.87078
vn 0.12193 -0.49237 -0.8618
vn 0.14481 -0.02738 -0.98908
vn -0.36707 -0.36567 -0.8553
vn 0.14478 -0.02738 -0.98908
vn 0.12187 -0.49239 -0.8618
vn -0.2981 -0.71567 -0.63162
vn -0.57099 -0.51986 -0.63539
vn -0.17351 -0.59905 -0.78169
vn -0.96719 -0.05303 -0.24845
vn -0.95342 0.15861 -0.25658
vn -0.72653 -0.41014 -0.55131
vn -0.82322 0.01343 -0.56756
vn -0.72651 -0.41017 -0.55131
vn -0.95343 0.1586 -0.25656
vn -0.71978 -0.3515 -0.59863
vn -0.72651 -0.41016 -0.55132
vn -0.82323 0.01341 -0.56755
vn -0.17351 -0.59904 -0.78169
vn -0.57101 -0.51986 -0.63537
vn -0.36719 -0.36567 -0.85525
vn -0.15515 -0.06921 -0.98546
vn -0.36709 -0.36562 -0.85532
vn -0.47719 -0.12559 -0.86978
vn -0.47724 -0.12563 -0.86975
vn -0.36716 -0.36568 -0.85526
vn -0.71978 -0.3515 -0.59863
vn -0.71977 -0.3515 -0.59865
vn -0.65138 0.02904 -0.7582
vn -0.47723 -0.12565 -0.86975
vn -0.56558 0.55565 -0.6094
vn -0.48176 0.47056 -0.73924
vn -0.77028 0.02836 -0.63707
vn -0.48169 0.47063 -0.73924
vn -0.31808 0.76315 -0.56251
vn -0.15102 0.67806 -0.71933
vn 0.09548 0.62853 -0.77191
vn 0.39874 0.59894 -0.69446
vn 0.21306 0.49431 -0.84277
vn 0.60234 0.59487 -0.53227
vn 0.4732 0.19733 -0.85857
vn 0.39878 0.59892 -0.69445
vn 0.60237 0.59493 -0.53217
vn 0.54157 0.70972 -0.45056
vn 0.75527 0.58743 -0.29066
vn 0.54156 0.70971 -0.45058
vn 0.65747 0.70757 -0.25898
vn 0.75525 0.58745 -0.29067
vn -0.56558 0.55568 -0.60937
vn -0.75476 0.58825 -0.29037
vn -0.61495 0.74784 -0.25014
vn -0.61487 0.74791 -0.25014
vn -0.3181 0.76314 -0.56252
vn -0.56553 0.55571 -0.6094
vn -0.75478 0.58824 -0.2903
vn -0.80419 0.55422 -0.21473
vn -0.61492 0.74789 -0.25008
vn -0.56559 0.55565 -0.60939
vn -0.77027 0.02838 -0.63709
vn -0.86315 0.44772 -0.2335
vn -0.56554 0.5557 -0.60939
vn -0.31808 0.76316 -0.56251
vn -0.48169 0.47064 -0.73923
vn -0.86315 0.44772 -0.23348
vn -0.77028 0.02837 -0.63707
vn -0.82324 0.01352 -0.56753
vn -0.7703 0.02827 -0.63705
vn -0.71977 -0.35151 -0.59864
vn -0.82322 0.01339 -0.56756
vn -0.68049 -0.43973 -0.58614
vn -0.72652 -0.41015 -0.55131
vn -0.71977 -0.35151 -0.59864
vn 0.39881 0.59897 -0.6944
vn 0.54153 0.70972 -0.4506
vn 0.60237 0.59488 -0.53223
vn 0.08353 0.47011 -0.87865
vn 0.21307 0.49433 -0.84276
vn 0.28007 0.28884 -0.9155
vn 0.28003 0.28883 -0.91551
vn -0.0579 0.21237 -0.97547
vn 0.08353 0.47007 -0.87867
vn 0.14487 -0.02729 -0.98907
vn 0.28009 0.28877 -0.91551
vn 0.3898 -0.14417 -0.90954
vn 0.08347 0.47014 -0.87863
vn -0.23274 0.48705 -0.84179
vn -0.15094 0.67804 -0.71936
vn 0.26352 -0.86761 -0.42167
vn -0.0336 -0.95028 -0.30957
vn -0.30798 -0.80596 -0.50554
vn 0.46455 -0.68447 -0.56186
vn 0.19132 -0.94084 -0.27967
vn 0.26358 -0.86761 -0.42165
vn 0.96328 -0.24073 -0.1189
vn 0.89053 0.27621 -0.36149
vn 0.97812 0.20532 0.03362
vn 0.97812 0.2053 0.03367
vn 0.88385 -0.46362 0.06216
vn 0.96327 -0.24076 -0.11891
vn 0.88342 -0.44571 0.14463
vn 0.88737 0.27338 0.37126
vn 0.89173 0.27432 0.35997
vn 0.88343 -0.44568 0.14462
vn 0.89175 0.27429 0.35993
vn 0.90203 -0.02783 0.43078
vn 0.90203 -0.02784 0.43077
vn 0.83791 -0.51214 0.18873
vn 0.88343 -0.44568 0.14464
vn -0.90368 -0.38319 -0.19112
vn -0.97146 -0.22481 0.07567
vn -0.90865 -0.32723 -0.25938
vn 0.03851 -0.98974 0.13756
vn 0.1581 -0.95205 -0.26193
vn 0.15204 -0.97313 -0.17294
vn 0.15212 -0.97311 -0.17295
vn 0.15817 -0.95203 -0.26195
vn 0.4536 -0.88124 -0.13288
vn 0.15807 -0.95206 -0.2619
vn -0.30802 -0.806 -0.50546
vn 0.19123 -0.94086 -0.27967
vn 0.19121 -0.94087 -0.27967
vn -0.30805 -0.80599 -0.50545
vn -0.03365 -0.9503 -0.30951
vn -0.61491 0.74789 -0.25009
vn -0.7101 0.67038 0.21529
vn -0.67055 0.713 0.20494
vn -0.41577 0.90008 -0.13039
vn -0.6149 0.74789 -0.25012
vn -0.67057 0.71299 0.20492
vn 0.78786 -0.40865 -0.46074
vn 0.57897 -0.50183 -0.64262
vn 0.6824 0.10949 -0.72273
vn 0.32536 -0.64351 -0.69285
vn 0.46451 -0.68445 -0.56192
vn 0.26357 -0.86759 -0.42168
vn 0.26353 -0.8676 -0.42169
vn -0.17344 -0.59905 -0.7817
vn 0.32531 -0.64349 -0.69289
vn -0.60064 -0.53735 -0.59201
vn -0.6805 -0.43971 -0.58615
vn -0.29806 -0.71569 -0.63162
vn -0.60068 -0.53732 -0.592
vn -0.56104 -0.77549 -0.28956
vn -0.72651 -0.41016 -0.55132
vn -0.30804 -0.80595 -0.50552
vn -0.6006 -0.53736 -0.59205
vn -0.12426 -0.78221 -0.6105
vn 0.9781 0.20539 0.03367
vn 0.7553 0.58739 -0.29068
vn 0.86325 0.50464 -0.01153
vn -0.36152 -0.92936 0.0748
vn -0.42128 -0.86371 0.27664
vn -0.45592 -0.88828 -0.05567
vn -0.97146 -0.22481 0.07567
vn -0.95731 0.22771 0.17806
vn -0.99705 -0.01226 0.07573
vn -0.71009 0.6704 0.21528
vn -0.63702 0.72374 0.26534
vn -0.67055 0.71299 0.20494
vn -0.41576 0.90007 -0.13042
vn -0.67055 0.713 0.20494
vn -0.50907 0.83511 0.20844
vn -0.50902 0.83514 0.20842
vn -0.16806 0.98577 0.0036
vn -0.41573 0.9001 -0.13036
vn -0.16801 0.98578 0.00357
vn -0.01586 0.8738 0.48603
vn -0.05766 0.99834 -0.00025
vn 0.1308 0.98628 0.10074
vn -0.05761 0.99834 -0.00024
vn -0.01586 0.87381 0.48601
vn -0.01585 0.87379 0.48604
vn 0.29519 0.81163 0.5041
vn 0.55503 0.83116 0.03331
vn 0.555 0.83118 0.03326
vn 0.13085 0.98627 0.10075
vn -0.01579 0.87379 0.48604
vn 0.55929 0.79381 0.23887
vn 0.88734 0.27347 0.37126
vn 0.86323 0.50469 -0.01141
vn 0.82117 -0.31001 0.47913
vn 0.8379 -0.51214 0.18876
vn 0.90202 -0.02783 0.43079
vn 0.82115 -0.31011 0.47911
vn 0.4662 -0.671 0.57656
vn 0.60658 -0.78292 0.13821
vn 0.41308 -0.82648 0.38248
vn 0.60654 -0.78295 0.13823
vn 0.46619 -0.67102 0.57655
vn -0.0576 -0.89132 0.4497
vn -0.42116 -0.86375 0.2767
vn -0.36144 -0.92939 0.07483
vn -0.83762 -0.51379 0.18552
vn -0.97146 -0.22479 0.07567
vn -0.91266 -0.40233 0.07197
vn -0.7101 0.67039 0.21528
vn -0.6302 0.70618 0.32274
vn -0.63702 0.72374 0.26533
vn -0.08932 0.72356 0.68446
vn -0.36173 0.89354 0.26597
vn -0.52192 0.75952 0.38823
vn 0.29517 0.81158 0.50419
vn -0.01583 0.87379 0.48605
vn -0.08924 0.72353 0.6845
vn 0.72313 0.35402 0.59309
vn 0.90202 -0.02784 0.4308
vn 0.89173 0.27433 0.35996
vn 0.46613 -0.67104 0.57656
vn 0.25701 -0.76963 0.58448
vn 0.41307 -0.82648 0.3825
vn -0.05756 -0.8913 0.44974
vn 0.03638 -0.83459 0.54966
vn -0.4073 -0.84426 0.34832
vn -0.40741 -0.84422 0.34829
vn -0.83759 -0.51383 0.18554
vn -0.76171 -0.64333 0.07691
vn -0.76173 -0.64331 0.07691
vn -0.42125 -0.86372 0.27666
vn -0.40738 -0.84423 0.34831
vn 0.51336 0.68653 0.51493
vn 0.29517 0.81159 0.50418
vn -0.19866 0.74339 0.63868
vn 0.67737 0.14317 0.72158
vn 0.90203 -0.02782 0.43077
vn 0.67615 0.22367 0.70199
vn 0.67611 0.22369 0.70202
vn 0.63643 -0.09813 0.76507
vn 0.67729 0.14323 0.72164
vn 0.63642 -0.09807 0.76508
vn 0.37699 -0.16571 0.91127
vn 0.54832 -0.27202 0.79079
vn 0.37706 -0.16575 0.91124
vn 0.44609 -0.63784 0.62783
vn 0.54829 -0.27205 0.7908
vn 0.17657 -0.76878 0.61466
vn 0.4661 -0.67103 0.5766
vn 0.44608 -0.63787 0.62781
vn 0.63643 -0.09812 0.76507
vn 0.44615 -0.63784 0.62779
vn 0.46618 -0.67101 0.57656
vn 0.44606 -0.63786 0.62782
vn 0.377 -0.16573 0.91127
vn 0.21247 -0.65535 0.72483
vn 0.2124 -0.65538 0.72482
vn 0.1766 -0.76875 0.61468
vn 0.44609 -0.63786 0.6278
vn -0.12268 -0.753 0.64649
vn -0.40733 -0.84424 0.34833
vn 0.03635 -0.83458 0.54968
vn -0.12273 -0.75299 0.64649
vn -0.62396 -0.64091 0.44711
vn -0.40734 -0.84423 0.34835
vn -0.4074 -0.84422 0.34832
vn -0.62397 -0.64092 0.44707
vn -0.83758 -0.51383 0.18558
vn -0.95729 0.22779 0.17808
vn -0.94895 0.21563 0.23023
vn -0.75704 0.60153 0.25504
vn -0.52199 0.75951 0.38817
vn -0.63022 0.70617 0.32272
vn -0.19865 0.74338 0.63869
vn 0.51337 0.68653 0.5149
vn -0.1987 0.74337 0.63868
vn 0.26768 0.55353 0.78864
vn 0.4753 0.5588 0.67958
vn 0.2677 0.5535 0.78865
vn 0.32602 0.48496 0.81149
vn 0.32601 0.48496 0.8115
vn 0.72314 0.35401 0.59308
vn 0.47531 0.55879 0.67958
vn 0.67612 0.2237 0.70201
vn 0.349 0.38517 0.85431
vn 0.63646 -0.09808 0.76504
vn 0.377 -0.16573 0.91126
vn 0.63645 -0.09813 0.76505
vn 0.34901 0.38517 0.8543
vn 0.34903 0.38513 0.85431
vn 0.27313 -0.13014 0.95313
vn 0.37704 -0.16572 0.91125
vn -0.94895 0.21557 0.23025
vn -0.849 0.24763 0.46677
vn -0.75706 0.60152 0.25503
vn -0.75704 0.60153 0.25505
vn -0.84899 0.24762 0.4668
vn -0.69711 0.65918 0.28199
vn 0.07137 -0.69097 0.71936
vn 0.21242 -0.65537 0.72482
vn 0.2731 -0.13016 0.95314
vn -0.35661 -0.33902 0.87057
vn -0.84899 0.24761 0.46681
vn -0.70689 -0.35537 0.61157
vn -0.35659 -0.33901 0.87058
vn -0.38005 0.43139 0.81821
vn -0.84899 0.24759 0.46682
vn -0.20502 0.7246 0.65797
vn 0.29794 0.50791 0.80825
vn 0.2677 0.55353 0.78864
vn -0.02385 -0.10486 0.9942
vn 0.07134 -0.69098 0.71935
vn 0.27308 -0.13018 0.95314
vn -0.38001 0.43138 0.81823
vn -0.35659 -0.33898 0.8706
vn -0.02385 -0.10487 0.9942
vn -0.02377 -0.10486 0.9942
vn 0.2461 0.39537 0.88494
vn -0.38001 0.43138 0.81823
vn 0.24607 0.39538 0.88494
vn -0.08796 0.58869 0.80356
vn -0.38003 0.43138 0.81822
vn 0.24614 0.39541 0.88491
vn 0.34902 0.38516 0.85431
vn 0.29794 0.50791 0.80824
vn -0.20502 0.72462 0.65794
vn -0.21313 0.68466 0.697
vn -0.08807 0.58873 0.80352
vn -0.21321 0.68466 0.69698
vn -0.38002 0.43144 0.81819
vn -0.21315 0.68468 0.69698
vn -0.20499 0.72462 0.65796
vn -0.66453 0.66535 0.34016
vn -0.52201 0.75951 0.38813
vn -0.50908 0.83509 0.20847
vn -0.63703 0.72374 0.26533
vn 0.29521 0.81162 0.50411
vn 0.51337 0.68658 0.51484
vn 0.55921 0.79386 0.23889
vn -0.97146 -0.22481 0.07567
vn -0.90368 -0.3832 -0.19111
vn -0.91266 -0.40234 0.07195
vn -0.73006 -0.63925 -0.2416
vn -0.76177 -0.64327 0.07691
vn -0.81671 -0.54058 -0.20187
vn 0.56084 -0.79433 -0.23345
vn 0.46455 -0.68446 -0.56188
vn 0.81381 -0.44405 -0.37488
vn 0.3254 -0.64344 -0.6929
vn 0.31218 -0.37993 -0.87074
vn 0.46454 -0.6844 -0.56196
vn 0.32532 -0.64349 -0.69289
vn -0.17346 -0.59907 -0.78168
vn 0.12189 -0.49247 -0.86175
vn 0.57894 -0.50185 -0.64263
vn 0.38984 -0.1443 -0.90951
vn 0.68238 0.10953 -0.72275
vn 0.89052 0.27622 -0.36148
vn 0.78786 -0.40866 -0.46073
vn 0.84263 0.30053 -0.44682
vn 0.27622 0.90889 -0.31245
vn -0.41572 0.9001 -0.13038
vn -0.16799 0.98578 0.00351
vn 0.57038 -0.80454 -0.16547
vn 0.60653 -0.78297 0.13817
vn 0.45363 -0.88123 -0.13286
vn 0.4536 -0.88125 -0.13287
vn 0.56086 -0.79432 -0.23344
vn 0.57037 -0.80454 -0.1655
vn 0.56081 -0.79434 -0.2335
vn 0.4536 -0.88125 -0.13284
vn 0.15819 -0.95204 -0.26191
vn 0.88383 -0.46365 0.06222
vn 0.84017 -0.53941 0.05603
vn 0.58904 -0.75364 -0.29164
vn -0.91612 -0.14246 -0.37474
vn -0.91612 -0.14246 -0.37474
vn -0.91612 -0.14246 -0.37474
vn 0.27631 0.90885 -0.31247
vn 0.54153 0.70971 -0.45062
vn 0.11499 0.79764 -0.59207
vn 0.88385 -0.46362 0.06219
vn 0.9781 0.20538 0.03368
vn 0.88342 -0.4457 0.14465
vn 0.81376 -0.44413 -0.37488
vn 0.96328 -0.24075 -0.11886
vn 0.5891 -0.7536 -0.29164
vn 0.56086 -0.79433 -0.23343
vn 0.84013 -0.53948 0.05604
vn 0.8834 -0.44573 0.14466
vn 0.57039 -0.80454 -0.16545
vn 0.8379 -0.51217 0.18869
vn 0.68622 -0.68721 0.23842
vn 0.56083 -0.79433 -0.23346
vn 0.83791 -0.51215 0.18869
vn 0.5704 -0.80453 -0.16547
vn 0.5483 -0.27203 0.7908
vn 0.44616 -0.63785 0.62777
vn 0.63645 -0.09804 0.76506
vn -0.90651 -0.13591 -0.39971
vn 0.64111 -0.61497 0.45912
vn -0.92627 -0.15617 -0.34297
vn -0.68049 -0.43971 -0.58617
vn -0.36718 -0.3657 -0.85525
vn -0.57104 -0.51982 -0.63538
vn -0.90865 -0.32726 -0.25934
vn -0.97146 -0.2248 0.07566
vn -0.99705 -0.01224 0.07574
vn -0.47724 -0.12556 -0.86976
vn -0.65131 0.02911 -0.75826
vn -0.48169 0.47056 -0.73929
vn 0.65746 0.70758 -0.25898
vn 0.54157 0.70972 -0.45055
vn 0.27629 0.90886 -0.31247
vn 0.1149 0.79767 -0.59204
vn -0.12018 0.89594 -0.4276
vn 0.27621 0.90887 -0.3125
vn 0.13081 0.98628 0.1007
vn 0.33867 0.93259 -0.12481
vn -0.05758 0.99834 -0.00028
vn 0.15821 -0.95204 -0.26191
vn 0.1913 -0.94084 -0.27968
vn 0.56082 -0.79433 -0.23348
vn 0.19127 -0.94085 -0.27966
vn -0.03357 -0.95029 -0.30956
vn 0.26352 -0.86762 -0.42165
vn -0.95342 0.1585 -0.25664
vn -0.77689 0.60101 0.18768
vn -0.80422 0.55419 -0.21472
vn -0.80421 0.5542 -0.21475
vn -0.77688 0.60103 0.18766
vn -0.71008 0.67039 0.2153
vn -0.61489 0.74787 -0.25018
vn -0.41581 0.90006 -0.13039
vn -0.31808 0.76314 -0.56253
vn -0.3181 0.76313 -0.56254
vn -0.41578 0.90007 -0.13041
vn -0.1203 0.89593 -0.4276
vn 0.75532 0.58736 -0.29068
vn 0.89049 0.27632 -0.36148
vn 0.84261 0.30062 -0.44681
vn 0.68239 0.10951 -0.72274
vn 0.38982 -0.14424 -0.90952
vn 0.47323 0.19728 -0.85856
vn 0.31212 -0.37987 -0.87079
vn 0.14481 -0.02741 -0.98908
vn 0.38979 -0.14427 -0.90953
vn -0.36708 -0.36564 -0.85531
vn -0.15508 -0.06918 -0.98548
vn 0.1448 -0.02737 -0.98908
vn 0.31214 -0.37992 -0.87076
vn 0.32534 -0.64346 -0.6929
vn 0.12196 -0.49243 -0.86176
vn -0.36709 -0.36562 -0.85531
vn 0.12189 -0.49238 -0.8618
vn -0.17344 -0.59902 -0.78173
vn -0.29804 -0.71568 -0.63165
vn -0.57104 -0.51984 -0.63536
vn -0.9534 0.15858 -0.25668
vn -0.86318 0.44768 -0.23346
vn -0.82324 0.01347 -0.56754
vn -0.65136 0.02902 -0.75821
vn -0.71977 -0.3515 -0.59865
vn -0.77027 0.02827 -0.63709
vn -0.77027 0.02839 -0.63709
vn -0.48174 0.47055 -0.73926
vn -0.65137 0.02912 -0.7582
vn -0.48169 0.47064 -0.73924
vn -0.15103 0.67805 -0.71933
vn -0.2328 0.48709 -0.84175
vn 0.09545 0.62855 -0.77189
vn 0.08348 0.47015 -0.87863
vn -0.15095 0.67802 -0.71938
vn 0.39875 0.59893 -0.69446
vn 0.47319 0.19732 -0.85858
vn 0.2801 0.28887 -0.91548
vn 0.65746 0.70758 -0.25898
vn 0.27631 0.90886 -0.31244
vn 0.33875 0.93256 -0.12483
vn -0.12025 0.89594 -0.42759
vn 0.11487 0.79769 -0.59202
vn -0.31809 0.76315 -0.56252
vn -0.75478 0.58821 -0.29036
vn -0.86316 0.44773 -0.23342
vn -0.80419 0.5542 -0.2148
vn -0.75477 0.58823 -0.29035
vn -0.56558 0.55565 -0.6094
vn -0.86315 0.44773 -0.23347
vn -0.31808 0.76314 -0.56252
vn 0.11488 0.79764 -0.59209
vn -0.15099 0.67805 -0.71934
vn -0.71977 -0.35151 -0.59864
vn -0.36718 -0.36568 -0.85525
vn -0.68049 -0.43972 -0.58615
vn 0.08352 0.47015 -0.87863
vn 0.09548 0.6285 -0.77193
vn 0.21306 0.49431 -0.84277
vn 0.08344 0.4701 -0.87866
vn -0.05796 0.21239 -0.97546
vn -0.23273 0.48705 -0.84179
vn 0.28006 0.28884 -0.9155
vn 0.14482 -0.02727 -0.98908
vn -0.05789 0.21237 -0.97547
vn 0.28009 0.28885 -0.91549
vn 0.21305 0.49432 -0.84277
vn 0.39875 0.5989 -0.69449
vn 0.09542 0.62856 -0.77188
vn -0.15094 0.67804 -0.71936
vn 0.11487 0.79762 -0.59212
vn -0.90862 -0.32727 -0.25942
vn -0.9672 -0.05304 -0.24843
vn -0.72651 -0.41016 -0.55132
vn -0.72651 -0.41015 -0.55132
vn -0.73004 -0.63923 -0.24172
vn -0.8167 -0.54057 -0.20195
vn -0.60066 -0.53734 -0.59201
vn -0.30801 -0.80597 -0.50551
vn -0.56102 -0.77551 -0.28955
vn 0.26351 -0.8676 -0.42171
vn -0.30797 -0.80598 -0.50552
vn -0.12421 -0.78224 -0.61047
vn 0.19133 -0.94083 -0.27969
vn 0.46454 -0.68448 -0.56187
vn 0.60648 -0.78299 0.13819
vn 0.15209 -0.97313 -0.1729
vn 0.45357 -0.88128 -0.13276
vn 0.15213 -0.97312 -0.17292
vn 0.6065 -0.78298 0.13819
vn 0.41307 -0.82653 0.3824
vn 0.41306 -0.82652 0.38242
vn 0.03856 -0.98975 0.13753
vn 0.15211 -0.97312 -0.17291
vn 0.03846 -0.98974 0.13759
vn -0.15674 -0.91183 0.37946
vn -0.36143 -0.92939 0.07481
vn -0.90367 -0.3832 -0.19118
vn -0.90863 -0.32725 -0.25942
vn -0.81671 -0.54054 -0.20198
vn -0.73003 -0.63927 -0.24163
vn -0.56102 -0.77554 -0.28947
vn -0.45591 -0.88828 -0.05569
vn -0.45594 -0.88826 -0.05569
vn -0.76171 -0.64333 0.07691
vn -0.73006 -0.63924 -0.24163
vn -0.45586 -0.8883 -0.05573
vn 0.15807 -0.95206 -0.2619
vn 0.0385 -0.98975 0.13755
vn 0.03846 -0.98975 0.1375
vn -0.36147 -0.92938 0.07475
vn -0.45585 -0.88831 -0.05572
vn 0.15807 -0.95205 -0.26194
vn -0.45583 -0.88832 -0.05573
vn -0.30801 -0.806 -0.50546
vn -0.308 -0.80601 -0.50546
vn -0.45585 -0.88831 -0.05571
vn -0.561 -0.77555 -0.2895
vn -0.99705 -0.01219 0.07575
vn -0.95731 0.22774 0.17802
vn -0.97004 0.22988 0.07863
vn -0.97002 0.22995 0.07863
vn -0.9573 0.22778 0.17803
vn -0.7769 0.601 0.18768
vn -0.05765 0.99834 -0.00032
vn 0.27625 0.90889 -0.31243
vn -0.16797 0.98579 0.0035
vn -0.05761 0.99834 -0.00032
vn 0.33864 0.9326 -0.12482
vn 0.27619 0.90889 -0.31245
vn 0.72516 0.65497 0.2125
vn 0.75559 0.65492 -0.01229
vn 0.5551 0.83111 0.03328
vn 0.55926 0.79383 0.23888
vn 0.86324 0.50467 -0.01141
vn 0.72517 0.65493 0.21258
vn 0.72513 0.65499 0.21255
vn 0.86324 0.50466 -0.01141
vn 0.75559 0.65493 -0.01226
vn 0.75557 0.65495 -0.01236
vn 0.86323 0.50468 -0.01152
vn 0.75527 0.58745 -0.29064
vn 0.75527 0.58743 -0.29066
vn 0.65748 0.70757 -0.25897
vn 0.75559 0.65493 -0.01235
vn 0.84262 0.30053 -0.44685
vn 0.78788 -0.4086 -0.46075
vn 0.68243 0.10951 -0.7227
vn 0.57894 -0.50185 -0.64263
vn 0.46457 -0.68441 -0.56192
vn 0.31219 -0.37995 -0.87074
vn -0.6007 -0.53732 -0.59199
vn -0.72652 -0.41015 -0.55132
vn -0.68049 -0.43971 -0.58616
vn -0.72652 -0.41015 -0.55132
vn -0.56104 -0.7755 -0.28954
vn -0.73003 -0.63924 -0.24171
vn 0.26352 -0.86759 -0.42172
vn -0.12421 -0.78224 -0.61046
vn -0.29808 -0.71569 -0.63161
vn 0.78786 -0.40866 -0.46074
vn 0.96327 -0.24076 -0.11891
vn 0.81381 -0.44406 -0.37486
vn 0.96327 -0.24073 -0.11895
vn 0.78787 -0.40868 -0.46069
vn 0.89052 0.27622 -0.36149
vn 0.97811 0.20535 0.03367
vn 0.86325 0.50464 -0.01143
vn 0.88735 0.27345 0.37126
vn 0.88735 0.27339 0.3713
vn 0.88341 -0.44571 0.14464
vn 0.97811 0.20534 0.03361
vn 0.413 -0.82651 0.38251
vn 0.11259 -0.83445 0.53945
vn 0.03848 -0.98974 0.1376
vn 0.03848 -0.98974 0.1376
vn 0.11258 -0.83445 0.53946
vn -0.15672 -0.91181 0.37953
vn -0.75705 0.60152 0.25505
vn -0.77689 0.60101 0.1877
vn -0.95729 0.22777 0.17808
vn -0.16797 0.98579 0.00358
vn -0.36168 0.89359 0.26588
vn -0.0158 0.8738 0.48604
vn 0.55501 0.83118 0.03328
vn 0.33869 0.93258 -0.12481
vn 0.13089 0.98627 0.10075
vn 0.55925 0.79384 0.23887
vn 0.72513 0.65499 0.21256
vn 0.55508 0.83113 0.03333
vn 0.55927 0.79383 0.23887
vn 0.89173 0.27438 0.3599
vn 0.88735 0.27348 0.37125
vn 0.82115 -0.31008 0.47912
vn 0.68621 -0.6872 0.23849
vn 0.83789 -0.51216 0.18877
vn 0.82114 -0.31011 0.47913
vn 0.60655 -0.78293 0.13825
vn 0.6862 -0.68721 0.23847
vn 0.41302 -0.8265 0.38251
vn 0.25693 -0.76966 0.58447
vn 0.11263 -0.83444 0.53947
vn -0.15669 -0.91182 0.37953
vn 0.11262 -0.83444 0.53947
vn -0.0575 -0.89131 0.44974
vn -0.15676 -0.91182 0.3795
vn -0.05758 -0.89133 0.44969
vn -0.36151 -0.92936 0.07483
vn -0.76179 -0.64324 0.07692
vn -0.83761 -0.5138 0.18551
vn -0.91262 -0.40241 0.07196
vn -0.75706 0.60152 0.25504
vn -0.69711 0.65918 0.282
vn -0.7101 0.67037 0.2153
vn -0.71009 0.67039 0.21528
vn -0.77689 0.60101 0.18768
vn -0.75706 0.60151 0.25505
vn -0.7101 0.67038 0.21529
vn -0.69711 0.65918 0.28199
vn -0.63022 0.70617 0.32272
vn -0.63703 0.72373 0.26535
vn -0.63021 0.70616 0.32275
vn -0.52202 0.7595 0.38814
vn 0.29518 0.81159 0.50416
vn -0.08924 0.72354 0.68448
vn -0.19863 0.74339 0.63868
vn 0.72312 0.35406 0.59307
vn 0.89172 0.2744 0.35991
vn 0.55927 0.79383 0.23886
vn 0.11262 -0.83444 0.53947
vn 0.03641 -0.83458 0.54968
vn -0.05749 -0.8913 0.44975
vn 0.11262 -0.83444 0.53946
vn 0.17657 -0.76878 0.61466
vn 0.03644 -0.83457 0.54969
vn -0.0576 -0.8913 0.44973
vn -0.40732 -0.84425 0.34832
vn -0.42119 -0.86372 0.27673
vn -0.97146 -0.22481 0.07568
vn -0.94897 0.21552 0.23024
vn -0.95733 0.22768 0.17801
vn -0.52194 0.75952 0.38821
vn -0.19872 0.74337 0.63868
vn -0.08933 0.72358 0.68444
vn 0.51335 0.68654 0.51492
vn 0.2677 0.55351 0.78864
vn 0.4753 0.55882 0.67957
vn 0.90203 -0.02784 0.43078
vn 0.7231 0.35401 0.59312
vn 0.67615 0.22366 0.70199
vn 0.67737 0.14319 0.72157
vn 0.82119 -0.30998 0.47912
vn 0.90202 -0.02784 0.43079
vn 0.17657 -0.76877 0.61466
vn 0.25697 -0.76963 0.5845
vn 0.46611 -0.67104 0.57658
vn 0.17656 -0.76877 0.61466
vn 0.11262 -0.83445 0.53946
vn 0.25692 -0.76966 0.58447
vn 0.63644 -0.0981 0.76507
vn 0.46617 -0.67101 0.57657
vn 0.82116 -0.31009 0.47911
vn 0.82115 -0.31011 0.47912
vn 0.80675 -0.29191 0.51375
vn 0.63648 -0.09808 0.76503
vn 0.17659 -0.76877 0.61466
vn 0.07134 -0.69105 0.71928
vn 0.03642 -0.83457 0.5497
vn 0.03639 -0.83457 0.5497
vn 0.07132 -0.69101 0.71931
vn -0.12264 -0.75299 0.6465
vn -0.83764 -0.51374 0.18556
vn -0.7069 -0.35534 0.61158
vn -0.94895 0.21555 0.23028
vn -0.94896 0.21555 0.23025
vn -0.97146 -0.2248 0.0757
vn -0.83762 -0.51378 0.18553
vn -0.69712 0.65917 0.282
vn -0.66452 0.66536 0.34017
vn -0.63022 0.70617 0.32273
vn 0.67611 0.22372 0.70202
vn 0.32603 0.48496 0.81149
vn 0.34902 0.38516 0.85431
vn 0.37701 -0.16577 0.91125
vn 0.2731 -0.13017 0.95314
vn 0.21244 -0.65533 0.72485
vn 0.07136 -0.69103 0.71929
vn 0.17656 -0.76878 0.61466
vn 0.21239 -0.65542 0.72479
vn -0.62392 -0.64093 0.44715
vn -0.12275 -0.75296 0.64652
vn -0.70689 -0.35536 0.61158
vn -0.70692 -0.35537 0.61154
vn -0.83762 -0.51379 0.18554
vn -0.62393 -0.64094 0.44712
vn -0.70691 -0.35533 0.61158
vn -0.84899 0.24762 0.4668
vn -0.94897 0.21549 0.23024
vn -0.84901 0.2476 0.46676
vn -0.66451 0.66537 0.34017
vn -0.69713 0.65916 0.282
vn -0.63022 0.70617 0.32271
vn -0.20504 0.72459 0.65798
vn -0.19871 0.74334 0.63871
vn 0.32603 0.48495 0.8115
vn 0.26771 0.5535 0.78865
vn 0.29794 0.50788 0.80826
vn 0.29796 0.50787 0.80826
vn 0.34902 0.38515 0.85431
vn 0.32603 0.48495 0.81149
vn -0.02382 -0.10486 0.9942
vn -0.35657 -0.33904 0.87058
vn 0.07132 -0.69096 0.71936
vn -0.35659 -0.33907 0.87056
vn -0.12266 -0.75294 0.64655
vn 0.07129 -0.69099 0.71934
vn -0.35655 -0.3391 0.87057
vn -0.7069 -0.35537 0.61155
vn -0.12274 -0.75294 0.64654
vn -0.66453 0.66535 0.34016
vn -0.20499 0.72463 0.65794
vn -0.6302 0.70618 0.32273
vn -0.205 0.72459 0.65798
vn 0.26769 0.55353 0.78863
vn -0.19868 0.74338 0.63868
vn 0.24611 0.39538 0.88493
vn 0.27308 -0.13016 0.95315
vn 0.34902 0.38517 0.8543
vn 0.24611 0.39533 0.88495
vn -0.02383 -0.10486 0.9942
vn 0.27312 -0.13017 0.95313
vn 0.29794 0.50789 0.80826
vn -0.21313 0.68465 0.69701
vn 0.24614 0.3954 0.88491
vn -0.21314 0.68467 0.697
vn -0.08797 0.58871 0.80354
vn 0.24612 0.39543 0.88491
vn -0.38001 0.43141 0.81822
vn -0.66452 0.66536 0.34017
vn -0.849 0.24763 0.46677
vn 0.32603 0.48496 0.81149
vn 0.6761 0.22371 0.70203
vn 0.72312 0.35403 0.59309
vn 0.82119 -0.30999 0.47913
vn 0.67736 0.14319 0.72158
vn 0.8068 -0.29184 0.51371
vn 0.55928 0.79382 0.23887
vn 0.51343 0.68655 0.51482
vn 0.72313 0.35405 0.59307
vn -0.08931 0.72356 0.68446
vn -0.01584 0.87379 0.48605
vn -0.36173 0.89354 0.26597
vn -0.522 0.75952 0.38813
vn -0.36179 0.89352 0.26594
vn -0.50907 0.8351 0.20845
vn -0.36172 0.89357 0.26589
vn -0.16804 0.98577 0.00358
vn -0.50901 0.83514 0.20845
vn 0.55923 0.79386 0.23884
vn 0.55502 0.83117 0.03327
vn 0.29515 0.81166 0.50408
vn -0.50907 0.8351 0.20845
vn -0.67055 0.713 0.20494
vn 0.47537 0.55882 0.67952
vn 0.72309 0.35408 0.5931
vn 0.51343 0.68651 0.51487
vn -0.91265 -0.40235 0.07198
vn -0.90368 -0.38321 -0.1911
vn -0.81673 -0.54055 -0.20188
vn -0.81673 -0.54056 -0.20184
vn -0.76176 -0.64328 0.07692
vn -0.91264 -0.40238 0.07196
vn 0.7553 0.58738 -0.29068
vn 0.97811 0.20535 0.03363
vn 0.8905 0.27631 -0.36148
vn 0.78786 -0.40866 -0.46073
vn 0.81381 -0.44407 -0.37485
vn 0.46454 -0.68447 -0.56188
vn 0.78784 -0.4087 -0.46073
vn 0.46457 -0.68445 -0.56187
vn 0.57894 -0.50191 -0.64258
vn 0.26354 -0.8676 -0.42169
vn -0.29804 -0.71571 -0.63161
vn -0.17347 -0.59907 -0.78168
vn -0.12427 -0.78225 -0.61045
vn -0.6006 -0.53739 -0.59203
vn -0.29811 -0.71569 -0.63159
vn 0.57894 -0.50186 -0.64263
vn 0.3122 -0.37993 -0.87074
vn 0.38983 -0.14429 -0.90951
vn -0.97002 0.22995 0.07862
vn -0.77689 0.60101 0.18768
vn -0.95343 0.15857 -0.25658
vn -0.97004 0.22985 0.07863
vn -0.90864 -0.32725 -0.25937
vn -0.99705 -0.01226 0.07573
vn -0.92628 -0.15611 -0.34297
vn 0.64112 -0.61493 0.45916
vn -0.90652 -0.13587 -0.3997
vn 0.88343 -0.44568 0.14465
vn 0.84015 -0.53945 0.05608
vn 0.88385 -0.46362 0.06221
vn -0.66452 0.66536 0.34016
vn -0.38 0.43139 0.81823
vn -0.21312 0.68469 0.69698
vn 0.58907 -0.75362 -0.29165
vn 0.96328 -0.24077 -0.11886
vn 0.88386 -0.46361 0.06213
vn 0.56085 -0.79433 -0.23343
vn 0.88342 -0.44572 0.14461
vn 0.83791 -0.51214 0.18871
vn 0.80677 -0.29183 0.51377
vn 0.67737 0.14316 0.72158
vn 0.63648 -0.09814 0.76503
vt 0.48934 0.89402
vt 0.37114 0.81218
vt 0.45015 0.94357
vt 0.61188 0.86796
vt 0.5883 0.84628
vt 0.62924 0.90776
vt 0.88378 0.95318
vt 0.90754 1
vt 0.91108 0.94608
vt 0.9195 0.92531
vt 0.86151 0.91325
vt 0.87679 0.85843
vt 0.78166 0.44379
vt 0.84314 0.4469
vt 0.84985 0.39686
vt 0.7976 0.41694
vt 0.5928 0.63756
vt 0.58399 0.65771
vt 0.57757 0.68591
vt 0.58658 0.72564
vt 0.52705 0.74264
vt 0.46382 0.61925
vt 0.46932 0.78553
vt 0.57037 0.69406
vt 0.5741 0.70912
vt 0.30119 0.691
vt 0.31724 0.73601
vt 0.31362 0.70435
vt 0.29169 0.80892
vt 0.3139 0.77216
vt 0.18093 0.72265
vt 0.24903 0.87243
vt 0.17536 0.89879
vt 0.14178 0.98687
vt 0.15294 0.98534
vt 0.77985 0.24146
vt 0.7739 0.34433
vt 0.83087 0.28132
vt 0.72295 0.27934
vt 0.67638 0.39929
vt 0.6894 0.45928
vt 0.72186 0.45956
vt 0.70008 0.47571
vt 0.71247 0.48357
vt 0.74367 0.52408
vt 0.75418 0.51995
vt 0.79943 0.58701
vt 0.82733 0.61876
vt 0.79769 0.54858
vt 0.95558 0.94628
vt 0.98782 0.99402
vt 0.32743 0.59207
vt 0.34151 0.54155
vt 0.33351 0.50605
vt 0.5759 0.66253
vt 0.56819 0.62296
vt 0.46829 0.55962
vt 0.37373 0.48037
vt 0.41093 0.46143
vt 0.47469 0.48248
vt 0.87969 0.82059
vt 0.91743 0.82042
vt 0.31724 0.93099
vt 0.23069 0.95857
vt 0.2541 0.98463
vt 0.80464 0.48245
vt 0.30595 0.91161
vt 0.26752 0.85566
vt 0.96704 0.69322
vt 0.96991 0.70557
vt 0.50016 0.51658
vt 0.41252 0.57869
vt 0.83305 0.50523
vt 0.81836 0.5283
vt 0.76472 0.53339
vt 0.85508 0.5
vt 0.85657 0.46572
vt 0.81779 0.8036
vt 0.83301 0.81945
vt 0.85174 0.81186
vt 0.77361 0.62623
vt 0.79053 0.85315
vt 0.5759 0.37776
vt 0.65005 0.40637
vt 0.61386 0.34216
vt 0.20092 0.43425
vt 0.20092 0.38011
vt 0.19035 0.38329
vt 0.90446 0.45272
vt 1 0.49148
vt 1 0.41944
vt 0.94233 0.32515
vt 0.86056 0.37752
vt 0.49602 0.77258
vt 0.541 0.83607
vt 0.72373 0.97876
vt 0.75227 0.90321
vt 0.733 0.93233
vt 0.6751 0.91521
vt 0.16629 0.76
vt 0.6408 0.59949
vt 0.67892 0.59133
vt 0.68899 0.5355
vt 0.79967 0.62237
vt 0.86151 0.6447
vt 0.33351 0.65776
vt 0.38306 0.77235
vt 0.31798 0.67399
vt 0.31724 0.64161
vt 0.62325 0.33771
vt 0.3444 0.86374
vt 0.5759 0.84162
vt 0.56946 0.7667
vt 0.12114 0.74271
vt 0.10018 0.83404
vt 0.15416 0.89753
vt 0 0.78762
vt 0.09319 0.90378
vt 0.06764 0.90132
vt 0.81579 0.12388
vt 0.77441 0.12708
vt 0.8442 0.23725
vt 0.7672 0.1693
vt 0.62599 0.29246
vt 0.87929 0.28958
vt 0.54101 0.33508
vt 0.47254 0.29364
vt 0.46959 0.43901
vt 0.43471 0.39749
vt 0.33579 0.26307
vt 0.31724 0.23822
vt 0.31899 0.37743
vt 0.525 0.97746
vt 0.50973 0.86098
vt 0.06204 0.6077
vt 0.0042 0.75862
vt 0.00568 0.78851
vt 0.02584 0.68197
vt 0.13313 0.43322
vt 0.18123 0.41976
vt 0.18249 0.3905
vt 0.99987 0.34216
vt 0.45842 0.31056
vt 0.36129 0.21355
vt 0.31806 0.18304
vt 0.49301 0.97238
vt 0.11425 0.43425
vt 0.19035 0.25709
vt 0.90522 0.24274
vt 0.94394 0.28224
vt 0.01054 0.28499
vt 0.0027 0.19453
vt 0 0.23069
vt 0.0753 0.12306
vt 0.01048 0.17233
vt 0.4545 0.17847
vt 0.49096 0.25188
vt 0.51042 0.23615
vt 0.41004 0.21316
vt 0.52584 0.24472
vt 0.41479 0.1686
vt 0.34151 0.1312
vt 0.3233 0.13214
vt 0.56848 0.46143
vt 0.56848 0.41026
vt 0.55655 0.43336
vt 0.20131 0.57005
vt 0.12207 0.48016
vt 0.16473 0.57055
vt 0.01968 0.62552
vt 0.12953 0.28932
vt 0.04817 0.37979
vt 0.06638 0.27103
vt 0.02418 0.36581
vt 0.11755 0.12338
vt 0.13622 0.08296
vt 0.07486 0.43425
vt 0.11722 0.58752
vt 0.37268 0.13708
vt 0.40363 0.12665
vt 0.20092 0.41843
vt 0.21164 0.40218
vt 0.20191 0.39934
vt 0.21164 0.43425
vt 0.19035 0.17175
vt 0.14391 0.17218
vt 0.36868 0.09763
vt 0.22277 0.42083
vt 0.21164 0.43311
vt 0.22277 0.43425
vt 0.17668 0.06247
vt 0.16823 0.08406
vt 0.18845 0.0689
vt 0.18693 0.08369
vt 0.18945 0.12434
vt 0.03777 0.45299
vt 0.03162 0.49296
vt 0.04314 0.43888
vt 0.02617 0.54005
vt 0.05812 0.506
vt 0.55655 0.41286
vt 0.54101 0.42362
vt 0.55655 0.46143
vt 0.40802 0.77879
vt 0.77091 0.54372
vt 0.61815 0.44318
vt 0.57726 0.66461
vt 0.22308 0.43425
vt 0.22277 0.43243
vt 0.22308 0.43192
vt 0.85368 0.3533
vt 0.93708 0.51005
vt 0.99394 0.53339
vt 0.57861 0.64654
vt 0.57718 0.73375
vt 0.5759 0.82528
vt 0.22324 0.43425
vt 0.22308 0.43305
vt 0.22324 0.43214
vt 0.9026 0.86032
vt 0.86056 0.35995
vt 0.07801 0.94972
vt 0.22675 0.67844
vt 0.70387 0.53339
vt 0.99897 0.96615
vt 0.99897 0.67764
vt 0.29225 0.97384
vt 0.17526 1
vt 0.89527 0.72323
vt 0.93457 0.70436
vt 0.84923 0.77939
vt 0.64834 0.96964
vt 0.35996 0.41201
vt 0.33012 0.3689
vt 0.82212 0.95099
vt 0.75837 1
vt 0.86151 0.91258
vt 0.26564 0.63709
vt 0.77108 0.23585
vt 0.86 0.73048
vt 0.58314 0.39329
vt 0.41028 0.31595
vt 0.6371 0.21075
vt 0.52395 0.45518
vt 0.54101 0.46143
vt 0.64897 0.12388
vt 0.56894 0.94005
vt 0.53782 0.27623
vt 0.55274 1
vt 0.333 0.10753
vt 0.53337 0.99429
vt 0.56425 0.99105
vt 0.35122 0.10194
vt 0.88773 0.24578
vt 0.75683 0.12833
vt 0.22339 0.43425
vt 0.22324 0.43341
vt 0.22339 0.4324
vt 0.92646 0.49246
vt 0.88754 0.21109
usemtl mat0
f 1/1/1 2/2/2 3/3/3
f 4/4/4 5/5/5 6/6/6
f 7/7/7 8/8/8 9/9/9
f 10/7/10 11/9/11 12/10/12
f 13/10/13 14/11/14 15/7/15
f 16/12/16 17/11/17 18/10/18
f 19/13/19 20/14/20 21/15/21
f 22/16/22 23/13/23 24/15/24
f 25/17/25 26/18/26 27/19/27
f 28/20/28 29/17/29 30/19/30
f 31/21/31 32/22/32 33/23/33
f 34/24/34 35/21/35 36/25/36
f 37/26/37 38/27/38 39/28/39
f 40/27/40 41/29/41 42/30/42
f 43/31/43 44/32/44 45/29/45
f 46/33/46 47/34/47 48/35/48
f 49/36/49 50/37/50 51/38/51
f 52/37/52 53/36/53 54/39/54
f 55/40/55 56/41/56 57/42/57
f 58/43/58 59/42/59 60/41/60
f 61/44/61 62/42/62 63/43/63
f 64/45/64 65/46/65 66/44/66
f 67/47/67 68/48/68 69/49/69
f 70/50/70 71/8/71 72/51/72
f 73/52/73 74/53/74 75/54/75
f 76/24/76 77/55/77 78/22/78
f 79/56/79 80/22/80 81/55/81
f 82/57/82 83/22/83 84/56/84
f 85/54/85 86/53/86 87/58/87
f 88/9/88 89/50/89 90/10/90
f 91/59/91 92/58/92 93/57/93
f 94/57/94 95/60/95 96/59/96
f 97/61/97 98/12/98 99/62/99
f 100/63/100 101/64/101 102/65/102
f 103/14/103 104/13/104 105/66/105
f 106/42/106 107/44/107 108/13/108
f 109/42/109 110/16/110 111/40/111
f 112/16/112 113/37/113 114/40/114
f 115/67/115 116/68/116 117/32/117
f 118/32/118 119/64/119 120/67/120
f 121/68/121 122/29/122 123/32/123
f 124/61/124 125/62/125 126/69/126
f 127/67/127 128/64/128 129/63/129
f 130/69/130 131/62/131 132/70/132
f 133/71/133 134/57/134 135/56/135
f 136/72/136 137/22/137 138/57/138
f 139/13/139 140/16/140 141/42/141
f 142/73/142 143/66/143 144/46/144
f 145/46/145 146/74/146 147/73/147
f 148/75/148 149/46/149 150/45/150
f 151/73/151 152/76/152 153/77/153
f 154/78/154 155/79/155 156/80/156
f 157/81/157 158/82/158 159/78/159
f 160/83/160 161/84/161 162/85/162
f 163/86/163 164/87/164 165/88/165
f 166/89/166 167/90/167 168/91/168
f 169/89/169 170/91/170 171/92/171
f 172/92/172 173/93/173 174/89/174
f 175/94/175 176/95/176 177/21/177
f 178/96/178 179/97/179 180/98/180
f 181/98/181 182/97/182 183/99/183
f 184/97/184 185/80/185 186/82/186
f 187/82/187 188/80/188 189/79/189
f 190/32/190 191/31/191 192/100/192
f 193/33/193 194/32/194 195/100/195
f 196/101/196 197/102/197 198/103/198
f 199/104/199 200/81/200 201/78/201
f 202/78/202 203/105/203 204/104/204
f 205/106/205 206/72/206 207/52/207
f 208/106/208 209/107/209 210/22/210
f 211/108/211 212/106/212 213/109/213
f 214/85/214 215/40/215 216/110/216
f 217/111/217 218/3/218 219/2/219
f 220/95/220 221/112/221 222/113/222
f 223/31/223 224/114/224 225/100/225
f 226/33/226 227/100/227 228/115/228
f 229/115/229 230/116/230 231/33/231
f 232/116/232 233/117/233 234/118/234
f 235/119/235 236/118/236 237/117/237
f 238/120/238 239/121/239 240/36/240
f 241/36/241 242/122/242 243/120/243
f 244/123/244 245/124/245 246/110/246
f 247/125/247 248/93/248 249/92/249
f 250/126/250 251/127/251 252/128/252
f 253/129/253 254/128/254 255/127/255
f 256/130/256 257/131/257 258/132/258
f 259/133/259 260/95/260 261/134/261
f 262/31/262 263/135/263 264/114/264
f 265/136/265 266/137/266 267/138/267
f 268/139/268 269/140/269 270/141/270
f 271/142/271 272/92/272 273/91/273
f 274/127/274 275/143/275 276/129/276
f 277/130/277 278/144/278 279/145/279
f 280/146/280 281/133/281 282/1/282
f 283/1/283 284/3/284 285/146/285
f 286/147/286 287/139/287 288/148/288
f 289/149/289 290/92/290 291/150/291
f 292/151/292 293/152/293 294/153/294
f 295/152/295 296/154/296 297/155/297
f 298/156/298 299/157/299 300/158/300
f 301/159/301 302/127/302 303/157/303
f 304/160/304 305/157/305 306/127/306
f 307/157/307 308/156/308 309/161/309
f 310/161/310 311/159/311 312/157/312
f 313/162/313 314/145/314 315/144/315
f 316/162/316 317/163/317 318/145/318
f 319/164/319 320/165/320 321/166/321
f 322/167/322 323/168/323 324/169/324
f 325/138/325 326/135/326 327/170/327
f 328/147/328 329/148/329 330/171/330
f 331/172/331 332/171/332 333/173/333
f 334/173/334 335/174/335 336/172/336
f 337/151/337 338/175/338 339/152/339
f 340/154/340 341/152/341 342/175/342
f 343/175/343 344/176/344 345/154/345
f 346/168/346 347/177/347 348/169/348
f 349/169/349 350/177/350 351/178/351
f 352/179/352 353/161/353 354/180/354
f 355/181/355 356/182/356 357/183/357
f 358/181/358 359/184/359 360/182/360
f 361/185/361 362/186/362 363/171/363
f 364/187/364 365/179/365 366/180/366
f 367/188/367 368/189/368 369/190/369
f 370/191/370 371/192/371 372/193/372
f 373/192/373 374/194/374 375/193/375
f 376/192/376 377/175/377 378/186/378
f 362/186/362 379/185/379 380/195/380
f 381/196/381 382/197/382 383/198/383
f 384/197/384 385/199/385 386/200/386
f 387/138/387 388/115/388 389/114/389
f 390/201/390 391/202/391 392/203/392
f 393/95/393 394/94/394 395/134/395
f 396/204/396 397/1/397 398/23/398
f 399/20/399 400/81/400 401/17/401
f 402/104/402 403/47/403 404/81/404
f 405/104/405 406/105/406 407/48/407
f 408/102/408 409/205/409 410/103/410
f 411/84/411 412/206/412 413/41/413
f 414/34/414 415/33/415 416/116/416
f 417/4/417 418/6/418 419/99/419
f 420/99/420 421/20/421 422/4/422
f 423/20/423 424/99/424 425/97/425
f 426/207/426 427/19/427 428/18/428
f 429/208/429 430/209/430 431/210/431
f 432/211/432 433/16/433 434/15/434
f 435/212/435 436/213/436 437/89/437
f 438/17/438 439/214/439 440/18/440
f 441/20/441 442/19/442 443/215/443
f 444/4/444 445/216/445 446/5/446
f 447/20/447 448/216/448 449/4/449
f 450/158/450 451/157/451 452/160/452
f 453/217/453 454/218/454 455/219/455
f 456/72/456 457/58/457 458/53/458
f 459/21/459 460/95/460 461/113/461
f 462/10/462 463/220/463 464/12/464
f 465/37/465 466/16/466 467/211/467
f 468/15/468 469/221/469 470/211/470
f 471/119/471 472/222/472 473/118/473
f 474/97/474 475/82/475 476/20/476
f 477/82/477 478/79/478 479/78/479
f 480/27/480 481/223/481 482/29/482
f 483/29/483 484/223/484 485/31/485
f 486/32/486 487/33/487 488/64/488
f 489/64/489 490/33/490 491/35/491
f 492/40/492 493/84/493 494/41/494
f 495/103/495 496/205/496 497/224/497
f 498/47/498 499/49/499 500/205/500
f 501/50/501 502/9/502 503/8/503
f 504/47/504 505/104/505 506/48/506
f 507/50/507 508/51/508 509/225/509
f 510/52/510 206/72/206 511/53/511
f 512/226/512 513/69/513 514/70/514
f 515/60/515 516/57/516 517/71/517
f 518/62/518 519/12/519 520/220/520
f 521/63/521 522/65/522 523/227/523
f 524/14/524 525/73/525 526/77/526
f 527/13/527 528/44/528 529/46/529
f 530/37/530 531/211/531 532/38/532
f 533/35/533 534/228/534 535/64/535
f 536/229/536 537/69/537 538/230/538
f 539/229/539 540/61/540 541/69/541
f 542/64/542 543/228/543 544/65/544
f 545/57/545 546/58/546 547/72/547
f 548/73/548 549/14/549 550/66/550
f 551/73/551 552/74/552 553/76/553
f 554/46/554 555/75/555 556/74/556
f 557/46/557 558/66/558 559/13/559
f 560/14/560 561/77/561 562/15/562
f 563/21/563 564/24/564 565/22/565
f 566/22/566 567/204/567 568/23/568
f 569/106/569 570/108/570 571/107/571
f 572/78/572 573/80/573 574/231/574
f 476/20/476 575/82/575 576/81/576
f 577/6/577 578/98/578 579/99/579
f 580/98/580 581/6/581 582/232/582
f 583/232/583 584/96/584 585/98/585
f 586/233/586 587/234/587 588/132/588
f 589/94/589 590/21/590 591/23/591
f 592/204/592 593/107/593 594/2/594
f 595/2/595 596/1/596 597/204/597
f 598/235/598 599/97/599 600/96/600
f 601/96/601 602/236/602 603/235/603
f 604/97/604 605/235/605 606/80/606
f 607/80/607 608/235/608 609/237/609
f 610/238/610 611/167/611 612/26/612
f 613/26/613 614/167/614 615/223/615
f 616/118/616 617/34/617 618/116/618
f 619/118/619 620/222/620 621/34/621
f 622/239/622 623/39/623 624/36/624
f 625/123/625 626/110/626 627/239/627
f 628/239/628 629/110/629 630/39/630
f 631/39/631 632/110/632 633/40/633
f 634/40/634 635/37/635 636/39/636
f 637/41/637 638/206/638 639/43/639
f 640/102/640 641/81/641 642/47/642
f 643/106/643 644/22/644 645/72/645
f 646/22/646 647/107/647 648/204/648
f 649/78/649 650/231/650 651/240/651
f 652/206/652 653/83/653 654/241/654
f 655/83/655 656/206/656 657/84/657
f 658/85/658 659/110/659 660/124/660
f 661/90/661 662/89/662 663/213/663
f 664/129/664 665/242/665 666/233/666
f 667/233/667 668/242/668 669/234/669
f 670/169/670 671/223/671 672/167/672
f 673/116/673 674/137/674 675/117/675
f 676/36/676 677/38/677 678/122/678
f 679/123/679 680/239/680 681/36/681
f 682/123/682 683/243/683 684/124/684
f 685/126/685 686/244/686 687/245/687
f 688/126/688 689/128/689 690/244/690
f 691/129/691 692/143/692 693/242/693
f 694/234/694 695/242/695 696/130/696
f 697/234/697 698/130/698 699/132/699
f 700/1/700 701/133/701 702/134/702
f 703/169/703 704/178/704 705/31/705
f 706/31/706 707/223/707 708/169/708
f 709/31/709 710/178/710 711/135/711
f 712/114/712 713/135/713 714/138/714
f 715/139/715 716/141/716 717/148/717
f 718/246/718 719/243/719 720/123/720
f 721/242/721 722/144/722 723/130/723
f 724/242/724 725/159/725 726/144/726
f 727/130/727 728/145/728 729/131/729
f 730/95/730 731/247/731 732/112/732
f 733/138/733 734/170/734 735/136/735
f 736/147/736 737/171/737 738/172/738
f 739/92/739 740/142/740 741/150/741
f 742/149/742 743/125/743 744/92/744
f 745/159/745 746/143/746 747/127/747
f 748/159/748 749/242/749 750/143/750
f 751/160/751 752/127/752 753/126/753
f 754/126/754 755/248/755 756/160/756
f 757/159/757 758/179/758 759/144/759
f 760/144/760 761/179/761 762/162/762
f 763/133/763 764/249/764 765/247/765
f 766/247/766 767/95/767 768/133/768
f 769/178/769 770/200/770 771/135/771
f 772/151/772 773/173/773 774/175/774
f 775/156/775 776/180/776 777/161/777
f 778/179/778 779/159/779 780/161/780
f 781/163/781 782/162/782 783/250/783
f 784/249/784 785/133/785 786/251/786
f 787/249/787 788/252/788 789/247/789
f 790/177/790 791/200/791 792/178/792
f 793/135/793 794/199/794 795/170/795
f 796/173/796 797/171/797 798/186/798
f 799/186/799 800/175/800 801/173/801
f 802/187/802 803/253/803 804/179/804
f 805/253/805 806/162/806 807/179/807
f 808/253/808 809/250/809 810/162/810
f 811/200/811 812/199/812 813/135/813
f 814/185/814 815/171/815 816/148/816
f 817/192/817 818/176/818 819/175/819
f 820/192/820 821/191/821 822/176/822
f 823/186/823 824/195/824 825/192/825
f 826/195/826 827/194/827 828/192/828
f 829/198/829 830/200/830 831/177/831
f 832/173/832 833/151/833 834/174/834
f 835/125/835 836/149/836 837/254/837
f 838/123/838 839/255/839 840/246/840
f 841/136/841 842/117/842 843/137/843
f 844/138/844 845/137/845 846/115/846
f 847/137/847 848/116/848 849/115/849
f 850/123/850 851/36/851 852/121/852
f 853/115/853 854/100/854 264/114/264
f 855/172/855 856/174/856 857/147/857
f 858/134/858 859/94/859 860/23/860
f 861/23/861 862/1/862 863/134/863
f 864/40/864 865/85/865 866/84/866
f 867/101/867 868/17/868 869/81/869
f 870/101/870 871/81/871 872/102/872
f 873/78/873 874/240/874 875/105/875
f 876/109/876 877/106/877 878/52/878
f 879/102/879 880/47/880 881/205/881
f 882/26/882 883/223/883 884/27/884
f 885/25/885 886/21/886 887/113/887
f 888/256/888 889/257/889 890/258/890
f 891/89/891 892/259/892 893/212/893
f 894/200/894 895/198/895 896/197/896
f 897/18/897 898/214/898 899/207/899
f 900/20/900 901/215/901 902/216/902
f 903/254/903 904/149/904 905/260/905
# Vertices: 905, normals: 905, texture coordinates: 260, faces: 303

